<?xml version="1.0" encoding="UTF-8"?>
<svg width="43px" height="44px" viewBox="0 0 43 44" version="1.1" xmlns="http://www.w3.org/2000/svg" xmlns:xlink="http://www.w3.org/1999/xlink">
    <!-- Generator: Sketch 56.2 (81672) - https://sketch.com -->
    <title>icon</title>
    <desc>Created with Sketch.</desc>
    <defs>
        <rect id="path-1" x="1.70687445" y="2.20687445" width="39.1332679" height="40" rx="4"></rect>
    </defs>
    <g id="Desktop-Ar" stroke="none" stroke-width="1" fill="none" fill-rule="evenodd">
        <g id="Welcome" transform="translate(-1262.000000, -875.000000)">
            <g id="icon" transform="translate(1262.293126, 875.017000)">
                <mask id="mask-2" fill="white">
                    <use xlink:href="#path-1"></use>
                </mask>
                <g id="Rectangle" fill-rule="nonzero"></g>
                <path d="M15.442512,20.5655322 L15.0028019,20.1292981 L14.8956381,20.0659682 C14.8164069,20.0191455 14.7354571,19.9771387 14.6531594,19.9398943 L34.8433055,-0.00108965234 L35.532055,0.723909781 L15.442512,20.5655322 Z M11.9352743,24.0294879 L-1.18847753,36.9912824 L-1.87722699,36.266283 L11.3326996,23.2193771 C11.3951006,23.3620054 11.4715861,23.5004166 11.5623048,23.6326349 L11.6797677,23.7739812 L11.9352743,24.0294879 Z M17.3951207,22.5027053 L16.6853108,21.7985064 L36.5004043,2.22794649 L37.1891538,2.95294592 L17.3951207,22.5027053 Z M13.8801173,25.9743308 L0.468621298,39.2203186 L-0.220128164,38.4953191 L13.1731303,25.2673439 L13.8801173,25.9743308 Z M31.4650165,13.1516415 C30.6700174,13.1811691 29.9269752,13.5897352 29.4782734,14.2629835 L19.4362755,24.5277244 L18.9811508,24.0761975 L38.8233055,4.47891035 L39.512055,5.20390978 L31.4650165,13.1516415 Z M16.1668265,28.26104 L2.79152247,41.4712824 L2.10277301,40.746283 L15.4598395,27.5540531 L16.1668265,28.26104 Z M33.9981506,15.1052206 C33.9975505,15.1025334 33.9969459,15.0998464 33.9963367,15.0971598 C33.9160307,14.7430122 33.7620163,14.4189326 33.5515562,14.1410544 L40.9886185,6.79577127 L41.6773679,7.5207707 L33.9981506,15.1052206 Z M18.5764077,30.3366472 L4.95683546,43.7881434 L4.268086,43.0631439 L17.7019159,29.7950979 C17.959242,30.0376064 18.2566498,30.2201194 18.5764077,30.3366472 Z M9.54100908,42.6906738 L9.26230339,42.4076471 L9.54100908,42.6906738 L45.786891,6.29555985 L46.4885377,7.00808485 L3.81009598,49.8622429 L3.10844925,49.1497179 L9.54100908,42.6906738 Z M16.7249994,-4 L17.4137489,-3.27500057 L-3.31125054,16.4137489 L-4,15.6887495 L16.7249994,-4 Z M18.3820983,-1.77096386 L19.0708477,-1.04596443 L-1.65415171,18.642785 L-2.34290117,17.9177856 L18.3820983,-1.77096386 Z M20.7049994,0.48 L21.3937489,1.20499943 L0.668749462,20.8937489 L-0.02,20.1687495 L20.7049994,0.48 Z M22.8703124,2.79686092 L23.5590619,3.52186035 L2.83406245,23.2106098 L2.14531299,22.4856104 L22.8703124,2.79686092 Z M27.6685849,2.29664951 L28.3702316,3.0091745 L1.68732297,29.2847093 L0.985676246,28.5721843 L27.6685849,2.29664951 Z M43.1199326,13.8343731 L43.8086821,14.5593726 L7.08814961,50.8267452 L6.39940015,50.1017458 L43.1199326,13.8343731 Z M44.7770315,16.0634093 L45.4657809,16.7884087 L8.74524844,53.0557814 L8.05649898,52.3307819 L44.7770315,16.0634093 Z M47.0999326,18.3143731 L47.7886821,19.0393726 L11.0681496,55.3067452 L10.3794002,54.5817458 L47.0999326,18.3143731 Z M49.2652456,20.631234 L49.9539951,21.3562335 L13.2334626,57.6236061 L12.5447131,56.8986067 L49.2652456,20.631234 Z M54.0635181,20.1310226 L54.7651648,20.8435476 L12.0867231,63.6977056 L11.3850764,62.9851806 L54.0635181,20.1310226 Z M18.7320545,25.2475659 L19.4362755,24.5277244 L18.7320545,25.2475659 Z" id="Combined-Shape" fill="#ACB480" fill-rule="nonzero" mask="url(#mask-2)"></path>
                <path d="M36.3668744,43.2068744 L6.52687445,43.2068744 C3.02538913,43.2068744 0.186874448,40.3683598 0.186874448,36.8668744 L0.186874448,7.02687445 C0.186874448,3.52538913 3.02538913,0.686874448 6.52687445,0.686874448 L36.3668744,0.686874448 C39.8683598,0.686874448 42.7068744,3.52538913 42.7068744,7.02687445 L42.7068744,36.8668744 C42.7068744,40.3683598 39.8683598,43.2068744 36.3668744,43.2068744 L36.3668744,43.2068744 Z M6.52687445,3.52687445 C4.59387782,3.52687445 3.02687445,5.09387782 3.02687445,7.02687445 L3.02687445,36.8668744 C3.02687445,38.7998711 4.59387782,40.3668744 6.52687445,40.3668744 L36.3668744,40.3668744 C38.2998711,40.3668744 39.8668744,38.7998711 39.8668744,36.8668744 L39.8668744,7.02687445 C39.8668744,5.09387782 38.2998711,3.52687445 36.3668744,3.52687445 L6.52687445,3.52687445 Z" id="Shape" fill="#ACB480" fill-rule="nonzero"></path>
                <path d="M19.4468744,29.4871077 C19.8573933,29.4814165 20.2477333,29.3079321 20.5268744,29.0068744 L32.4068744,16.8868744 C32.9135947,16.5391994 33.1569945,15.9176158 33.0210955,15.3183039 C32.8851965,14.7189919 32.3974912,14.2631925 31.7903676,14.1680909 C31.183244,14.0729892 30.5795234,14.3578244 30.2668744,14.8868744 L19.4468744,25.9468744 L14.3868744,20.9268744 C13.7812183,20.5689541 13.0081874,20.6800417 12.5278275,21.1940268 C12.0474675,21.7080119 11.9888563,22.4867814 12.3868744,23.0668744 L18.3868744,29.0668744 C18.6711521,29.3409391 19.0520322,29.4918539 19.4468744,29.4871077 Z" id="Path" fill="#ACB480" fill-rule="nonzero"></path>
            </g>
        </g>
    </g>
</svg>