<?xml version="1.0" encoding="UTF-8"?>
<svg width="54px" height="53px" viewBox="0 0 54 53" version="1.1" xmlns="http://www.w3.org/2000/svg" xmlns:xlink="http://www.w3.org/1999/xlink">
    <!-- Generator: Sketch 56.2 (81672) - https://sketch.com -->
    <title>Shape</title>
    <desc>Created with Sketch.</desc>
    <g id="Desktop-Ar" stroke="none" stroke-width="1" fill="none" fill-rule="evenodd">
        <g id="Buy-Card-[CreditCard]-Median-Step" transform="translate(-531.000000, -444.000000)" fill="#008FBE" fill-rule="nonzero">
            <g id="payment-method" transform="translate(133.500000, 217.000000)">
                <g id="2co" transform="translate(349.000000, 227.000000)">
                    <path d="M101.597656,26.0976562 L101.597656,26.0976562 C101.597656,22.7302167 99.1562626,19.9520791 95.7888231,19.9520791 C92.4213836,19.9520791 90.0641759,22.6460307 90.0641759,26.0134703 L90.0641759,26.0976562 C90.0641759,29.3809098 92.5055696,32.1590474 95.8730091,32.1590474 C99.2404486,32.1590474 101.597656,29.3809098 101.597656,26.0976562 L101.597656,26.0976562 Z M86.4441784,19.5311492 L84.3395287,21.6357989 C83.1609249,20.625567 81.8139491,19.9520791 80.0460433,19.9520791 C76.7627898,19.9520791 74.4055822,22.6460307 74.4055822,26.0134703 L74.4055822,26.0976562 C74.4055822,29.4650958 76.7627898,32.1590474 80.0460433,32.1590474 C81.8139491,32.1590474 82.9925529,31.5697455 84.2553427,30.5595136 L86.2758065,32.4957913 C84.6762727,34.0111391 82.8241809,34.937185 79.9618574,34.937185 C74.9948841,34.852999 71.2907006,30.9804435 71.2907006,26.0976562 L71.2907006,26.0134703 C71.2907006,21.130683 74.9106981,17.1739415 80.1302293,17.1739415 C83.0767389,17.1739415 84.9288306,18.1841734 86.4441784,19.5311492 L86.4441784,19.5311492 Z M69.5227949,34.600441 L57.1474546,34.600441 L57.1474546,32.2432334 L63.0404738,27.2762601 C65.3976815,25.2557964 66.2395413,24.1613785 66.2395413,22.6460307 C66.2395413,20.962311 65.0609375,19.9520791 63.4614037,19.9520791 C61.86187,19.9520791 60.8516381,20.793939 59.5046623,22.4776588 L57.4000126,20.793939 C58.9995464,18.5209173 60.6832661,17.1739415 63.7139617,17.1739415 C67.0814012,17.1739415 69.3544229,19.1944052 69.3544229,22.3092868 L69.3544229,22.3934728 C69.3544229,25.0874244 67.9232611,26.5185862 64.8925655,29.0441658 L61.356754,31.9906754 L69.5227949,31.9906754 L69.5227949,34.600441 Z M100.503238,18.4367314 C97.2199849,7.74511089 87.2860383,0 75.5,0 C61.1041961,0 49.4023438,11.7018523 49.4023438,26.0976563 C49.4023438,40.4934602 61.1041961,52.1953125 75.5,52.1953125 C87.2860383,52.1953125 97.3041709,44.3660156 100.503238,33.5902092 C99.1562626,34.4320691 97.5567288,34.852999 95.7046371,34.852999 C90.4851058,34.852999 86.7809224,30.8962576 86.7809224,26.0976563 L86.7809224,26.0134703 C86.7809224,21.214869 90.4851058,17.1739415 95.7046371,17.1739415 C97.5567288,17.1739415 99.1562626,17.6790575 100.503238,18.4367314 L100.503238,18.4367314 Z" id="Shape"></path>
                </g>
            </g>
        </g>
    </g>
</svg>