<svg xmlns="http://www.w3.org/2000/svg" width="24" height="25" viewBox="0 0 24 25"><defs><linearGradient id="mlnha" x1="21.68" x2="21.68" y1="23.8" y2=".25" gradientUnits="userSpaceOnUse"><stop offset="0" stop-color="#88b939"/><stop offset="1" stop-color="#015e54"/></linearGradient><clipPath id="mlnhb"><path d="M.5 11.8c0-6.075 4.925-11 11-11h1c6.075 0 11 4.925 11 11v1c0 6.075-4.925 11-11 11h-1c-6.075 0-11-4.925-11-11z"/></clipPath></defs><g><g><g><g><path fill="url(#mlnha)" d="M.5 11.8c0-6.075 4.925-11 11-11h1c6.075 0 11 4.925 11 11v1c0 6.075-4.925 11-11 11h-1c-6.075 0-11-4.925-11-11z"/></g><g clip-path="url(#mlnhb)"><path fill="#fff" d="M18.02 6.94c.023 0 .043.02.043.045v2.47a.046.046 0 0 1-.023.041c-1.055.652-1.781 1.656-1.781 3.234v2.149c0 .943.43 1.757 1.059 2.152a.041.041 0 0 1 .023.038v.491c0 .025-.02.045-.044.045H6.528a.046.046 0 0 1-.046-.045v-.491c0-.016.01-.031.024-.038.628-.395 1.06-1.209 1.06-2.152V12.73c0-1.578-.726-2.582-1.782-3.234a.05.05 0 0 1-.024-.04v-2.47c0-.026.02-.046.046-.046zm-11.074.365A6.405 6.405 0 0 1 8.93 9.047c.607-.721 1.364-1.302 2.155-1.742zm3.01 4.003c.293-.889.882-1.606 1.767-2.141l.19-.115.189.115c.884.535 1.473 1.252 1.766 2.142a5.88 5.88 0 0 1 .808-1.952c-.922-1.119-2.134-1.767-2.763-2.052-.631.285-1.843.933-2.764 2.052.369.572.649 1.223.807 1.951zm2.774-4.003c.793.44 1.551 1.021 2.16 1.742a6.42 6.42 0 0 1 1.989-1.742zm2.167 2.34c-.534.886-.812 1.93-.812 3.085v4.073c0 .025-.022.045-.046.045H9.785a.045.045 0 0 1-.045-.045v-4.075c0-1.155-.278-2.199-.813-3.082a5.016 5.016 0 0 0-.212-.324c-.607-.857-1.477-1.546-2.588-2.017v1.976c.8.535 1.336 1.23 1.603 2.075 0 0 .201.535.201 1.332l.002 2.191c0 .972-.411 1.859-1.084 2.36h10.126c-.673-.501-1.083-1.388-1.083-2.36l.001-2.19c0-.798.2-1.333.2-1.333.27-.846.806-1.54 1.605-2.075V7.305c-1.11.471-1.98 1.16-2.589 2.017a5.62 5.62 0 0 0-.212.324zm-1.178 3.086c0-1.59-.738-2.604-1.806-3.25-1.069.646-1.806 1.66-1.806 3.25v3.706c0 .025.02.045.045.045h3.52c.025 0 .047-.02.047-.045z"/></g></g></g></g></svg>