<?xml version="1.0" encoding="UTF-8"?>
<svg width="335px" height="226px" viewBox="0 0 335 226" version="1.1" xmlns="http://www.w3.org/2000/svg" xmlns:xlink="http://www.w3.org/1999/xlink">
    <!-- Generator: Sketch 56.2 (81672) - https://sketch.com -->
    <title>lines copy 2</title>
    <desc>Created with Sketch.</desc>
    <g id="Desktop-Ar" stroke="none" stroke-width="1" fill="none" fill-rule="evenodd">
        <g id="About" transform="translate(-852.000000, -818.000000)" fill="#9EC6CD" fill-rule="nonzero">
            <path d="M852.041557,912.910688 L1186.83237,818.5 L1186.95844,818.970508 L852.167629,913.381196 L852.041557,912.910688 Z M852.041557,916.868319 L1186.83237,822.45763 L1186.95844,822.928138 L852.167629,917.338826 L852.041557,916.868319 Z M852.041557,920.825949 L1186.83237,826.415261 L1186.95844,826.885769 L852.167629,921.296457 L852.041557,920.825949 Z M852.041557,924.783579 L1186.83237,830.372891 L1186.95844,830.843399 L852.167629,925.254087 L852.041557,924.783579 Z M852.041557,928.74121 L1186.83237,834.330522 L1186.95844,834.801029 L852.167629,929.211718 L852.041557,928.74121 Z M852.041557,932.69884 L1186.83237,838.288152 L1186.95844,838.75866 L852.167629,933.169348 L852.041557,932.69884 Z M852.041557,936.656471 L1186.83237,842.245783 L1186.95844,842.71629 L852.167629,937.126978 L852.041557,936.656471 Z M852.041557,940.614101 L1186.83237,846.203413 L1186.95844,846.673921 L852.167629,941.084609 L852.041557,940.614101 Z M852.041557,944.571732 L1186.83237,850.161043 L1186.95844,850.631551 L852.167629,945.042239 L852.041557,944.571732 Z M852.041557,948.529362 L1186.83237,854.118674 L1186.95844,854.589182 L852.167629,948.99987 L852.041557,948.529362 Z M852.041557,952.486992 L1186.83237,858.076304 L1186.95844,858.546812 L852.167629,952.9575 L852.041557,952.486992 Z M852.041557,956.444623 L1186.83237,862.033935 L1186.95844,862.504442 L852.167629,956.915131 L852.041557,956.444623 Z M852.041557,960.402253 L1186.83237,865.991565 L1186.95844,866.462073 L852.167629,960.872761 L852.041557,960.402253 Z M852.041557,964.359884 L1186.83237,869.949196 L1186.95844,870.419703 L852.167629,964.830391 L852.041557,964.359884 Z M852.041557,968.317514 L1186.83237,873.906826 L1186.95844,874.377334 L852.167629,968.788022 L852.041557,968.317514 Z M852.041557,972.275145 L1186.83237,877.864456 L1186.95844,878.334964 L852.167629,972.745652 L852.041557,972.275145 Z M852.041557,976.232775 L1186.83237,881.822087 L1186.95844,882.292595 L852.167629,976.703283 L852.041557,976.232775 Z M852.041557,980.190405 L1186.83237,885.779717 L1186.95844,886.250225 L852.167629,980.660913 L852.041557,980.190405 Z M852.041557,984.148036 L1186.83237,889.737348 L1186.95844,890.207855 L852.167629,984.618544 L852.041557,984.148036 Z M852.041557,988.105666 L1186.83237,893.694978 L1186.95844,894.165486 L852.167629,988.576174 L852.041557,988.105666 Z M852.041557,992.063297 L1186.83237,897.652609 L1186.95844,898.123116 L852.167629,992.533804 L852.041557,992.063297 Z M852.041557,996.020927 L1186.83237,901.610239 L1186.95844,902.080747 L852.167629,996.491435 L852.041557,996.020927 Z M852.041557,999.978558 L1186.83237,905.567869 L1186.95844,906.038377 L852.167629,1000.44907 L852.041557,999.978558 Z M852.041557,1003.93619 L1186.83237,909.5255 L1186.95844,909.996008 L852.167629,1004.4067 L852.041557,1003.93619 Z M852.041557,1007.89382 L1186.83237,913.48313 L1186.95844,913.953638 L852.167629,1008.36433 L852.041557,1007.89382 Z M852.041557,1011.85145 L1186.83237,917.440761 L1186.95844,917.911268 L852.167629,1012.32196 L852.041557,1011.85145 Z M852.041557,1015.80908 L1186.83237,921.398391 L1186.95844,921.868899 L852.167629,1016.27959 L852.041557,1015.80908 Z M852.041557,1019.76671 L1186.83237,925.356022 L1186.95844,925.826529 L852.167629,1020.23722 L852.041557,1019.76671 Z M852.041557,1023.72434 L1186.83237,929.313652 L1186.95844,929.78416 L852.167629,1024.19485 L852.041557,1023.72434 Z M852.041557,1027.68197 L1186.83237,933.271282 L1186.95844,933.74179 L852.167629,1028.15248 L852.041557,1027.68197 Z M852.041557,1031.6396 L1186.83237,937.228913 L1186.95844,937.699421 L852.167629,1032.11011 L852.041557,1031.6396 Z M852.041557,1035.59723 L1186.83237,941.186543 L1186.95844,941.657051 L852.167629,1036.06774 L852.041557,1035.59723 Z M852.041557,1039.55486 L1186.83237,945.144174 L1186.95844,945.614681 L852.167629,1040.02537 L852.041557,1039.55486 Z M852.041557,1043.51249 L1186.83237,949.101804 L1186.95844,949.572312 L852.167629,1043.983 L852.041557,1043.51249 Z" id="lines-copy-2"></path>
        </g>
    </g>
</svg>