<?xml version="1.0" encoding="UTF-8"?>
<svg width="152px" height="104px" viewBox="0 0 152 104" version="1.1" xmlns="http://www.w3.org/2000/svg" xmlns:xlink="http://www.w3.org/1999/xlink">
    <!-- Generator: Sketch 56.2 (81672) - https://sketch.com -->
    <title>amazon-card</title>
    <desc>Created with Sketch.</desc>
    <defs>
        <path d="M7.05573171,0.604408063 L138.255732,0.604408063 C141.790354,0.604408063 144.655732,3.46978566 144.655732,7.00440806 L144.655732,90.2044081 C144.655732,93.7390305 141.790354,96.6044081 138.255732,96.6044081 L7.05573171,96.6044081 C3.52110931,96.6044081 0.655731713,93.7390305 0.655731713,90.2044081 L0.655731713,7.00440806 C0.655731713,3.46978566 3.52110931,0.604408063 7.05573171,0.604408063 Z M70.4430273,7.38825885 L58.7075785,7.38825885 C57.603009,7.38825885 56.7075785,8.28368935 56.7075785,9.38825885 L56.7075785,9.45666527 C56.7075785,10.5612348 57.603009,11.4566653 58.7075785,11.4566653 L86.6038849,11.4566653 C87.7084544,11.4566653 88.6038849,10.5612348 88.6038849,9.45666527 L88.6038849,9.38825885 C88.6038849,8.28368935 87.7084544,7.38825885 86.6038849,7.38825885 L74.8684361,7.38825885 L74.8684361,6.0355086 C74.8684361,4.9309391 73.9730056,4.0355086 72.8684361,4.0355086 L72.4430273,4.0355086 C71.3384578,4.0355086 70.4430273,4.9309391 70.4430273,6.0355086 L70.4430273,7.38825885 Z" id="path-1"></path>
        <filter x="-4.9%" y="-5.2%" width="109.7%" height="114.6%" filterUnits="objectBoundingBox" id="filter-2">
            <feOffset dx="0" dy="2" in="SourceAlpha" result="shadowOffsetOuter1"></feOffset>
            <feGaussianBlur stdDeviation="2" in="shadowOffsetOuter1" result="shadowBlurOuter1"></feGaussianBlur>
            <feColorMatrix values="0 0 0 0 0.818090074   0 0 0 0 0.847293774   0 0 0 0 0.866762908  0 0 0 0.880162806 0" type="matrix" in="shadowBlurOuter1"></feColorMatrix>
        </filter>
    </defs>
    <g id="Desktop-Ar" stroke="none" stroke-width="1" fill="none" fill-rule="evenodd">
        <g id="Welcome" transform="translate(-1156.000000, -420.000000)" fill-rule="nonzero">
            <g id="amazon-card" transform="translate(1159.000000, 421.395592)">
                <g id="Combined-Shape">
                    <use fill="black" fill-opacity="1" filter="url(#filter-2)" xlink:href="#path-1"></use>
                    <use fill="#FFFFFF" xlink:href="#path-1"></use>
                </g>
                <g id="amazon-logo" transform="translate(31.297358, 39.963457)" fill="#080607">
                    <path d="M51.29107,19.5861246 C46.4962229,23.1203069 39.5463846,25.0059209 33.5627031,25.0059209 C25.1726166,25.0059209 17.6193858,21.9027387 11.9050746,16.741542 C11.4561196,16.3356836 11.8583817,15.782572 12.3971305,16.0986352 C18.5639861,19.6866918 26.1890543,21.8452723 34.0655353,21.8452723 C39.3775773,21.8452723 45.2211869,20.7462263 50.5942903,18.4655316 C51.4060028,18.1207318 52.0848235,18.9970949 51.29107,19.5861246 Z M53.2844354,17.3054299 C52.6738532,16.5224512 49.2330568,16.935491 47.6886492,17.1186651 C47.2181417,17.1761315 47.146311,16.7666838 47.5701229,16.4721662 C50.3105503,14.5434528 54.8072933,15.1001578 55.3316738,15.746654 C55.8560515,16.3967435 55.1951912,20.9042613 52.6199789,23.0556549 C52.2248982,23.3860864 51.8477751,23.2100979 52.0237678,22.7719149 C52.6020212,21.3280732 53.8986069,18.0920006 53.2844354,17.3054299 Z M47.7963992,2.85623508 L47.7963992,0.981395961 C47.7963992,0.69765598 48.0118979,0.50729909 48.2704961,0.50729909 L56.664172,0.50729909 C56.9335478,0.50729909 57.1490465,0.701248059 57.1490465,0.981395961 L57.1490465,2.58686205 C57.1454571,2.85623508 56.9191808,3.20821634 56.5169146,3.76492144 L52.1674318,9.97487916 C53.7836741,9.93537314 55.4897061,10.1760109 56.9550975,11.0020904 C57.285529,11.1888552 57.37532,11.4618203 57.4004619,11.7311961 L57.4004619,13.7317429 C57.4004619,14.004708 57.0987628,14.324362 56.7826983,14.1591483 C54.2003032,12.8050962 50.7702816,12.6578388 47.9149228,14.1735152 C47.624,14.3315475 47.3187103,14.0154829 47.3187103,13.7425178 L47.3187103,11.8425369 C47.3187103,11.5372472 47.3222996,11.016456 47.6275893,10.553134 L52.6666704,3.32674125 L48.281271,3.32674125 C48.0118979,3.32674125 47.7963992,3.13638573 47.7963992,2.85623508 Z M17.1776107,14.5542276 L14.6239509,14.5542276 C14.3797211,14.5362713 14.1857707,14.3530972 14.1678117,14.1196381 L14.1678117,1.0137233 C14.1678117,0.751533053 14.3869025,0.543215769 14.6598676,0.543215769 L17.0411282,0.543215769 C17.2889542,0.553983785 17.4864925,0.744347526 17.5044529,0.981395961 L17.5044529,2.69461345 L17.5511445,2.69461345 C18.1724988,1.03886237 19.3397819,0.266658575 20.9129248,0.266658575 C22.5112067,0.266658575 23.5096841,1.03886237 24.2280135,2.69461345 C24.8457771,1.03886237 26.2501101,0.266658575 27.7550117,0.266658575 C28.8253224,0.266658575 29.996199,0.708430847 30.7109364,1.69972543 C31.5190569,2.80236075 31.3538404,4.40423476 31.3538404,5.80857046 L31.3502511,14.0801321 C31.3502511,14.3423224 31.1311603,14.5542276 30.8581952,14.5542276 L28.3081247,14.5542276 C28.05312,14.5362713 27.8483961,14.3315475 27.8483961,14.0801321 L27.8483961,7.13388727 C27.8483961,6.58077426 27.898677,5.20158174 27.7765628,4.67719987 C27.5862059,3.79724878 27.0151338,3.54942274 26.2752533,3.54942274 C25.6574897,3.54942274 25.0109936,3.96246249 24.7488033,4.62332691 C24.4866131,5.28418996 24.5117549,6.39041463 24.5117549,7.13388727 L24.5117549,14.0801321 C24.5117549,14.3423224 24.2926641,14.5542276 24.019699,14.5542276 L21.4696313,14.5542276 C21.2110331,14.5362713 21.0099,14.3315475 21.0099,14.0801321 L21.0063079,7.13388727 C21.0063079,5.6720879 21.2469457,3.52069022 19.4331664,3.52069022 C17.5978333,3.52069022 17.6696666,5.61821083 17.6696666,7.13388727 L17.6696666,14.0801321 C17.6696666,14.3423224 17.4505759,14.5542276 17.1776107,14.5542276 Z M64.3754392,0.266658575 C68.1646262,0.266658575 70.2154553,3.52069022 70.2154553,7.65826777 C70.2154553,11.6557693 67.9491248,14.8271927 64.3754392,14.8271927 C60.6544921,14.8271927 58.6288021,11.5731611 58.6288021,7.51819313 C58.6288021,3.43808199 60.6796339,0.266658575 64.3754392,0.266658575 Z M64.3969876,2.94243676 C62.514967,2.94243676 62.3964257,5.50687008 62.3964257,7.10515475 C62.3964257,8.70702876 62.371299,12.1262755 64.3754392,12.1262755 C66.3544363,12.1262755 66.4478194,9.36789318 66.4478194,7.68699892 C66.4478194,6.58077426 66.4011278,5.25904815 66.0671029,4.21028579 C65.7797708,3.2980101 65.2087015,2.94243676 64.3969876,2.94243676 Z M75.1288287,14.5542276 L72.5859438,14.5542276 C72.3309349,14.5362713 72.1262111,14.3315475 72.1262111,14.0801321 L72.1226217,0.970621095 C72.1441715,0.72998058 72.3560795,0.543215769 72.6146776,0.543215769 L74.981574,0.543215769 C75.2042542,0.553983785 75.3874283,0.704840138 75.4377132,0.909563974 L75.4377132,2.9137015 L75.4844021,2.9137015 C76.1991422,1.1214706 77.2012089,0.266658575 78.9647073,0.266658575 C80.1104421,0.266658575 81.2274457,0.679698326 81.9457752,1.81106617 C82.613821,2.85982716 82.613821,4.62332691 82.613821,5.89117594 L82.613821,14.1411906 C82.5850885,14.3710535 82.3731805,14.5542276 82.1217678,14.5542276 L79.5609225,14.5542276 C79.3274634,14.5362713 79.1335144,14.3638721 79.1083753,14.1411906 L79.1083753,7.02254653 C79.1083753,5.58947968 79.2735904,3.49195632 77.5100907,3.49195632 C76.8887378,3.49195632 76.3176643,3.90858952 76.0339244,4.54071732 C75.6747617,5.34165637 75.6280701,6.13900198 75.6280701,7.02254653 L75.6280701,14.0801321 C75.6244808,14.3423224 75.4017966,14.5542276 75.1288315,14.5542276 Z M41.1051606,8.29398901 L41.1051606,7.74087599 C39.2590525,7.74087599 37.3087893,8.13595672 37.3087893,10.3124935 C37.3087893,11.4151288 37.87986,12.1621935 38.8603797,12.1621935 C39.5787092,12.1621935 40.2216132,11.7204213 40.6274715,11.0020904 C41.1302997,10.1185445 41.1051606,9.2888743 41.1051606,8.29398901 Z M43.6803702,14.5183109 C43.511563,14.6691604 43.267329,14.6799353 43.0769722,14.5793708 C42.2293457,13.8754083 42.0784948,13.5485688 41.6115807,12.8769309 C40.2108383,14.3064057 39.2195465,14.7338096 37.402171,14.7338096 C35.2543654,14.7338096 33.5806608,13.4084928 33.5806608,10.7542685 C33.5806608,8.68188695 34.7048459,7.27036983 36.3031278,6.58077426 C37.6895031,5.97019209 39.6254007,5.86244479 41.1051606,5.69363763 L41.1051606,5.36320611 C41.1051606,4.75621602 41.1518522,4.03788655 40.7962788,3.5135088 C40.4838034,3.04300127 39.8875923,2.8490523 39.3632105,2.8490523 C38.3898763,2.8490523 37.5206959,3.34829098 37.3087893,4.38268503 C37.2656885,4.61255204 37.0968813,4.83882561 36.867017,4.84960048 L34.3887813,4.58381678 C34.1804654,4.53712798 33.9505997,4.36831808 34.0080661,4.04866416 C34.5791382,1.0460479 37.2908303,0.140950885 39.7187852,0.140950885 C40.9614925,0.140950885 42.5849163,0.471382411 43.565436,1.41239337 C44.8081473,2.5724951 44.689621,4.12049478 44.689621,5.80497838 L44.689621,9.78452227 C44.689621,10.9805421 45.1852704,11.5049198 45.6521845,12.1514187 C45.8173995,12.3812816 45.8533162,12.6578388 45.6450003,12.830238 C45.1242119,13.2648289 44.1975679,14.0729493 43.6875516,14.5254965 L43.6803702,14.5183041 Z M7.62742533,8.29398901 L7.62742533,7.74087599 C5.78131722,7.74087599 3.83105403,8.13595672 3.83105403,10.3124935 C3.83105403,11.4151288 4.4021247,12.1621935 5.38264442,12.1621935 C6.10097388,12.1621935 6.74387791,11.7204213 7.14973624,11.0020904 C7.6525644,10.1185445 7.62742533,9.2888743 7.62742533,8.29398901 Z M10.2026349,14.5183109 C10.0338277,14.6691604 9.78959377,14.6799353 9.59923688,14.5793708 C8.75161039,13.8754083 8.60075951,13.5485688 8.13384543,12.8769309 C6.73310304,14.3064057 5.7418112,14.7338096 3.92443575,14.7338096 C1.77663015,14.7338096 0.102925521,13.4084928 0.102925521,10.7542685 C0.102925521,8.68188695 1.22711058,7.27036983 2.82539251,6.58077426 C4.21176781,5.97019209 6.14766543,5.86244479 7.62742533,5.69363763 L7.62742533,5.36320611 C7.62742533,4.75621602 7.67411688,4.03788655 7.31854354,3.5135088 C7.00606816,3.04300127 6.40985704,2.8490523 5.88547518,2.8490523 C4.91214099,2.8490523 4.04296066,3.34829098 3.83105403,4.38268503 C3.7879532,4.61255204 3.61914604,4.83882561 3.38928176,4.84960048 L0.911045998,4.58381678 C0.702730083,4.53712798 0.472864435,4.36831808 0.530330847,4.04866416 C1.10140289,1.0460479 3.81309501,0.140950885 6.24104989,0.140950885 C7.48375724,0.140950885 9.10718099,0.471382411 10.0877007,1.41239337 C11.330412,2.5724951 11.2118858,4.12049478 11.2118858,5.80497838 L11.2118858,9.78452227 C11.2118858,10.9805421 11.7075351,11.5049198 12.1744492,12.1514187 C12.3396643,12.3812816 12.3755809,12.6578388 12.167265,12.830238 C11.6464766,13.2648289 10.7198326,14.0729493 10.2098163,14.5254965 L10.2026349,14.5183041 Z" id="Combined-Shape"></path>
                </g>
            </g>
        </g>
    </g>
</svg>