<svg xmlns="http://www.w3.org/2000/svg" width="45" height="15" viewBox="0 0 45 15"><g><g><path fill="#080607" d="M5.122 8.71c-.461-.383-.544-.561-.798-.927-.763.778-1.303 1.011-2.293 1.011-1.17 0-2.081-.721-2.081-2.166 0-1.128.612-1.897 1.483-2.272.755-.333 1.81-.391 2.615-.483v-.18c0-.33.026-.722-.168-1.007-.17-.256-.495-.362-.78-.362-.53 0-1.004.272-1.12.835-.023.125-.115.248-.24.254L.39 3.27C.277 3.243.151 3.15.183 2.977.493 1.343 1.97.85 3.293.85c.677 0 1.561.18 2.095.692.677.632.613 1.474.613 2.391V6.1c0 .65.27.936.524 1.288.09.125.11.276-.004.37-.284.236-.788.676-1.066.923l-.004-.004a.29.29 0 0 1-.329.033zM4.048 5.293v-.3c-1.005 0-2.067.214-2.067 1.395 0 .599.31 1.004.845 1.004.39 0 .741-.24.962-.63.274-.479.26-.93.26-1.47zM23.356 8.71c-.461-.383-.543-.561-.798-.927-.763.778-1.303 1.011-2.292 1.011-1.17 0-2.082-.721-2.082-2.166 0-1.128.612-1.897 1.483-2.272.755-.333 1.81-.391 2.615-.483v-.18c0-.33.026-.722-.168-1.007-.17-.256-.495-.362-.78-.362-.53 0-1.004.272-1.12.835-.023.125-.115.248-.24.254l-1.35-.144c-.113-.026-.238-.118-.207-.292.31-1.634 1.788-2.127 3.11-2.127.677 0 1.561.18 2.095.692.677.632.613 1.474.613 2.391V6.1c0 .65.27.936.524 1.288.09.125.11.276-.004.37-.284.236-.788.676-1.066.923l-.004-.004a.29.29 0 0 1-.329.033zm-1.074-3.417v-.3c-1.005 0-2.067.214-2.067 1.395 0 .599.31 1.004.845 1.004.391 0 .741-.24.962-.63.274-.479.26-.93.26-1.47zM39.43 8.696a.264.264 0 0 1-.25-.258l-.003-7.136a.263.263 0 0 1 .268-.233h1.29a.266.266 0 0 1 .248.2v1.09h.026c.389-.975.935-1.44 1.895-1.44.624 0 1.233.224 1.624.84.364.571.364 1.531.364 2.221v4.491a.267.267 0 0 1-.268.225h-1.395a.263.263 0 0 1-.247-.225V4.596c0-.78.09-1.922-.87-1.922-.339 0-.65.227-.804.571-.196.436-.221.87-.221 1.351v3.842a.267.267 0 0 1-.272.258zm-4.46-6.319c-1.025 0-1.09 1.395-1.09 2.264 0 .872-.014 2.732 1.078 2.732 1.078 0 1.129-1.5 1.129-2.415 0-.602-.026-1.32-.208-1.891-.156-.497-.467-.69-.91-.69zM34.957.919c2.064 0 3.18 1.77 3.18 4.023 0 2.176-1.234 3.903-3.18 3.903-2.027 0-3.13-1.771-3.13-3.979 0-2.221 1.117-3.947 3.13-3.947zM9.25 8.696H7.86a.263.263 0 0 1-.25-.236V1.325c0-.143.12-.256.269-.256h1.297c.135.006.242.11.252.239v.932h.025C9.792 1.34 10.428.92 11.284.92c.871 0 1.415.42 1.806 1.321C13.427 1.34 14.191.92 15.011.92c.583 0 1.22.24 1.61.78.44.6.35 1.472.35 2.236l-.002 4.503c0 .143-.12.258-.268.258h-1.389a.264.264 0 0 1-.25-.258V4.657c0-.301.027-1.052-.04-1.338-.103-.479-.414-.613-.817-.613a.924.924 0 0 0-.831.584c-.143.36-.13.962-.13 1.367v3.781c0 .143-.119.258-.267.258h-1.39a.263.263 0 0 1-.25-.258l-.002-3.781c0-.796.131-1.967-.857-1.967-1 0-.96 1.142-.96 1.967v3.781c0 .143-.12.258-.268.258zm16.677-7.388c0-.155.117-.258.258-.258h4.572c.147 0 .264.105.264.258v.874c-.002.146-.125.338-.344.64l-2.37 3.381c.88-.021 1.81.11 2.608.56.18.101.23.25.243.396v1.09c0 .148-.164.322-.337.232-1.406-.737-3.274-.817-4.83.008-.158.086-.324-.086-.324-.235V7.22c0-.166.002-.45.168-.702l2.745-3.934H26.19c-.147 0-.264-.103-.264-.256zm2.989 8.895c-.333-.426-2.207-.201-3.048-.101-.256.03-.295-.192-.064-.352 1.492-1.049 3.941-.746 4.227-.395.286.354-.074 2.805-1.477 3.975-.215.18-.42.084-.325-.154.315-.785 1.022-2.545.687-2.973zm-1.086 1.242c-2.611 1.922-6.397 2.948-9.656 2.948-4.57 0-8.683-1.688-11.796-4.495-.244-.221-.025-.522.268-.35 3.36 1.952 7.512 3.126 11.802 3.126 2.893 0 6.076-.598 9.003-1.839.442-.187.812.29.38.61z"/></g></g></svg>