<?xml version="1.0" encoding="UTF-8"?>
<svg width="68px" height="42px" viewBox="0 0 68 42" version="1.1" xmlns="http://www.w3.org/2000/svg" xmlns:xlink="http://www.w3.org/1999/xlink">
    <!-- Generator: Sketch 56.2 (81672) - https://sketch.com -->
    <title>amazon-small-card</title>
    <desc>Created with Sketch.</desc>
    <g id="amazon-small-card" stroke="none" stroke-width="1" fill="none" fill-rule="evenodd">
        <g id="ps-small-card" fill="#080607" fill-rule="nonzero">
            <path d="M3.136,4.61852778e-14 L64.6931069,4.61852778e-14 C66.4250719,4.61852778e-14 67.8291069,1.40403502 67.8291069,3.136 L67.8291069,38.1146955 C67.8291069,39.8466605 66.4250719,41.2506955 64.6931069,41.2506955 L3.136,41.2506955 C1.40403502,41.2506955 -1.3500312e-13,39.8466605 -1.3500312e-13,38.1146955 L-1.3500312e-13,3.136 C-1.3500312e-13,1.40403502 1.40403502,4.61852778e-14 3.136,4.61852778e-14 Z M27.2764942,2.447442 C26.7937495,2.447442 26.4024077,2.83878383 26.4024077,3.32152843 C26.4024077,3.80427304 26.7937495,4.19561486 27.2764942,4.19561486 L40.5526128,4.19561486 C41.0353574,4.19561486 41.4266992,3.80427304 41.4266992,3.32152843 C41.4266992,2.83878383 41.0353574,2.447442 40.5526128,2.447442 L27.2764942,2.447442 Z" id="Shape"></path>
        </g>
        <path d="M38.5083124,25.5118211 C36.3319982,27.1159371 33.1775636,27.971791 30.4616542,27.971791 C26.653511,27.971791 23.2252049,26.5632999 20.6315589,24.2207048 C20.4277845,24.0364914 20.6103656,23.7854417 20.8548962,23.9288984 C23.6539458,25.5574672 27.1148579,26.5372167 30.6898826,26.5372167 C33.1009443,26.5372167 35.7532772,26.0383751 38.1920538,25.0031996 C38.5604788,24.8466998 38.8685861,25.2444688 38.5083124,25.5118211 Z M39.4130731,24.4766456 C39.1359384,24.1212625 37.5742089,24.3087355 36.8732239,24.3918757 C36.6596671,24.4179589 36.6270642,24.2321163 36.8194265,24.0984389 C38.0632682,23.2230228 40.1042771,23.4757034 40.342286,23.769139 C40.5802938,24.0642056 40.2803385,26.110105 39.1114856,27.0865925 C38.932164,27.2365708 38.7609931,27.156692 38.8408737,26.9578069 C39.1033349,26.3024673 39.691837,24.8336591 39.4130731,24.4766456 Z M36.9221301,17.9183578 L36.9221301,17.0673945 C36.9221301,16.9386089 37.019942,16.8522086 37.1373161,16.8522086 L40.9470884,16.8522086 C41.0693543,16.8522086 41.1671662,16.9402393 41.1671662,17.0673945 L41.1671662,17.7960932 C41.165537,17.9183578 41.0628333,18.0781172 40.8802503,18.3307979 L38.9060808,21.149411 C39.6396706,21.1314798 40.4140147,21.2407019 41.0791354,21.6156478 C41.2291137,21.7004178 41.2698686,21.8243128 41.2812801,21.9465787 L41.2812801,22.854599 C41.2812801,22.9784941 41.1443431,23.1235805 41.0008858,23.0485923 C39.8287727,22.434007 38.2719338,22.3671689 36.9759263,23.0551133 C36.8438805,23.1268419 36.7053138,22.9833846 36.7053138,22.8594896 L36.7053138,21.9971148 C36.7053138,21.858548 36.7069429,21.6221682 36.8455097,21.4118728 L39.1326782,18.131914 L37.1422066,18.131914 C37.019942,18.131914 36.9221301,18.0455143 36.9221301,17.9183578 Z M23.0246894,23.2279133 L21.8656189,23.2279133 C21.7547664,23.2197632 21.666735,23.1366231 21.6585837,23.0306592 L21.6585837,17.0820674 C21.6585837,16.9630629 21.7580259,16.8685106 21.881921,16.8685106 L22.9627419,16.8685106 C23.0752267,16.8733981 23.1648866,16.9598015 23.1730385,17.0673945 L23.1730385,17.845 L23.1942312,17.845 C23.4762552,17.0934777 24.0060688,16.7429852 24.7200963,16.7429852 C25.4455342,16.7429852 25.8987291,17.0934777 26.2247688,17.845 C26.5051631,17.0934777 27.1425702,16.7429852 27.8256241,16.7429852 C28.3114232,16.7429852 28.8428677,16.9434995 29.167277,17.3934342 C29.5340716,17.893905 29.4590822,18.6209733 29.4590822,19.2583816 L29.457453,23.012728 C29.457453,23.1317325 29.3580108,23.2279133 29.2341157,23.2279133 L28.0766743,23.2279133 C27.9609313,23.2197632 27.86801,23.1268419 27.86801,23.012728 L27.86801,19.8599244 C27.86801,19.6088742 27.8908318,18.9828779 27.8354058,18.7448683 C27.7490055,18.3454708 27.4898038,18.232986 27.1539824,18.232986 C26.8735881,18.232986 26.5801526,18.420459 26.4611481,18.7204161 C26.3421436,19.0203726 26.3535551,19.5224726 26.3535551,19.8599244 L26.3535551,23.012728 C26.3535551,23.1317325 26.2541128,23.2279133 26.1302178,23.2279133 L24.9727776,23.2279133 C24.8554035,23.2197632 24.764112,23.1268419 24.764112,23.012728 L24.7624816,19.8599244 C24.7624816,19.1964341 24.8717037,18.2199447 24.0484547,18.2199447 C23.2154226,18.2199447 23.2480267,19.1719801 23.2480267,19.8599244 L23.2480267,23.012728 C23.2480267,23.1317325 23.1485845,23.2279133 23.0246894,23.2279133 Z M44.4471249,16.7429852 C46.166984,16.7429852 47.0978267,18.2199447 47.0978267,20.0979334 C47.0978267,21.9123436 46.0691709,23.3518084 44.4471249,23.3518084 C42.758239,23.3518084 41.8388066,21.8748489 41.8388066,20.0343555 C41.8388066,18.18245 42.7696505,16.7429852 44.4471249,16.7429852 Z M44.4569054,17.9574836 C43.6026826,17.9574836 43.5488783,19.121444 43.5488783,19.8468831 C43.5488783,20.5739514 43.5374737,22.1258997 44.4471249,22.1258997 C45.3453641,22.1258997 45.3877494,20.8739085 45.3877494,20.1109741 C45.3877494,19.6088742 45.3665567,19.0089611 45.2149475,18.5329425 C45.0845315,18.1188733 44.8253311,17.9574836 44.4569054,17.9574836 Z M49.3279383,23.2279133 L48.1737583,23.2279133 C48.0580134,23.2197632 47.9650921,23.1268419 47.9650921,23.012728 L47.963463,17.0625039 C47.9732441,16.9532806 48.0694262,16.8685106 48.1868003,16.8685106 L49.2611015,16.8685106 C49.3621729,16.8733981 49.4453131,16.9418697 49.4681367,17.034791 L49.4681367,17.944441 L49.4893281,17.944441 C49.8137387,17.1309724 50.2685628,16.7429852 51.0689901,16.7429852 C51.5890231,16.7429852 52.0960155,16.9304582 52.4220552,17.4439702 C52.7252719,17.9199882 52.7252719,18.7204161 52.7252719,19.2958751 L52.7252719,23.0404416 C52.7122306,23.1447732 52.6160485,23.2279133 52.5019358,23.2279133 L51.3396038,23.2279133 C51.23364,23.2197632 51.1456093,23.1415136 51.134199,23.0404416 L51.134199,19.8093884 C51.134199,19.1589394 51.2091878,18.2069028 50.4087599,18.2069028 C50.1267365,18.2069028 49.8675342,18.3960068 49.7387486,18.6829208 C49.5757297,19.0464558 49.554537,19.4083599 49.554537,19.8093884 L49.554537,23.012728 C49.5529079,23.1317325 49.4518346,23.2279133 49.3279396,23.2279133 Z M33.8850703,20.3864784 L33.8850703,20.1354281 C33.0471476,20.1354281 32.1619504,20.3147498 32.1619504,21.3026494 C32.1619504,21.8031202 32.4211514,22.1422025 32.8661956,22.1422025 C33.1922353,22.1422025 33.4840405,21.9416882 33.6682539,21.6156478 C33.8964806,21.2146187 33.8850703,20.838043 33.8850703,20.3864784 Z M35.053922,23.2116113 C34.9773028,23.2800797 34.8664484,23.2849703 34.7800481,23.2393255 C34.3953222,22.9198067 34.3268531,22.7714588 34.1149273,22.4666118 C33.4791499,23.1154304 33.0292164,23.3094231 32.204335,23.3094231 C31.229476,23.3094231 30.4698049,22.7078803 30.4698049,21.5031649 C30.4698049,20.5625399 30.9800568,19.921872 31.7054946,19.6088742 C32.334751,19.3317394 33.2134279,19.2828344 33.8850703,19.2062152 L33.8850703,19.056237 C33.8850703,18.7807326 33.906263,18.4546929 33.7448732,18.2166852 C33.603045,18.0031284 33.3324331,17.9150976 33.0944235,17.9150976 C32.6526407,17.9150976 32.2581318,18.1416951 32.1619504,18.6111921 C32.1423875,18.7155256 32.0657683,18.818228 31.9614361,18.8231185 L30.8365995,18.702483 C30.7420478,18.6812916 30.637715,18.6046712 30.6637982,18.4595847 C30.9229998,17.0967391 32.153799,16.6859282 33.2558138,16.6859282 C33.8198614,16.6859282 34.5567107,16.8359065 35.001755,17.2630182 C35.5658043,17.7895722 35.5120069,18.4921876 35.5120069,19.2567512 L35.5120069,21.0630107 C35.5120069,21.6058673 35.7369752,21.8438751 35.948901,22.1373119 C36.0238898,22.2416435 36.0401919,22.3671689 35.9456402,22.4454185 C35.7092616,22.6426732 35.2886708,23.0094678 35.0571815,23.2148727 L35.053922,23.2116081 Z M18.6899936,20.3864784 L18.6899936,20.1354281 C17.8520709,20.1354281 16.9668736,20.3147498 16.9668736,21.3026494 C16.9668736,21.8031202 17.2260746,22.1422025 17.6711189,22.1422025 C17.9971586,22.1422025 18.2889637,21.9416882 18.4731772,21.6156478 C18.7014039,21.2146187 18.6899936,20.838043 18.6899936,20.3864784 Z M19.8588453,23.2116113 C19.782226,23.2800797 19.6713717,23.2849703 19.5849713,23.2393255 C19.2002455,22.9198067 19.1317764,22.7714588 18.9198506,22.4666118 C18.2840732,23.1154304 17.8341396,23.3094231 17.0092583,23.3094231 C16.0343993,23.3094231 15.2747281,22.7078803 15.2747281,21.5031649 C15.2747281,20.5625399 15.7849801,19.921872 16.5104179,19.6088742 C17.1396743,19.3317394 18.0183512,19.2828344 18.6899936,19.2062152 L18.6899936,19.056237 C18.6899936,18.7807326 18.7111862,18.4546929 18.5497964,18.2166852 C18.4079682,18.0031284 18.1373563,17.9150976 17.8993467,17.9150976 C17.4575639,17.9150976 17.0630551,18.1416951 16.9668736,18.6111921 C16.9473108,18.7155256 16.8706916,18.818228 16.7663594,18.8231185 L15.6415228,18.702483 C15.5469711,18.6812916 15.4426383,18.6046712 15.4687215,18.4595847 C15.7279231,17.0967391 16.9587223,16.6859282 18.0607371,16.6859282 C18.6247846,16.6859282 19.361634,16.8359065 19.8066782,17.2630182 C20.3707276,17.7895722 20.3169301,18.4921876 20.3169301,19.2567512 L20.3169301,21.0630107 C20.3169301,21.6058673 20.5418985,21.8438751 20.7538242,22.1373119 C20.8288131,22.2416435 20.8451151,22.3671689 20.7505634,22.4454185 C20.5141849,22.6426732 20.0935941,23.0094678 19.8621048,23.2148727 L19.8588453,23.2116081 Z" id="Combined-Shape" fill="#FFFFFF" fill-rule="nonzero"></path>
    </g>
</svg>