<svg xmlns="http://www.w3.org/2000/svg" width="21" height="27" viewBox="0 0 21 27"><g><g><path fill="#fff" d="M20.945 19.51c-1.087 3.172-3.458 6.77-5.694 6.818-1.329.029-3.901-1.123-4.318-1.03-.417-.093-2.988 1.059-4.318 1.03-2.341-.052-4.832-3.993-5.84-7.263-1.62-5.251-.252-8.766 2.11-10.993 2.603-2.453 6.576-.589 8.048-.343 1.472-.246 5.445-2.11 8.048.343.427.403.82.848 1.171 1.338a6.432 6.432 0 0 0-2.071 4.736 6.447 6.447 0 0 0 2.864 5.363zM10.685 6.814a.37.37 0 0 0-.01.012v-.01a.047.047 0 0 1-.011.003l.01-.013C10.67 6.173 10.482 2.03 15.59.67c-.204 5.273-4.286 6.01-4.904 6.145z"/></g></g></svg>