<?xml version="1.0" encoding="UTF-8"?>
<svg width="71px" height="84px" viewBox="0 0 71 84" version="1.1" xmlns="http://www.w3.org/2000/svg" xmlns:xlink="http://www.w3.org/1999/xlink">
    <!-- Generator: Sketch 56.2 (81672) - https://sketch.com -->
    <title>avatar</title>
    <desc>Created with Sketch.</desc>
    <g id="Desktop-Ar" stroke="none" stroke-width="1" fill="none" fill-rule="evenodd">
        <g id="User-Settings" transform="translate(-684.000000, -146.000000)" fill-rule="nonzero">
            <g id="welcome" transform="translate(484.500000, 146.000000)">
                <g id="avatar" transform="translate(199.729757, 0.020000)">
                    <circle id="Oval" fill="#665E71" cx="35.4247124" cy="48.3847124" r="35.1367124"></circle>
                    <path d="M8.06572938,70.4337369 C11.4618718,69.6486133 15.2139823,68.4042883 18.52848,66.18528 C18.52848,66.18528 27.57888,76.032 55.28016,64.52208 L55.26432,64.54656 C55.86432,64.91424 56.50752,65.26512 57.19392,65.5992 C59.4429172,66.6785287 61.6437353,67.8549005 63.7901884,69.1249287 C57.3972852,77.8533857 47.0729195,83.5214248 35.4247124,83.5214248 C24.3694482,83.5214248 14.5066776,78.4157528 8.06573183,70.43374 Z" id="Combined-Shape" fill="#1B0E1C"></path>
                    <path d="M18.52848,66.18528 C18.52848,66.18528 27.57888,76.03488 55.28016,64.52208 C55.28016,64.52208 44.26704,59.51664 49.4784,42.59952 C48.38688,43.24032 46.99872,43.6464 45.23616,43.58304 C44.9414498,45.3461495 44.3806544,47.0542691 43.57296,48.64896 C42.94512,49.87152 42.59088,51.28704 41.59728,52.23744 C39.00528,54.71424 31.27392,61.76016 23.64768,61.47648 C23.2012799,61.4784428 22.7554194,61.44522 22.31424,61.37712 C21.72816,62.93664 20.59488,64.63728 18.50976,66.1968 L18.52848,66.18528 Z" id="Path" fill="#FFFFFF"></path>
                    <path d="M44.05248,48.96 C43.4226331,50.1826409 42.5927924,51.2913665 41.59728,52.24032 C39.00816,54.72 31.87296,60.768 24.24672,60.48 C20.79072,60.4899377 17.76672,59.59728 16.75872,55.84608 C15.75072,52.09488 14.5584,49.47696 14.02272,46.80144 C13.48704,44.12592 12.47616,39.9024 13.1904,36.75024 C13.48704,35.67888 13.12992,33.9552 12.00096,31.6944 C10.872,29.4336 12.72096,27.76896 12.77424,26.16336 C12.82752,24.55776 13.01184,11.772 25.91712,11.47536 C38.8224,11.17872 44.41392,15.57936 46.85184,19.98 C49.28976,24.38064 47.44656,30.68496 47.44656,30.68496 C47.44656,30.68496 49.05216,28.30608 51.372,30.0312 C53.69184,31.75632 53.66448,34.41312 53.31888,36.78192 C53.24976,37.25712 52.44192,44.1864 45.72144,43.94736 C45.4207835,45.6927675 44.8581119,47.3827242 44.05248,48.96 Z" id="Path" fill="#FFFFFF"></path>
                    <path d="M12.41136,17.66304 C6.21936,10.764 10.82736,-2.0808 24.66288,0.4752 C30.13488,1.4832 30.12624,4.46544 40.24512,5.65056 C51.42528,6.95808 56.57472,24.57936 53.06112,32.23296 C53.06112,32.23296 50.61312,27.1296 47.43648,30.68784 C47.43648,30.68784 44.28432,31.40784 43.80912,34.7328 C43.33392,38.05776 42.80112,38.37456 42.80112,38.37456 L40.72032,37.584 C40.72032,37.584 40.48272,31.93488 38.7576,29.49552 C37.03248,27.05616 35.784,17.83872 39.4776,16.17408 C39.4776,16.17408 18.5976,24.5592 12.41712,17.66016 C6.23664,10.76112 10.74528,-1.6056 24.66288,0.4752" id="Path" fill="#1B0E1C"></path>
                </g>
            </g>
        </g>
    </g>
</svg>