<?xml version="1.0" encoding="UTF-8"?>
<svg width="40px" height="42px" viewBox="0 0 40 42" version="1.1" xmlns="http://www.w3.org/2000/svg" xmlns:xlink="http://www.w3.org/1999/xlink">
    <!-- Generator: Sketch 56.2 (81672) - https://sketch.com -->
    <title>Combined Shape</title>
    <desc>Created with Sketch.</desc>
    <g id="Desktop-Ar" stroke="none" stroke-width="1" fill="none" fill-rule="evenodd">
        <g id="Buy-Card-[Payment-Method]" transform="translate(-251.000000, -453.000000)" fill="#331D34" fill-rule="nonzero">
            <g id="payment-method" transform="translate(133.500000, 217.000000)">
                <g id="by-wire-transfare" transform="translate(82.500000, 236.523519)">
                    <path d="M74.5607166,12.8789337 L35.4392834,12.8789337 C34.998948,12.8789337 34.8331643,12.3026381 35.2068354,12.0684358 L54.0693309,0.267095884 C54.6386092,-0.0890319612 55.3613908,-0.0890319612 55.9306691,0.267095884 L74.7931646,12.0684358 C75.1668357,12.3026381 75.001052,12.8789337 74.5607166,12.8789337 Z M71.6660814,13.7560959 L71.6660814,15.5104202 C71.6660814,15.9946138 71.2731128,16.3875824 70.7889192,16.3875824 L39.2110808,16.3875824 C38.7268872,16.3875824 38.3339186,15.9946138 38.3339186,15.5104202 L38.3339186,13.7560959 L71.6660814,13.7560959 Z M70.7889192,33.930826 C71.2731128,33.930826 71.6660814,34.3237947 71.6660814,34.8079882 L71.6660814,36.5623125 L38.3339186,36.5623125 L38.3339186,34.8079882 C38.3339186,34.3237947 38.7268872,33.930826 39.2110808,33.930826 L70.7889192,33.930826 Z M73.4204058,37.4394747 C73.9045993,37.4394747 74.2975679,37.8324434 74.2975679,38.3166369 L74.2975679,40.9481234 L35.7024321,40.9481234 L35.7024321,38.3166369 C35.7024321,37.8324434 36.0954007,37.4394747 36.5795942,37.4394747 L73.4204058,37.4394747 Z M58.5086487,18.1419068 C58.5086487,18.6261003 58.1156801,19.019069 57.6314865,19.019069 L57.6314865,31.2993395 C58.1156801,31.2993395 58.5086487,31.6923081 58.5086487,32.1765016 L58.5086487,33.0536638 L57.6314865,33.0536638 L52.3685135,33.0536638 L51.4913513,33.0536638 L51.4913513,32.1765016 C51.4913513,31.6923081 51.8843199,31.2993395 52.3685135,31.2993395 L52.3685135,19.019069 C51.8843199,19.019069 51.4913513,18.6261003 51.4913513,18.1419068 L51.4913513,17.2647446 L52.3685135,17.2647446 L57.6314865,17.2647446 L58.5086487,17.2647446 L58.5086487,18.1419068 Z M47.9827026,18.1419068 C47.9827026,18.6261003 47.5897339,19.019069 47.1055404,19.019069 L47.1055404,31.2993395 C47.5897339,31.2993395 47.9827026,31.6923081 47.9827026,32.1765016 L47.9827026,33.0536638 L47.1055404,33.0536638 L41.8425673,33.0536638 L40.9654051,33.0536638 L40.9654051,32.1765016 C40.9654051,31.6923081 41.3583738,31.2993395 41.8425673,31.2993395 L41.8425673,19.019069 C41.3583738,19.019069 40.9654051,18.6261003 40.9654051,18.1419068 L40.9654051,17.2647446 L41.8425673,17.2647446 L47.1055404,17.2647446 L47.9827026,17.2647446 L47.9827026,18.1419068 Z M69.0345949,18.1419068 C69.0345949,18.6261003 68.6416262,19.019069 68.1574327,19.019069 L68.1574327,31.2993395 C68.6416262,31.2993395 69.0345949,31.6923081 69.0345949,32.1765016 L69.0345949,33.0536638 L68.1574327,33.0536638 L62.8944596,33.0536638 L62.0172974,33.0536638 L62.0172974,32.1765016 C62.0172974,31.6923081 62.4102661,31.2993395 62.8944596,31.2993395 L62.8944596,19.019069 C62.4102661,19.019069 62.0172974,18.6261003 62.0172974,18.1419068 L62.0172974,17.2647446 L62.8944596,17.2647446 L68.1574327,17.2647446 L69.0345949,17.2647446 L69.0345949,18.1419068 Z" id="Combined-Shape"></path>
                </g>
            </g>
        </g>
    </g>
</svg>