<?xml version="1.0" encoding="UTF-8"?>
<svg width="23px" height="24px" viewBox="0 0 23 24" version="1.1" xmlns="http://www.w3.org/2000/svg" xmlns:xlink="http://www.w3.org/1999/xlink">
    <!-- Generator: Sketch 56.2 (81672) - https://sketch.com -->
    <title>bank-logo</title>
    <desc>Created with Sketch.</desc>
    <defs>
        <linearGradient x1="92.0986279%" y1="100%" x2="92.0986279%" y2="-2.39225944%" id="linearGradient-1">
            <stop stop-color="#88B939" offset="0%"></stop>
            <stop stop-color="#015E54" offset="100%"></stop>
        </linearGradient>
        <rect id="path-2" x="0" y="0" width="23" height="23" rx="11.5"></rect>
    </defs>
    <g id="Symbols" stroke="none" stroke-width="1" fill="none" fill-rule="evenodd">
        <g id="BLogo-SaudiAlahli">
            <g id="bank-logo" transform="translate(0.000000, 0.694012)">
                <mask id="mask-3" fill="white">
                    <use xlink:href="#path-2"></use>
                </mask>
                <use id="Rectangle" fill="url(#linearGradient-1)" fill-rule="nonzero" xlink:href="#path-2"></use>
                <path d="M17.51935,6.13478997 C17.543038,6.13478997 17.563198,6.15444597 17.563198,6.17989797 L17.563198,8.65000197 C17.563198,8.66738997 17.55463,8.68301397 17.53951,8.69107797 C16.48489,9.34300197 15.758374,10.346718 15.758374,11.924742 L15.758374,14.073798 C15.758374,15.016782 16.189294,15.831246 16.817782,16.225626 C16.83265,16.232682 16.841218,16.24755 16.841218,16.263678 L16.841218,16.755078 C16.841218,16.780026 16.821058,16.800186 16.796362,16.800186 L6.027898,16.800186 C6.003706,16.800186 5.981782,16.780026 5.981782,16.755078 L5.981782,16.263678 C5.981782,16.24755 5.992366,16.232682 6.00547,16.225626 C6.633958,15.831246 7.065886,15.016782 7.065886,14.073798 L7.065886,11.924742 C7.065886,10.346718 6.339874,9.34300197 5.283742,8.69107797 C5.270386,8.68301397 5.259802,8.66738997 5.259802,8.65000197 L5.259802,6.17989797 C5.259802,6.15444597 5.280718,6.13478997 5.305414,6.13478997 L17.51935,6.13478997 Z M6.445462,6.50018997 C7.21129,6.93640197 7.898494,7.51927797 8.434498,8.24226597 C9.04333,7.52078997 9.801598,6.93942597 10.59439,6.50018997 L6.445462,6.50018997 Z M8.648698,8.55197397 C9.017374,9.12401397 9.297346,9.77492997 9.456106,10.50321 C9.748678,9.61390197 10.338106,8.89670997 11.222878,8.36171397 L11.412382,8.24629797 L11.601634,8.36171397 C12.485902,8.89670997 13.075078,9.61390197 13.368154,10.503966 C13.527166,9.77492997 13.805878,9.12401397 14.175814,8.55197397 C13.25425,7.43309397 12.041626,6.78444597 11.412382,6.50018997 C10.781626,6.78444597 9.57001,7.43309397 8.648698,8.55197397 Z M12.230122,6.50018997 C13.023166,6.93942597 13.78093,7.52078997 14.389006,8.24226597 C14.92627,7.51927797 15.61171,6.93640197 16.378546,6.50018997 L12.230122,6.50018997 Z M14.609002,8.51719797 C14.53567,8.62228197 14.463598,8.72963397 14.39707,8.84051397 L14.39707,8.84000997 C13.862326,9.72528597 13.584622,10.76907 13.584622,11.924742 L13.583866,15.99807 C13.583866,16.023018 13.563202,16.043178 13.538506,16.043178 L9.284746,16.043178 C9.260806,16.043178 9.23989,16.023018 9.23989,15.99807 L9.23989,11.922474 C9.23989,10.767306 8.96143,9.72427797 8.426434,8.84051397 C8.360158,8.72963397 8.289094,8.62228197 8.214754,8.51719797 C7.607434,7.66014597 6.737782,6.97117797 5.626462,6.50018997 L5.626462,8.47536597 C6.426562,9.01061397 6.962314,9.70512597 7.229938,10.55109 C7.229938,10.55109 7.431286,11.085582 7.431286,11.88291 L7.432546,14.073798 C7.432546,15.046266 7.021786,15.932802 6.348694,16.433526 L6.348694,16.433778 L16.474558,16.433778 C15.802222,15.932802 15.391714,15.046266 15.391714,14.073798 L15.392974,11.88291 C15.392974,11.085582 15.593566,10.55109 15.593566,10.55109 C15.86245,9.70512597 16.398454,9.01061397 17.197546,8.47536597 L17.197546,6.50018997 C16.086982,6.97117797 15.217078,7.66014597 14.609002,8.51719797 Z M13.218466,15.63141 L13.218466,11.92575 C13.218466,10.335378 12.480358,9.32158197 11.412382,8.67545397 C10.343902,9.32158197 9.60655,10.335378 9.60655,11.92575 L9.60655,15.63141 C9.60655,15.65661 9.62671,15.677022 9.651406,15.677022 L13.172098,15.677022 C13.197046,15.677022 13.218466,15.65661 13.218466,15.63141 Z" id="Combined-Shape" fill="#FFFFFF" fill-rule="nonzero" mask="url(#mask-3)"></path>
            </g>
        </g>
    </g>
</svg>