<svg xmlns="http://www.w3.org/2000/svg" width="53" height="52" viewBox="0 0 53 52"><g><g><g><path fill="#fa8a34" d="M38.458 31.169c-.949 2.5-6.557 4.14-6.557 4.14l1.093 4.555-2.887.69-1.099-4.587-2.283.52L27.83 41.1l-2.886.69-1.113-4.644-5.785 1.32-.23-3.639s1.052-.131 2.011-.32c.959-.19.98-1.279.851-1.81L17.804 20.7c-.264-1.101-1.416-1.387-1.917-1.307-.502.08-2.09.66-2.09.66l-.728-3.036 5.619-1.346-1.128-4.708 2.885-.69 1.127 4.707 2.28-.545-1.128-4.708 2.884-.69 1.136 4.734c1.294-.21 3.79-.429 5.332.14 1.848.68 3.075 2.955 3.209 4.69.134 1.734-1.702 3.619-1.702 3.619s2.884.2 4.111 1.745c2.494 3.137 1.188 6.08.764 7.204zM23.87 23.904s2.493-.316 4.028-1.285c1.536-.97 2.19-1.932 1.963-3.2-.242-1.347-1.827-2.137-3.389-2.08-1.358.081-2.7.348-3.985.795zm.539 2.922l1.493 6.226s3.955-.746 5.24-1.577c1.286-.83 2.753-2.425 1.897-4.147-.855-1.722-3.24-1.632-4.834-1.411a29.511 29.511 0 0 0-3.796.91zM26.25 52c14.36 0 26-11.64 26-26s-11.64-26-26-26-26 11.64-26 26 11.64 26 26 26z"/></g></g></g></svg>