<?xml version="1.0" encoding="UTF-8"?>
<svg width="17px" height="17px" viewBox="0 0 17 17" version="1.1" xmlns="http://www.w3.org/2000/svg" xmlns:xlink="http://www.w3.org/1999/xlink">
    <!-- Generator: Sketch 56.2 (81672) - https://sketch.com -->
    <title>cancel-operation</title>
    <desc>Created with Sketch.</desc>
    <g id="Desktop-Ar" stroke="none" stroke-width="1" fill="none" fill-rule="evenodd">
        <g id="Buy-Card-[CreditCard]-Median-Step" transform="translate(-135.000000, -51.000000)" fill="#FFFFFF" fill-rule="nonzero">
            <path d="M151.014707,52.0253795 C150.569534,51.5802057 149.847764,51.5802057 149.402591,52.0253795 L143.410383,58.0175872 L137.418175,52.0253795 C136.973001,51.5802057 136.251232,51.5802057 135.806058,52.0253795 C135.360885,52.4705532 135.360885,53.1923225 135.806058,53.6374963 L141.798266,59.629704 L135.806058,65.6219117 C135.360885,66.0670855 135.360885,66.7888547 135.806058,67.2340285 C136.251232,67.6792023 136.973001,67.6792023 137.418175,67.2340285 L143.410383,61.2418208 L149.402591,67.2340285 C149.847764,67.6792023 150.569534,67.6792023 151.014707,67.2340285 C151.459881,66.7888547 151.459881,66.0670855 151.014707,65.6219117 L145.0225,59.629704 L151.014707,53.6374963 C151.459881,53.1923225 151.459881,52.4705532 151.014707,52.0253795 Z" id="cancel-operation"></path>
        </g>
    </g>
</svg>