<?xml version="1.0" encoding="UTF-8"?>
<svg width="570px" height="342px" viewBox="0 0 570 342" version="1.1" xmlns="http://www.w3.org/2000/svg" xmlns:xlink="http://www.w3.org/1999/xlink">
    <!-- Generator: Sketch 56.2 (81672) - https://sketch.com -->
    <title>Shape</title>
    <desc>Created with Sketch.</desc>
    <g id="Desktop-Ar" stroke="none" stroke-width="1" fill="none" fill-rule="evenodd">
        <g id="Buy-Card-[Information]" transform="translate(-135.000000, -217.000000)" fill="#FFFFFF">
            <g id="payers-card" transform="translate(134.500000, 217.000000)">
                <path d="M10.5,0 L560.5,0 C566.022847,0 570.5,4.4771525 570.5,10 L570.5,332 C570.5,337.522847 566.022847,342 560.5,342 L10.5,342 C4.9771525,342 0.5,337.522847 0.5,332 L0.5,10 C0.5,4.4771525 4.9771525,0 10.5,0 Z M278.309578,26.5362131 L231.555918,26.5362131 C230.125206,26.5362131 228.866055,26.8415556 227.82306,27.4076471 C226.780064,27.9737386 225.953224,28.8005789 225.387132,29.8435744 C224.821041,30.8865699 224.515698,32.1457207 224.515698,33.5764329 C224.515698,35.0071451 224.821041,36.2662958 225.387132,37.3092913 C225.953224,38.3522868 226.780064,39.1791272 227.82306,39.7452186 C228.866055,40.3113101 230.125206,40.6166526 231.555918,40.6166526 L339.335083,40.6166526 C340.765796,40.6166526 342.024946,40.3113101 343.067942,39.7452186 C344.110937,39.1791272 344.937778,38.3522868 345.503869,37.3092913 C346.069961,36.2662958 346.375303,35.0071451 346.375303,33.5764329 C346.375303,32.1457207 346.069961,30.8865699 345.503869,29.8435744 C344.937778,28.8005789 344.110937,27.9737386 343.067942,27.4076471 C342.024946,26.8415556 340.765796,26.5362131 339.335083,26.5362131 L292.581424,26.5362131 L292.581424,16.3423641 C292.581424,12.4013027 289.386562,9.20644127 285.445501,9.20644127 C281.504439,9.20644127 278.309578,12.4013027 278.309578,16.3423641 L278.309578,26.5362131 Z" id="Shape"></path>
            </g>
        </g>
    </g>
</svg>