<svg xmlns="http://www.w3.org/2000/svg" width="25" height="19" viewBox="0 0 25 19"><g><g><path fill="#f48d65" d="M12.426 12.96a.9.9 0 0 1-.576-.216L3.45 5.7a.914.914 0 1 1 1.2-1.38l7.788 6.552 8.208-6.984a.91.91 0 0 1 1.2 1.368l-8.832 7.464a.9.9 0 0 1-.588.24zm9.804 5.7H3.03A2.76 2.76 0 0 1 .27 15.9V2.82A2.76 2.76 0 0 1 3.03.06h19.2a2.76 2.76 0 0 1 2.76 2.76V15.9a2.76 2.76 0 0 1-2.76 2.76zM3.03 1.86a.96.96 0 0 0-.96.96V15.9c0 .53.43.96.96.96h19.2c.53 0 .96-.43.96-.96V2.82a.96.96 0 0 0-.96-.96z"/></g></g></svg>