<?xml version="1.0" encoding="UTF-8"?>
<svg width="85px" height="25px" viewBox="0 0 85 25" version="1.1" xmlns="http://www.w3.org/2000/svg" xmlns:xlink="http://www.w3.org/1999/xlink">
    <!-- Generator: Sketch 56.2 (81672) - https://sketch.com -->
    <title>credit-icons</title>
    <desc>Created with Sketch.</desc>
    <g id="Desktop-Ar" stroke="none" stroke-width="1" fill="none" fill-rule="evenodd">
        <g id="Buy-Card-[CreditCard]-Median-Step" transform="translate(-512.000000, -330.000000)" fill-rule="nonzero">
            <g id="payment-method" transform="translate(133.500000, 217.000000)">
                <g id="credit-cards" transform="translate(351.000000, 113.000000)">
                    <g id="credit-icons" transform="translate(27.500000, -0.000000)">
                        <path d="M18.3456,6.75153964 L15.88608,18.3233796 L12.9024,18.3233796 L15.36192,6.75153964 L18.3456,6.75153964 Z M31.00608,14.2107396 L32.57856,9.85617965 L33.50592,14.2107396 L31.00608,14.2107396 Z M34.35264,18.3233796 L37.13472,18.3233796 L34.71552,6.75153964 L32.13504,6.75153964 C31.5715215,6.74076911 31.0591725,7.07699815 30.8448,7.59825964 L26.32896,18.3233796 L29.47392,18.3233796 L30.07872,16.5896196 L33.94944,16.5896196 L34.35264,18.3233796 Z M26.53056,14.5332996 C26.53056,11.4689796 22.29696,11.3076996 22.33728,9.93681965 C22.33728,9.49329964 22.74048,9.09009964 23.62752,8.96913964 C24.6507679,8.88076874 25.6793398,9.06146381 26.6112,9.49329964 L27.13536,7.03377964 C26.2370323,6.67914586 25.2787169,6.50117301 24.31296,6.50961964 C21.32928,6.50961964 19.27296,8.08209964 19.23264,10.3400196 C19.19232,12.0334596 20.72448,12.9204996 21.85344,13.4849796 C22.9824,14.0494596 23.42592,14.4526596 23.42592,14.9364996 C23.42592,15.7025796 22.45824,16.0654596 21.61152,16.0654596 C20.531944,16.0897225 19.4638234,15.8400319 18.50688,15.3396996 L17.9424,17.8798596 C19.0004775,18.3230601 20.1426854,18.5294832 21.28896,18.4846596 C24.43392,18.5249796 26.49024,16.9524996 26.53056,14.5332996 Z M14.07168,6.75153964 L9.23328,18.3233796 L6.048,18.3233796 L3.66912,9.04977964 C3.61201584,8.62462858 3.35806884,8.25117711 2.98368,8.04177964 C2.03450262,7.59318364 1.03178819,7.26797896 -4.40536496e-13,7.07409964 L0.08064,6.75153964 L5.20128,6.75153964 C5.89624405,6.75567612 6.48152322,7.27209892 6.57216,7.96113964 L7.78176,14.6139396 L10.8864,6.71121964 L14.07168,6.71121964 L14.07168,6.75153964 Z" id="VISA" fill="#293688"></path>
                        <g id="master-card" transform="translate(53.145360, -0.000000)">
                            <rect id="Rectangle-path" fill="#FF5F00" x="10.9728" y="2.5056" width="9.3312" height="15.2496"></rect>
                            <path d="M5.6592,24.6672 L5.6592,23.0256 C5.68025883,22.7522892 5.58388726,22.4829497 5.39422154,22.2850377 C5.20455583,22.0871256 4.93955917,21.9793852 4.6656,21.9888 C4.29772297,21.9631573 3.94678738,22.1469807 3.7584,22.464 C3.58223931,22.1561723 3.24870519,21.9727286 2.8944,21.9888 C2.58645814,21.9800601 2.29457318,22.1260026 2.1168,22.3776 L2.1168,22.0752 L1.5984,22.0752 L1.5984,24.6672 L2.1168,24.6672 L2.1168,23.1984 C2.09784194,23.0175317 2.15842404,22.8373527 2.28280499,22.7046797 C2.40718595,22.5720067 2.58308589,22.4999381 2.7648,22.5072 C3.1536,22.5072 3.3264,22.7664 3.3264,23.1984 L3.3264,24.6672 L3.8448,24.6672 L3.8448,23.1984 C3.82584194,23.0175317 3.88642404,22.8373527 4.01080499,22.7046797 C4.13518595,22.5720067 4.31108589,22.4999381 4.4928,22.5072 C4.8816,22.5072 5.0976,22.7664 5.0976,23.1984 L5.0976,24.6672 L5.6592,24.6672 Z M14.04,22.0752 L13.0896,22.0752 L13.0896,21.2976 L12.5712,21.2976 L12.5712,22.0752 L12.0096,22.0752 L12.0096,22.5504 L12.5712,22.5504 L12.5712,23.76 C12.5712,24.3648 12.7872,24.7104122 13.4352,24.7104122 C13.682379,24.7115162 13.9238386,24.6360601 14.1264,24.4944 L13.9536,24.0192 C13.806687,24.0968933 13.6444155,24.1411492 13.4784,24.1488 C13.2192,24.1488 13.0896,23.976 13.0896,23.7168 L13.0896,22.5072 L14.04,22.5072 L14.04,22.0752 Z M18.8352,22.032 C18.5486133,22.0153701 18.2786091,22.1672475 18.144,22.4208 L18.144,22.1184 L17.6256,22.1184 L17.6256,24.7104 L18.144,24.7104 L18.144,23.2416 C18.144,22.8096 18.36,22.5504 18.7056,22.5504 C18.8273893,22.5374713 18.949823,22.5680797 19.0512,22.6368 L19.224,22.1616 C19.1174442,22.0672774 18.9770382,22.0204754 18.8352,22.032 L18.8352,22.032 Z M11.5776,22.2912 C11.2630024,22.1096348 10.9038286,22.0198414 10.5408,22.032 C9.8928,22.032 9.504,22.3344 9.504,22.8528 C9.504,23.2848 9.8064,23.544 10.368,23.5872 L10.6272,23.6304 C10.9296,23.6736 11.1024,23.76 11.1024,23.9328 C11.1024,24.1056 10.8864,24.2784 10.4976,24.2784 C10.1905041,24.2779794 9.89021437,24.1878925 9.6336,24.0192 L9.3744,24.408 C9.70806148,24.6282093 10.0978596,24.7481472 10.4976,24.7536 C11.232,24.7536 11.664,24.408 11.664,23.9328 C11.664,23.4576 11.3616,23.2416 10.8,23.1552 L10.5408,23.112 C10.2816,23.0688 10.0656,23.0256 10.0656,22.8528 C10.0656,22.68 10.2816,22.5504 10.584,22.5504 C10.8705141,22.5587108 11.1513083,22.632604 11.4048,22.7664 L11.5776,22.2912 Z M19.3968,23.3712 C19.3765554,23.7322044 19.5111358,24.0847249 19.7668054,24.3403946 C20.0224751,24.5960642 20.3749956,24.7306446 20.736,24.7104 C21.0658919,24.7289295 21.3904042,24.6207587 21.6432,24.408 L21.384,24.0192 C21.1788048,24.1554151 20.9390438,24.2303405 20.6928,24.2352 C20.215626,24.2352 19.8288,23.848374 19.8288,23.3712 C19.8288,22.894026 20.215626,22.5072 20.6928,22.5072 C20.9390438,22.5120595 21.1788048,22.5869849 21.384,22.7232 L21.6432,22.3344 C21.3904042,22.1216413 21.0658919,22.0134705 20.736,22.032 C20.3749956,22.0117554 20.0224751,22.1463358 19.7668054,22.4020054 C19.5111358,22.6576751 19.3765554,23.0101956 19.3968,23.3712 L19.3968,23.3712 Z M15.768,22.0319767 C15.4197982,22.0298741 15.0865296,22.1732621 14.8486486,22.4275487 C14.6107676,22.6818353 14.4898912,23.0239127 14.5152,23.3712 C14.4847196,23.7272291 14.6098736,24.0790181 14.8583696,24.3357972 C15.1068655,24.5925763 15.4543632,24.7291941 15.8112,24.7104 C16.1878598,24.7289212 16.5577849,24.6056128 16.848,24.3648 L16.5888,23.976 C16.3805824,24.1433715 16.1215472,24.2347957 15.8544,24.2352 C15.4661147,24.2543182 15.1280139,23.9725675 15.0768,23.5872 L17.0208,23.5872 L17.0208,23.3712 C16.9776,22.5504 16.5024,22.0319767 15.768,22.0319767 Z M15.768,22.5072 C16.1369781,22.4974675 16.4451319,22.7863617 16.4592,23.1552 L15.0768,23.1552 C15.0908681,22.7863617 15.3990219,22.4974675 15.768,22.5072 L15.768,22.5072 Z M8.8128,23.3712 L8.8128,22.0752 L8.2944,22.0752 L8.2944,22.3776 C8.09198556,22.1327043 7.79131578,21.9902818 7.4736,21.9887767 C7.12539817,21.9866741 6.79212963,22.1300621 6.55424863,22.3843487 C6.31636764,22.6386353 6.19549118,22.9807127 6.2208,23.328 C6.20914971,23.6717727 6.33463905,24.0060757 6.56962466,24.2572673 C6.80461027,24.5084588 7.12981455,24.6559317 7.4736,24.6672 C7.79542898,24.6851734 8.10443349,24.5388029 8.2944,24.2784 L8.2944,24.5808 L8.8128,24.5808 L8.8128,23.3712 Z M6.696,23.3712 C6.6788417,23.1447845 6.75828035,22.9216793 6.91467105,22.7570575 C7.07106175,22.5924357 7.28980269,22.5016677 7.5168,22.5072 C7.73713925,22.5111529 7.94594884,22.6064022 8.09337174,22.7702054 C8.24079465,22.9340087 8.31359847,23.1516631 8.2944,23.3712 C8.3205307,23.5922457 8.25014304,23.8138315 8.10124164,23.9792775 C7.95234024,24.1447235 7.73936744,24.2379826 7.5168,24.2352 C7.29220107,24.2330558 7.07807402,24.1399157 6.92337458,23.9770741 C6.76867514,23.8142326 6.68663105,23.5956137 6.696,23.3712 L6.696,23.3712 Z M26.6112,22.032 C26.3246133,22.0153701 26.0546091,22.1672475 25.92,22.4208 L25.92,22.1184 L25.4016,22.1184 L25.4016,24.7104 L25.92,24.7104 L25.92,23.2416 C25.92,22.8096 26.136,22.5504 26.4816,22.5504 C26.6033893,22.5374713 26.725823,22.5680797 26.8272,22.6368 L27,22.1616 C26.8934442,22.0672774 26.7530382,22.0204754 26.6112,22.032 Z M30.7584,24.2784 L30.8448,24.2784 C30.888,24.2784 30.888,24.3216 30.9312,24.3216 C30.9744,24.3216 30.9744,24.3648 30.9744,24.408 L30.9744,24.5808 C30.9744,24.624 30.9312,24.624 30.9312,24.6672 C30.9312,24.7104 30.888,24.7104 30.8448,24.7104 L30.672,24.7104 C30.6288,24.7104 30.6288,24.6672 30.5856,24.6672 C30.5424,24.6672 30.5424,24.624 30.5424,24.5808 L30.5424,24.408 C30.5424,24.3648 30.5856,24.3648 30.5856,24.3216 C30.5856,24.2784 30.6288,24.2784 30.672,24.2784 L30.7584,24.2784 Z M30.7584,24.7536 L30.8448,24.7536 C30.8686587,24.7536 30.888,24.7342587 30.888,24.7104 L30.9312,24.6672 L30.9312,24.4944 C30.9312,24.4705413 30.9118587,24.4512 30.888,24.4512 L30.8448,24.408 L30.672,24.408 C30.6481413,24.408 30.6288,24.4273413 30.6288,24.4512 L30.5856,24.4944 L30.5856,24.6672 C30.5856,24.6910587 30.6049413,24.7104 30.6288,24.7104 L30.672,24.7536 L30.7584,24.7536 Z M30.7584,24.408 L30.8448,24.408 L30.888,24.4512 L30.888,24.4944 C30.8641413,24.4944 30.8448,24.5137413 30.8448,24.5376 L30.9312,24.624 L30.888,24.624 L30.8016,24.5376 L30.7584,24.5376 L30.7584,24.624 L30.7152,24.624 L30.7152,24.3648 L30.7584,24.3648 L30.7584,24.408 Z M24.624,23.3712 L24.624,22.0752 L24.1056,22.0752 L24.1056,22.3776 C23.9031856,22.1327043 23.6025158,21.9902818 23.2848,21.9887767 C22.9365982,21.9866741 22.6033296,22.1300621 22.3654486,22.3843487 C22.1275676,22.6386353 22.0066912,22.9807127 22.032,23.328 C22.0203497,23.6717727 22.1458391,24.0060757 22.3808247,24.2572673 C22.6158103,24.5084588 22.9410145,24.6559317 23.2848,24.6672 C23.606629,24.6851734 23.9156335,24.5388029 24.1056,24.2784 L24.1056,24.5808 L24.624,24.5808 L24.624,23.3712 Z M22.5504,23.3712 C22.5332417,23.1447845 22.6126804,22.9216793 22.7690711,22.7570575 C22.9254618,22.5924357 23.1442027,22.5016677 23.3712,22.5072 C23.5915393,22.5111529 23.8003488,22.6064022 23.9477717,22.7702054 C24.0951947,22.9340087 24.1679985,23.1516631 24.1488,23.3712 C24.1749307,23.5922457 24.104543,23.8138315 23.9556416,23.9792775 C23.8067402,24.1447235 23.5937674,24.2379826 23.3712,24.2352 C23.1442027,24.2407323 22.9254618,24.1499643 22.7690711,23.9853425 C22.6126804,23.8207207 22.5332417,23.5976155 22.5504,23.3712 Z M29.808,23.3712 L29.808,21.0384 L29.2896,21.0384 L29.2896,22.3776 C29.0871856,22.1327043 28.7865158,21.9902818 28.4688,21.9888 C28.1205982,21.9866741 27.7873296,22.1300621 27.5494486,22.3843487 C27.3115676,22.6386353 27.1906912,22.9807127 27.216,23.328 C27.2043497,23.6717727 27.3298391,24.0060757 27.5648247,24.2572673 C27.7998103,24.5084588 28.1250145,24.6559317 28.4688,24.6672 C28.790629,24.6851734 29.0996335,24.5388029 29.2896,24.2784 L29.2896,24.5808 L29.808,24.5808 L29.808,23.3712 Z M27.7344,23.3712 C27.7172417,23.1447845 27.7966804,22.9216793 27.9530711,22.7570575 C28.1094618,22.5924357 28.3282027,22.5016677 28.5552,22.5072 C28.7755393,22.5111529 28.9843488,22.6064022 29.1317717,22.7702054 C29.2791947,22.9340087 29.3519985,23.1516631 29.3328,23.3712 C29.3589307,23.5922457 29.288543,23.8138315 29.1396416,23.9792775 C28.9907402,24.1447235 28.7777674,24.2379826 28.5552,24.2352 C28.3282027,24.2407323 28.1094618,24.1499643 27.9530711,23.9853425 C27.7966804,23.8207207 27.7172417,23.5976155 27.7344,23.3712 Z" id="Shape" fill="#211E1F"></path>
                            <path d="M11.9664,10.1088 C11.9677456,7.13747895 13.3383262,4.33256979 15.6816,2.5056 C12.3528819,-0.122030986 7.70146703,-0.277315312 4.20491248,2.12245859 C0.708357927,4.52223248 -0.819300229,8.91837107 0.435638905,12.969289 C1.69057804,17.020207 5.43595095,19.7828064 9.6768,19.7856 C11.8529274,19.779188 13.9652198,19.0497633 15.6816,17.712 C13.3305034,15.891387 11.9579235,13.0823862 11.9664,10.1088" id="Shape" fill="#EB001B"></path>
                            <path d="M30.4128,16.1136 L30.4128,15.8112 L30.5424,15.8112 L30.5424,15.768 L30.24,15.768 L30.24,15.8112 L30.3696,15.8112 L30.4128,16.1136 L30.4128,16.1136 Z M31.0176,16.1136 L31.0176,15.7248 L30.9312,15.7248 L30.8016,15.984 L30.672,15.7248 L30.5856,15.7248 L30.5856,16.1136 L30.672,16.1136 L30.672,15.8112 L30.7584,16.0704 L30.8448,16.0704 L30.9312,15.8112 L30.9312,16.1136 L31.0176,16.1136 Z" id="Shape" fill="#F79E1B"></path>
                            <path d="M31.3200155,10.1088 C31.3245978,12.6766537 30.3065572,15.1406579 28.4908076,16.9564076 C26.6750579,18.7721572 24.2110537,19.7901978 21.6432,19.7856155 C19.4670726,19.779188 17.3547802,19.0497633 15.6384,17.712 C17.9826391,15.8858327 19.3534109,13.0803894 19.3534109,10.1088 C19.3534109,7.13721056 17.9826391,4.33176727 15.6384,2.5056 C18.5528904,0.212358738 22.5206434,-0.216251995 25.8576328,1.40168227 C29.1946223,3.01961654 31.3154589,6.40027076 31.3200155,10.1088" id="Shape" fill="#F79E1B"></path>
                        </g>
                    </g>
                </g>
            </g>
        </g>
    </g>
</svg>