<?xml version="1.0" encoding="UTF-8"?>
<svg width="86px" height="41px" viewBox="0 0 86 41" version="1.1" xmlns="http://www.w3.org/2000/svg" xmlns:xlink="http://www.w3.org/1999/xlink">
    <!-- Generator: Sketch 56.2 (81672) - https://sketch.com -->
    <title>e-coins</title>
    <desc>Created with Sketch.</desc>
    <g id="Desktop-Ar" stroke="none" stroke-width="1" fill="none" fill-rule="evenodd">
        <g id="Buy-Card-[Payment-Method]" transform="translate(-512.000000, -454.000000)">
            <g id="payment-method" transform="translate(133.500000, 217.000000)">
                <g id="e-coins" transform="translate(372.000000, 237.500000)">
                    <g transform="translate(6.500000, 0.000000)">
                        <path d="M64.2512745,20.2473987 C65.7501821,20.6637619 70.4967226,21.329943 69.8305415,24.1612128 C69.1643604,26.90921 64.5843651,25.4103024 63.0854576,25.0772119 L64.2512745,20.2473987 Z M65.9167274,13.66886 C67.165817,14.0019506 71.0796311,14.5848591 70.4967226,17.166311 C69.9138141,19.6644902 66.0832726,18.4154006 64.834183,18.08231 L65.9167274,13.66886 Z M70.8298132,0.595055348 C81.5719839,3.34305251 88.0672499,14.1684959 85.4025254,24.827394 C82.7378009,35.5695647 71.9123575,42.0648307 61.1701868,39.4001062 C50.4280161,36.7353817 43.9327501,25.9099383 46.5974746,15.1677676 C49.2621991,4.50886949 60.0876425,-2.06966917 70.8298132,0.595055348 Z M74.8269,17.166311 C75.2432632,14.5015864 73.1614471,13.0859515 70.2469047,12.1699525 L71.1629038,8.58922891 L68.9978151,8.00632042 L68.1650887,11.5037714 C67.5821802,11.3372261 66.9992717,11.2539534 66.4163632,11.0874081 L67.3323623,7.58995721 L65.1672736,7.00704873 L64.2512745,10.5877723 C63.7516387,10.5044997 63.2520028,10.3379544 62.8356396,10.2546817 L59.8378245,9.50522796 L59.2549161,11.8368619 C59.2549161,11.8368619 60.8370962,12.2532251 60.8370962,12.2532251 C61.6698227,12.4197704 61.8363679,13.0026789 61.8363679,13.5023147 L60.8370962,17.5826742 C60.9203689,17.5826742 61.0036415,17.6659468 61.0869142,17.6659468 C61.0036415,17.5826742 60.9203689,17.5826742 60.8370962,17.5826742 L59.4214613,23.3284864 C59.3381887,23.5783043 59.0050981,23.9946675 58.4221896,23.8281223 C58.4221896,23.8281223 56.8400095,23.4117591 56.8400095,23.4117591 L55.7574651,25.9099383 L58.5887349,26.6593921 C59.1716434,26.8259373 59.6712793,26.90921 60.1709151,27.0757553 L59.2549161,30.7397515 L61.4200047,31.32266 L62.3360038,27.7419364 C62.9189123,27.825209 63.5018208,27.9917543 64.0847293,28.1582996 L63.1687302,31.7390232 L65.3338189,32.4052043 L66.2498179,28.7412081 C69.9970868,29.4073892 72.8283566,29.1575713 73.9941736,25.743393 C74.9934453,22.9953959 73.9941736,21.4132157 71.9956302,20.413944 C73.4945377,20.0808534 74.5770821,19.0815817 74.8269,17.166311 Z" id="Combined-Shape" fill="#F7921B" fill-rule="nonzero"></path>
                        <g id="Group-4">
                            <circle id="Oval" fill="#8C8C8C" fill-rule="nonzero" cx="20" cy="20" r="20"></circle>
                            <polygon id="Path" fill="#343434" points="19.9978538 8.49655172 19.8436469 9.02068966 19.8436469 24.2299586 19.9978538 24.3838897 27.0578262 20.2107586"></polygon>
                            <polygon id="Path" fill="#FFFFFF" points="19.9979034 8.49655172 12.937931 20.2107586 19.9979034 24.3839448 19.9979034 17.0018207"></polygon>
                            <polygon id="Path" fill="#3C3C3B" points="19.9978538 25.72064 19.9109572 25.826571 19.9109572 31.2444469 19.9978538 31.4982952 27.0620193 21.5496055"></polygon>
                            <polygon id="Path" fill="#FFFFFF" points="19.9979034 31.4982179 19.9979034 25.7205628 12.937931 21.5495283"></polygon>
                            <polygon id="Path" fill="#141414" points="19.9978538 24.3838731 27.0577159 20.2107972 19.9978538 17.0018593"></polygon>
                            <polygon id="Path" fill="#393939" points="12.9379807 20.2108028 19.9978428 24.3838786 19.9978428 17.0018648"></polygon>
                        </g>
                    </g>
                </g>
            </g>
        </g>
    </g>
</svg>