<?xml version="1.0" encoding="UTF-8"?>
<svg width="570px" height="285px" viewBox="0 0 570 285" version="1.1" xmlns="http://www.w3.org/2000/svg" xmlns:xlink="http://www.w3.org/1999/xlink">
    <!-- Generator: Sketch 56.2 (81672) - https://sketch.com -->
    <title>email-header</title>
    <desc>Created with Sketch.</desc>
    <g id="Available-Cards" stroke="none" stroke-width="1" fill="none" fill-rule="evenodd">
        <g id="email-form" transform="translate(-435.000000, 0.000000)" fill-rule="nonzero">
            <g id="email-header" transform="translate(435.285000, -217.620000)">
                <path d="M527.530208,217.675597 C527.530208,351.843769 418.765415,460.608563 284.597243,460.608563 C150.429071,460.608563 41.6642772,351.843769 41.6642772,217.675597 L527.530208,217.675597 Z" id="cyan-filled" fill="#9EC6CD"></path>
                <path d="M446.597243,205.16 C446.597243,294.630129 374.067372,367.16 284.597243,367.16 C195.127113,367.16 122.597243,294.630129 122.597243,205.16 L446.597243,205.16 Z" id="orange-filled" fill="#F27036"></path>
                <path d="M568.840208,176.365597 L568.840208,217.675597 C568.840208,374.658652 441.580298,501.918563 284.597243,501.918563 C127.614188,501.918563 0.354277241,374.658652 0.354277241,217.675597 L0.354277241,176.365597 L568.840208,176.365597 Z M527.530208,217.675597 L41.6642772,217.675597 C41.6642772,351.843769 150.429071,460.608563 284.597243,460.608563 C418.765415,460.608563 527.530208,351.843769 527.530208,217.675597 Z" id="line" fill="#FFFFFF"></path>
                <g id="r-patterns" transform="translate(372.820208, 280.715011)">
                    <circle id="Oval" fill="#EAEEF0" transform="translate(189.181940, 158.820000) scale(-1, -1) rotate(-241.000000) translate(-189.181940, -158.820000) " cx="189.18194" cy="158.82" r="4.57373246"></circle>
                    <path d="M188.548959,160.76232 L188.548959,159.271123 C188.548959,159.231881 188.529338,159.21226 188.490096,159.21226 L187.01852,159.21226 C186.959657,159.21226 186.920415,159.173018 186.920415,159.114155 L186.920415,158.152726 C186.920415,158.093863 186.959657,158.054621 187.01852,158.054621 L188.490096,158.054621 C188.529338,158.054621 188.548959,158.035 188.548959,157.995758 L188.548959,156.504561 C188.548959,156.445698 188.588201,156.406456 188.647064,156.406456 L189.647735,156.406456 C189.706598,156.406456 189.74584,156.445698 189.74584,156.504561 L189.74584,157.995758 C189.74584,158.035 189.765461,158.054621 189.804703,158.054621 L191.276278,158.054621 C191.335141,158.054621 191.374384,158.093863 191.374384,158.152726 L191.374384,159.114155 C191.374384,159.173018 191.335141,159.21226 191.276278,159.21226 L189.804703,159.21226 C189.765461,159.21226 189.74584,159.231881 189.74584,159.271123 L189.74584,160.76232 C189.74584,160.821183 189.706598,160.860425 189.647735,160.860425 L188.647064,160.860425 C188.588201,160.860425 188.548959,160.821183 188.548959,160.76232 Z" id="+" fill="#331D34" transform="translate(189.147399, 158.633441) scale(-1, -1) rotate(-241.000000) translate(-189.147399, -158.633441) "></path>
                    <circle id="Oval" fill="#EAEEF0" transform="translate(125.115327, 167.616562) rotate(-70.000000) translate(-125.115327, -167.616562) " cx="125.115327" cy="167.616562" r="5.88051316"></circle>
                    <path d="M124.264517,170.12373 L124.264517,168.206478 C124.264517,168.156024 124.23929,168.130797 124.188836,168.130797 L122.29681,168.130797 C122.221129,168.130797 122.170675,168.080343 122.170675,168.004662 L122.170675,166.768538 C122.170675,166.692857 122.221129,166.642403 122.29681,166.642403 L124.188836,166.642403 C124.23929,166.642403 124.264517,166.617176 124.264517,166.566722 L124.264517,164.649469 C124.264517,164.573788 124.314971,164.523334 124.390652,164.523334 L125.677229,164.523334 C125.75291,164.523334 125.803364,164.573788 125.803364,164.649469 L125.803364,166.566722 C125.803364,166.617176 125.828591,166.642403 125.879046,166.642403 L127.771071,166.642403 C127.846752,166.642403 127.897206,166.692857 127.897206,166.768538 L127.897206,168.004662 C127.897206,168.080343 127.846752,168.130797 127.771071,168.130797 L125.879046,168.130797 C125.828591,168.130797 125.803364,168.156024 125.803364,168.206478 L125.803364,170.12373 C125.803364,170.199411 125.75291,170.249865 125.677229,170.249865 L124.390652,170.249865 C124.314971,170.249865 124.264517,170.199411 124.264517,170.12373 Z" id="+" fill="#331D34" transform="translate(125.033941, 167.386600) rotate(-70.000000) translate(-125.033941, -167.386600) "></path>
                    <circle id="Oval" fill="#EAEEF0" transform="translate(28.675184, 164.738735) rotate(-197.000000) translate(-28.675184, -164.738735) " cx="28.675184" cy="164.738735" r="6.1605376"></circle>
                    <path d="M27.7280314,167.819282 L27.7280314,165.810732 C27.7280314,165.757875 27.7016031,165.731447 27.6487466,165.731447 L25.6666245,165.731447 C25.5873396,165.731447 25.534483,165.67859 25.534483,165.599306 L25.534483,164.304319 C25.534483,164.225034 25.5873396,164.172178 25.6666245,164.172178 L27.6487466,164.172178 C27.7016031,164.172178 27.7280314,164.145749 27.7280314,164.092893 L27.7280314,162.084342 C27.7280314,162.005057 27.780888,161.952201 27.8601729,161.952201 L29.2080159,161.952201 C29.2873008,161.952201 29.3401574,162.005057 29.3401574,162.084342 L29.3401574,164.092893 C29.3401574,164.145749 29.3665857,164.172178 29.4194423,164.172178 L31.4015644,164.172178 C31.4808493,164.172178 31.5337058,164.225034 31.5337058,164.304319 L31.5337058,165.599306 C31.5337058,165.67859 31.4808493,165.731447 31.4015644,165.731447 L29.4194423,165.731447 C29.3665857,165.731447 29.3401574,165.757875 29.3401574,165.810732 L29.3401574,167.819282 C29.3401574,167.898567 29.2873008,167.951424 29.2080159,167.951424 L27.8601729,167.951424 C27.780888,167.951424 27.7280314,167.898567 27.7280314,167.819282 Z" id="+" fill="#331D34" transform="translate(28.534094, 164.951812) rotate(-197.000000) translate(-28.534094, -164.951812) "></path>
                    <circle id="Oval" fill="#EAEEF0" transform="translate(188.653143, 6.599742) scale(-1, 1) rotate(-348.000000) translate(-188.653143, -6.599742) " cx="188.653143" cy="6.59974209" r="5.32046429"></circle>
                    <path d="M187.76121,8.97431866 L187.76121,7.23966151 C187.76121,7.19401264 187.738385,7.1711882 187.692736,7.1711882 L185.980904,7.1711882 C185.91243,7.1711882 185.866781,7.12553933 185.866781,7.05706602 L185.866781,5.93866865 C185.866781,5.87019534 185.91243,5.82454647 185.980904,5.82454647 L187.692736,5.82454647 C187.738385,5.82454647 187.76121,5.80172203 187.76121,5.75607316 L187.76121,4.02141601 C187.76121,3.9529427 187.806858,3.90729383 187.875332,3.90729383 L189.039378,3.90729383 C189.107851,3.90729383 189.1535,3.9529427 189.1535,4.02141601 L189.1535,5.75607316 C189.1535,5.80172203 189.176325,5.82454647 189.221974,5.82454647 L190.933806,5.82454647 C191.00228,5.82454647 191.047928,5.87019534 191.047928,5.93866865 L191.047928,7.05706602 C191.047928,7.12553933 191.00228,7.1711882 190.933806,7.1711882 L189.221974,7.1711882 C189.176325,7.1711882 189.1535,7.19401264 189.1535,7.23966151 L189.1535,8.97431866 C189.1535,9.04279196 189.107851,9.08844084 189.039378,9.08844084 L187.875332,9.08844084 C187.806858,9.08844084 187.76121,9.04279196 187.76121,8.97431866 Z" id="+" fill="#331D34" transform="translate(188.457355, 6.497867) scale(-1, 1) rotate(-348.000000) translate(-188.457355, -6.497867) "></path>
                    <circle id="Oval" fill="#EAEEF0" transform="translate(7.915312, 199.601287) scale(-1, 1) rotate(-253.000000) translate(-7.915312, -199.601287) " cx="7.91531171" cy="199.601287" r="6.06719612"></circle>
                    <path d="M7.02518991,202.657853 L7.02518991,200.679735 C7.02518991,200.62768 6.99916204,200.601652 6.94710631,200.601652 L4.99501638,200.601652 C4.91693278,200.601652 4.86487705,200.549596 4.86487705,200.471512 L4.86487705,199.196147 C4.86487705,199.118063 4.91693278,199.066008 4.99501638,199.066008 L6.94710631,199.066008 C6.99916204,199.066008 7.02518991,199.03998 7.02518991,198.987924 L7.02518991,197.009806 C7.02518991,196.931723 7.07724564,196.879667 7.15532924,196.879667 L8.48275039,196.879667 C8.56083399,196.879667 8.61288972,196.931723 8.61288972,197.009806 L8.61288972,198.987924 C8.61288972,199.03998 8.63891759,199.066008 8.69097332,199.066008 L10.6430633,199.066008 C10.7211469,199.066008 10.7732026,199.118063 10.7732026,199.196147 L10.7732026,200.471512 C10.7732026,200.549596 10.7211469,200.601652 10.6430633,200.601652 L8.69097332,200.601652 C8.63891759,200.601652 8.61288972,200.62768 8.61288972,200.679735 L8.61288972,202.657853 C8.61288972,202.735937 8.56083399,202.787992 8.48275039,202.787992 L7.15532924,202.787992 C7.07724564,202.787992 7.02518991,202.735937 7.02518991,202.657853 Z" id="+" fill="#331D34" transform="translate(7.819040, 199.833830) scale(-1, 1) rotate(-253.000000) translate(-7.819040, -199.833830) "></path>
                    <circle id="Oval" fill="#FFFFFF" transform="translate(17.806180, 179.331926) scale(1, -1) rotate(-320.000000) translate(-17.806180, -179.331926) " cx="17.8061804" cy="179.331926" r="2.23918587"></circle>
                    <polygon id="Path" fill="#FCDF9F" transform="translate(17.806180, 179.331926) scale(1, -1) rotate(-320.000000) translate(-17.806180, -179.331926) " points="17.8061804 178.072356 17.5833939 178.295143 18.4627315 179.17448 16.5466102 179.17448 16.5466102 179.489373 18.4627315 179.489373 17.5833939 180.36871 17.8061804 180.591497 19.0657507 179.331926"></polygon>
                    <circle id="Oval" fill="#1B0E1C" transform="translate(167.926116, 111.783567) scale(1, -1) rotate(-29.000000) translate(-167.926116, -111.783567) " cx="167.926116" cy="111.783567" r="1.40410065"></circle>
                    <circle id="Oval" fill="#1B0E1C" transform="translate(77.159003, 192.830904) scale(-1, 1) rotate(-254.000000) translate(-77.159003, -192.830904) " cx="77.1590025" cy="192.830904" r="1.31049394"></circle>
                    <circle id="Oval" fill="#F48D65" transform="translate(148.389754, 33.470792) scale(1, -1) rotate(-18.000000) translate(-148.389754, -33.470792) " cx="148.389754" cy="33.4707916" r="1.21688723"></circle>
                    <circle id="Oval" fill="#F48D65" transform="translate(103.185007, 180.231508) scale(-1, -1) rotate(-274.000000) translate(-103.185007, -180.231508) " cx="103.185007" cy="180.231508" r="1"></circle>
                    <circle id="Oval" fill="#331D34" transform="translate(184.374299, 79.817824) scale(-1, 1) rotate(-225.000000) translate(-184.374299, -79.817824) " cx="184.374299" cy="79.8178237" r="4.02508854"></circle>
                    <circle id="Oval" fill="#331D34" transform="translate(121.302196, 111.135325) scale(-1, 1) rotate(-257.000000) translate(-121.302196, -111.135325) " cx="121.302196" cy="111.135325" r="2.90180801"></circle>
                    <circle id="Oval" fill="#331D34" transform="translate(129.250328, 47.378219) scale(-1, 1) rotate(-96.000000) translate(-129.250328, -47.378219) " cx="129.250328" cy="47.3782189" r="4.11869525"></circle>
                    <path d="M184.559812,192.119007 C184.603754,193.584305 185.096766,194.739264 185.698485,194.739264 C184.553312,195.930065 182.805976,196.301911 181.280923,195.679302 C179.755852,195.056687 178.757861,193.564028 178.757861,191.905652 C178.757861,190.247276 179.755852,188.754618 181.280923,188.132002 C182.805993,187.509386 184.55335,187.881247 185.698485,189.072117 C184.988794,189.805308 184.60924,190.741625 184.559823,191.692087 C184.557705,191.762613 184.556626,191.833858 184.556626,191.905729 C184.556626,191.977476 184.557701,192.0486 184.559812,192.119007 C184.552426,191.976806 184.55243,191.834288 184.559823,191.692087 Z M185.702791,189.072213 C185.701356,189.0722 185.699921,189.072193 185.698485,189.072193 C185.096816,189.072193 184.603836,190.226961 184.559823,191.692087 Z M185.702867,194.739244 C185.70141,194.739257 185.699952,194.739264 185.698494,194.739264 Z" id="Combined-Shape" fill="#1B0E1C" transform="translate(185.698310, 191.905722) scale(-1, 1) rotate(-318.000000) translate(-185.698310, -191.905722) "></path>
                    <path d="M182.550862,190.153956 C181.458106,190.153703 180.412463,190.602403 179.655273,191.396494 C181.177283,192.974101 181.177283,195.485957 179.655273,197.063564 C180.933764,198.389579 182.938556,198.680183 184.536006,197.77105 C186.133456,196.861918 186.921954,194.981611 186.45563,193.193381 C185.989307,191.405151 184.385398,190.158571 182.550862,190.158541 L182.550862,190.153956 Z" id="Path" fill="#FCDF9F" transform="translate(183.121945, 194.225501) scale(-1, 1) rotate(-318.000000) translate(-183.121945, -194.225501) "></path>
                    <path d="M191.747388,186.75016 C190.602253,185.55929 188.854896,185.18743 187.329826,185.810046 C185.804756,186.432661 184.806765,187.92532 184.806765,189.583696 C184.806765,191.242071 185.804756,192.73473 187.329826,193.357346 C188.854896,193.979961 190.602253,193.608101 191.747388,192.417231 C190.221776,190.841099 190.221776,188.326292 191.747388,186.75016 L191.747388,186.75016 Z" id="Path" fill="#F48D65" transform="translate(188.277076, 189.583696) scale(-1, 1) rotate(-318.000000) translate(-188.277076, -189.583696) "></path>
                    <circle id="Oval" fill="#EAEEF0" transform="translate(79.476485, 113.336006) rotate(-231.000000) translate(-79.476485, -113.336006) " cx="79.4764853" cy="113.336006" r="2.62098788"></circle>
                    <circle id="Oval" fill="#F48D65" transform="translate(132.538040, 94.334745) scale(-1, -1) rotate(-139.000000) translate(-132.538040, -94.334745) " cx="132.53804" cy="94.3347452" r="1.21688723"></circle>
                    <circle id="Oval" fill="#F48D65" transform="translate(83.431909, 140.828763) scale(1, -1) rotate(-223.000000) translate(-83.431909, -140.828763) " cx="83.4319091" cy="140.828763" r="1"></circle>
                    <path d="M76.7926318,166.760672 L78.1692543,164.552234 C78.3321682,164.293625 78.4299165,164.026807 78.2344198,163.805142 C78.0389231,163.583477 77.8637907,163.727149 77.7008768,163.985758 L74.251175,169.519166 L73.0659764,168.10708 L77.1795523,161.514607 C77.7773614,162.097633 78.3403993,162.715818 78.8657112,163.365918 C79.8513402,164.597388 79.93687,165.418369 79.1793204,166.621105 C78.4217708,167.823841 77.4361417,167.766373 76.7926318,166.731937 L76.7926318,166.760672 Z" id="path-1-path" fill="#331D34" transform="translate(76.375381, 165.516886) scale(-1, -1) rotate(-219.000000) translate(-76.375381, -165.516886) "></path>
                </g>
                <g id="l-patterns" transform="translate(104.490000, 384.395011) scale(-1, 1) translate(-104.490000, -384.395011) translate(6.480000, 280.715011)">
                    <circle id="Oval" fill="#EAEEF0" transform="translate(189.181940, 158.820000) scale(-1, -1) rotate(-241.000000) translate(-189.181940, -158.820000) " cx="189.18194" cy="158.82" r="4.57373246"></circle>
                    <path d="M188.548959,160.76232 L188.548959,159.271123 C188.548959,159.231881 188.529338,159.21226 188.490096,159.21226 L187.01852,159.21226 C186.959657,159.21226 186.920415,159.173018 186.920415,159.114155 L186.920415,158.152726 C186.920415,158.093863 186.959657,158.054621 187.01852,158.054621 L188.490096,158.054621 C188.529338,158.054621 188.548959,158.035 188.548959,157.995758 L188.548959,156.504561 C188.548959,156.445698 188.588201,156.406456 188.647064,156.406456 L189.647735,156.406456 C189.706598,156.406456 189.74584,156.445698 189.74584,156.504561 L189.74584,157.995758 C189.74584,158.035 189.765461,158.054621 189.804703,158.054621 L191.276278,158.054621 C191.335141,158.054621 191.374384,158.093863 191.374384,158.152726 L191.374384,159.114155 C191.374384,159.173018 191.335141,159.21226 191.276278,159.21226 L189.804703,159.21226 C189.765461,159.21226 189.74584,159.231881 189.74584,159.271123 L189.74584,160.76232 C189.74584,160.821183 189.706598,160.860425 189.647735,160.860425 L188.647064,160.860425 C188.588201,160.860425 188.548959,160.821183 188.548959,160.76232 Z" id="+" fill="#331D34" transform="translate(189.147399, 158.633441) scale(-1, -1) rotate(-241.000000) translate(-189.147399, -158.633441) "></path>
                    <circle id="Oval" fill="#EAEEF0" transform="translate(125.115327, 167.616562) rotate(-70.000000) translate(-125.115327, -167.616562) " cx="125.115327" cy="167.616562" r="5.88051316"></circle>
                    <path d="M124.264517,170.12373 L124.264517,168.206478 C124.264517,168.156024 124.23929,168.130797 124.188836,168.130797 L122.29681,168.130797 C122.221129,168.130797 122.170675,168.080343 122.170675,168.004662 L122.170675,166.768538 C122.170675,166.692857 122.221129,166.642403 122.29681,166.642403 L124.188836,166.642403 C124.23929,166.642403 124.264517,166.617176 124.264517,166.566722 L124.264517,164.649469 C124.264517,164.573788 124.314971,164.523334 124.390652,164.523334 L125.677229,164.523334 C125.75291,164.523334 125.803364,164.573788 125.803364,164.649469 L125.803364,166.566722 C125.803364,166.617176 125.828591,166.642403 125.879046,166.642403 L127.771071,166.642403 C127.846752,166.642403 127.897206,166.692857 127.897206,166.768538 L127.897206,168.004662 C127.897206,168.080343 127.846752,168.130797 127.771071,168.130797 L125.879046,168.130797 C125.828591,168.130797 125.803364,168.156024 125.803364,168.206478 L125.803364,170.12373 C125.803364,170.199411 125.75291,170.249865 125.677229,170.249865 L124.390652,170.249865 C124.314971,170.249865 124.264517,170.199411 124.264517,170.12373 Z" id="+" fill="#331D34" transform="translate(125.033941, 167.386600) rotate(-70.000000) translate(-125.033941, -167.386600) "></path>
                    <circle id="Oval" fill="#EAEEF0" transform="translate(28.675184, 164.738735) rotate(-197.000000) translate(-28.675184, -164.738735) " cx="28.675184" cy="164.738735" r="6.1605376"></circle>
                    <path d="M27.7280314,167.819282 L27.7280314,165.810732 C27.7280314,165.757875 27.7016031,165.731447 27.6487466,165.731447 L25.6666245,165.731447 C25.5873396,165.731447 25.534483,165.67859 25.534483,165.599306 L25.534483,164.304319 C25.534483,164.225034 25.5873396,164.172178 25.6666245,164.172178 L27.6487466,164.172178 C27.7016031,164.172178 27.7280314,164.145749 27.7280314,164.092893 L27.7280314,162.084342 C27.7280314,162.005057 27.780888,161.952201 27.8601729,161.952201 L29.2080159,161.952201 C29.2873008,161.952201 29.3401574,162.005057 29.3401574,162.084342 L29.3401574,164.092893 C29.3401574,164.145749 29.3665857,164.172178 29.4194423,164.172178 L31.4015644,164.172178 C31.4808493,164.172178 31.5337058,164.225034 31.5337058,164.304319 L31.5337058,165.599306 C31.5337058,165.67859 31.4808493,165.731447 31.4015644,165.731447 L29.4194423,165.731447 C29.3665857,165.731447 29.3401574,165.757875 29.3401574,165.810732 L29.3401574,167.819282 C29.3401574,167.898567 29.2873008,167.951424 29.2080159,167.951424 L27.8601729,167.951424 C27.780888,167.951424 27.7280314,167.898567 27.7280314,167.819282 Z" id="+" fill="#331D34" transform="translate(28.534094, 164.951812) rotate(-197.000000) translate(-28.534094, -164.951812) "></path>
                    <circle id="Oval" fill="#EAEEF0" transform="translate(188.653143, 6.599742) scale(-1, 1) rotate(-348.000000) translate(-188.653143, -6.599742) " cx="188.653143" cy="6.59974209" r="5.32046429"></circle>
                    <path d="M187.76121,8.97431866 L187.76121,7.23966151 C187.76121,7.19401264 187.738385,7.1711882 187.692736,7.1711882 L185.980904,7.1711882 C185.91243,7.1711882 185.866781,7.12553933 185.866781,7.05706602 L185.866781,5.93866865 C185.866781,5.87019534 185.91243,5.82454647 185.980904,5.82454647 L187.692736,5.82454647 C187.738385,5.82454647 187.76121,5.80172203 187.76121,5.75607316 L187.76121,4.02141601 C187.76121,3.9529427 187.806858,3.90729383 187.875332,3.90729383 L189.039378,3.90729383 C189.107851,3.90729383 189.1535,3.9529427 189.1535,4.02141601 L189.1535,5.75607316 C189.1535,5.80172203 189.176325,5.82454647 189.221974,5.82454647 L190.933806,5.82454647 C191.00228,5.82454647 191.047928,5.87019534 191.047928,5.93866865 L191.047928,7.05706602 C191.047928,7.12553933 191.00228,7.1711882 190.933806,7.1711882 L189.221974,7.1711882 C189.176325,7.1711882 189.1535,7.19401264 189.1535,7.23966151 L189.1535,8.97431866 C189.1535,9.04279196 189.107851,9.08844084 189.039378,9.08844084 L187.875332,9.08844084 C187.806858,9.08844084 187.76121,9.04279196 187.76121,8.97431866 Z" id="+" fill="#331D34" transform="translate(188.457355, 6.497867) scale(-1, 1) rotate(-348.000000) translate(-188.457355, -6.497867) "></path>
                    <circle id="Oval" fill="#EAEEF0" transform="translate(7.915312, 199.601287) scale(-1, 1) rotate(-253.000000) translate(-7.915312, -199.601287) " cx="7.91531171" cy="199.601287" r="6.06719612"></circle>
                    <path d="M7.02518991,202.657853 L7.02518991,200.679735 C7.02518991,200.62768 6.99916204,200.601652 6.94710631,200.601652 L4.99501638,200.601652 C4.91693278,200.601652 4.86487705,200.549596 4.86487705,200.471512 L4.86487705,199.196147 C4.86487705,199.118063 4.91693278,199.066008 4.99501638,199.066008 L6.94710631,199.066008 C6.99916204,199.066008 7.02518991,199.03998 7.02518991,198.987924 L7.02518991,197.009806 C7.02518991,196.931723 7.07724564,196.879667 7.15532924,196.879667 L8.48275039,196.879667 C8.56083399,196.879667 8.61288972,196.931723 8.61288972,197.009806 L8.61288972,198.987924 C8.61288972,199.03998 8.63891759,199.066008 8.69097332,199.066008 L10.6430633,199.066008 C10.7211469,199.066008 10.7732026,199.118063 10.7732026,199.196147 L10.7732026,200.471512 C10.7732026,200.549596 10.7211469,200.601652 10.6430633,200.601652 L8.69097332,200.601652 C8.63891759,200.601652 8.61288972,200.62768 8.61288972,200.679735 L8.61288972,202.657853 C8.61288972,202.735937 8.56083399,202.787992 8.48275039,202.787992 L7.15532924,202.787992 C7.07724564,202.787992 7.02518991,202.735937 7.02518991,202.657853 Z" id="+" fill="#331D34" transform="translate(7.819040, 199.833830) scale(-1, 1) rotate(-253.000000) translate(-7.819040, -199.833830) "></path>
                    <circle id="Oval" fill="#FFFFFF" transform="translate(17.806180, 179.331926) scale(1, -1) rotate(-320.000000) translate(-17.806180, -179.331926) " cx="17.8061804" cy="179.331926" r="2.23918587"></circle>
                    <polygon id="Path" fill="#FCDF9F" transform="translate(17.806180, 179.331926) scale(1, -1) rotate(-320.000000) translate(-17.806180, -179.331926) " points="17.8061804 178.072356 17.5833939 178.295143 18.4627315 179.17448 16.5466102 179.17448 16.5466102 179.489373 18.4627315 179.489373 17.5833939 180.36871 17.8061804 180.591497 19.0657507 179.331926"></polygon>
                    <circle id="Oval" fill="#1B0E1C" transform="translate(167.926116, 111.783567) scale(1, -1) rotate(-29.000000) translate(-167.926116, -111.783567) " cx="167.926116" cy="111.783567" r="1.40410065"></circle>
                    <circle id="Oval" fill="#1B0E1C" transform="translate(77.159003, 192.830904) scale(-1, 1) rotate(-254.000000) translate(-77.159003, -192.830904) " cx="77.1590025" cy="192.830904" r="1.31049394"></circle>
                    <circle id="Oval" fill="#F48D65" transform="translate(148.389754, 33.470792) scale(1, -1) rotate(-18.000000) translate(-148.389754, -33.470792) " cx="148.389754" cy="33.4707916" r="1.21688723"></circle>
                    <circle id="Oval" fill="#F48D65" transform="translate(103.185007, 180.231508) scale(-1, -1) rotate(-274.000000) translate(-103.185007, -180.231508) " cx="103.185007" cy="180.231508" r="1"></circle>
                    <circle id="Oval" fill="#331D34" transform="translate(184.374299, 79.817824) scale(-1, 1) rotate(-225.000000) translate(-184.374299, -79.817824) " cx="184.374299" cy="79.8178237" r="4.02508854"></circle>
                    <circle id="Oval" fill="#331D34" transform="translate(121.302196, 111.135325) scale(-1, 1) rotate(-257.000000) translate(-121.302196, -111.135325) " cx="121.302196" cy="111.135325" r="2.90180801"></circle>
                    <circle id="Oval" fill="#331D34" transform="translate(129.250328, 47.378219) scale(-1, 1) rotate(-96.000000) translate(-129.250328, -47.378219) " cx="129.250328" cy="47.3782189" r="4.11869525"></circle>
                    <path d="M184.559812,192.119007 C184.603754,193.584305 185.096766,194.739264 185.698485,194.739264 C184.553312,195.930065 182.805976,196.301911 181.280923,195.679302 C179.755852,195.056687 178.757861,193.564028 178.757861,191.905652 C178.757861,190.247276 179.755852,188.754618 181.280923,188.132002 C182.805993,187.509386 184.55335,187.881247 185.698485,189.072117 C184.988794,189.805308 184.60924,190.741625 184.559823,191.692087 C184.557705,191.762613 184.556626,191.833858 184.556626,191.905729 C184.556626,191.977476 184.557701,192.0486 184.559812,192.119007 C184.552426,191.976806 184.55243,191.834288 184.559823,191.692087 Z M185.702791,189.072213 C185.701356,189.0722 185.699921,189.072193 185.698485,189.072193 C185.096816,189.072193 184.603836,190.226961 184.559823,191.692087 Z M185.702867,194.739244 C185.70141,194.739257 185.699952,194.739264 185.698494,194.739264 Z" id="Combined-Shape" fill="#1B0E1C" transform="translate(185.698310, 191.905722) scale(-1, 1) rotate(-318.000000) translate(-185.698310, -191.905722) "></path>
                    <path d="M182.550862,190.153956 C181.458106,190.153703 180.412463,190.602403 179.655273,191.396494 C181.177283,192.974101 181.177283,195.485957 179.655273,197.063564 C180.933764,198.389579 182.938556,198.680183 184.536006,197.77105 C186.133456,196.861918 186.921954,194.981611 186.45563,193.193381 C185.989307,191.405151 184.385398,190.158571 182.550862,190.158541 L182.550862,190.153956 Z" id="Path" fill="#FCDF9F" transform="translate(183.121945, 194.225501) scale(-1, 1) rotate(-318.000000) translate(-183.121945, -194.225501) "></path>
                    <path d="M191.747388,186.75016 C190.602253,185.55929 188.854896,185.18743 187.329826,185.810046 C185.804756,186.432661 184.806765,187.92532 184.806765,189.583696 C184.806765,191.242071 185.804756,192.73473 187.329826,193.357346 C188.854896,193.979961 190.602253,193.608101 191.747388,192.417231 C190.221776,190.841099 190.221776,188.326292 191.747388,186.75016 L191.747388,186.75016 Z" id="Path" fill="#F48D65" transform="translate(188.277076, 189.583696) scale(-1, 1) rotate(-318.000000) translate(-188.277076, -189.583696) "></path>
                    <circle id="Oval" fill="#EAEEF0" transform="translate(79.476485, 113.336006) rotate(-231.000000) translate(-79.476485, -113.336006) " cx="79.4764853" cy="113.336006" r="2.62098788"></circle>
                    <circle id="Oval" fill="#F48D65" transform="translate(132.538040, 94.334745) scale(-1, -1) rotate(-139.000000) translate(-132.538040, -94.334745) " cx="132.53804" cy="94.3347452" r="1.21688723"></circle>
                    <circle id="Oval" fill="#F48D65" transform="translate(83.431909, 140.828763) scale(1, -1) rotate(-223.000000) translate(-83.431909, -140.828763) " cx="83.4319091" cy="140.828763" r="1"></circle>
                    <path d="M76.7926318,166.760672 L78.1692543,164.552234 C78.3321682,164.293625 78.4299165,164.026807 78.2344198,163.805142 C78.0389231,163.583477 77.8637907,163.727149 77.7008768,163.985758 L74.251175,169.519166 L73.0659764,168.10708 L77.1795523,161.514607 C77.7773614,162.097633 78.3403993,162.715818 78.8657112,163.365918 C79.8513402,164.597388 79.93687,165.418369 79.1793204,166.621105 C78.4217708,167.823841 77.4361417,167.766373 76.7926318,166.731937 L76.7926318,166.760672 Z" id="path-1-path" fill="#331D34" transform="translate(76.375381, 165.516886) scale(-1, -1) rotate(-219.000000) translate(-76.375381, -165.516886) "></path>
                </g>
                <path d="M307.372208,459.555033 C299.874216,460.252174 292.277349,460.608563 284.597243,460.608563 C276.917137,460.608563 269.32027,460.252174 261.822277,459.555033 L261.822277,426.538287 C261.822277,424.391004 263.562994,422.650287 265.710277,422.650287 L303.484208,422.650287 C305.631491,422.650287 307.372208,424.391004 307.372208,426.538287 L307.372208,459.555033 Z M388.744708,437.214549 C375.127147,443.686094 360.812039,448.927959 345.942898,452.796631 L334.623507,421.696859 C333.889092,419.679072 334.929471,417.447973 336.947257,416.713559 L372.443141,403.794114 C374.460928,403.0597 376.692027,404.100079 377.426441,406.117865 L388.744708,437.214549 Z M457.51709,388.307272 C446.847057,399.119492 435.17044,408.935919 422.639228,417.604568 L401.376181,392.264256 C399.995934,390.619342 400.21049,388.166964 401.855404,386.786717 L430.791914,362.506102 C432.436828,361.125855 434.889206,361.340411 436.269453,362.985325 L457.51709,388.307272 Z M505.509958,318.881582 C499.13204,332.780552 491.481012,345.973907 482.706176,358.312343 L454.060332,341.773657 C452.200731,340.700016 451.563584,338.322152 452.637226,336.46255 L471.524191,303.749367 C472.597833,301.889765 474.975696,301.252618 476.835298,302.32626 L505.509958,318.881582 Z M526.547252,239.678214 C525.173378,254.981882 522.380315,269.87663 518.300648,284.229871 L483.928168,278.267298 C481.812481,277.900291 480.394896,275.88767 480.761903,273.771984 L487.176342,236.794631 C487.543348,234.678944 489.555969,233.261359 491.671656,233.628366 L526.547252,239.678214 Z M50.3172657,282.166532 C46.3457333,267.706263 43.6771341,252.706697 42.4455924,237.301957 L74.908639,231.577797 C77.0233001,231.204925 79.0398439,232.616924 79.4127157,234.731585 L85.97209,271.931646 C86.3449618,274.046307 84.9329626,276.06285 82.8183015,276.435722 L50.3172657,282.166532 Z M86.5217183,358.359307 C77.7439186,346.022884 70.0897656,332.83133 63.7085683,318.933955 L92.2883971,302.433384 C94.1479988,301.359742 96.5258623,301.996889 97.5995039,303.85649 L116.486469,336.569674 C117.560111,338.429276 116.922964,340.807139 115.063363,341.880781 L86.5217183,358.359307 Z M146.571657,417.615912 C134.039717,408.948277 122.362303,399.132799 111.691404,388.321466 L132.882838,363.066498 C134.263085,361.421584 136.715463,361.207029 138.360377,362.587276 L167.296887,386.867891 C168.941802,388.248138 169.156357,390.700515 167.77611,392.34543 L146.571657,417.615912 Z M223.263009,452.799602 C208.393656,448.931653 194.078295,443.690486 180.460436,437.219614 L191.761445,406.170348 C192.495859,404.152562 194.726958,403.112183 196.744744,403.846597 L232.240629,416.766043 C234.258415,417.500457 235.298793,419.731556 234.564379,421.749342 L223.263009,452.799602 Z" id="cards" fill="#83B2BA"></path>
                <path d="M284.597243,413.52343 C279.230516,413.52343 274.879924,409.172838 274.879924,403.806112 C274.879924,398.439385 279.230516,394.088793 284.597243,394.088793 C289.96397,394.088793 294.314561,398.439385 294.314561,403.806112 C294.314561,409.172838 289.96397,413.52343 284.597243,413.52343 Z M348.299665,402.523965 C342.932938,402.523965 338.582346,398.173374 338.582346,392.806647 C338.582346,387.43992 342.932938,383.089328 348.299665,383.089328 C353.666392,383.089328 358.016983,387.43992 358.016983,392.806647 C358.016983,398.173374 353.666392,402.523965 348.299665,402.523965 Z M404.393561,370.402829 C399.026834,370.402829 394.676243,366.052237 394.676243,360.68551 C394.676243,355.318783 399.026834,350.968192 404.393561,350.968192 C409.760288,350.968192 414.11088,355.318783 414.11088,360.68551 C414.11088,366.052237 409.760288,370.402829 404.393561,370.402829 Z M446.130794,321.0402 C440.764068,321.0402 436.413476,316.689608 436.413476,311.322881 C436.413476,305.956154 440.764068,301.605563 446.130794,301.605563 C451.497521,301.605563 455.848113,305.956154 455.848113,311.322881 C455.848113,316.689608 451.497521,321.0402 446.130794,321.0402 Z M468.450261,260.37444 C463.083534,260.37444 458.732942,256.023848 458.732942,250.657121 C458.732942,245.290394 463.083534,240.939803 468.450261,240.939803 C473.816988,240.939803 478.167579,245.290394 478.167579,250.657121 C478.167579,256.023848 473.816988,260.37444 468.450261,260.37444 Z M101.840797,259.041683 C96.4740704,259.041683 92.1234786,254.691091 92.1234786,249.324364 C92.1234786,243.957637 96.4740704,239.607045 101.840797,239.607045 C107.207524,239.607045 111.558116,243.957637 111.558116,249.324364 C111.558116,254.691091 107.207524,259.041683 101.840797,259.041683 Z M123.738505,319.876146 C118.371778,319.876146 114.021186,315.525554 114.021186,310.158827 C114.021186,304.792101 118.371778,300.441509 123.738505,300.441509 C129.105232,300.441509 133.455823,304.792101 133.455823,310.158827 C133.455823,315.525554 129.105232,319.876146 123.738505,319.876146 Z M165.10459,369.542441 C159.737863,369.542441 155.387272,365.191849 155.387272,359.825123 C155.387272,354.458396 159.737863,350.107804 165.10459,350.107804 C170.471317,350.107804 174.821909,354.458396 174.821909,359.825123 C174.821909,365.191849 170.471317,369.542441 165.10459,369.542441 Z M220.979172,402.068466 C215.612446,402.068466 211.261854,397.717874 211.261854,392.351147 C211.261854,386.984421 215.612446,382.633829 220.979172,382.633829 C226.345899,382.633829 230.696491,386.984421 230.696491,392.351147 C230.696491,397.717874 226.345899,402.068466 220.979172,402.068466 Z" id="dotes" fill="#608F97"></path>
                <g id="logo(light)" transform="translate(242.000000, 235.000000)">
                    <polygon id="Path-4" fill="#FFFFFF" points="33.5 2.19464827 41.9768374 16.9689898 28.2286194 16.9689898 19.9034794 2.19464827"></polygon>
                    <polygon id="Path-5" fill="#FFFFFF" points="50.4505177 2.6025785 32.9162241 31.8557216 19.9034794 31.8557216 36.785638 2.19464827 49.2385045 1.78505047"></polygon>
                    <path d="M71.1742546,47.3274319 L71.1760404,47.3196676 L72.5580951,47.3196676 C73.1908852,47.3373697 73.8139745,47.1612792 74.3438961,46.8149847 C74.8355062,46.4579312 75.1738918,45.9281636 75.291147,45.3319934 L76.0675823,41.8457993 C76.1076776,41.681254 76.203749,41.5357744 76.3393346,41.4342886 L76.3626276,41.442053 C76.4884374,41.3346982 76.647601,41.2743258 76.8129601,41.2712372 L77.8533833,41.2712372 L76.8517818,45.6348032 C76.6683137,46.62377 76.112521,47.5047015 75.2989114,48.0961028 C74.3796101,48.6613918 73.3095336,48.9322972 72.2319923,48.872538 L71.445448,48.872538 L71.4400284,48.8958311 L60.6165214,48.8958311 L60.6203047,48.879571 C60.4309269,48.8749389 60.2424219,48.8517858 60.0574881,48.8104232 C59.83675,48.7710107 59.6207546,48.7085542 59.4130469,48.6240787 C59.202154,48.5433223 59.0035464,48.4335655 58.8229561,48.2979759 C58.6444985,48.1728419 58.4916382,48.0147105 58.3726237,47.8321148 C58.0901738,48.1493188 57.7398622,48.3987832 57.3477292,48.5619639 C56.8392329,48.7851408 56.2878959,48.8938178 55.7327439,48.8803024 L47.114313,48.8803024 L47.3239505,47.9718732 C47.3649175,47.8146952 47.436124,47.6670077 47.533588,47.5370694 C47.6236035,47.4028991 47.7758048,47.3238715 47.9373344,47.3274319 L51.5477581,47.3274319 L53.1006285,40.6423247 C53.1315321,40.4798405 53.2196895,40.3338297 53.3490878,40.230814 C53.4623801,40.1231566 53.612092,40.0621628 53.7683628,40.0599983 L54.8709008,40.0599983 L53.1938008,47.3274319 L55.6395717,47.3274319 C56.1171721,47.363245 56.5901239,47.2130133 56.9595116,46.9081569 C57.2629973,46.6044183 57.4708431,46.2184189 57.5573667,45.7978545 L59.6382131,36.7834417 C59.6723268,36.6178395 59.7595649,36.4678991 59.8866723,36.3564023 C60.0035233,36.2435948 60.1590688,36.17971 60.3214761,36.1778222 L61.4395428,36.1778222 L59.0015362,46.6752263 C59.1162505,46.8179386 59.2624014,46.932202 59.4285756,47.0090935 C59.6278329,47.1104768 59.8391619,47.1861378 60.0574881,47.2342597 C60.3611497,47.2989879 60.6708852,47.3305148 60.9812382,47.3283249 L62.7983044,47.3274319 L71.1742546,47.3274319 Z M36.1821052,47.3196676 L37.5563955,47.3196676 C38.1896221,47.3409193 38.813761,47.1645322 39.3421965,46.8149847 C39.8397074,46.4635263 40.1797497,45.9311649 40.2894475,45.3319934 L41.0658827,41.8457993 C41.105978,41.681254 41.2020495,41.5357744 41.337635,41.4342886 L41.3531637,41.442053 C41.4789735,41.3346982 41.6381371,41.2743258 41.8034961,41.2712372 L42.8439193,41.2712372 L41.8345535,45.6348032 C41.6556585,46.625554 41.0988718,47.5080609 40.2816831,48.0961028 C39.3651791,48.6612376 38.2976089,48.9321946 37.2225284,48.872538 L36.4359841,48.872538 L36.4305644,48.8958311 L20.1409536,48.8958311 L20.1439304,48.8830373 C19.5423715,48.8937739 18.9437337,48.7929079 18.3784456,48.585257 C17.9570756,48.4275276 17.601377,48.1320241 17.3690799,47.7467069 C17.1502545,47.34489 17.043016,46.8918076 17.0585058,46.4345314 C17.0642955,45.8565373 17.1346104,45.2809971 17.2681433,44.7186096 L19.2325244,36.1778222 L20.2884763,36.1778222 C20.4307514,36.1715624 20.5670736,36.2353728 20.6534008,36.348638 C20.7493397,36.4626791 20.7814407,36.6173475 20.7388087,36.7601486 L18.7356058,45.3630508 C18.5574615,45.8551637 18.6391893,46.4039072 18.9530077,46.822749 C19.3798913,47.197535 19.9401456,47.3815942 20.5042032,47.3346306 L20.5058781,47.3274319 L36.1802805,47.3274319 L36.1821052,47.3196676 Z M15.2882335,40.6035029 C15.2882335,40.7122039 15.1950613,40.8830196 15.1251821,41.1081858 C15.0553029,41.3333521 14.9931881,41.4964034 14.9543663,41.6051044 C14.9143756,41.7218736 14.8567718,41.8318444 14.7835506,41.9312072 C14.7014959,42.0057569 14.5905113,42.039906 14.4807409,42.0243794 C14.3452277,42.018402 14.2103081,42.0028343 14.0769945,41.9777933 L13.4092603,41.8846211 L12.5862389,41.7914488 C12.2911935,41.7914488 12.0116769,41.7526271 11.7476889,41.7526271 C10.9949017,41.7092106 10.2413162,41.8229095 9.53484853,42.0864942 C9.01688467,42.3598887 8.66164602,42.8653095 8.57983321,43.4452558 C8.50078867,43.7032571 8.52587098,43.9819495 8.64971238,44.2216911 C8.77989348,44.4213418 8.95897099,44.5843825 9.16992398,44.6953165 C9.41658065,44.8193101 9.67726805,44.9131576 9.9463592,44.9748332 C10.2414046,45.0447124 10.7771449,45.1534133 11.5613444,45.3087004 C12.1352476,45.4005395 12.6975453,45.5541301 13.2384445,45.7667971 C13.5482747,45.8929961 13.8170434,46.1026357 14.0148797,46.3724166 C14.1862738,46.6530715 14.2775691,46.9752903 14.2788677,47.3041389 C14.2633941,47.755599 14.1956511,48.2037448 14.0769945,48.6396074 C13.8769752,49.7309133 13.3327845,50.7295033 12.5241241,51.4891247 C11.5910248,52.2056954 10.429378,52.5588802 9.25533185,52.4829618 L4.49578397,52.4829618 C3.85624408,52.4898063 3.21879208,52.4088186 2.60128204,52.2422668 C2.05150966,52.097649 1.55197545,51.8049112 1.15711254,51.3959525 C0.751521972,50.9657378 0.481494709,50.4256833 0.380677324,49.843082 C0.256004788,49.0321791 0.303625678,48.2041047 0.520435663,47.4128398 C0.616459715,47.0712028 0.735792907,46.7365511 0.877595863,46.4112384 C1.0018255,46.0644306 1.14158384,45.7227991 1.29687088,45.3863439 C1.45215792,45.0524767 1.60744497,44.7341383 1.75496766,44.4468573 C1.90249035,44.1595762 2.05001304,43.8878239 2.18977138,43.6704221 L3.15255105,43.9421744 C3.28454504,43.9809961 3.3544242,44.043111 3.36995291,44.1285188 C3.37469947,44.2674313 3.33968116,44.4048108 3.26901633,44.5245008 C3.26901633,44.59438 3.19137281,44.6953165 3.12149364,44.8273105 C3.05161447,44.9593045 2.9662066,45.168942 2.84974131,45.4406943 C2.73327603,45.7124467 2.60128204,46.0385495 2.46152371,46.380181 C2.32593761,46.7285995 2.21692513,47.0867833 2.13542091,47.4516616 C1.95660398,48.0476434 1.94318482,48.681028 2.09659915,49.2840487 C2.21899517,49.7019758 2.46537678,50.072902 2.8031552,50.3477649 C3.13014295,50.6098133 3.52176551,50.7788011 3.93675062,50.8369191 C4.37835454,50.9067161 4.82520152,50.9378915 5.27221919,50.9300913 L9.93083049,50.9300913 C10.2877581,50.9342573 10.6417839,50.8655657 10.9712537,50.7282182 C11.2587808,50.6159541 11.5222895,50.4499436 11.7476889,50.239064 C11.9506711,50.0362333 12.1209269,49.8031137 12.2523718,49.5480366 C12.3768584,49.301592 12.4707279,49.0408434 12.5318885,48.7716014 C12.5997325,48.4591982 12.5970801,48.1355996 12.5241241,47.8243505 C12.4834211,47.6116662 12.3743673,47.4180957 12.21355,47.2730815 C12.033905,47.1327446 11.827987,47.0297856 11.6079306,46.9702717 C11.3672356,46.9003926 11.0644259,46.822749 10.6995014,46.7451055 C10.3345768,46.667462 9.92306614,46.5898185 9.35626843,46.5121749 C8.85600963,46.4352663 8.36955393,46.2861911 7.91209893,46.0696069 C7.49285194,45.8686774 7.14579365,45.5433103 6.91826185,45.1378846 C6.67419652,44.5975703 6.64096341,43.9855273 6.82508962,43.4219628 C6.93655786,42.9246412 7.12518538,42.4478327 7.38412298,42.0088507 C7.62468761,41.5972566 7.95677818,41.246569 8.354667,40.9839562 C8.81072714,40.6916475 9.31570665,40.4838695 9.84542262,40.3705724 C10.5338714,40.2205857 11.2372812,40.1502447 11.9417977,40.1609349 C12.3843658,40.1609349 12.8114051,40.1609349 13.2073871,40.2230497 C13.6033691,40.2851645 13.9838223,40.3162219 14.3021608,40.3705724 C14.6264577,40.4239593 14.9478056,40.4939302 15.2649404,40.5802099 L15.2882335,40.6035029 Z M3.98333673,53.9348956 C4.20053959,53.7491958 4.47419592,53.6424699 4.75977195,53.6320859 C5.0189922,53.6149586 5.26960231,53.7286074 5.42750623,53.9348956 C5.58618436,54.1458366 5.63517906,54.4196305 5.55950022,54.6725091 C5.49733103,54.9787637 5.32973059,55.2535185 5.08587474,55.4489443 C4.8689929,55.6351795 4.59514175,55.7419814 4.30943952,55.751754 C4.04755111,55.7715606 3.79340113,55.6576313 3.63394088,55.4489443 C3.46854922,55.2260303 3.41950829,54.9375542 3.5019469,54.6725091 C3.57494519,54.3795206 3.7445303,54.1196725 3.98333673,53.9348956 Z M6.17288404,54.6725091 C6.2465379,54.3817584 6.41277813,54.1228597 6.64650952,53.9348956 C6.87396104,53.7408264 7.16277668,53.633552 7.4617665,53.6320859 C7.72098676,53.6149586 7.97159686,53.7286074 8.12950079,53.9348956 C8.28817891,54.1458366 8.33717361,54.4196305 8.26149477,54.6725091 C8.20254242,54.9800162 8.03431087,55.2558056 7.78786929,55.4489443 C7.57098746,55.6351795 7.2971363,55.7419814 7.01143408,55.751754 C6.73566487,55.7728675 6.46948379,55.6456921 6.31264238,55.4178869 C6.14725072,55.1949729 6.09820979,54.9064968 6.18064839,54.6414517 L6.17288404,54.6725091 Z M38.1464863,50.3865867 C38.3636891,50.2008869 38.6373455,50.0941609 38.9229215,50.0837769 C39.1821417,50.0666497 39.4327518,50.1802984 39.5906558,50.3865867 C39.7493339,50.5975277 39.7983286,50.8713216 39.7226498,51.1242001 C39.6617411,51.430948 39.4938955,51.7061047 39.2490243,51.9006354 C39.0321424,52.0868705 38.7582913,52.1936725 38.4725891,52.2034451 C38.2107006,52.2232517 37.9565507,52.1093224 37.7970904,51.9006354 C37.6328769,51.6772201 37.5839354,51.389329 37.6650964,51.1242001 C37.7380947,50.8312117 37.9076798,50.5713635 38.1464863,50.3865867 Z M70.9042881,51.1552575 C70.9752374,50.8633409 71.1419965,50.6036341 71.3779135,50.4176441 C71.5947954,50.2314089 71.8686465,50.124607 72.1543488,50.1148344 C72.4162372,50.0950278 72.6703872,50.2089571 72.8298474,50.4176441 C72.9840222,50.6305235 73.0326241,50.9021225 72.9618414,51.1552575 C72.8996722,51.4615122 72.7320718,51.736267 72.4882159,51.9316928 C72.2607644,52.125762 71.9719487,52.2330364 71.6729589,52.2345025 C71.4137387,52.2516298 71.1631286,52.137981 71.0052246,51.9316928 C70.8361464,51.7103674 70.7867876,51.4200216 70.8732307,51.1552575 L70.9042881,51.1552575 Z M73.5441678,51.1552575 C73.6151171,50.8633409 73.7818762,50.6036341 74.0177933,50.4176441 C74.2346751,50.2314089 74.5085263,50.124607 74.7942285,50.1148344 C75.0561169,50.0950278 75.3102669,50.2089571 75.4697271,50.4176441 C75.6284053,50.6285851 75.6774,50.902379 75.6017211,51.1552575 C75.5395519,51.4615122 75.3719515,51.736267 75.1280956,51.9316928 C74.9108928,52.1173925 74.6372365,52.2241185 74.3516604,52.2345025 C74.0924402,52.2516298 73.8418301,52.137981 73.6839261,51.9316928 C73.5148479,51.7103674 73.4654891,51.4200216 73.5519322,51.1552575 L73.5441678,51.1552575 Z M12.5241241,59.1835977 C12.5241241,59.2379482 12.5241241,59.3466491 12.4464806,59.5019361 L11.8253324,60.5190663 C11.4759366,61.0936283 10.7849092,62.2349881 9.72895733,63.9431456 C8.67300544,65.651303 7.86551281,66.9168924 7.41518039,67.7243851 C6.86391138,68.6561073 6.36699285,69.4558356 5.91666042,70.1158055 C5.52731758,70.7001431 5.077051,71.241504 4.5734275,71.7307908 C4.16455162,72.1286584 3.68540565,72.4472115 3.1603154,72.6702774 C2.60610362,72.8730731 2.01887262,72.970506 1.42886487,72.9575584 C1.09484409,72.9613954 0.761456686,72.9275357 0.43502779,72.8566219 C0.248683338,72.7867427 0.147746759,72.7168635 0.101160646,72.6702774 C0.0736636948,72.5494749 0.0901832696,72.4228248 0.147746759,72.3131172 L0.644665298,71.249401 L1.17264125,71.3503375 C1.40542069,71.3951171 1.64217539,71.4159307 1.87919729,71.4124524 C2.14433619,71.4132612 2.40741745,71.3659065 2.65563251,71.272694 C2.89040089,71.1734386 3.11205783,71.0456599 3.31560244,70.8922408 C3.52475308,70.7277886 3.71720226,70.5431414 3.8901645,70.3409718 C4.07637634,70.1455346 4.25259304,69.9408122 4.41814045,69.7275879 C4.79138835,69.2298664 5.13615958,68.7114135 5.45079929,68.1747175 L4.9461164,68.1747175 C4.77975349,68.1740029 4.6340117,68.0631124 4.5889562,67.9029652 C4.5889562,67.6622703 4.48025527,67.2973457 4.37931869,66.7926628 C4.27838211,66.2879799 4.16968118,65.7367109 4.04545155,65.1233271 C3.92122191,64.5099433 3.78922793,63.8732664 3.65723394,63.2132965 C3.52523995,62.5533265 3.40877467,61.9554714 3.29230939,61.4119668 C3.1758441,60.8684621 3.09043623,60.4181297 3.01279271,60.0532051 C2.93514919,59.6882806 2.89632743,59.4941718 2.88856307,59.4708787 C2.85650716,59.3831306 2.85650716,59.2868745 2.88856307,59.1991264 C2.92738484,59.1137185 3.03608577,59.0748968 3.21466587,59.0748968 L4.62777796,59.0748968 L6.11076922,67.0333577 L10.7227944,59.1059542 L12.2756648,59.1059542 C12.4154232,59.1059542 12.5008311,59.1059542 12.5318885,59.1835977 L12.5241241,59.1835977 Z M17.4855452,58.9351384 C17.9760673,58.9302302 18.4656223,58.9797065 18.9452434,59.0826611 C19.3501172,59.159098 19.7323896,59.3263421 20.0633101,59.5718153 C20.367372,59.806973 20.5878419,60.133595 20.6922226,60.5035376 C20.816167,60.9822104 20.816167,61.4845629 20.6922226,61.9632358 L19.4033401,67.5380406 C19.0542613,67.7226003 18.6907215,67.8784031 18.3163308,68.0039017 C17.8762657,68.1481107 17.4276548,68.2648013 16.9730979,68.3532976 C16.4142704,68.4509335 15.8477427,68.497711 15.2804691,68.4930559 C14.7815129,68.5054038 14.2830532,68.453209 13.7974779,68.3377689 C13.4188498,68.2425429 13.0626787,68.0736915 12.7492903,67.8408504 C12.4410337,67.6016542 12.2134258,67.2737905 12.0970847,66.9013637 C11.9678816,66.4391863 11.9678816,65.9504291 12.0970847,65.4882516 C12.2452561,64.7690702 12.6797439,64.1411653 13.3005593,63.7490368 C14.0681444,63.3064069 14.9250347,63.0411158 15.8084451,62.9726015 C16.8022822,62.8561363 17.5166026,62.7707284 17.9436419,62.7319066 C18.3706813,62.6930849 18.7200771,62.6542631 18.9297147,62.6232057 L19.1160591,61.79242 C19.1510048,61.6469668 19.1510048,61.4953051 19.1160591,61.3498519 C19.0615681,61.1860114 18.9586976,61.0425341 18.8210137,60.9383413 C18.6297356,60.7934552 18.4101959,60.690298 18.1765725,60.6355315 C17.8259402,60.5506027 17.4657829,60.5114552 17.1050919,60.5190663 C16.584614,60.5177999 16.0650187,60.5619655 15.5522215,60.6510602 C15.0630673,60.7442325 14.659321,60.8296403 14.3332182,60.9150482 C14.0071154,61.0004561 13.867357,60.9150482 13.9372362,60.6432959 L14.2322816,59.4708787 C14.5350913,59.3777065 14.8456654,59.2922986 15.1640039,59.2224194 C15.4823423,59.1525403 15.8162094,59.0981898 16.1888983,59.0438393 C16.6192827,58.9941042 17.0523084,58.9707674 17.4855452,58.9739602 L17.4855452,58.9351384 Z M25.242133,68.1824818 C25.0295365,68.2460253 24.8109969,68.2876519 24.5899274,68.3067115 C24.332268,68.3376183 24.0729986,68.3531745 23.8134922,68.3532976 C23.4562076,68.3718798 23.0996175,68.3053518 22.773069,68.1591888 C22.5402568,68.0510584 22.3532235,67.864025 22.245093,67.6312128 C22.139539,67.3650251 22.0970198,67.0780206 22.1208634,66.7926628 C22.135958,66.4316335 22.1853547,66.0728579 22.2683861,65.7211822 L24.9005015,54.3386419 L25.9875108,54.3386419 C26.1402661,54.3181515 26.2894249,54.3958385 26.3601997,54.5327507 C26.4095268,54.6867729 26.4095268,54.852354 26.3601997,55.0063762 L23.8290209,65.9929345 C23.7483084,66.2231759 23.7680295,66.4767335 23.8833713,66.6917262 C23.9998366,66.8392489 24.2482959,66.9091281 24.6598066,66.9091281 C24.8587727,66.9250716 25.0586955,66.9250716 25.2576617,66.9091281 L25.6070575,66.8237202 L25.6070575,67.7632068 C25.6236035,67.979807 25.4777486,68.1753851 25.265426,68.2213036 L25.242133,68.1824818 Z M30.9644605,68.1824818 C30.7518641,68.2460253 30.5333245,68.2876519 30.3122549,68.3067115 C30.0545762,68.3374023 29.7953195,68.3529577 29.5358197,68.3532976 C29.1784759,68.3727824 28.8216749,68.3062151 28.4953965,68.1591888 C28.2609785,68.0533687 28.0732407,67.8656309 27.9674206,67.6312128 C27.8592228,67.3656493 27.8140428,67.0786235 27.8354266,66.7926628 C27.8533939,66.4314155 27.9053864,66.0726673 27.9907136,65.7211822 L30.6150647,54.3386419 L31.702074,54.3386419 C31.8548293,54.3181515 32.0039881,54.3958385 32.0747629,54.5327507 C32.12409,54.6867729 32.12409,54.852354 32.0747629,55.0063762 L29.5513484,65.9929345 C29.4665808,66.2226298 29.4864351,66.4779001 29.6056989,66.6917262 C29.7221642,66.8392489 29.9706234,66.9091281 30.3821341,66.9091281 C30.5836993,66.9248982 30.7861884,66.9248982 30.9877536,66.9091281 L31.3293851,66.8237202 L31.3293851,67.7632068 C31.346606,67.9774334 31.2047281,68.1721031 30.9955179,68.2213036 L30.9644605,68.1824818 Z M38.6511692,58.9351384 C39.1417087,58.9298445 39.6313064,58.9793251 40.1108674,59.0826611 C40.5157412,59.159098 40.8980136,59.3263421 41.2289341,59.5718153 C41.532996,59.806973 41.7534659,60.133595 41.8578466,60.5035376 C41.9894093,60.9812103 41.9894093,61.485563 41.8578466,61.9632358 L40.5689641,67.5380406 C40.2205565,67.7240018 39.8568975,67.8798556 39.4819548,68.0039017 C39.0418897,68.1481107 38.5932788,68.2648013 38.1387219,68.3532976 C37.5799438,68.4513172 37.013381,68.4980977 36.4460931,68.4930559 C35.9496997,68.505431 35.4538031,68.4532313 34.9708662,68.3377689 C34.5893076,68.2440883 34.2303019,68.0751445 33.9149143,67.8408504 C33.6066577,67.6016542 33.3790498,67.2737905 33.2627088,66.9013637 C32.9463614,65.6866666 33.4598159,64.4077555 34.5282982,63.7490368 C35.2931323,63.30654 36.1474732,63.0412167 37.0284196,62.9726015 C38.030021,62.8561363 38.736577,62.7707284 39.1636164,62.7319066 C39.5906558,62.6930849 39.9400516,62.6542631 40.1496891,62.6232057 L40.3437979,61.79242 C40.3784516,61.6469324 40.3784516,61.4953396 40.3437979,61.3498519 C40.2922935,61.1865703 40.1920421,61.0429669 40.0565169,60.9383413 C39.8613535,60.7951415 39.6396471,60.6922064 39.4043113,60.6355315 C39.0538329,60.5497251 38.69356,60.510565 38.3328307,60.5190663 C37.8123528,60.5177999 37.2927575,60.5619655 36.7799603,60.6510602 C36.2908061,60.7442325 35.8870598,60.8296403 35.560957,60.9150482 C35.2348542,61.0004561 35.1028602,60.9150482 35.164975,60.6432959 L35.40567,59.4708787 C35.7084797,59.3777065 36.0112894,59.2922986 36.3296279,59.2224194 C36.6479663,59.1525403 36.9895978,59.0981898 37.3622867,59.0438393 C37.790069,58.9940707 38.2205136,58.9707334 38.6511692,58.9739602 L38.6511692,58.9351384 Z M48.5118964,59.9367398 C48.930145,59.7757067 49.3580116,59.6408639 49.7930145,59.5329935 C50.3034856,59.3983227 50.8222154,59.2971704 51.345885,59.2301838 C51.9656729,59.1423842 52.5911386,59.1008595 53.2170938,59.1059542 C53.8844139,59.078964 54.549565,59.1982142 55.1659462,59.45535 C55.6177864,59.6650594 55.988627,60.0168126 56.2218981,60.4569514 C56.4516271,60.9166859 56.5636768,61.4262449 56.5480009,61.9399427 C56.5411048,62.5443953 56.4655651,63.1461082 56.3228347,63.7335081 C56.1850698,64.3431801 55.9900973,64.9384963 55.7405083,65.5115447 C55.494022,66.063365 55.1493891,66.5658451 54.7233781,66.994536 C54.2824416,67.4345009 53.7531604,67.7758873 53.1705077,67.9961374 C52.4947714,68.2450955 51.7786269,68.3662081 51.0586039,68.3532976 C50.5868978,68.3492011 50.1165303,68.3024242 49.6532562,68.2135393 C49.1839137,68.139003 48.7316564,67.9812388 48.3177876,67.7476781 L47.3394792,72.0025431 C47.30393,72.1855273 47.1943464,72.345688 47.0366695,72.4451112 C46.8755523,72.5271384 46.6972536,72.5697172 46.5164579,72.5693433 L45.5925,72.5693433 L48.5118964,59.9367398 Z M63.163229,58.9351384 C63.6537685,58.9298445 64.1433662,58.9793251 64.6229272,59.0826611 C65.027801,59.159098 65.4100734,59.3263421 65.7409939,59.5718153 C66.0450558,59.806973 66.2655257,60.133595 66.3699064,60.5035376 C66.5014691,60.9812103 66.5014691,61.485563 66.3699064,61.9632358 L65.0887883,67.5380406 C64.7376742,67.7239649 64.3714401,67.8798092 63.9940146,68.0039017 C63.5565993,68.1481672 63.1105679,68.2648615 62.6585461,68.3532976 C62.0971494,68.4512745 61.5280132,68.4980528 60.9581529,68.4930559 C60.461777,68.5049943 59.9659367,68.4528005 59.482926,68.3377689 C59.1019168,68.2425416 58.7432033,68.0737353 58.4269741,67.8408504 C58.1233772,67.598869 57.8989729,67.2717254 57.7825329,66.9013637 C57.6492323,66.4397572 57.6492323,65.9498582 57.7825329,65.4882516 C57.9455188,64.7583464 58.4037417,64.1286414 59.0481223,63.7490368 C59.8157074,63.3064069 60.6725977,63.0411158 61.5560081,62.9726015 C62.5498451,62.8561363 63.2564012,62.7707284 63.6834405,62.7319066 C64.1104799,62.6930849 64.4598758,62.6542631 64.6695133,62.6232057 L64.8636221,61.79242 C64.8982757,61.6469324 64.8982757,61.4953396 64.8636221,61.3498519 C64.8121177,61.1865703 64.7118663,61.0429669 64.576341,60.9383413 C64.3811776,60.7951415 64.1594712,60.6922064 63.9241355,60.6355315 C63.573657,60.5497251 63.2133841,60.510565 62.8526549,60.5190663 C62.3321915,60.5181528 61.8126268,60.5623158 61.2997844,60.6510602 C60.8183946,60.7442325 60.4068839,60.8296403 60.0807811,60.9150482 C59.7546784,61.0004561 59.6226844,60.9150482 59.6847992,60.6432959 L59.8866723,59.4708787 C60.1894821,59.3777065 60.5000562,59.2922986 60.8106302,59.2224194 C61.1212043,59.1525403 61.4706002,59.0981898 61.8432891,59.0438393 C62.2710913,58.9943044 62.7015215,58.9709678 63.1321715,58.9739602 L63.163229,58.9351384 Z M77.9543198,59.1835977 C77.9543198,59.2379482 77.9543198,59.3466491 77.8766763,59.5019361 L77.2555281,60.5190663 L75.1591531,63.9431456 C74.1239061,65.6616555 73.3474709,66.9220687 72.8298474,67.7243851 C72.2785784,68.6561073 71.7816599,69.4558356 71.3313274,70.1158055 C70.9395982,70.6983595 70.4895296,71.2394826 69.9880945,71.7307908 C69.5907763,72.1247207 69.125095,72.4430678 68.6138042,72.6702774 C68.0594532,72.8725442 67.4723223,72.9699606 66.8823536,72.9575584 C66.5483329,72.9613954 66.2149455,72.9275357 65.8885166,72.8566219 C65.7021721,72.8022714 65.5934712,72.7323922 65.5701781,72.6469843 C65.5426812,72.5261819 65.5592007,72.3995318 65.6167642,72.2898241 L66.0981541,71.2105792 L66.62613,71.3115158 C66.8589095,71.3562954 67.0956642,71.377109 67.3326861,71.3736306 C67.597825,71.3744394 67.8609062,71.3270848 68.1091213,71.2338723 C68.3438897,71.1346168 68.5655466,71.0068381 68.7690912,70.853419 C68.9616034,70.7091726 69.1408913,70.5480734 69.3048315,70.3720292 C69.4601186,70.2089778 69.6386987,69.9993403 69.8328075,69.7586453 C70.2032605,69.2589547 70.5479298,68.740655 70.8654663,68.2057749 L70.3607834,68.2057749 C70.193517,68.2077568 70.0463208,68.0957597 70.0036232,67.9340226 C70.0036232,67.6933277 69.8949223,67.3284031 69.7939857,66.8237202 C69.6930491,66.3190373 69.5765838,65.7677683 69.4601186,65.1543845 C69.3436533,64.5410007 69.2038949,63.9043238 69.071901,63.2443539 C68.939907,62.5843839 68.8156773,61.9865288 68.7069764,61.4430242 C68.5982755,60.8995195 68.4973389,60.4491871 68.4274597,60.0842625 C68.3575806,59.719338 68.3032301,59.5252292 68.3032301,59.5019361 C68.2674225,59.4148907 68.2674225,59.3172293 68.3032301,59.2301838 C68.3032301,59.1447759 68.4507528,59.1059542 68.6293329,59.1059542 L70.0113876,59.1059542 L71.5332006,67.0333577 L76.1918119,59.1059542 L77.7446823,59.1059542 C77.8844407,59.1059542 77.9698485,59.1059542 78.0009059,59.1835977 L77.9543198,59.1835977 Z M18.5725545,64.2148979 L17.8970558,64.2692484 L17.1206206,64.3391275 L15.9016173,64.4555928 C15.3999258,64.4971617 14.9062339,64.606871 14.4341547,64.7816956 C14.0254196,64.8963882 13.7106142,65.223073 13.6111334,65.6357743 C13.5032647,66.0122038 13.6627237,66.4140406 13.999351,66.6140827 C14.4793493,66.8986578 15.0342395,67.0312901 15.5910432,66.994536 C16.0795289,67.0000929 16.5676698,66.9663385 17.0507414,66.8935994 C17.3803294,66.8448976 17.7033238,66.7589394 18.0135211,66.6373758 L18.5725545,64.2148979 Z M39.7381785,64.2148979 L39.0704442,64.2692484 L38.294009,64.3391275 L37.08277,64.4555928 C36.5785655,64.4972272 36.0823174,64.6069242 35.6075431,64.7816956 C35.1988079,64.8963882 34.8840026,65.223073 34.7845218,65.6357743 C34.6822424,66.0119087 34.8403829,66.4104229 35.1727394,66.6140827 C35.6527377,66.8986578 36.2076278,67.0312901 36.7644316,66.994536 C37.2554814,66.9996153 37.7461643,66.9658646 38.2318941,66.8935994 C38.5587642,66.8439423 38.8790804,66.7580038 39.1869095,66.6373758 L39.7381785,64.2148979 Z M48.6594191,66.3268017 C49.0010506,66.4820887 49.3892682,66.6373758 49.8163076,66.8081915 C50.3325938,66.9858602 50.8782952,67.0623111 51.4235285,67.0333577 C51.9382321,67.0678376 52.4516045,66.9489513 52.8987554,66.6917262 C53.2729943,66.4765034 53.5982527,66.1856219 53.8537707,65.8376475 C54.0782593,65.5334445 54.2634777,65.2021383 54.4050397,64.8515748 C54.549574,64.4889514 54.6638414,64.1149855 54.7466712,63.7335081 C54.8460571,63.325267 54.9135515,62.9099166 54.9485444,62.4912117 C54.9907019,62.1380797 54.9535668,61.7799907 54.8398434,61.4430242 C54.7374112,61.1245103 54.5292111,60.8505629 54.2497527,60.666589 C53.8326839,60.4555728 53.3636107,60.3693065 52.8987554,60.4181297 C51.8749264,60.3882579 50.8555895,60.5651894 49.9017155,60.9383413 L48.6594191,66.3268017 Z M64.2191808,64.2148979 L63.5514466,64.2692484 L62.7750113,64.3391275 L61.5560081,64.4555928 C61.0518035,64.4972272 60.5555554,64.6069242 60.0807811,64.7816956 C59.6729164,64.8978412 59.3587249,65.223889 59.2577598,65.6357743 C59.1554804,66.0119087 59.313621,66.4104229 59.6459774,66.6140827 C60.1289345,66.8983751 60.6861976,67.0309279 61.245434,66.994536 C61.7339109,66.999793 62.2220279,66.9660403 62.7051322,66.8935994 C63.0322194,66.8449838 63.3526517,66.7590142 63.6601475,66.6373758 L64.2191808,64.2148979 Z" id="logo" fill="#1B0E1C"></path>
                    <g transform="translate(19.000000, 0.000000)" fill="#1B0E1C" id="logo">
                        <path d="M18.7401778,7.72407934 L20.4281681,4.82523723 C20.5240049,4.57452853 20.7591533,4.40432112 21.0272535,4.39160141 C21.2953538,4.37888169 21.5455603,4.52606198 21.6647023,4.76657125 C21.7838443,5.00708053 21.7493264,5.29530585 21.5767613,5.50088023 L19.5097436,9.05339465 L20.9459802,11.534289 L24.8266041,4.82523723 C24.9168546,4.66438222 25.068943,4.54741605 25.2475755,4.50148199 C25.4262079,4.45554793 25.615854,4.48463952 25.7725043,4.58200575 C26.0693405,4.78237686 26.1582612,5.1795559 25.9751972,5.48736737 L21.702339,12.840791 L23.0699323,15.2031137 C23.0747182,15.2102142 23.0794497,15.217341 23.0841269,15.2244935 L30.1912095,2.69696177 C30.1912095,2.69696177 30.1912095,2.6361539 30.2385045,2.61588461 L19.0498564,2.61588461 C18.4876325,2.70747737 17.9937775,3.04082951 17.6985704,3.52800266 L17.0118023,4.73855689 L18.7401778,7.72407934 Z M9.69314276,17.6390316 L1.9831142,31.2293657 L1.93581919,31.3171993 L1.9155499,31.3104429 L13.1244673,31.3104429 C13.6860065,31.217128 14.1792051,30.8842189 14.4757533,30.3983248 L21.6358685,17.7773136 L10.448921,17.7773136 C10.1900452,17.7583466 9.9368801,17.7114842 9.69314276,17.6390316 Z M16.0331919,3.04814669 L16.2324251,2.69696177 C16.8325653,1.69369055 17.8838958,1.04574833 19.0498564,0.960559258 L30.3736331,0.960559258 C30.9391816,0.932909205 31.4750066,1.21505864 31.7722141,1.69701013 C32.0680417,2.28630013 32.0215004,2.9895909 31.6505984,3.53475909 L15.9351422,31.2361222 C15.3404623,32.2426073 14.2903831,32.8938584 13.1244673,32.9792811 L13.1244673,32.9657683 L1.80069059,32.9657683 C1.23448679,32.9963963 0.69723248,32.7134943 0.402109575,32.2293174 C0.104024162,31.6436269 0.148026855,30.9421723 0.516968885,30.3983248 L8.23676049,16.7907816 C8.00657676,16.5694418 7.8045945,16.3156963 7.63824612,16.0341546 L0.415622435,3.53475909 C0.0447204145,2.9895909 -0.00182088654,2.28630013 0.294006695,1.69701013 C0.592236876,1.21615463 1.12736429,0.934372557 1.69258771,0.960559258 L13.0163644,0.960559258 C14.1847336,1.04383201 15.2377824,1.69535861 15.8337957,2.7037182 L16.0331919,3.04814669 Z M11.4020229,29.567494 C11.2879952,29.5678573 11.175972,29.5375177 11.0777143,29.4796571 C10.7639481,29.2946046 10.6533689,28.8941284 10.8277263,28.5742955 L15.786946,19.8382315 C15.8874638,19.5943719 16.1207017,19.4313023 16.3842493,19.4206235 C16.6477968,19.4099447 16.8934633,19.5536093 17.0133814,19.7885371 C17.1332994,20.0234648 17.1055415,20.3066979 16.9422955,20.5138745 L11.9830759,29.2296692 C11.8631139,29.4374595 11.6419512,29.5660425 11.4020229,29.567494 Z M6.99683052,29.567494 C6.88280288,29.5678573 6.77077966,29.5375177 6.67252188,29.4796571 C6.35875575,29.2946046 6.2481765,28.8941284 6.42253397,28.5742955 L11.3817536,19.8382315 C11.4822714,19.5943719 11.7155093,19.4313023 11.9790569,19.4206235 C12.2426045,19.4099447 12.488271,19.5536093 12.608189,19.7885371 C12.7281071,20.0234648 12.7003491,20.3066979 12.5371031,20.5138745 L7.5778835,29.2296692 C7.45792153,29.4374595 7.23675885,29.5660425 6.99683052,29.567494 Z M1.99707231,2.62284779 C1.99707231,2.62284779 1.99707231,2.67689923 2.04436732,2.70392495 L9.26699101,15.2033205 C9.56353923,15.6892146 10.0567378,16.0221236 10.618277,16.1154385 L21.8474637,16.1154385 C21.8366976,16.0871246 21.8231166,16.0599627 21.8069251,16.0343614 L14.5843014,3.53496584 C14.2864357,3.05033227 13.7938783,2.71785604 13.2330154,2.62284779 L1.99707231,2.62284779 Z M14.6844366,15.0006276 L11.5291838,15.0006276 C10.7212647,14.9417626 9.99267185,14.49301 9.57657555,13.797983 L4.84707454,5.60243343 C4.58475072,5.20991436 4.55378068,4.70665114 4.76599738,4.28492958 C4.98282485,3.92534395 5.38045194,3.71483548 5.79973117,3.73765875 L8.1915074,3.73765875 L14.6844366,15.0006276 Z M6.06998837,5.06867546 L10.7319251,13.12234 C10.9070845,13.4080483 11.1982891,13.6030073 11.5291838,13.656098 L12.3872504,13.656098 L7.41451795,5.06867546 L6.06998837,5.06867546 Z M20.0828242,15.0006276 L16.920815,15.0006276 C16.1149854,14.9407485 15.3888769,14.4919732 14.9749631,13.797983 L10.2454621,5.60243343 C9.98031812,5.21087033 9.94925212,4.70604817 10.164385,4.28492958 C10.3812733,3.92195624 10.7828988,3.71071159 11.2048752,3.73765875 L13.5966514,3.73765875 L20.0828242,15.0006276 Z M11.468376,5.06867546 L16.1235562,13.12234 C16.3013124,13.4055401 16.5912498,13.5996507 16.920815,13.656098 L17.785638,13.656098 L12.8129055,5.06867546 L11.468376,5.06867546 Z M43.0141477,8.39283903 L33.5010942,8.39283903 C33.127947,8.39283903 32.8254512,8.09034332 32.8254512,7.71719603 C32.8254512,7.34404873 33.127947,7.04155302 33.5010942,7.04155302 L43.0141477,7.04155302 C43.387295,7.04155302 43.6897907,7.34404873 43.6897907,7.71719603 C43.6897907,8.09034332 43.387295,8.39283903 43.0141477,8.39283903 Z M46.8518,8.39283903 L45.4667318,8.39283903 C45.0935845,8.39283903 44.7910888,8.09034332 44.7910888,7.71719603 C44.7910888,7.34404873 45.0935845,7.04155302 45.4667318,7.04155302 L46.8518,7.04155302 C47.2249473,7.04155302 47.527443,7.34404873 47.527443,7.71719603 C47.527443,8.09034332 47.2249473,8.39283903 46.8518,8.39283903 Z M53.0947413,12.5277742 L31.4741652,12.5277742 C31.1010179,12.5277742 30.7985222,12.2252785 30.7985222,11.8521312 C30.7985222,11.4789839 31.1010179,11.1764882 31.4741652,11.1764882 L53.0947413,11.1764882 C53.4678886,11.1764882 53.7703843,11.4789839 53.7703843,11.8521312 C53.7703843,12.2252785 53.4678886,12.5277742 53.0947413,12.5277742 Z M45.4667318,16.6694658 L29.1094147,16.6694658 C28.7362674,16.6694658 28.4337717,16.3669701 28.4337717,15.9938228 C28.4337717,15.6206755 28.7362674,15.3181798 29.1094147,15.3181798 L45.4667318,15.3181798 C45.8398791,15.3181798 46.1423748,15.6206755 46.1423748,15.9938228 C46.1423748,16.3669701 45.8398791,16.6694658 45.4667318,16.6694658 Z M36.4536542,20.804401 L26.4473813,20.804401 C26.074234,20.804401 25.7717383,20.5019053 25.7717383,20.128758 C25.7717383,19.7556107 26.074234,19.453115 26.4473813,19.453115 L36.4536542,19.453115 C36.8268015,19.453115 37.1292972,19.7556107 37.1292972,20.128758 C37.1292972,20.5019053 36.8268015,20.804401 36.4536542,20.804401 Z M41.2034245,20.804401 L39.6899841,20.804401 C39.3168369,20.804401 39.0143411,20.5019053 39.0143411,20.128758 C39.0143411,19.7556107 39.3168369,19.453115 39.6899841,19.453115 L41.2034245,19.453115 C41.5765718,19.453115 41.8790675,19.7556107 41.8790675,20.128758 C41.8790675,20.5019053 41.5765718,20.804401 41.2034245,20.804401 Z M32.4335783,24.9460926 L24.0420922,24.9460926 C23.6689449,24.9460926 23.3664492,24.6435969 23.3664492,24.2704496 C23.3664492,23.8973023 23.6689449,23.5948066 24.0420922,23.5948066 L32.4335783,23.5948066 C32.8067256,23.5948066 33.1092213,23.8973023 33.1092213,24.2704496 C33.1092213,24.6435969 32.8067256,24.9460926 32.4335783,24.9460926 Z M37.2914515,29.0877842 L22.1773175,29.0877842 C21.8041702,29.0877842 21.5016745,28.7852885 21.5016745,28.4121412 C21.5016745,28.0389939 21.8041702,27.7364982 22.1773175,27.7364982 L37.2914515,27.7364982 C37.6645988,27.7364982 37.9670945,28.0389939 37.9670945,28.4121412 C37.9670945,28.7852885 37.6645988,29.0877842 37.2914515,29.0877842 Z M43.0141477,29.0877842 L39.7305227,29.0877842 C39.3573754,29.0877842 39.0548797,28.7852885 39.0548797,28.4121412 C39.0548797,28.0389939 39.3573754,27.7364982 39.7305227,27.7364982 L43.0141477,27.7364982 C43.387295,27.7364982 43.6897907,28.0389939 43.6897907,28.4121412 C43.6897907,28.7852885 43.387295,29.0877842 43.0141477,29.0877842 Z M36.3320384,2.6025785 L36.3320384,1.21075392 C36.277987,1.39993396 36.2104227,1.60262686 36.1293455,1.82558905 L35.8455755,2.60933493 L35.6901776,2.60933493 L35.4266768,1.83910191 C35.3455996,1.60938329 35.2847918,1.39993396 35.2374968,1.21075392 L35.2374968,1.9269355 L35.1969582,2.6025785 L34.9942653,2.6025785 L35.0077781,0.960766008 L35.2712789,0.960766008 L35.5280233,1.76478118 C35.5955876,1.96071765 35.6428826,2.14314126 35.6901776,2.31205201 C35.7307162,2.14314126 35.791524,1.96747408 35.8590883,1.76478118 L36.2036663,0.960766008 L36.467167,0.960766008 L36.5685135,2.58230921 L36.3320384,2.6025785 Z M34.3051094,2.6025785 L34.0956601,2.6025785 L34.0956601,1.15670248 L33.5686585,1.15670248 L33.5686585,0.960766008 L34.7645467,0.960766008 L34.7645467,1.15670248 L34.2713273,1.15670248 L34.3051094,2.6025785 Z"></path>
                    </g>
                </g>
                <path d="M285.408192,67.5738412 C284.283987,67.5738412 283.372638,66.6624925 283.372638,65.5382869 C283.372638,64.4140812 284.283987,63.5027325 285.408192,63.5027325 C286.532398,63.5027325 287.443747,64.4140812 287.443747,65.5382869 C287.443747,66.6624925 286.532398,67.5738412 285.408192,67.5738412 Z M285.408192,58.9220874 C284.935024,58.9220874 284.551445,58.5385087 284.551445,58.0653404 C284.551445,57.5921721 284.935024,57.2085934 285.408192,57.2085934 C285.881361,57.2085934 286.264939,57.5921721 286.264939,58.0653404 C286.264939,58.5385087 285.881361,58.9220874 285.408192,58.9220874 Z M335.76625,77.5870707 C334.731413,77.1478086 334.248604,75.9528154 334.687867,74.9179786 C335.127129,73.8831419 336.322122,73.4003333 337.356959,73.8395955 C338.391795,74.2788576 338.874604,75.4738508 338.435342,76.5086875 C337.99608,77.5435242 336.801086,78.0263328 335.76625,77.5870707 Z M393.862785,133.785382 C393.067852,132.990449 393.067852,131.701607 393.862785,130.906674 C394.657719,130.11174 395.94656,130.11174 396.741494,130.906674 C397.536427,131.701607 397.536427,132.990449 396.741494,133.785382 C395.94656,134.580315 394.657719,134.580315 393.862785,133.785382 Z M409.573326,172.109871 C409.152191,171.067526 409.655782,169.881141 410.698127,169.460006 C411.740472,169.038871 412.926857,169.542462 413.347992,170.584807 C413.769127,171.627153 413.265536,172.813538 412.223191,173.234672 C411.180846,173.655807 409.994461,173.152217 409.573326,172.109871 Z M414.180235,216.726236 C414.180235,215.602031 415.091583,214.690682 416.215789,214.690682 C417.339995,214.690682 418.251343,215.602031 418.251343,216.726236 C418.251343,217.850442 417.339995,218.761791 416.215789,218.761791 C415.091583,218.761791 414.180235,217.850442 414.180235,216.726236 Z M400.91457,261.288911 C401.353832,260.254074 402.548825,259.771265 403.583662,260.210527 C404.618498,260.64979 405.101307,261.844783 404.662045,262.87962 C404.222783,263.914456 403.027789,264.397265 401.992953,263.958003 C400.958116,263.518741 400.475307,262.323747 400.91457,261.288911 Z M372.779695,298.123138 C373.574628,297.328205 374.86347,297.328205 375.658403,298.123138 C376.453337,298.918072 376.453337,300.206913 375.658403,301.001847 C374.86347,301.79678 373.574628,301.79678 372.779695,301.001847 C371.984761,300.206913 371.984761,298.918072 372.779695,298.123138 Z M331.584577,320.59301 C332.626922,320.171875 333.813307,320.675466 334.234442,321.717811 C334.655577,322.760156 334.151986,323.946541 333.109641,324.367676 C332.067296,324.788811 330.880911,324.28522 330.459776,323.242875 C330.038641,322.20053 330.542231,321.014145 331.584577,320.59301 Z M290.84413,329.807127 C291.968335,329.807127 292.879684,330.718476 292.879684,331.842682 C292.879684,332.966887 291.968335,333.878236 290.84413,333.878236 C289.719924,333.878236 288.808575,332.966887 288.808575,331.842682 C288.808575,330.718476 289.719924,329.807127 290.84413,329.807127 Z M244.88127,321.290098 C245.916107,321.72936 246.398916,322.924353 245.959654,323.95919 C245.520392,324.994026 244.325398,325.476835 243.290562,325.037573 C242.255725,324.598311 241.772916,323.403317 242.212178,322.368481 C242.651441,321.333644 243.846434,320.850835 244.88127,321.290098 Z M192.328366,292.288419 C193.1233,293.083353 193.1233,294.372195 192.328366,295.167128 C191.533433,295.962061 190.244591,295.962061 189.449658,295.167128 C188.654725,294.372195 188.654725,293.083353 189.449658,292.288419 C190.244591,291.493486 191.533433,291.493486 192.328366,292.288419 Z M163.78667,249.566651 C164.225932,250.601487 163.743123,251.796481 162.708287,252.235743 C161.67345,252.675005 160.478457,252.192196 160.039194,251.15736 C159.599932,250.122523 160.082741,248.92753 161.117578,248.488268 C162.152414,248.049005 163.347408,248.531814 163.78667,249.566651 Z M153.77344,199.208593 C153.77344,200.332799 152.862091,201.244148 151.737886,201.244148 C150.61368,201.244148 149.702332,200.332799 149.702332,199.208593 C149.702332,198.084388 150.61368,197.173039 151.737886,197.173039 C152.862091,197.173039 153.77344,198.084388 153.77344,199.208593 Z M163.78667,148.850536 C163.347408,149.885373 162.152414,150.368181 161.117578,149.928919 C160.082741,149.489657 159.599932,148.294664 160.039194,147.259827 C160.478457,146.224991 161.67345,145.742182 162.708287,146.181444 C163.743123,146.620706 164.225932,147.815699 163.78667,148.850536 Z M192.328366,106.128767 C191.533433,106.923701 190.244591,106.923701 189.449658,106.128767 C188.654725,105.333834 188.654725,104.044992 189.449658,103.250059 C190.244591,102.455126 191.533433,102.455126 192.328366,103.250059 C193.1233,104.044992 193.1233,105.333834 192.328366,106.128767 Z M235.017313,77.6006662 C233.974967,78.021801 232.788582,77.5182104 232.367448,76.4758652 C231.946313,75.4335199 232.449903,74.2471348 233.492249,73.826 C234.534594,73.4048651 235.720979,73.9084557 236.142114,74.950801 C236.563249,75.9931463 236.059658,77.1795313 235.017313,77.6006662 Z M339.086619,69.5978706 C338.651066,69.412989 338.447856,68.9100268 338.632737,68.4744731 C338.817619,68.0389194 339.320581,67.8357095 339.756135,68.0205911 C340.191688,68.2054726 340.394898,68.7084348 340.210017,69.1439885 C340.025135,69.5795422 339.522173,69.7827521 339.086619,69.5978706 Z M399.980499,127.667668 C399.645918,127.333088 399.645918,126.790626 399.980499,126.456045 C400.315079,126.121465 400.857542,126.121465 401.192122,126.456045 C401.526703,126.790626 401.526703,127.333088 401.192122,127.667668 C400.857542,128.002249 400.315079,128.002249 399.980499,127.667668 Z M417.570399,168.80851 C417.393147,168.369796 417.605104,167.870456 418.043818,167.693205 C418.482532,167.515953 418.981871,167.727909 419.159123,168.166623 C419.336375,168.605337 419.124418,169.104676 418.685704,169.281928 C418.24699,169.45918 417.747651,169.247224 417.570399,168.80851 Z M422.831988,216.726236 C422.831988,216.253068 423.215567,215.869489 423.688735,215.869489 C424.161904,215.869489 424.545482,216.253068 424.545482,216.726236 C424.545482,217.199405 424.161904,217.582983 423.688735,217.582983 C423.215567,217.582983 422.831988,217.199405 422.831988,216.726236 Z M408.90377,264.60928 C409.088651,264.173726 409.591613,263.970517 410.027167,264.155398 C410.462721,264.34028 410.665931,264.843242 410.481049,265.278796 C410.296168,265.714349 409.793205,265.917559 409.357652,265.732678 C408.922098,265.547796 408.718888,265.044834 408.90377,264.60928 Z M378.897409,304.240852 C379.231989,303.906271 379.774451,303.906271 380.109032,304.240852 C380.443612,304.575432 380.443612,305.117895 380.109032,305.452475 C379.774451,305.787056 379.231989,305.787056 378.897409,305.452475 C378.562828,305.117895 378.562828,304.575432 378.897409,304.240852 Z M334.885939,328.590083 C335.324653,328.412831 335.823992,328.624788 336.001244,329.063502 C336.178496,329.502216 335.966539,330.001555 335.527825,330.178807 C335.089111,330.356059 334.589772,330.144102 334.41252,329.705388 C334.235268,329.266674 334.447225,328.767335 334.885939,328.590083 Z M290.84413,338.458881 C291.317298,338.458881 291.700877,338.84246 291.700877,339.315628 C291.700877,339.788796 291.317298,340.172375 290.84413,340.172375 C290.370961,340.172375 289.987383,339.788796 289.987383,339.315628 C289.987383,338.84246 290.370961,338.458881 290.84413,338.458881 Z M241.560901,329.279298 C241.996455,329.464179 242.199665,329.967141 242.014783,330.402695 C241.829901,330.838249 241.326939,331.041459 240.891385,330.856577 C240.455832,330.671696 240.252622,330.168733 240.437503,329.73318 C240.622385,329.297626 241.125347,329.094416 241.560901,329.279298 Z M186.210653,298.406133 C186.545233,298.740714 186.545233,299.283176 186.210653,299.617756 C185.876072,299.952337 185.33361,299.952337 184.999029,299.617756 C184.664449,299.283176 184.664449,298.740714 184.999029,298.406133 C185.33361,298.071553 185.876072,298.071553 186.210653,298.406133 Z M155.79747,252.88702 C155.982351,253.322574 155.779141,253.825536 155.343588,254.010418 C154.908034,254.195299 154.405072,253.992089 154.22019,253.556536 C154.035308,253.120982 154.238518,252.61802 154.674072,252.433138 C155.109626,252.248257 155.612588,252.451467 155.79747,252.88702 Z M145.121686,199.208593 C145.121686,199.681762 144.738108,200.06534 144.264939,200.06534 C143.791771,200.06534 143.408192,199.681762 143.408192,199.208593 C143.408192,198.735425 143.791771,198.351846 144.264939,198.351846 C144.738108,198.351846 145.121686,198.735425 145.121686,199.208593 Z M155.79747,145.530167 C155.612588,145.96572 155.109626,146.16893 154.674072,145.984049 C154.238518,145.799167 154.035308,145.296205 154.22019,144.860651 C154.405072,144.425097 154.908034,144.221888 155.343588,144.406769 C155.779141,144.591651 155.982351,145.094613 155.79747,145.530167 Z M186.210653,100.011054 C185.876072,100.345634 185.33361,100.345634 184.999029,100.011054 C184.664449,99.6764732 184.664449,99.134011 184.999029,98.7994305 C185.33361,98.46485 185.876072,98.46485 186.210653,98.7994305 C186.545233,99.134011 186.545233,99.6764732 186.210653,100.011054 Z M231.715951,69.6035928 C231.277237,69.7808447 230.777898,69.5688879 230.600646,69.1301739 C230.423394,68.6914599 230.635351,68.1921208 231.074065,68.0148689 C231.512779,67.8376169 232.012118,68.0495738 232.18937,68.4882877 C232.366622,68.9270017 232.154665,69.4263408 231.715951,69.6035928 Z" id="Combined-Shape" fill="#FFFFFF" transform="translate(283.976837, 198.690484) rotate(50.000000) translate(-283.976837, -198.690484) "></path>
                <g id="circle-lables" transform="translate(136.500000, 99.620000)" stroke="#FFFFFF" stroke-linecap="round" stroke-linejoin="round" stroke-width="3">
                    <path d="M289.164425,118.501276 L289.164425,131.83461" id="Path-9" transform="translate(289.164425, 125.167943) rotate(90.000000) translate(-289.164425, -125.167943) "></path>
                    <path d="M279.754805,166.032327 L280.370457,179.104332" id="Path-9" transform="translate(280.062631, 172.568329) rotate(113.000000) translate(-280.062631, -172.568329) "></path>
                    <path d="M250.414713,207.085887 L251.270569,219.563364" id="Path-9" transform="translate(250.842641, 213.324625) rotate(135.000000) translate(-250.842641, -213.324625) "></path>
                    <path d="M205.65567,235.301142 L206.250198,247.162968" id="Path-9" transform="translate(205.952934, 241.232055) rotate(158.000000) translate(-205.952934, -241.232055) "></path>
                    <path d="M152.22756,246.231154 L152.22756,257.852776" id="Path-9" transform="translate(152.227560, 252.041965) rotate(180.000000) translate(-152.227560, -252.041965) "></path>
                    <path d="M98.1535476,238.16717 L97.5378964,250.05012" id="Path-9" transform="translate(97.845722, 244.108645) rotate(203.000000) translate(-97.845722, -244.108645) "></path>
                    <path d="M51.5144882,212.401131 L50.6586324,224.878608" id="Path-9" transform="translate(51.086560, 218.639870) rotate(225.000000) translate(-51.086560, -218.639870) "></path>
                    <path d="M19.3765595,172.977028 L18.7609083,186.049033" id="Path-9" transform="translate(19.068734, 179.513030) rotate(247.000000) translate(-19.068734, -179.513030) "></path>
                    <path d="M6.66666667,126.018166 L6.66666667,139.3515" id="Path-9" transform="translate(6.666667, 132.684833) rotate(270.000000) translate(-6.666667, -132.684833) "></path>
                </g>
            </g>
        </g>
    </g>
</svg>