<?xml version="1.0" encoding="UTF-8"?>
<svg width="439px" height="197px" viewBox="0 0 439 197" version="1.1" xmlns="http://www.w3.org/2000/svg" xmlns:xlink="http://www.w3.org/1999/xlink">
    <!-- Generator: Sketch 56.2 (81672) - https://sketch.com -->
    <title>email-discount-lable</title>
    <desc>Created with Sketch.</desc>
    <defs>
        <filter x="-0.2%" y="-0.3%" width="101.0%" height="100.6%" filterUnits="objectBoundingBox" id="filter-1">
            <feGaussianBlur stdDeviation="0" in="SourceGraphic"></feGaussianBlur>
        </filter>
    </defs>
    <g id="Available-Cards" stroke="none" stroke-width="1" fill="none" fill-rule="evenodd">
        <g id="email-form" transform="translate(-577.000000, -465.000000)">
            <g id="email-discount-lable" transform="translate(576.652361, 442.855558)">
                <path d="M216.982063,45.2873767 L285.75542,88.3212349 C288.974786,90.335703 290.000665,94.549757 288.067475,97.8185756 L246.90551,167.419071 C245.79679,169.293799 243.971619,170.635426 241.851446,171.134159 L38.7648561,218.906652 C36.089776,219.535916 33.408249,217.888348 32.7607262,215.217629 L4.65569849,99.2979371 C4.00205951,96.614986 5.65013912,93.9119727 8.33381167,93.2613094 C8.33480386,93.2610688 8.33579612,93.2608286 8.3375081,93.2635647 L210.858245,44.29322 C212.950143,43.7873905 215.157616,44.1457575 216.982063,45.2873767 Z M260.196871,107.978184 C265.338304,107.437797 269.06819,102.831772 268.527803,97.6903388 C267.987417,92.5489054 263.381392,88.8190198 258.239958,89.3594062 C253.098525,89.8997927 249.368639,94.5058177 249.909026,99.6472511 C250.449412,104.788685 255.055437,108.51857 260.196871,107.978184 Z" id="Combined-Shape-Copy-3" fill="#817682" fill-rule="nonzero" opacity="0.382719494" filter="url(#filter-1)"></path>
                <path d="M218.724898,38.6944868 L283.071036,89.2930315 C286.045637,91.6321069 286.622815,95.9116999 284.374152,98.9552241 L235.812047,164.683152 C234.514755,166.439013 232.556241,167.588435 230.390692,167.864863 L22.1891687,194.441286 C19.4606222,194.789578 16.9631701,192.868499 16.5998699,190.14191 L0.660381059,70.5151298 C0.29955969,67.7788497 2.22068602,65.2651217 4.95570304,64.8948481 L212.717323,37.053968 C214.85923,36.7669439 217.026147,37.358675 218.724898,38.6944868 Z M257.602986,106.348845 C262.860302,106.348845 267.122199,102.086949 267.122199,96.8296324 C267.122199,91.5723161 262.860302,87.3104193 257.602986,87.3104193 C252.34567,87.3104193 248.083773,91.5723161 248.083773,96.8296324 C248.083773,102.086949 252.34567,106.348845 257.602986,106.348845 Z" id="Combined-Shape-Copy" fill="#F27036" fill-rule="nonzero"></path>
                <text id="50%" transform="translate(127.350899, 111.892895) rotate(-6.000000) translate(-127.350899, -111.892895) " font-family="Arial-BoldMT, Arial" font-size="66" font-weight="bold" fill="#FFFFFF">
                    <tspan x="61.7542188" y="134.892895">50%</tspan>
                </text>
                <path d="M438.011966,56.476621 C419.876171,88.3809501 390.408674,99.0157264 349.609477,88.3809501 C311.481174,78.442373 279.651867,79.5698752 259.218414,98.6687949" id="Path-11" stroke="#331D34" stroke-width="2" stroke-linecap="round" stroke-linejoin="round" fill-rule="nonzero"></path>
                <path d="M117.451542,27.5254348 L118.583525,38.2460833 L117.451542,27.5254348 Z M167.067207,38.4979171 L162.177684,48.1055312 L167.067207,38.4979171 Z M202.816602,74.4823761 L193.578791,80.0390423 L202.816602,74.4823761 Z M213.47031,124.166506 L202.696452,123.795446 L213.47031,124.166506 Z M195.557677,171.718701 L186.724053,165.539641 L195.557677,171.718701 Z M154.770848,202.026473 L150.727706,192.033141 L154.770848,202.026473 Z M104.164235,205.474565 L106.031115,194.8572 L104.164235,205.474565 Z M59.6409418,180.985564 L66.9892707,173.097868 L59.6409418,180.985564 Z M35.4378534,136.305563 L45.8966279,133.692572 L35.4378534,136.305563 Z M39.2473139,85.6337713 L49.4419175,89.1385887 L39.2473139,85.6337713 Z M69.7855689,45.132524 L76.5738128,53.5070946 L69.7855689,45.132524 Z" id="Combined-Shape" stroke="#331D34" stroke-linecap="round" stroke-linejoin="round" fill-rule="nonzero"></path>
                <path d="M122.368277,25.9547538 C121.000059,25.9547538 119.8909,24.8455944 119.8909,23.4773769 C119.8909,22.1091594 121.000059,21 122.368277,21 C123.736494,21 124.845653,22.1091594 124.845653,23.4773769 C124.845653,24.8455944 123.736494,25.9547538 122.368277,25.9547538 Z M172.703666,38.1695494 C171.556182,37.4243648 171.230054,35.8900539 171.975239,34.7425702 C172.720424,33.5950864 174.254735,33.2689586 175.402218,34.0141433 C176.549702,34.7593279 176.87583,36.2936388 176.130645,37.4411225 C175.385461,38.5886063 173.85115,38.9147341 172.703666,38.1695494 Z M208.467687,75.6936379 C207.889453,74.4536117 208.425942,72.9796209 209.665968,72.4013872 C210.905994,71.8231535 212.379985,72.3596423 212.958219,73.5996684 C213.536452,74.8396946 212.999963,76.3136855 211.759937,76.8919192 C210.519911,77.4701528 209.04592,76.9336641 208.467687,75.6936379 Z M218.255746,126.556134 C218.446165,125.201232 219.698896,124.257232 221.053798,124.447651 C222.4087,124.63807 223.3527,125.890801 223.162281,127.245703 C222.971862,128.600605 221.719131,129.544605 220.364229,129.354186 C219.009327,129.163767 218.065327,127.911036 218.255746,126.556134 Z M198.997746,174.638977 C199.895378,173.60637 201.460145,173.496951 202.492752,174.394583 C203.525359,175.292214 203.634778,176.856981 202.737147,177.889588 C201.839515,178.922195 200.274748,179.031614 199.242141,178.133983 C198.209534,177.236351 198.100115,175.671584 198.997746,174.638977 Z M156.804951,204.682818 C158.120166,204.305687 159.492084,205.066153 159.869216,206.381368 C160.246348,207.696583 159.485881,209.068502 158.170666,209.445633 C156.855451,209.822765 155.483533,209.062299 155.106401,207.747084 C154.729269,206.431868 155.489736,205.05995 156.804951,204.682818 Z M105.025686,207.140577 C106.340901,207.517708 107.101368,208.889627 106.724236,210.204842 C106.347104,211.520057 104.975186,212.280523 103.659971,211.903392 C102.344756,211.52626 101.584289,210.154342 101.961421,208.839126 C102.338553,207.523911 103.710471,206.763445 105.025686,207.140577 Z M60.1753617,181.231931 C61.0729931,182.264538 60.9635739,183.829305 59.9309671,184.726936 C58.8983602,185.624568 57.3335929,185.515149 56.4359615,184.482542 C55.5383301,183.449935 55.6477493,181.885168 56.6803561,180.987536 C57.712963,180.089905 59.2777303,180.199324 60.1753617,181.231931 Z M36.4460507,135.191067 C36.6364698,136.545969 35.6924698,137.7987 34.3375677,137.989119 C32.9826656,138.179538 31.7299353,137.235538 31.5395162,135.880636 C31.3490972,134.525734 32.2930972,133.273003 33.6479993,133.082584 C35.0029013,132.892165 36.2556317,133.836165 36.4460507,135.191067 Z M41.368627,83.62902 C40.7903933,84.8690461 39.3164024,85.4055349 38.0763763,84.8273012 C36.8363501,84.2490675 36.2998613,82.7750767 36.878095,81.5350505 C37.4563287,80.2950244 38.9303196,79.7585356 40.1703457,80.3367693 C41.4103719,80.915003 41.9468607,82.3889938 41.368627,83.62902 Z M73.4177482,42.8859529 C72.2702645,43.6311375 70.7359536,43.3050097 69.9907689,42.1575259 C69.2455843,41.0100422 69.5717121,39.4757313 70.7191959,38.7305467 C71.8666796,37.985362 73.4009905,38.3114899 74.1461751,39.4589736 C74.8913598,40.6064573 74.5652319,42.1407682 73.4177482,42.8859529 Z" id="Combined-Shape" fill="#FCDF9F" fill-rule="nonzero" transform="translate(127.350899, 116.500000) rotate(14.000000) translate(-127.350899, -116.500000) "></path>
            </g>
        </g>
    </g>
</svg>