<?xml version="1.0" encoding="UTF-8"?>
<svg width="61px" height="46px" viewBox="0 0 61 46" version="1.1" xmlns="http://www.w3.org/2000/svg" xmlns:xlink="http://www.w3.org/1999/xlink">
    <!-- Generator: Sketch 56.2 (81672) - https://sketch.com -->
    <title>Combined Shape</title>
    <desc>Created with Sketch.</desc>
    <g id="Desktop-Ar" stroke="none" stroke-width="1" fill="none" fill-rule="evenodd">
        <g id="confirm-email" transform="translate(-880.000000, -267.000000)" fill="#F27036" fill-rule="nonzero">
            <g id="Group-2" transform="translate(455.030000, 227.000000)">
                <path d="M483.08,40.5 C484.5386,40.5 485.72,41.6814 485.72,43.14 L485.72,82.74 C485.72,84.1986 484.5386,85.38 483.08,85.38 L427.64,85.38 C426.1814,85.38 425,84.1986 425,82.74 L425,43.14 C425,41.6814 426.1814,40.5 427.64,40.5 L483.08,40.5 Z M453.895196,65.8499565 C454.755308,66.5235525 455.963504,66.5235525 456.823616,65.8499565 L481.89398,46.2301365 C481.47224,45.8499765 480.91982,45.6123765 480.308,45.6123765 L430.412,45.6123765 C429.80018,45.6123765 429.24776,45.8499765 428.82602,46.2301365 L453.895196,65.8499565 Z" id="Combined-Shape"></path>
            </g>
        </g>
    </g>
</svg>