<?xml version="1.0" encoding="UTF-8"?>
<svg width="531px" height="419px" viewBox="0 0 531 419" version="1.1" xmlns="http://www.w3.org/2000/svg" xmlns:xlink="http://www.w3.org/1999/xlink">
    <!-- Generator: Sketch 56.2 (81672) - https://sketch.com -->
    <title>Group 4</title>
    <desc>Created with Sketch.</desc>
    <g id="Desktop-Ar" stroke="none" stroke-width="1" fill="none" fill-rule="evenodd">
        <g id="Welcome" transform="translate(-189.000000, -1119.000000)" fill-rule="nonzero">
            <g id="Group-4" transform="translate(189.000000, 1119.000000)">
                <path d="M1.8189894e-12,243.21462 L447.013362,117.157282 L447.181694,117.785504 L0.168331796,243.842843 L1.8189894e-12,243.21462 Z M1.8189894e-12,248.498856 L447.013362,122.441518 L447.181694,123.06974 L0.168331796,249.127079 L1.8189894e-12,248.498856 Z M1.8189894e-12,253.783092 L447.013362,127.725754 L447.181694,128.353976 L0.168331796,254.411315 L1.8189894e-12,253.783092 Z M1.8189894e-12,259.067328 L447.013362,133.00999 L447.181694,133.638212 L0.168331796,259.695551 L1.8189894e-12,259.067328 Z M1.8189894e-12,264.351564 L447.013362,138.294226 L447.181694,138.922448 L0.168331796,264.979787 L1.8189894e-12,264.351564 Z M1.8189894e-12,269.6358 L447.013362,143.578462 L447.181694,144.206685 L0.168331796,270.264023 L1.8189894e-12,269.6358 Z M0,274.920036 L447.013362,148.862698 L447.181694,149.490921 L0.168331796,275.548259 L0,274.920036 Z M1.8189894e-12,280.204272 L447.013362,154.146934 L447.181694,154.775157 L0.168331796,280.832495 L1.8189894e-12,280.204272 Z M1.8189894e-12,285.488508 L447.013362,159.43117 L447.181694,160.059393 L0.168331796,286.116731 L1.8189894e-12,285.488508 Z M1.8189894e-12,290.772745 L447.013362,164.715406 L447.181694,165.343629 L0.168331796,291.400967 L1.8189894e-12,290.772745 Z M1.8189894e-12,296.056981 L447.013362,169.999642 L447.181694,170.627865 L0.168331796,296.685203 L1.8189894e-12,296.056981 Z M1.8189894e-12,301.341217 L447.013362,175.283878 L447.181694,175.912101 L0.168331796,301.969439 L1.8189894e-12,301.341217 Z M1.8189894e-12,306.625453 L447.013362,180.568114 L447.181694,181.196337 L0.168331796,307.253675 L1.8189894e-12,306.625453 Z M1.8189894e-12,311.909689 L447.013362,185.85235 L447.181694,186.480573 L0.168331796,312.537911 L1.8189894e-12,311.909689 Z M1.8189894e-12,317.193925 L447.013362,191.136586 L447.181694,191.764809 L0.168331796,317.822147 L1.8189894e-12,317.193925 Z M1.8189894e-12,322.478161 L447.013362,196.420822 L447.181694,197.049045 L0.168331796,323.106384 L1.8189894e-12,322.478161 Z M1.8189894e-12,327.762397 L447.013362,201.705058 L447.181694,202.333281 L0.168331796,328.39062 L1.8189894e-12,327.762397 Z M1.8189894e-12,333.046633 L447.013362,206.989294 L447.181694,207.617517 L0.168331796,333.674856 L1.8189894e-12,333.046633 Z M1.8189894e-12,338.330869 L447.013362,212.27353 L447.181694,212.901753 L0.168331796,338.959092 L1.8189894e-12,338.330869 Z M1.8189894e-12,343.615105 L447.013362,217.557766 L447.181694,218.185989 L0.168331796,344.243328 L1.8189894e-12,343.615105 Z M1.8189894e-12,348.899341 L447.013362,222.842002 L447.181694,223.470225 L0.168331796,349.527564 L1.8189894e-12,348.899341 Z M1.8189894e-12,354.183577 L447.013362,228.126238 L447.181694,228.754461 L0.168331796,354.8118 L1.8189894e-12,354.183577 Z M1.8189894e-12,359.467813 L447.013362,233.410474 L447.181694,234.038697 L0.168331796,360.096036 L1.8189894e-12,359.467813 Z M1.8189894e-12,364.752049 L447.013362,238.69471 L447.181694,239.322933 L0.168331796,365.380272 L1.8189894e-12,364.752049 Z M1.8189894e-12,370.036285 L447.013362,243.978946 L447.181694,244.607169 L0.168331796,370.664508 L1.8189894e-12,370.036285 Z M1.8189894e-12,375.320521 L447.013362,249.263182 L447.181694,249.891405 L0.168331796,375.948744 L1.8189894e-12,375.320521 Z M1.8189894e-12,380.604757 L447.013362,254.547418 L447.181694,255.175641 L0.168331796,381.23298 L1.8189894e-12,380.604757 Z M1.8189894e-12,385.888993 L447.013362,259.831654 L447.181694,260.459877 L0.168331796,386.517216 L1.8189894e-12,385.888993 Z M1.8189894e-12,391.173229 L447.013362,265.11589 L447.181694,265.744113 L0.168331796,391.801452 L1.8189894e-12,391.173229 Z M1.8189894e-12,396.457465 L447.013362,270.400126 L447.181694,271.028349 L0.168331796,397.085688 L1.8189894e-12,396.457465 Z M1.8189894e-12,401.741701 L447.013362,275.684362 L447.181694,276.312585 L0.168331796,402.369924 L1.8189894e-12,401.741701 Z M1.8189894e-12,407.025937 L447.013362,280.968598 L447.181694,281.596821 L0.168331796,407.65416 L1.8189894e-12,407.025937 Z M1.8189894e-12,412.310173 L447.013362,286.252835 L447.181694,286.881057 L0.168331796,412.938396 L1.8189894e-12,412.310173 Z M1.8189894e-12,417.594409 L447.013362,291.537071 L447.181694,292.165293 L0.168331796,418.222632 L1.8189894e-12,417.594409 Z" id="lines-copy-2" fill="#FCDF9F"></path>
                <path d="M430.990802,208.05298 L530.87823,181.288225 L530.962396,181.602336 L431.074968,208.367092 L430.990802,208.05298 Z M430.990802,210.695098 L530.87823,183.930343 L530.962396,184.244454 L431.074968,211.00921 L430.990802,210.695098 Z M430.990802,213.337216 L530.87823,186.572461 L530.962396,186.886572 L431.074968,213.651328 L430.990802,213.337216 Z M430.990802,215.979334 L530.87823,189.214579 L530.962396,189.52869 L431.074968,216.293446 L430.990802,215.979334 Z M430.990802,218.621452 L530.87823,191.856697 L530.962396,192.170808 L431.074968,218.935564 L430.990802,218.621452 Z M430.990802,221.26357 L530.87823,194.498815 L530.962396,194.812926 L431.074968,221.577682 L430.990802,221.26357 Z M430.990802,223.905688 L530.87823,197.140933 L530.962396,197.455044 L431.074968,224.2198 L430.990802,223.905688 Z M430.990802,226.547806 L530.87823,199.783051 L530.962396,200.097162 L431.074968,226.861918 L430.990802,226.547806 Z M430.990802,229.189924 L530.87823,202.425169 L530.962396,202.73928 L431.074968,229.504036 L430.990802,229.189924 Z M430.990802,231.832042 L530.87823,205.067287 L530.962396,205.381398 L431.074968,232.146154 L430.990802,231.832042 Z M430.990802,234.47416 L530.87823,207.709405 L530.962396,208.023516 L431.074968,234.788272 L430.990802,234.47416 Z M430.990802,237.116278 L530.87823,210.351523 L530.962396,210.665634 L431.074968,237.43039 L430.990802,237.116278 Z M430.990802,239.758396 L530.87823,212.993641 L530.962396,213.307752 L431.074968,240.072508 L430.990802,239.758396 Z M430.990802,242.400515 L530.87823,215.635759 L530.962396,215.94987 L431.074968,242.714626 L430.990802,242.400515 Z M430.990802,245.042633 L530.87823,218.277877 L530.962396,218.591988 L431.074968,245.356744 L430.990802,245.042633 Z M430.990802,247.684751 L530.87823,220.919995 L530.962396,221.234106 L431.074968,247.998862 L430.990802,247.684751 Z M430.990802,250.326869 L530.87823,223.562113 L530.962396,223.876224 L431.074968,250.64098 L430.990802,250.326869 Z M430.990802,252.968987 L530.87823,226.204231 L530.962396,226.518342 L431.074968,253.283098 L430.990802,252.968987 Z M430.990802,255.611105 L530.87823,228.846349 L530.962396,229.16046 L431.074968,255.925216 L430.990802,255.611105 Z M430.990802,258.253223 L530.87823,231.488467 L530.962396,231.802578 L431.074968,258.567334 L430.990802,258.253223 Z M430.990802,260.895341 L530.87823,234.130585 L530.962396,234.444696 L431.074968,261.209452 L430.990802,260.895341 Z M430.990802,263.537459 L530.87823,236.772703 L530.962396,237.086814 L431.074968,263.85157 L430.990802,263.537459 Z M430.990802,266.179577 L530.87823,239.414821 L530.962396,239.728932 L431.074968,266.493688 L430.990802,266.179577 Z M430.990802,268.821695 L530.87823,242.056939 L530.962396,242.37105 L431.074968,269.135806 L430.990802,268.821695 Z M430.990802,271.463813 L530.87823,244.699057 L530.962396,245.013168 L431.074968,271.777924 L430.990802,271.463813 Z M430.990802,274.105931 L530.87823,247.341175 L530.962396,247.655286 L431.074968,274.420042 L430.990802,274.105931 Z M430.990802,276.748049 L530.87823,249.983293 L530.962396,250.297405 L431.074968,277.06216 L430.990802,276.748049 Z M430.990802,279.390167 L530.87823,252.625411 L530.962396,252.939523 L431.074968,279.704278 L430.990802,279.390167 Z M430.990802,282.032285 L530.87823,255.267529 L530.962396,255.581641 L431.074968,282.346396 L430.990802,282.032285 Z M430.990802,284.674403 L530.87823,257.909647 L530.962396,258.223759 L431.074968,284.988514 L430.990802,284.674403 Z M430.990802,287.316521 L530.87823,260.551765 L530.962396,260.865877 L431.074968,287.630632 L430.990802,287.316521 Z M430.990802,289.958639 L530.87823,263.193883 L530.962396,263.507995 L431.074968,290.27275 L430.990802,289.958639 Z M430.990802,292.600757 L530.87823,265.836001 L530.962396,266.150113 L431.074968,292.914868 L430.990802,292.600757 Z M430.990802,295.242875 L530.87823,268.478119 L530.962396,268.792231 L431.074968,295.556986 L430.990802,295.242875 Z" id="lines" fill="#F48D65"></path>
                <g id="aboutme" transform="translate(118.784466, 0.000000)">
                    <path d="M136.418921,118.610318 C153.235355,118.610318 167.024831,107.242408 168.992353,92.578478 C168.992353,92.578478 140.488498,85.1792471 103.879121,92.6793766 C105.897094,107.292858 119.686569,118.610318 136.418921,118.610318 Z" id="Path" fill="#FFFFFF"></path>
                    <ellipse id="Oval" fill="#1B0E1C" cx="136.422717" cy="89.933002" rx="24.8145631" ry="19.5262136"></ellipse>
                    <path d="M136.637535,105.644848 L136.637535,105.644848 C151.906857,105.644848 165.763598,92.1917 165.780414,76.8382959 C165.780414,65.6385509 162.719824,47.1404737 162.719824,47.1404737 C162.719824,31.8711518 151.906857,19.3765414 136.637535,19.3765414 L136.637535,19.3765414 C121.385029,19.3765414 109.277197,35.9239123 107.561921,52.5217325 C107.561921,52.5217325 106.653833,69.825843 107.292858,78.5535721 C108.512086,93.8550865 121.287524,105.649487 136.637535,105.644848 L136.637535,105.644848 Z" id="Path" fill="#FFFFFF"></path>
                    <path d="M163.44293,51.8995245 C167.480117,44.953715 169.028329,36.8389483 167.832019,28.894643 C166.873483,23.6983649 156.74999,22.6052967 155.371042,15.2060658 C153.992094,7.80683492 147.5514,-1.50946943 135.359486,0.273072559 C123.167571,2.05561455 120.846903,11.3719189 121.115966,17.0895064 C121.115966,17.0895064 105.779379,25.211844 108.924052,45.4756467 C108.924052,45.4756467 120.981435,21.2263491 137.242926,30.1895084 C139.316018,31.3665305 141.840184,31.4296347 143.9695,30.3576727 C147.147806,28.6760293 151.957306,27.0784681 155.387858,29.6850154 C160.987731,33.973206 163.44293,51.8995245 163.44293,51.8995245 Z" id="Path" fill="#1B0E1C"></path>
                    <path d="M125.639587,43.6090226 C125.223469,43.1258865 124.714507,42.7312974 124.142924,42.4486886 C123.557524,42.1660699 122.907503,42.044191 122.259484,42.0955435 C121.567508,42.1269615 120.893005,42.3229709 120.291961,42.6673023 C119.671553,43.0353193 119.105546,43.4881255 118.610318,44.012617 C119.03157,43.3875157 119.534969,42.8218996 120.10698,42.3309736 C120.709469,41.8193531 121.423743,41.4564559 122.192218,41.2715383 C123.005044,41.0968328 123.848448,41.1257165 124.647417,41.3556204 C125.460303,41.5957752 126.219558,41.9896745 126.884003,42.5159544 C127.24672,42.8107838 127.306549,43.3417699 127.018534,43.7099212 C126.719239,44.0643759 126.195235,44.1234187 125.824568,43.8444527 C125.781209,43.809563 125.741742,43.7700962 125.706853,43.7267376 L125.639587,43.6090226 Z" id="Path" fill="#000000"></path>
                    <path d="M143.21276,40.9183932 C143.836598,40.4942191 144.523244,40.170758 145.247549,39.9598564 C145.951942,39.7589508 146.687505,39.6905263 147.416869,39.7580592 C148.123391,39.8103832 148.810972,40.0109275 149.434841,40.3466344 C150.049198,40.6628215 150.615424,41.064842 151.116484,41.5406012 C150.566134,41.1836889 149.965232,40.9115823 149.333942,40.7334124 C148.732832,40.5636519 148.103482,40.5178809 147.484134,40.5988809 C146.895349,40.6736992 146.32533,40.8561051 145.802491,41.1370068 C145.290746,41.4096696 144.825347,41.7615567 144.423544,42.1796257 L144.423544,42.1796257 C144.085214,42.5042204 143.55109,42.5042204 143.21276,42.1796257 C143.053582,42.0217475 142.964047,41.8068369 142.964047,41.5826423 C142.964047,41.3584477 143.053582,41.1435371 143.21276,40.9856589 L143.21276,40.9183932 Z" id="Path" fill="#000000"></path>
                    <path d="M147.500951,79.5625582 C146.693578,83.3545138 144.126188,86.5340794 140.589397,88.122123 C139.969564,88.3643166 139.334844,88.5665284 138.68914,88.7275146 C138.016482,88.8284132 137.360641,88.9461282 136.687984,89.013394 C134.092625,88.995335 131.55153,88.268477 129.339202,86.9113397 C128.3134,86.1882331 127.32123,85.4651264 126.396326,84.6915705 C125.471423,83.9180145 124.714683,83.0099271 123.991576,81.9673082 L123.991576,81.9673082 C123.991576,81.9673082 123.991576,81.8664096 123.991576,81.8495932 C123.991576,81.8327767 123.991576,81.8495932 124.092475,81.8495932 L126.900819,83.9684638 C127.876173,84.5906719 128.901975,85.1792471 129.910961,85.7341894 C131.999862,86.7785612 134.302116,87.3253465 136.637535,87.3317506 C138.95644,87.2179628 141.180572,86.3765584 142.994147,84.9270005 C144.810413,83.4500842 146.284887,81.5969515 147.31597,79.4952924 C147.333994,79.5265106 147.333994,79.5649729 147.31597,79.596191 L147.500951,79.5625582 Z" id="Path" fill="#000000"></path>
                    <circle id="Oval" fill="#000000" cx="147.097356" cy="57.2135176" r="2.15250353"></circle>
                    <circle id="Oval" fill="#000000" cx="123.672064" cy="57.2135176" r="2.55609794"></circle>
                    <path d="M222.485142,261.190181 C221.9302,247.501604 222.485142,209.143318 222.485142,209.143318 L272.934444,195.454741 C272.934444,195.454741 225.259854,102.224432 168.992066,92.1345715 C167.024543,106.832135 153.201435,118.200044 136.418634,118.200044 C119.635833,118.200044 105.896806,106.882584 103.878834,92.2691029 C85.9693321,96.1200663 26.8091178,115.004921 5.51951259,198.733946 L57.0282495,202.097232 C57.0282495,202.097232 52.6391602,238.807507 57.0282495,265.091594 C58.962476,276.67472 56.702726,303.310856 50.2489996,345 L241.618645,345 C239.007957,336.494458 237.377963,330.654646 236.728662,327.480563 C232.356389,306.106876 223.023268,274.895575 222.485142,261.190181 Z" id="Path" fill="#3B5999"></path>
                    <g id="Group-9" transform="translate(131.361385, 165.561297) rotate(12.000000) translate(-131.361385, -165.561297) translate(81.861385, 123.061297)" fill="#1B0E1C">
                        <path d="M66.9550503,3.55120018 L31.4403312,13.0673405 C31.6634047,12.7978948 31.890541,12.5326289 32.1216569,12.2715912 L65.9670907,3.20273449 C66.2339017,3.2920121 66.5003212,3.38503988 66.7662869,3.48184348 C66.829319,3.5047853 66.8922344,3.52790596 66.9550326,3.55120468 Z M72.5271903,6.2572332 C72.7569483,6.39801536 72.9844664,6.54146959 73.2097181,6.6875391 L27.6111683,18.9056337 C27.7329981,18.6657533 27.8575703,18.4279746 27.9848541,18.1923162 L72.5271903,6.2572332 Z M77.2539732,9.80296558 C77.4266673,9.95985176 77.597453,10.1185015 77.7663119,10.2788756 L25.3956494,24.3115523 L25.6429499,23.6320997 L77.2539732,9.80296764 Z M80.8414076,13.6539888 C80.9737624,13.8221442 81.1043566,13.9915596 81.2331757,14.1622037 L23.4548479,29.6438606 L23.7021484,28.964408 L80.8414074,13.6539897 Z M83.571433,17.7347536 C83.6711523,17.9119691 83.769165,18.0901131 83.8654584,18.2691584 L21.5140464,34.9761689 L21.7613469,34.2967163 L83.571433,17.7347536 Z M85.5765282,22.0097621 C85.6472253,22.1950029 85.7162057,22.3809253 85.7834578,22.5675041 L19.5732449,40.3084772 L19.8205454,39.6290246 L85.5765282,22.0097621 Z M86.9134826,26.4637983 C86.9563242,26.6567253 86.9973833,26.8501291 87.0366483,27.0439848 L17.841795,45.5846899 C17.8964646,45.3648298 17.9535888,45.1451152 18.0131825,44.9255781 L86.9134826,26.4637983 Z M87.5881308,31.095299 C87.6023367,31.2961227 87.6146326,31.4972338 87.6250068,31.6986067 L17.0132133,50.6189798 C17.0304842,50.409468 17.0498737,50.199866 17.0713945,49.9902015 L87.5881308,31.095299 Z M87.5597849,35.9151663 C87.5424724,36.1246896 87.5230411,36.3343028 87.501478,36.5439783 L16.9857782,55.4386031 C16.9715359,55.2377894 16.9592032,55.0366881 16.9487921,54.8353248 L87.5597849,35.9151663 Z M86.7301254,40.949745 C86.6754044,41.1696193 86.6182283,41.3893479 86.558582,41.6088986 L17.6612559,60.0698815 C17.6183799,59.876964 17.5772864,59.6835695 17.5379868,59.4897227 L86.7301254,40.949745 Z M84.9978662,46.2261746 L84.7505657,46.9056272 L18.9990189,64.5237011 C18.9282873,64.3384698 18.8592722,64.1525566 18.7919855,63.9659869 L84.9978662,46.2261746 Z M83.0570647,51.5584829 L82.8097642,52.2379355 L21.0049588,68.7984832 C20.9052022,68.621278 20.8071522,68.443144 20.7108215,68.2641084 L83.0570647,51.5584829 Z M81.1162632,56.8907912 L80.8689627,57.5702438 L23.7359374,72.8789918 C23.6035387,72.7108494 23.4729008,72.5414457 23.3440383,72.3708128 L81.1162632,56.8907912 Z M79.1754617,62.2230995 L78.9281612,62.9025521 L27.3245537,76.729697 C27.1518038,76.572828 26.9809625,76.4141946 26.8120481,76.2538362 L79.1754617,62.2230995 Z M76.9588264,67.6293177 C76.8369348,67.8692158 76.7122763,68.1070176 76.5849052,68.3426977 L32.0530279,80.2749783 C31.8231819,80.1342211 31.5955765,79.9907903 31.3702381,79.8447426 L76.9588503,67.6293108 Z M73.1268217,73.4683719 C72.9036072,73.7378609 72.6762791,74.0031782 72.4449688,74.2642627 L38.6162306,83.3286455 C38.3461355,83.2383654 38.0764406,83.1442429 37.8072108,83.0462512 C37.7472778,83.0244374 37.6874504,83.0024619 37.6277289,82.9803253 L73.1268217,73.4683719 Z M64.9423525,80.4736659 C64.2168605,80.9061725 63.474745,81.3095472 62.7179607,81.6828785 L50.6956088,84.904258 C49.8602652,84.9581596 49.0200506,84.9790192 48.1768456,84.9659699 L64.9423525,80.4736659 Z M39.6131396,6.06517098 C40.3359888,5.63359588 41.0753691,5.2309553 41.829345,4.85815186 L53.9068652,1.62199009 C54.739582,1.56901834 55.5770666,1.54889144 56.4175066,1.56245441 L39.6131396,6.06517098 Z" id="Combined-Shape"></path>
                        <path d="M67.8384538,3.38038441 C67.6513453,3.43205739 67.4577747,3.32226524 67.4061017,3.13515676 C67.3544287,2.94804829 67.4642209,2.75447767 67.6513294,2.70280469 L75.0085166,0.671000353 C75.1956251,0.61932737 75.3891957,0.729119529 75.4408687,0.916228003 C75.4925417,1.10333648 75.3827495,1.29690709 75.1956411,1.34858008 L67.8384538,3.38038441 Z M56.0222723,1.34926014 C55.8347883,1.39955332 55.6420317,1.28833815 55.5917385,1.10085409 C55.5414454,0.913370023 55.6526605,0.720613478 55.8401446,0.670320291 L58.293913,0.0120892166 C58.4813971,-0.0382039706 58.6741536,0.0730112073 58.7244468,0.260495269 C58.77474,0.447979331 58.6635248,0.640735876 58.4760408,0.691029064 L56.0222723,1.34926014 Z M73.6912868,6.38212986 C73.506352,6.44111145 73.3086188,6.33900625 73.2496372,6.15407153 C73.1906557,5.96913681 73.2927608,5.77140358 73.4776956,5.712422 L80.3992228,3.50492614 C80.5841575,3.44594456 80.7818908,3.54804975 80.8408723,3.73298447 C80.8998539,3.91791919 80.7977487,4.11565242 80.612814,4.174634 L73.6912868,6.38212986 Z M78.4651464,9.99329319 C78.2794664,10.0498849 78.0830664,9.94523827 78.0264746,9.7595583 C77.9698829,9.57387833 78.0745295,9.37747829 78.2602095,9.32088654 L90.1041628,5.71107261 C90.2898427,5.65448085 90.4862428,5.75912752 90.5428345,5.94480749 C90.5994263,6.13048746 90.4947796,6.3268875 90.3090996,6.38347926 L78.4651464,9.99329319 Z M82.3219225,13.9235365 C82.1372611,13.9833684 81.9390602,13.882174 81.8792284,13.6975126 C81.8193966,13.5128512 81.920591,13.3146503 82.1052524,13.2548185 L98.1133303,8.06806972 C98.2979917,8.00823791 98.4961926,8.10943229 98.5560245,8.29409369 C98.6158563,8.47875509 98.5146619,8.67695599 98.3300005,8.7367878 L82.3219225,13.9235365 Z M84.6805713,18.0341436 C84.4952594,18.0919294 84.2981898,17.9885491 84.240404,17.8032372 C84.1826182,17.6179254 84.2859985,17.4208558 84.4713104,17.36307 L94.7369935,14.1619219 C94.9223053,14.1041361 95.1193749,14.2075164 95.1771607,14.3928282 C95.2349465,14.5781401 95.1315662,14.7752097 94.9462544,14.8329955 L84.6805713,18.0341436 Z M86.8205271,22.3699094 C86.6335487,22.4220511 86.4397035,22.3127443 86.3875618,22.1257659 C86.3354201,21.9387875 86.4447269,21.7449424 86.6317053,21.6928007 L91.0832223,20.4514291 C91.2702007,20.3992874 91.4640458,20.5085942 91.5161875,20.6955726 C91.5683292,20.882551 91.4590225,21.0763961 91.2720441,21.1285378 L86.8205271,22.3699094 Z" id="Combined-Shape"></path>
                        <path d="M9.59366023,47.7423794 C9.40655175,47.7940524 9.21298114,47.6842602 9.16130815,47.4971517 C9.10963517,47.3100432 9.21942733,47.1164726 9.4065358,47.0647996 L16.7637231,45.0329953 C16.9508315,44.9813223 17.1444022,45.0911145 17.1960751,45.278223 C17.2477481,45.4653314 17.137956,45.6589021 16.9508475,45.710575 L9.59366023,47.7423794 Z M8.91645623,53.304428 C8.73152151,53.3634096 8.53378828,53.2613044 8.4748067,53.0763697 C8.41582511,52.8914349 8.51793031,52.6937017 8.70286503,52.6347201 L15.6243923,50.4272243 C15.809327,50.3682427 16.0070602,50.4703479 16.0660418,50.6552826 C16.1250234,50.8402173 16.0229182,51.0379505 15.8379835,51.0969321 L8.91645623,53.304428 Z M3.68058982,59.3734955 C3.49490986,59.4300873 3.29850982,59.3254406 3.24191806,59.1397606 C3.1853263,58.9540806 3.28997297,58.7576806 3.47565294,58.7010888 L15.3196062,55.0912749 C15.5052862,55.0346832 15.7016862,55.1393298 15.758278,55.3250098 C15.8148697,55.5106898 15.7102231,55.7070898 15.5245431,55.7636816 L3.68058982,59.3734955 Z M0.459901758,65.5112347 C0.275240358,65.5710665 0.0770394502,65.4698721 0.0172076401,65.2852107 C-0.0426241701,65.1005493 0.0585702066,64.9023484 0.243231606,64.8425166 L16.2513096,59.6557679 C16.435971,59.5959361 16.6341719,59.6971305 16.6940037,59.8817919 C16.7538355,60.0664533 16.6526411,60.2646542 16.4679797,60.324486 L0.459901758,65.5112347 Z M7.6462181,68.0114693 C7.46090626,68.0692551 7.26383668,67.9658748 7.20605089,67.780563 C7.14826509,67.5952511 7.25164538,67.3981816 7.43695722,67.3403958 L17.7026403,64.1392476 C17.8879522,64.0814619 18.0850218,64.1848421 18.1428075,64.370154 C18.2005933,64.5554658 18.0972131,64.7525354 17.9119012,64.8103212 L7.6462181,68.0114693 Z M15.5164855,70.4413404 C15.3295071,70.4934821 15.135662,70.3841754 15.0835203,70.197197 C15.0313786,70.0102186 15.1406854,69.8163735 15.3276637,69.7642318 L19.7791808,68.5228602 C19.9661592,68.4707185 20.1600043,68.5800253 20.212146,68.7670037 C20.2642877,68.9539821 20.154981,69.1478272 19.9680026,69.1999689 L15.5164855,70.4413404 Z" id="Combined-Shape"></path>
                        <path d="M48.771889,45.0564137 L34.3729463,35.2532694 C33.6402334,34.757672 33.2607389,33.8826577 33.3996251,33.009047 C33.5385114,32.1354363 34.1706558,31.4212518 35.0090938,31.1807832 L41.4869072,29.2493723 C42.1263107,29.0636264 42.8149756,29.1669715 43.377739,29.5362065 L50.8262119,34.4881053 L52.1059929,27.9044049 C52.2640748,27.0725888 52.8705315,26.3971147 53.6827393,26.149979 L60.6622016,24.040843 C61.4237947,23.8133037 62.2489191,23.9992573 62.839289,24.5314807 C63.4296588,25.0637041 63.6998657,25.865201 63.5508228,26.6535391 L57.6384767,56.8910386 C57.4747817,57.7656658 56.8167412,58.4648803 55.9555106,58.6808219 L49.1025835,60.4109009 C48.3462805,60.6050225 47.5432517,60.3981988 46.974818,59.8628853 C46.4063844,59.3275717 46.1517831,58.5383889 46.3003747,57.7709456 L48.771889,45.0564137 Z M54.1482306,37.7848733 L54.5986758,37.8715204 L56.0486698,30.3335564 C55.9570955,30.8096162 55.4969371,31.1213032 55.0208773,31.0297289 C54.5448175,30.9381546 54.2331304,30.4779962 54.3247048,30.0019364 L52.825618,37.7951147 L53.9922306,38.019523 L54.1482306,37.7848733 Z M57.2781449,47.1206552 C57.1814607,47.5902637 56.7248678,47.8962405 56.2526275,47.8054009 C55.7765677,47.7138266 55.4648807,47.2536683 55.556455,46.7776084 L53.7462218,55.5699497 C53.8448601,55.1210362 54.2979883,54.8205557 54.7665188,54.9106817 C55.2425787,55.002256 55.5542657,55.4624144 55.4626914,55.9384742 L57.2774039,47.1243766 L57.2781449,47.1206552 Z M57.2781449,47.1206552 L57.28042,47.1092284 C57.2796853,47.1130479 57.2789269,47.1168569 57.2781449,47.1206552 Z M53.0229152,47.8676988 C52.9313409,48.3437586 52.4711825,48.6554457 51.9951227,48.5638714 C51.5190629,48.4722971 51.2073758,48.0121387 51.2989501,47.5360789 L49.4812215,56.9857543 C49.5727958,56.5096945 50.0329542,56.1980075 50.509014,56.2895818 C50.9850738,56.3811561 51.2967609,56.8413145 51.2051866,57.3173743 L53.0229152,47.8676988 Z M60.3061747,29.5750859 C60.2146004,30.0511457 59.754442,30.3628328 59.2783822,30.2712585 C58.8023224,30.1796842 58.4906353,29.7195258 58.5822096,29.243466 L56.764481,38.6931415 C56.8560553,38.2170817 57.3162137,37.9053946 57.7922735,37.9969689 C58.2683333,38.0885432 58.5800204,38.5487016 58.488446,39.0247614 L60.3061747,29.5750859 Z" id="Combined-Shape" stroke="#3B5999" stroke-width="2.376"></path>
                    </g>
                    <path d="M55.518551,221.326859 C81.1531513,202.646446 94.3988616,193.533897 95.2556821,193.989212 C96.1895257,194.485457 97.0124006,195.660062 97.7243067,197.513025 C90.6388049,206.894809 86.7816149,213.883691 82.5883411,219.821944 C78.3950673,225.760197 70.6736181,235.137052 55.4091643,250.117789 C54.8481091,240.039352 55.0778305,229.749695 55.518551,221.326859 Z" id="Path" fill="#1B0E1C"></path>
                    <path d="M222.272231,231.298881 C222.210452,241.993227 222.214532,254.02343 222.457106,260.853844 C210.815018,247.034637 203.366564,237.040136 200.111741,230.870339 C196.342703,223.725801 188.576121,214.613458 176.811995,203.533308 L222.272231,231.298881 Z" id="Combined-Shape" fill="#1B0E1C"></path>
                    <path d="M5.51979992,199.144219 L57.0453532,202.44024 L84.7010775,187.826759 L91.0145496,203.533308 C91.0145496,203.533308 46.6023478,252.839093 17.0222407,254.487103 C-12.5578665,256.135114 5.51979992,199.144219 5.51979992,199.144219 Z M57.0453532,202.44024 L53.6619956,202.44024 L37.6737734,214.19476 L57.0453532,202.44024 Z" id="Combined-Shape" fill="#FFFFFF"></path>
                    <path d="M190.332408,192.871689 C192.650436,194.516684 195.164195,195.86677 197.815721,196.890817 C206.476945,200.197644 214.749587,204.443929 222.485429,209.553592 L272.934731,195.865015 C272.934731,195.865015 299.235634,247.441017 260.877348,254.520736 C225.058344,261.146411 208.830485,225.293774 185.035231,209.301345 C183.353588,208.174644 182.697747,207.283373 180.545243,205.668996 L190.332408,192.871689 Z M222.485429,209.553592 L244.955339,217.915261 L225.092598,208.896069 L222.485429,209.553592 Z" id="Combined-Shape" fill="#FFFFFF"></path>
                    <path d="M170.417841,173.849778 C170.417841,173.849778 174.907358,169.999642 180.962429,179.581271 C182.289326,181.68097 185.472459,187.200689 190.265142,192.871689 L183.975796,208.578239 C181.869757,206.52824 179.451756,204.825422 176.811995,203.533308 C173.600056,202.305709 165.729965,197.967069 169.177334,187.271817 C169.910863,185.160519 171.581564,183.508451 173.700955,182.798646 C173.700955,182.798646 166.705318,174.979004 162.148065,170.018156 C157.910323,165.393637 160.466421,164.418283 164.115588,167.966551 C167.966551,171.783881 185.472459,191.509558 185.472459,191.509558 L170.417841,173.849778 Z" id="Path" fill="#FFFFFF"></path>
                    <path d="M95.1732915,168.804848 C95.1732915,168.804848 99.6628086,164.954712 105.71788,174.536341 C107.044777,176.63604 110.227909,182.155759 115.020593,187.826759 L108.731247,203.533308 C106.625208,201.483309 104.207207,199.780492 101.567446,198.488378 C98.3555069,197.260779 90.4854159,192.922139 93.9327848,182.226887 C94.6663138,180.115589 96.3370144,178.463521 98.4564055,177.753715 C98.4564055,177.753715 91.460769,169.934074 86.9035154,164.973226 C82.6657741,160.348706 85.2218721,159.373353 88.8710382,162.921621 C92.7220016,166.738951 110.227909,186.464628 110.227909,186.464628 L95.1732915,168.804848 Z" id="Path-Copy-5" fill="#FFFFFF" transform="translate(99.860835, 182.155759) scale(-1, 1) translate(-99.860835, -182.155759) "></path>
                </g>
            </g>
        </g>
    </g>
</svg>