<?xml version="1.0" encoding="UTF-8"?>
<svg width="120px" height="120px" viewBox="0 0 120 120" version="1.1" xmlns="http://www.w3.org/2000/svg" xmlns:xlink="http://www.w3.org/1999/xlink">
    <!-- Generator: Sketch 56.2 (81672) - https://sketch.com -->
    <title>Authenticator app</title>
    <desc>Created with Sketch.</desc>
    <defs>
        <linearGradient x1="4.67379625%" y1="28.8640438%" x2="95.3262013%" y2="71.1359579%" id="linearGradient-1">
            <stop stop-color="#FFFFFF" stop-opacity="0.2" offset="0%"></stop>
            <stop stop-color="#FFFFFF" stop-opacity="0" offset="100%"></stop>
        </linearGradient>
    </defs>
    <g id="Desktop-Ar" stroke="none" stroke-width="1" fill="none" fill-rule="evenodd">
        <g id="2Step-Auth" transform="translate(-472.000000, -283.000000)" fill-rule="nonzero">
            <g id="Authenticator-app" transform="translate(472.000000, 283.000000)">
                <path d="M91.9067213,59.6151706 C91.9067213,77.4492664 77.4492664,91.9067213 59.6151706,91.9067213 C41.7810747,91.9067213 27.3236198,77.4492664 27.3236198,59.6151706 C27.3236198,41.7810747 41.7810747,27.3236198 59.6151706,27.3236198 C68.2026201,27.3236198 75.9862371,30.6981381 81.7707354,36.1654697 L102.482677,18.2864975 C91.6329153,7.03618384 76.4428844,0 59.6151706,0 C26.7414404,0 0,26.7438663 0,59.6151706 C0,92.4864748 26.7414404,119.230341 59.6151706,119.230341 C92.4889007,119.230341 119.230341,92.4864748 119.230341,59.6151706 L91.9067213,59.6151706 Z" id="Shape" fill="#999999"></path>
                <circle id="XMLID_1331_" fill="#808080" cx="59.6151706" cy="59.6151706" r="59.6151706"></circle>
                <path d="M94.3906867,59.6151706 C94.3906867,78.8210264 78.8210264,94.3906867 59.6151706,94.3906867 C40.4093147,94.3906867 24.8396544,78.8210264 24.8396544,59.6151706 C24.8396544,40.4090117 40.4093147,24.8396544 59.6151706,24.8396544 C68.9546014,24.8396544 77.4156087,28.5410421 83.6628185,34.5320319 L102.482677,18.2864975 C91.6329153,7.03618384 76.4428844,0 59.6151706,0 C26.7414404,0 0,26.7438663 0,59.6151706 C0,92.4864748 26.7414404,119.230341 59.6151706,119.230341 C92.4889007,119.230341 119.230341,92.4864748 119.230341,59.6151706 L94.3906867,59.6151706 Z" id="Shape" fill="#999999"></path>
                <circle id="Oval" fill="#B3B3B3" cx="59.6151706" cy="12.4198272" r="4.96793088"></circle>
                <circle id="Oval" fill="#B3B3B3" cx="59.6151706" cy="106.810514" r="4.96793088"></circle>
                <circle id="Oval" fill="#B3B3B3" cx="12.4198272" cy="59.6151706" r="4.96793088"></circle>
                <circle id="Oval" fill="#B3B3B3" transform="translate(26.243025, 92.987316) rotate(-45.000000) translate(-26.243025, -92.987316) " cx="26.2430246" cy="92.9873158" r="4.96793101"></circle>
                <circle id="Oval" fill="#B3B3B3" transform="translate(92.987318, 92.987316) rotate(-45.000000) translate(-92.987318, -92.987316) " cx="92.9873181" cy="92.9873158" r="4.96793101"></circle>
                <circle id="Oval" fill="#B3B3B3" transform="translate(26.243024, 26.243023) rotate(-45.000000) translate(-26.243024, -26.243023) " cx="26.2430235" cy="26.2430228" r="4.96793101"></circle>
                <circle id="XMLID_1329_" fill="#808080" cx="59.6151706" cy="59.6151706" r="29.8075853"></circle>
                <circle id="XMLID_1330_" fill="#808080" cx="59.6151706" cy="59.6151706" r="34.7755162"></circle>
                <path d="M94.3906867,60.8571533 C94.3906867,60.6476293 94.3630938,60.4450793 94.3594553,60.2361619 C94.0243987,79.152444 78.6115024,94.3906867 59.6151706,94.3906867 C40.6188387,94.3906867 25.1747105,79.152444 24.8396544,60.2361619 C24.8360159,60.4450793 24.8396544,60.6476293 24.8396544,60.8571533 C24.8396544,80.0630091 40.4093147,95.6326694 59.6151706,95.6326694 C78.8210264,95.6326694 94.3906867,80.0630091 94.3906867,60.8571533 Z" id="Shape" fill="#FFFFFF" opacity="0.2"></path>
                <path d="M93.9955931,64.5831014 L78.7843372,64.5831014 C79.1979269,62.9863533 79.4868941,61.3410899 79.4868941,59.6151706 C79.4868941,48.6401791 70.590162,39.743447 59.6151706,39.743447 C48.6401791,39.743447 39.743447,48.6401791 39.743447,59.6151706 C39.743447,65.1025145 41.9676299,70.0706729 45.5637248,73.6666163 C50.602713,78.7053958 65.7192608,93.8221522 65.7192608,93.8221522 C80.3995815,91.2178089 91.8669997,79.4226115 93.9955931,64.5831014 Z" id="Shape" fill="#4D4D4D"></path>
                <path d="M109.294479,64.5831014 L59.6151706,64.5831014 C56.8692243,64.5831014 54.6472397,62.358691 54.6472397,59.6151706 C54.6472397,56.8716501 56.8692243,54.6472397 59.6151706,54.6472397 L109.294479,54.6472397 C112.040426,54.6472397 114.26241,56.8716501 114.26241,59.6151706 C114.26241,62.358691 112.040426,64.5831014 109.294479,64.5831014 Z" id="Shape" fill="#B3B3B3"></path>
                <path d="M59.3553125,55.8892224 L109.554338,55.8892224 C111.582869,55.8892224 113.408187,57.1186407 114.200194,58.8303085 C113.799945,56.4882495 111.752671,54.6472397 109.294479,54.6472397 L59.6151706,54.6472397 C57.1569787,54.6472397 55.1462614,56.2844347 54.7463161,58.6258871 C55.538323,56.9145224 57.3267811,55.8892224 59.3553125,55.8892224 Z" id="Shape" fill="#FFFFFF" opacity="0.2"></path>
                <path d="M114.26241,59.6151706 C114.26241,62.358691 112.040426,64.5831014 109.294479,64.5831014 L93.9955931,64.5831014 C91.8666966,79.4262505 80.3941237,91.2235702 65.7083452,93.8239715 L85.258354,113.429166 C105.329292,103.835941 119.230341,83.3444393 119.230341,59.6151706 L114.26241,59.6151706 Z" id="Shape" fill="#666666" opacity="0.5"></path>
                <path d="M59.6151706,24.8396544 C40.4093147,24.8396544 24.8396544,40.4090117 24.8396544,59.6151706 C24.8396544,59.8246945 24.8360159,59.957381 24.8396544,60.1662984 C25.1747105,41.2500163 40.6188387,26.0816371 59.6151706,26.0816371 C73.6651001,26.0816371 83.6628185,34.5320319 83.6628185,34.5320319 C77.4216735,28.5783379 68.9218543,24.8396544 59.6151706,24.8396544 Z" id="Shape" fill="#000000" opacity="0.1"></path>
                <circle id="XMLID_4_" fill="url(#linearGradient-1)" cx="59.6151706" cy="59.6151706" r="59.6151706"></circle>
            </g>
        </g>
    </g>
</svg>