<?xml version="1.0" encoding="UTF-8"?>
<svg width="61px" height="45px" viewBox="0 0 61 45" version="1.1" xmlns="http://www.w3.org/2000/svg" xmlns:xlink="http://www.w3.org/1999/xlink">
    <!-- Generator: Sketch 56.2 (81672) - https://sketch.com -->
    <title>green-mail</title>
    <desc>Created with Sketch.</desc>
    <g id="Desktop-Ar" stroke="none" stroke-width="1" fill="none" fill-rule="evenodd">
        <g id="please-confirm-mobile" transform="translate(-890.000000, -261.000000)" fill-rule="nonzero">
            <g id="Group-2" transform="translate(455.030000, 233.000000)">
                <g id="green-mail" transform="translate(435.000000, 28.000000)">
                    <path d="M18.7344324,17.3978662 C18.1701289,18.8221733 17.86,20.3748694 17.86,22 C17.86,28.9035594 23.4564406,34.5 30.36,34.5 C37.2635594,34.5 42.86,28.9035594 42.86,22 C42.86,20.3747089 42.5498098,18.8218666 41.9854004,17.3974441 L56.89398,5.7301365 C56.47224,5.3499765 55.91982,5.1123765 55.308,5.1123765 L5.412,5.1123765 C4.80018,5.1123765 4.24776,5.3499765 3.82602,5.7301365 L18.7344324,17.3978662 Z M58.08,-1.77635684e-14 C59.5386,-1.77635684e-14 60.72,1.1814 60.72,2.64 L60.72,42.24 C60.72,43.6986 59.5386,44.88 58.08,44.88 L2.64,44.88 C1.1814,44.88 -9.76996262e-14,43.6986 -9.76996262e-14,42.24 L-9.76996262e-14,2.64 C-9.76996262e-14,1.1814 1.1814,-1.77635684e-14 2.64,-1.77635684e-14 L58.08,-1.77635684e-14 Z" id="Combined-Shape" fill="#F27036"></path>
                    <g id="Group-3" transform="translate(17.860000, 9.500000)" fill="#3D9635">
                        <path d="M12.5,2.20588235 C6.8125,2.20588235 2.20588235,6.8125 2.20588235,12.5 C2.20588235,18.1823529 6.8125,22.7941176 12.5,22.7941176 C18.1823529,22.7941176 22.7941176,18.1823529 22.7941176,12.5 C22.7941176,6.8125 18.1823529,2.20588235 12.5,2.20588235 Z M10.4411765,17.6470588 L5.29411765,12.5 L6.75073529,11.0433824 L10.4411765,14.7338235 L18.2492647,6.92573529 L19.7058824,8.38235294 L10.4411765,17.6470588 Z" id="Shape"></path>
                    </g>
                </g>
            </g>
        </g>
    </g>
</svg>