<?xml version="1.0" encoding="UTF-8"?>
<svg width="32px" height="32px" viewBox="0 0 32 32" version="1.1" xmlns="http://www.w3.org/2000/svg" xmlns:xlink="http://www.w3.org/1999/xlink">
    <!-- Generator: Sketch 56.2 (81672) - https://sketch.com -->
    <title>Group</title>
    <desc>Created with Sketch.</desc>
    <g id="Desktop-Ar" stroke="none" stroke-width="1" fill="none" fill-rule="evenodd">
        <g id="User-Settings" transform="translate(-1235.000000, -722.000000)" fill-rule="nonzero">
            <g id="personal-details" transform="translate(735.000000, 432.000000)">
                <g id="country" transform="translate(305.000000, 289.635000)">
                    <g id="Group" transform="translate(189.465757, 0.660000)">
                        <circle id="Oval" fill="#3D9635" cx="21.5406947" cy="15.9310458" r="15.4601534"></circle>
                        <path d="M12.176099,10.6323047 C12.135427,11.1876678 12.0853624,12.1656928 12.5594676,12.2657357 C13.1309444,12.3212289 12.8154775,11.2998606 13.022543,11.1147683 C13.0618363,11.0229977 13.1337018,11.0229977 13.1391305,11.1376894 L13.1391305,12.0051588 C13.1349943,12.2859855 13.3198281,12.3684498 13.4647654,12.4266143 C13.6143558,12.4143782 13.7146572,12.4212718 13.7735111,12.5657782 C13.7966045,13.0655619 13.8203012,13.5642254 13.8432223,14.0641814 C13.8432223,14.0641814 14.1920368,14.164052 14.2083229,13.2223044 C14.2252983,12.6684062 14.0979396,12.2048999 14.1723901,12.0983081 C14.1751476,11.9914578 14.3098307,11.9848228 14.404014,12.0373001 C14.5537768,12.1428578 14.6206444,12.2723707 14.8530438,12.2210998 C15.2070285,12.1225218 15.4190919,11.9522507 15.4251238,11.6807303 C15.403409,11.424031 15.3750593,11.1660392 15.2638143,10.9078751 C15.2788078,10.8618606 15.1949648,10.7405338 15.2110785,10.6932266 C15.2740685,10.7930972 15.3708369,10.7836186 15.3925517,10.6932266 C15.3330947,10.4945196 15.2395145,10.3054634 15.087856,10.2229991 C14.9620484,10.1135638 14.7791103,10.136571 14.7112948,10.3661268 C14.6816525,10.6295473 14.8076324,10.9443249 15.00048,11.1998177 C15.0417552,11.2997745 15.0994889,11.4659956 15.0735518,11.6160169 C14.9707515,11.674009 14.8684682,11.6497092 14.7832464,11.5592311 C14.7832464,11.5592311 14.5007825,11.3484603 14.5007825,11.3025319 C14.5759224,10.8242044 14.5176717,10.7701761 14.475621,10.6377334 C14.447185,10.4553124 14.3591197,10.3959415 14.290184,10.2717711 C14.2196973,10.1974929 14.123532,10.1974929 14.0789823,10.2717711 C13.9542949,10.4878845 14.0126317,10.9487195 14.1019034,11.1553542 C14.1668753,11.345789 14.2657118,11.4660818 14.2196973,11.4660818 C14.1802316,11.5742246 14.1004385,11.5486323 14.0429634,11.4241172 C13.9597236,11.1675041 13.9435237,10.7849973 13.9435237,10.6135198 C13.9184483,10.3987851 13.8905294,9.94346496 13.7498144,9.82730834 C13.6644204,9.71106555 13.5365447,9.7664726 13.4911333,9.87470162 C13.4830333,10.0853001 13.4816546,10.2986561 13.5059545,10.4933132 C13.6028953,10.8365267 13.6326238,11.1377756 13.6794139,11.4889167 C13.6929425,11.9592304 13.4071179,11.6930525 13.4207327,11.4591882 C13.4857046,11.1579393 13.4679537,10.6811629 13.4097892,10.5594053 C13.3638608,10.4391987 13.3096601,10.4094702 13.1958301,10.42972 C13.1065584,10.423085 12.8756238,10.6743555 12.8114275,11.0918472 C12.8114275,11.0918472 12.7557619,11.3054617 12.7327546,11.495638 C12.7008719,11.7118375 12.5594676,11.8632375 12.4591662,11.4660818 C12.3723934,11.1767243 12.3196576,10.4661698 12.176099,10.6323047" id="Path" fill="#FFFFFF"></path>
                        <path d="M13.7314603,12.9114907 C13.2270235,13.1573325 12.738011,13.3871469 12.2411571,13.6262675 C12.2600282,13.2884827 12.9492988,12.68047 13.4206466,12.6711636 C13.7268071,12.68047 13.6495992,12.7899915 13.7314603,12.9114907" id="Path" fill="#FFFFFF"></path>
                        <path d="M15.6336542,9.76638643 C15.6051321,9.76905769 15.5739387,9.78655012 15.5374889,9.79465006 C15.4154728,9.83247852 15.3017289,9.93657139 15.3369723,10.1420859 C15.481134,11.0133467 15.5753174,11.6781452 15.7187898,12.5494922 C15.7412801,12.6522063 15.6552828,12.7872341 15.5442102,12.7737916 C15.3560158,12.6468638 15.3098289,12.3887859 14.9890194,12.4008496 C14.7567062,12.403607 14.4913038,12.6548776 14.457353,12.897962 C14.4186629,13.0910681 14.4052204,13.3005464 14.457353,13.4683186 C14.6204721,13.6640098 14.8182313,13.6451386 14.9890194,13.6006751 C15.1298206,13.5425968 15.2463219,13.4020542 15.2963002,13.4357465 L15.2969034,13.4357465 L15.2969034,13.4371252 C15.3274936,13.4912397 15.2929396,13.945095 14.6321911,14.2950298 C14.2251259,14.4774508 13.9020761,14.5204494 13.7280997,14.1895582 C13.6196983,13.9813724 13.736889,13.1952472 13.4714866,13.3762895 C12.685189,15.3959326 15.3097427,15.6769316 15.6029778,13.4586676 C15.6221075,13.3965393 15.6808752,13.3344972 15.721461,13.3494907 C15.7405907,13.3573322 15.7552395,13.381632 15.7609267,13.4262679 C15.6999186,15.4353121 13.7314603,15.5716324 13.3963467,14.9407847 C13.3129346,14.7921422 13.2891517,14.4611647 13.2805348,14.2624577 C13.2649381,14.1422511 13.2343479,14.0721952 13.1997939,14.0451379 C13.1200008,13.9856809 13.0130643,14.1408723 12.9899709,14.4124789 C12.9561924,14.6301433 12.9655849,14.6907206 12.9655849,14.9001989 C13.0699363,16.4874429 15.6057353,15.8040318 16.0174536,14.4948571 C16.2213309,13.8166161 16.0138345,13.3046825 16.0824255,13.2411756 C16.0824255,13.2411756 16.0844074,13.2411756 16.0857861,13.2411756 C16.0857861,13.2397968 16.0870787,13.2397968 16.0884574,13.2385043 L16.0912148,13.2385043 C16.0938861,13.2371256 16.097936,13.2359192 16.097936,13.2359192 C16.3525672,13.5073534 16.704053,13.2709902 16.7819503,13.1778409 C16.815815,13.1303614 16.8983654,13.1006329 16.9565299,13.1613825 C17.1523934,13.301839 17.4968133,13.2359192 17.5686788,12.9871476 C17.6092646,12.7453557 17.6445942,12.4952915 17.6526941,12.235921 C17.5241291,12.2752143 17.4224489,12.303478 17.3804844,12.3482862 C17.3709195,12.3589712 17.3628196,12.3711211 17.361527,12.3846497 C17.3507558,12.4561705 17.3391229,12.5277774 17.3290411,12.5993844 C17.3277486,12.6048131 17.3250773,12.6116205 17.322406,12.6156704 C17.3168912,12.6252353 17.3073264,12.633249 17.2979339,12.6387639 C17.2530395,12.6630637 17.1753145,12.6482425 17.1707475,12.5831845 C17.1096533,12.3076141 16.8589859,12.2696995 16.7073274,12.6981347 C16.6044409,12.7819778 16.4183146,12.7967128 16.3986679,12.6738349 C16.4242603,12.3861146 16.3078452,12.3483723 16.0762213,12.4832278 C16.0018569,11.9145946 15.9273202,11.3714676 15.8520942,10.8039546 C15.9489488,10.8012833 16.0369279,10.8728903 16.1255103,10.7622485 C16.0302067,10.4649634 15.8283113,9.85970811 15.7138781,9.80292234 C15.7138781,9.80292234 15.7119824,9.80292234 15.711293,9.80292234 C15.7065537,9.79620111 15.6997463,9.78939372 15.6950931,9.78534374 C15.6930251,9.78258632 15.6888889,9.7812076 15.6875964,9.77991506 C15.6849251,9.77862252 15.6815645,9.77586509 15.6794964,9.7744002 C15.6747571,9.77310766 15.6686391,9.77052257 15.6651061,9.76905769 C15.6552828,9.76638643 15.6445116,9.76371517 15.6336542,9.76638643 M14.9265465,12.8845196 C14.9773865,12.8777122 15.0363266,12.8966695 15.0661412,12.9708615 C15.0891485,13.0303185 15.0667444,13.0909819 15.0389978,13.1221753 L15.0389978,13.1236402 C15.0389978,13.1248466 15.0377914,13.1263115 15.0370159,13.1263115 C15.0172831,13.1532826 14.9484336,13.1425114 14.8989722,13.1425114 C14.8393428,13.1396678 14.8102175,13.1289827 14.7749742,13.0803831 C14.757137,13.0263547 14.8088388,12.9736189 14.8318461,12.9331192 C14.8318461,12.9331192 14.8326216,12.9331192 14.8333971,12.9331192 C14.8359822,12.9292416 14.8393428,12.9238129 14.8433928,12.9195906 C14.8616608,12.9033907 14.892768,12.8883972 14.9265465,12.8845196" id="Shape" fill="#FFFFFF"></path>
                        <path d="M17.3995278,9.72037187 C17.3324017,9.72312929 17.2721692,9.7420866 17.2214153,9.76905769 C17.092247,9.89331425 17.0609675,10.0920214 17.1637678,10.2163641 C17.2628628,10.2622925 17.3623887,10.3636279 17.2966413,10.4174839 C17.0144359,10.7175265 16.2808741,11.2200676 16.243735,11.3120105 C16.243735,11.3120105 16.2428733,11.3133031 16.2428733,11.3145956 C16.2428733,11.3145956 16.2428733,11.3158882 16.2428733,11.3171807 L16.2428733,11.3186456 L16.243735,11.3213169 C16.2443382,11.3213169 16.2456307,11.3226956 16.2456307,11.3226956 C16.2456307,11.3226956 16.2470956,11.3226956 16.2476126,11.3226956 C16.2476126,11.3226956 16.2483881,11.3240743 16.2483881,11.325453 C16.2483881,11.325453 16.2497669,11.3240743 16.25037,11.325453 L16.2509732,11.325453 C16.2888879,11.3510454 16.7473963,11.3510454 16.798064,11.3281243 C16.7994427,11.3267455 16.7994427,11.325453 16.7994427,11.325453 L16.8008215,11.325453 L16.8008215,11.325453 C16.9592873,11.2659098 17.7068086,10.4135201 17.7068086,10.4135201 C17.6682046,10.3797416 17.6323581,10.3566482 17.5930648,10.3228697 C17.5523065,10.2877987 17.5564427,10.2525553 17.5930648,10.2162779 C17.7785879,10.1081351 17.7204234,9.87168568 17.6229656,9.763629 C17.5437757,9.72838564 17.4680327,9.71632189 17.3995278,9.72037187 M17.3643706,9.9838785 C17.4104714,9.9799147 17.4645859,10.0216208 17.4929357,10.0810778 C17.5212855,10.1434646 17.5072398,10.2040418 17.4604497,10.2163641 C17.4124533,10.2271353 17.3523069,10.1852569 17.3230092,10.121836 C17.2940562,10.0580705 17.3089636,9.99732096 17.3557537,9.98663593 C17.358942,9.98517105 17.3616132,9.9838785 17.3643706,9.9838785" id="Shape" fill="#FFFFFF"></path>
                        <path d="M12.2926003,14.3409582 C12.0122044,14.7867135 11.9878184,15.4514258 12.1422344,15.6498744 C12.224871,15.7431961 12.3594679,15.7851607 12.4591662,15.7555183 C12.6359,15.6783103 12.7123324,15.3230331 12.670454,15.1933478 C12.6121172,15.101491 12.5660165,15.0866699 12.5072488,15.1651704 C12.3833369,15.4150622 12.3317213,15.2433262 12.3211225,15.1028698 C12.302079,14.8366919 12.3263788,14.5936074 12.3555903,14.3988641 C12.385922,14.2004155 12.3555903,14.2612513 12.2926003,14.3409582" id="Path" fill="#FFFFFF"></path>
                        <path d="M24.260179,13.6288526 C23.9890895,13.0479833 23.6145964,12.4724566 23.4952515,12.2521209 C23.3751311,12.030665 22.4750896,10.7282115 22.3427331,10.5795689 C22.0501011,10.2338565 22.8180446,10.7241615 22.2452753,10.0365281 C22.0268354,9.85014328 22.0147716,9.83799337 21.8337293,9.68659338 C21.7425618,9.62170767 21.5192964,9.50417234 21.4801754,9.6987433 C21.459667,9.87168568 21.4709553,9.9662999 21.5001668,10.1095999 C21.5218815,10.2054205 21.6619071,10.3661268 21.7311875,10.4595347 C22.6446714,11.6834015 23.4546656,12.9195906 24.2356207,14.4761583 C24.3592741,14.4179076 24.3322168,13.7262242 24.260179,13.6288526" id="Path" fill="#FFFFFF"></path>
                        <path d="M23.0711247,15.5743036 C23.0176134,15.6337607 23.2026195,15.8890812 23.4422572,15.887708 C23.8446692,15.8418602 24.1979646,15.6173884 24.5240304,15.0244554 C24.6126989,14.8866702 24.7668563,14.5907638 24.7703031,14.3624144 C24.8006348,13.0182548 24.7030046,11.9738792 24.5015401,11.0037819 C24.487753,10.9077028 24.4970593,10.7968887 24.512139,10.768625 C24.537559,10.7376902 24.6261413,10.768625 24.6731899,10.6916756 C24.7414363,10.6227399 24.4911997,10.043077 24.3484167,9.82024243 C24.2969735,9.72019953 24.2798257,9.65402127 24.1952933,9.83239235 C24.1070557,9.9770711 24.0476848,10.2297204 24.0544922,10.4647049 C24.2466504,11.7874082 24.3050734,12.9438904 24.4310534,14.2664215 C24.4403597,14.3948142 24.4221779,14.5799926 24.3370423,14.6554772 C24.0206276,14.9840419 23.5660829,15.3877465 23.0711247,15.5743036" id="Path" fill="#FFFFFF"></path>
                        <path d="M28.4945532,15.566376 C28.2052818,15.7324249 28.2052818,15.9243246 28.4391461,15.9310458 C28.8394901,15.8837387 29.3145431,15.8515112 29.6420738,15.3582765 C29.7289327,15.2204913 29.8331979,14.8463429 29.8370756,14.6180796 C29.8684413,13.2750402 29.8204448,11.960523 29.6178601,10.9904256 C29.605624,10.8958114 29.5630562,10.6782331 29.5798593,10.648677 C29.6057102,10.5837913 29.7354816,10.6567769 29.7830472,10.5796551 C29.8522414,10.5108056 29.4444007,9.98801464 29.3004113,9.76500772 C29.2507776,9.66513715 29.2330267,9.5989589 29.1486666,9.77715763 C29.0606013,9.92045768 29.0301834,10.1799143 29.0653406,10.4094702 C29.2771455,11.8456589 29.4364731,13.2345405 29.4687005,14.5083857 C29.4513804,14.6302295 29.4458656,14.6949429 29.3897692,14.8463429 C29.2636169,15.006963 29.1248838,15.2082552 28.993906,15.3055407 C28.8633591,15.4014474 28.5846866,15.4947691 28.4945532,15.566376" id="Path" fill="#FFFFFF"></path>
                        <path d="M28.710408,14.2787437 C28.7066166,13.9437163 28.7152335,13.6532386 28.7038591,13.4020542 C28.6920539,13.1534549 28.5777069,12.2116212 28.5397061,12.0091226 C28.5007574,11.8065379 28.4624981,11.5024454 28.404506,11.2607396 C28.3883061,11.167418 28.3395341,10.866169 28.3543553,10.8364405 C28.3786551,10.7687974 28.4683576,10.8391118 28.512735,10.7606974 C28.5793441,10.6891767 28.284127,9.92442148 28.1328994,9.70675707 C28.0793881,9.60826522 27.9803792,9.6420437 27.8601726,9.80154363 C27.7476351,9.90555034 27.7896859,10.1434646 27.8330292,10.3715555 C28.1203186,11.8712513 28.3353979,13.4424677 28.2880908,14.8704703 C28.2737867,14.9920557 28.7129931,14.5082995 28.710408,14.2787437" id="Path" fill="#FFFFFF"></path>
                        <path d="M26.5812434,12.4197208 C26.4001149,12.415757 26.0207963,12.0671148 25.9097237,11.8631513 C25.8690516,11.745616 25.8955919,11.6321306 25.9323863,11.5645736 C25.9995124,11.5228676 26.1025713,11.4726307 26.1795207,11.5199378 C26.1795207,11.5199378 26.2594861,11.6307519 26.2444926,11.6455731 C26.3424674,11.6928802 26.3852937,11.6659091 26.3952894,11.6253232 C26.4018383,11.555095 26.3653024,11.5133027 26.3653024,11.4361809 C26.4068361,11.2266165 26.6477663,11.1943029 26.7387614,11.3266594 C26.805112,11.4091237 26.8294118,11.5819799 26.8394937,11.6996014 C26.8374256,11.7588861 26.7407433,11.688744 26.6857671,11.7022727 C26.6303601,11.7183864 26.6166591,11.7804285 26.6126091,11.8386791 C26.6024411,11.9913717 26.584604,12.2346285 26.5812434,12.4197208" id="Path" fill="#FFFFFF"></path>
                        <path d="M23.2377767,14.6515996 C23.2878413,14.1949869 23.2202843,13.2640967 23.2147695,12.993955 C23.1970185,12.3589712 23.0928395,11.1295895 23.0434643,10.9242473 C22.9873679,10.5377767 23.2027057,10.9660396 23.1728049,10.7405338 C23.1030937,10.3554418 22.8885314,10.0933139 22.6357959,9.73941535 C22.5538486,9.6244651 22.5572092,9.60025144 22.4313155,9.76776515 C22.2924962,10.0826289 22.412272,10.2986561 22.4476015,10.5445841 C22.6298502,11.3430316 22.7367005,12.077886 22.7867651,12.8048989 C22.835537,13.5316533 22.8507029,14.4354 22.8058085,15.201534 C22.9418703,15.2069626 23.1618613,14.9812845 23.2377767,14.6515996" id="Path" fill="#FFFFFF"></path>
                        <path d="M29.3266068,13.920709 C29.00709,13.3857681 28.5250572,12.7588843 28.396406,12.5440635 C28.2672378,12.3291565 27.1783987,10.7350189 27.0389763,10.5929252 C26.6413036,10.1769846 27.2224314,10.5254544 26.9634917,10.2027493 C26.7439316,9.96354248 26.6801661,9.88797174 26.492144,9.74329298 C26.3987362,9.68400829 26.3418642,9.56785167 26.3105847,9.76483538 C26.2986071,9.93786394 26.2850785,10.13907 26.2970561,10.2851274 C26.2964529,10.3660407 26.3811576,10.5174407 26.4543156,10.6079187 C27.4196736,11.7928369 28.4743033,13.2410894 29.3227292,14.761035 C29.4431081,14.697528 29.4026084,14.0153232 29.3266068,13.920709" id="Path" fill="#FFFFFF"></path>
                        <path d="M25.4574195,20.2314258 L25.4562993,20.2327184 C25.1730598,20.3055317 25.1815906,20.598853 25.3643563,20.7272457 C22.3794414,20.7272457 17.8003888,20.6757163 16.8193479,20.6757163 C16.2700167,20.6757163 14.5325791,20.6110891 14.4987144,20.6110891 C14.8711394,21.1537852 15.4114228,21.2647717 16.1169795,21.2757152 C17.4429573,21.2757152 23.5832307,21.2595153 25.3303193,21.2595153 C25.2070106,21.479851 25.3422107,21.8334049 25.4400132,21.8984629 C25.4421674,21.8999278 25.4446664,21.9025991 25.4464759,21.9038054 C25.4506982,21.9053565 25.4547482,21.9063905 25.4590567,21.9078554 C25.4601769,21.9078554 25.4614694,21.9078554 25.4614694,21.9078554 C25.5793495,21.9349127 25.6292417,21.8509835 25.6686212,21.7904924 C25.85604,21.8066923 26.9118761,21.8228922 27.009334,21.7889414 L27.0107988,21.7876488 C27.0763739,21.8835556 27.1422937,21.9742922 27.26543,21.9578338 C27.4832668,21.9119054 27.655606,21.8889843 27.6610346,21.4471066 C27.6610346,21.4471066 27.6387167,20.6960523 27.1435,20.7434456 C27.0271711,20.7596455 26.6985202,20.7931655 26.6985202,20.7931655 C26.318857,20.7485296 26.0397536,20.7434456 25.6126109,20.7271596 C25.6519043,20.6770088 25.7210123,20.4757167 25.6359629,20.4016108 C25.6132141,20.3840322 25.5803835,20.373261 25.5346274,20.3775695 L25.5333349,20.3775695 C25.5333349,20.3775695 25.5305775,20.3775695 25.5297158,20.3775695 L25.5291126,20.3757599 C25.5291126,20.3757599 25.5249764,20.3757599 25.5236839,20.3747259 C25.5226499,20.3731748 25.5198063,20.3689525 25.5170488,20.3662813 C25.5170488,20.3662813 25.5142914,20.3650749 25.5134297,20.3635238 C25.4929213,20.3326751 25.4804268,20.2557257 25.4668981,20.2352173 C25.4656056,20.2352173 25.4649162,20.2352173 25.4649162,20.2352173 L25.464313,20.2326322 L25.4600907,20.2313397 L25.4589705,20.2313397 L25.4574195,20.2313397 M25.6592287,21.3052714 C25.6592287,21.3052714 25.6606074,21.3069086 25.6620723,21.3052714 C26.0965394,21.3269 26.5055865,21.3108724 26.9411738,21.3311223 C27.0107988,21.3906655 26.9756417,21.5241422 26.9309196,21.5486143 C26.9288516,21.5500792 26.9248016,21.5510271 26.9227335,21.5510271 L26.917391,21.5510271 C26.9153229,21.5510271 26.9118761,21.5510271 26.9118761,21.5510271 C26.7698686,21.5473218 26.6878352,21.5445644 26.5463447,21.5402559 C26.5463447,21.5338793 26.5448798,21.5268134 26.5436734,21.5203507 C26.5096365,21.4203078 26.2673275,21.4271152 26.2090769,21.5051849 C26.2090769,21.5068221 26.2078705,21.5079423 26.2064056,21.5092348 C26.2050269,21.5108721 26.2045961,21.5148359 26.203562,21.5148359 C26.2023557,21.5175933 26.202011,21.5212986 26.2007184,21.523022 C26.1996844,21.5256932 26.1996844,21.5310358 26.1996844,21.5338793 C26.1981334,21.5376708 26.1981334,21.541807 26.1981334,21.5445644 C26.0073539,21.5673993 25.8354455,21.5392219 25.6425979,21.5310358 C25.5874494,21.4621862 25.5940845,21.3364648 25.6592287,21.3052714" id="Shape" fill="#FFFFFF"></path>
                        <path d="M17.9059466,10.1743995 C17.6154689,11.0038681 18.0732879,11.9118371 18.3906506,11.8239441 C18.6188277,11.9171796 18.7645405,11.4834019 18.8587238,11.0065393 C18.9230064,10.8741828 18.971089,10.8593616 19.0037473,10.9282111 C18.9961644,11.5619024 19.0495895,11.7009801 19.2127947,11.8928798 C19.5765166,12.1725002 19.8778517,11.9293296 19.9006866,11.9063223 C19.9243833,11.8820225 20.1846155,11.622652 20.1846155,11.622652 C20.2468299,11.5563014 20.3312761,11.5524237 20.4209787,11.610502 C20.5068898,11.6888302 20.4945675,11.8253229 20.6794013,11.9184722 C20.8358853,11.9819792 21.1681553,11.9334657 21.2470866,11.7995581 C21.3498008,11.6212732 21.3756517,11.5619024 21.4227865,11.4927944 C21.4974093,11.3943025 21.6232169,11.438766 21.6232169,11.4699594 C21.6125319,11.5253665 21.5383399,11.5793086 21.5882321,11.6793516 C21.6761251,11.7455298 21.6978398,11.7023588 21.7490246,11.6875377 C21.9335137,11.5995585 22.0729361,11.1997316 22.0729361,11.1997316 C22.0797435,11.0497103 21.997193,11.0618602 21.941786,11.0929674 C21.8719024,11.1360522 21.8671631,11.1497532 21.7967625,11.1943029 C21.7059398,11.2063666 21.5314463,11.2658236 21.4448459,11.1321746 C21.3559188,10.9712959 21.3552295,10.7470826 21.2877587,10.5863763 C21.2877587,10.5741403 21.1698787,10.3310558 21.2794864,10.3148559 C21.3336009,10.3241623 21.4513086,10.3566482 21.4705244,10.2581563 C21.5286889,10.1607847 21.346354,9.88797174 21.2227006,9.75147909 C21.1155057,9.63265121 20.9651397,9.61912259 20.8219258,9.73932918 C20.7209351,9.83247852 20.7348945,9.93527885 20.7149032,10.0336845 C20.6890523,10.1473422 20.6950842,10.2851274 20.8101206,10.4336838 C20.9110252,10.6323047 21.0937909,10.8875391 21.0336445,11.2458323 C21.0336445,11.2458323 20.9261049,11.4157587 20.739203,11.3943025 C20.6619089,11.3766377 20.5344641,11.344238 20.4675103,10.8457468 C20.4166702,10.4689272 20.4791432,9.94191391 20.3191262,9.69460716 C20.2610479,9.54605076 20.2188248,9.40145818 20.0781098,9.65686487 C20.0394197,9.75673544 19.8777655,9.90942797 19.9954732,10.222913 C20.0915523,10.4202414 20.131018,10.7430327 20.0875885,11.1024461 C20.0205486,11.2036092 20.0048657,11.2388526 19.9183514,11.3415667 C19.7950427,11.4725445 19.6608766,11.438766 19.559455,11.3901664 C19.4632898,11.3253668 19.3886669,11.2928809 19.344031,11.0888313 C19.3522171,10.76199 19.3697957,10.2296342 19.3103387,10.1160627 C19.2235659,9.94044902 19.0773361,10.003956 19.0164142,10.0565195 C18.7178365,10.3282122 18.5709174,10.7862036 18.4809563,11.1509596 C18.3981473,11.4170513 18.3101682,11.3414806 18.2484707,11.2347164 C18.0982771,11.0944323 18.0888846,9.9946497 17.9059466,10.1743995" id="Path" fill="#FFFFFF"></path>
                        <path d="M18.8864705,11.888916 C18.8851779,11.8902086 18.8818173,11.8915873 18.879146,11.8928798 C18.8783705,11.8928798 18.8756131,11.8955511 18.8756131,11.8955511 C18.8560526,11.9089935 18.8322698,11.9415656 18.7822914,11.9780154 C18.6971558,12.075387 18.68199,12.1428578 18.6875048,12.3360501 C18.6915548,12.3562138 18.8485558,12.7926628 18.9815155,13.0979617 C19.0708734,13.4167892 19.1553196,13.7815451 19.0937945,14.1261373 C18.8838854,14.5802511 18.4613958,14.9880057 18.0535551,15.2109264 C17.845714,15.2758121 17.6677738,15.2541836 17.6196912,15.2082552 L17.619088,15.2069626 C17.4982782,15.1271696 17.4958654,14.9840419 17.5025005,14.9610346 L17.5025005,14.9582772 L17.5043962,14.9582772 C17.8477821,14.7177778 18.2419218,14.5246717 18.5492888,13.8802093 C18.6400254,13.6342813 18.6684614,13.4856387 18.5776386,13.103218 C18.5424814,12.9628477 18.4971562,12.8453986 18.4002154,12.7453557 C18.4002154,12.7453557 18.4021973,12.743977 18.4021973,12.7426844 C18.4613096,12.7157133 18.6121064,12.8277338 18.6358893,12.7561269 C18.599181,12.5750845 18.477251,12.330449 18.3364499,12.2048999 C18.2146061,12.094172 18.0818187,12.0820221 17.9695397,12.1833575 C17.8429566,12.2535858 17.8158132,12.5048563 17.8761319,12.7264845 C17.9436889,12.891327 18.1265407,12.9195906 18.2565707,13.2547042 L18.2565707,13.2559967 C18.2592419,13.2763327 18.299914,13.5061471 18.2349421,13.5992102 C18.1822925,13.7641389 17.4997431,14.3005446 17.4515743,14.3328582 C17.4510573,14.3328582 17.4482137,14.3341508 17.4482137,14.3355295 C17.4482137,14.3355295 17.4476105,14.3369082 17.4467488,14.3382869 L17.4454562,14.3382869 L17.4440775,14.3410443 L17.442785,14.3410443 L17.4414063,14.3410443 C17.4414063,14.3396656 17.4401137,14.3382869 17.4401137,14.3382869 L17.4386488,14.3382869 C17.4386488,14.336822 17.4379595,14.3341508 17.4379595,14.3341508 C17.4359776,14.3207945 17.4400275,14.2854649 17.4379595,14.2301441 C17.433134,14.1301873 17.4745816,13.9033028 17.4704454,13.8640956 L17.4704454,13.8613382 L17.4697561,13.8613382 L17.4697561,13.8586669 L17.4678603,13.8586669 C17.2421821,14.0044659 17.168421,14.4490148 17.1271457,14.5815437 C16.5563583,14.9745632 15.9082767,15.2690909 15.5358517,15.6662466 C15.3410223,15.970253 16.8751858,15.3191555 17.0532984,15.2407411 C17.0553665,15.2407411 17.0567452,15.2434985 17.0579515,15.2448773 C17.0920747,15.2827057 17.094746,15.4110984 17.1962537,15.5286338 C17.3554952,15.7432822 17.6944864,15.8769313 18.0230511,15.794467 C18.5761737,15.5947258 18.8956906,15.2191126 19.2207223,14.801707 C19.2668231,14.73415 19.3393779,14.6827068 19.4063316,14.73415 C19.6290801,15.232555 20.2716468,15.585161 21.1026664,15.6217831 C21.2956863,15.3893837 21.2034848,15.2743473 21.1255013,15.2260923 C21.1017185,15.2095477 20.7130936,15.0582339 20.6521717,14.9084711 C20.6142571,14.7678424 20.7049937,14.6435858 20.8918956,14.5503503 C21.4248545,14.4855507 21.9495412,14.4125651 22.457511,14.2503939 C22.4617333,14.0802089 22.5624656,13.826181 22.6295917,13.715453 C22.6768988,13.6384174 22.7074029,13.6304036 22.7184326,13.6194601 C22.7186911,13.6194601 22.7199836,13.6194601 22.7199836,13.6180814 L22.7213623,13.6167888 C22.7217932,13.6154101 22.7230857,13.6154101 22.7230857,13.6154101 L22.7230857,13.6127389 C22.7230857,13.6086889 22.7230857,13.6046389 22.7213623,13.5992102 L22.6346757,13.5478532 L20.9319644,13.5398394 C20.910939,13.533032 20.894653,13.5234672 20.8850882,13.5167459 C20.8850882,13.5154534 20.8825031,13.5141608 20.8825031,13.5141608 C20.8818137,13.5126098 20.8811244,13.5113172 20.8811244,13.5113172 L20.8790563,13.5113172 C20.8790563,13.5099385 20.8783669,13.5073534 20.8783669,13.5073534 L20.8756095,13.5060609 L20.8756095,13.5046822 L20.8742308,13.5033035 L20.8742308,13.500546 L20.8742308,13.500546 L20.8742308,13.4978748 L20.8742308,13.4978748 L20.8742308,13.4952035 L20.8742308,13.4938248 L20.8742308,13.4924461 L20.8742308,13.4911536 L20.8756095,13.489861 C20.8756095,13.4883961 20.8768159,13.4870174 20.8768159,13.4870174 C20.886036,13.4748675 20.9068891,13.4640963 20.9319644,13.4546177 C21.3387711,13.3992106 22.0607862,13.2817614 22.1088688,12.5886993 C22.1015444,12.2278211 21.9538497,11.9913717 21.5096454,11.9253658 C21.1831488,11.9509581 20.9510079,12.2670282 20.9882332,12.6129992 C20.9733258,12.7061485 21.0201159,12.8883972 20.9245538,12.9102843 C20.2988764,12.9670701 19.6156376,13.3573322 19.5927165,13.6383312 L19.5906484,13.6383312 L19.5900452,13.6383312 C19.5900452,13.6383312 19.5865123,13.63971 19.5865123,13.6410887 L19.5832378,13.6410887 C19.5823761,13.6410887 19.5799634,13.6424674 19.5799634,13.6424674 C19.5799634,13.6424674 19.5784123,13.6424674 19.5770336,13.6424674 L19.5743624,13.6424674 L19.5729837,13.6424674 L19.569623,13.6424674 L19.563505,13.6410887 C19.5236085,13.6288526 19.4714759,13.5626743 19.4794035,13.4683186 C19.45631,12.9845625 19.2981888,12.4373855 19.0502789,12.0157577 C18.9622997,11.928037 18.9242127,11.892966 18.8985342,11.888916 L18.8957768,11.888916 L18.8917268,11.888916 C18.8917268,11.888916 18.8904343,11.888916 18.8890555,11.888916 L18.8883662,11.888916 L18.8864705,11.888916 M21.3757379,12.5089063 C21.4135663,12.5048563 21.4618213,12.5170062 21.5082667,12.5441497 C21.5767715,12.5831845 21.6169266,12.641349 21.6126181,12.6846061 C21.6126181,12.6859848 21.6126181,12.6886561 21.6126181,12.6900348 C21.6126181,12.6900348 21.6113255,12.6940848 21.6097745,12.6940848 C21.6097745,12.6953773 21.6092575,12.696756 21.6092575,12.6981347 C21.6085681,12.6994273 21.6071894,12.700806 21.6071894,12.700806 C21.6071894,12.7021847 21.6065862,12.7035634 21.6065862,12.7049421 C21.6033979,12.7076134 21.6000373,12.7115772 21.5962459,12.7157133 C21.5639323,12.7453557 21.4894817,12.7413919 21.418478,12.700806 C21.351438,12.6603063 21.3093011,12.602228 21.3126617,12.5589708 C21.3131787,12.5589708 21.3148159,12.5562134 21.3148159,12.5548347 C21.3160223,12.549406 21.3174872,12.5440635 21.3202446,12.5398412 C21.321451,12.5385486 21.3229159,12.5358774 21.3235191,12.5331199 L21.3254148,12.5331199 C21.3269659,12.52907 21.329551,12.5263126 21.3330839,12.5251062 C21.3429934,12.5169201 21.3585901,12.510285 21.3757379,12.5089063 M19.7924576,13.9437163 C19.7978863,13.9422514 19.8032288,13.9437163 19.8085713,13.9437163 L19.8114149,13.9437163 C20.0009881,13.9950734 20.2806084,13.9992095 20.523779,14.0234232 C20.7210212,14.0369518 20.8197716,14.1909369 20.6349378,14.2558226 C20.4519136,14.3179509 20.2768169,14.3666367 20.2762138,14.6302295 C20.2999104,14.7612073 20.2950849,14.8298845 20.2741457,14.8612502 C20.2736287,14.8639215 20.2698372,14.8665065 20.2681138,14.8691778 C20.2681138,14.8691778 20.267166,14.8691778 20.267166,14.8705565 L20.2654426,14.8720214 C20.2654426,14.8733139 20.2638915,14.8733139 20.2638915,14.8733139 L20.2626851,14.8747788 C20.2613064,14.8761575 20.2598415,14.8761575 20.2598415,14.8761575 C20.2570841,14.8788288 20.2530341,14.8801213 20.2503629,14.8815001 C20.2477778,14.8827926 20.2442448,14.8827926 20.2442448,14.8827926 C20.1984026,14.8896862 20.1352403,14.8465152 20.0879332,14.8233356 C19.9754819,14.7409574 19.6590671,14.5478514 19.6140866,14.1276022 C19.6068483,14.0330742 19.6781967,13.9505237 19.7924576,13.9437163" id="Shape" fill="#FFFFFF"></path>
                        <path d="M14.3225838,10.1838781 C14.5190504,10.2771137 14.8873393,10.2379065 14.871915,9.92175022 C14.871915,9.89477914 14.8644182,9.79870003 14.8616608,9.7744002 C14.8222813,9.68125087 14.7125874,9.70425815 14.6875982,9.80033725 C14.6800153,9.83265085 14.7011268,9.88262922 14.673294,9.89891528 C14.6570941,9.91511516 14.5934148,9.90555034 14.5960861,9.81903606 C14.5960861,9.79077243 14.5765256,9.76104392 14.5636863,9.74346532 C14.5514502,9.73527921 14.5435226,9.73269412 14.520343,9.73269412 C14.4941474,9.73407283 14.4941474,9.74070789 14.4796709,9.76371517 C14.4729497,9.78663629 14.4642466,9.8095574 14.4642466,9.83670083 C14.4607998,9.86772188 14.4484775,9.87849308 14.4254703,9.88392177 C14.4012566,9.88392177 14.4065129,9.88676536 14.3854876,9.87315057 C14.3727345,9.85962194 14.357741,9.85419325 14.357741,9.83127214 C14.357741,9.80817869 14.3530878,9.76905769 14.345591,9.7528578 C14.3348198,9.73941535 14.3172412,9.73269412 14.2967329,9.72709309 C14.1897964,9.72709309 14.1829028,9.85022945 14.1884177,9.89607168 C14.1810933,9.90417162 14.1763539,10.124335 14.3225838,10.1838781" id="Path" fill="#FFFFFF"></path>
                        <path d="M20.0694067,12.6116205 C20.2665628,12.7034772 20.7323956,12.6508276 20.6192549,12.3495787 C20.6192549,12.3212289 20.6118444,12.2265285 20.6090869,12.20085 C20.5697936,12.1092517 20.460272,12.1306217 20.4351105,12.2278211 C20.4276999,12.2589283 20.4493285,12.3088205 20.4210649,12.3265714 C20.4047788,12.3427713 20.3410133,12.3319139 20.3436846,12.2454858 C20.3436846,12.217136 20.3232624,12.1888724 20.3112848,12.1699151 C20.2990487,12.161729 20.2909488,12.1590577 20.2681138,12.1590577 C20.2408842,12.1603503 20.2408842,12.1685364 20.2271833,12.1915437 C20.2205482,12.2143786 20.2118451,12.2374721 20.2118451,12.2630644 C20.2076228,12.2940855 20.1961622,12.3062354 20.1732411,12.3089928 C20.1489413,12.3089928 20.1542838,12.313129 20.132569,12.2996865 C20.120333,12.2860717 20.1055118,12.280643 20.1055118,12.2577219 C20.1055118,12.2348008 20.1000831,12.1956798 20.0925863,12.1806863 C20.0824183,12.1658651 20.0649259,12.1591439 20.044676,12.1552663 C19.9375672,12.1552663 19.9309322,12.276593 19.9361023,12.3226076 C19.9286918,12.3318278 19.9238663,12.549406 20.0694067,12.6116205" id="Path" fill="#FFFFFF"></path>
                        <path d="M23.4212318,11.6064521 C23.616923,11.6997737 23.985298,11.6603942 23.9707354,11.3443241 C23.9707354,11.3159743 23.9636695,11.2227388 23.960912,11.1971465 C23.9204123,11.1038248 23.8107184,11.1268321 23.7871941,11.2227388 C23.779525,11.2537599 23.8004642,11.3052893 23.7715974,11.321403 C23.7553114,11.3377753 23.6930969,11.3282104 23.695682,11.2403174 C23.695682,11.2132602 23.6745704,11.1836178 23.6623344,11.1660392 C23.6507015,11.1578531 23.6422568,11.155268 23.6196804,11.155268 C23.5926232,11.1565606 23.5934849,11.163368 23.577802,11.1862891 C23.5723733,11.2105889 23.5628085,11.2336824 23.5628085,11.2592748 C23.5596202,11.2902958 23.5480735,11.301067 23.5248938,11.3052893 C23.499043,11.3052893 23.5045578,11.309167 23.4844803,11.2956383 C23.4719857,11.2821959 23.4573369,11.2769395 23.4573369,11.2537599 C23.4573369,11.2294601 23.4508742,11.1914593 23.4444114,11.1753456 C23.4326924,11.1618169 23.4154585,11.155268 23.3961565,11.1497532 C23.2893923,11.1511319 23.2812062,11.2727172 23.2878413,11.3186456 C23.2794828,11.3281243 23.2757775,11.5457887 23.4212318,11.6064521" id="Path" fill="#FFFFFF"></path>
                        <path d="M25.1566876,14.1287224 C24.8155421,14.512608 24.9660804,15.1487982 25.0438054,15.2866695 C25.1553089,15.5095903 25.2475965,15.6541829 25.4656918,15.7649108 C25.6652605,15.9135534 25.8202797,15.8215242 25.9067939,15.717776 C26.1074829,15.5095903 26.1102404,14.9799057 26.2045099,14.8746927 C26.2707743,14.6827068 26.4381157,14.7151927 26.5179949,14.8003283 C26.5964954,14.9126073 26.6885245,14.9854206 26.8034748,15.046084 C26.9914107,15.2110126 27.2146761,15.2407411 27.4351841,15.0907198 C27.5864979,15.006963 27.6847313,14.8976999 27.7717626,14.682793 C27.8705129,14.4193725 27.8166569,12.9967986 27.7964071,12.280643 C27.7880486,12.2239434 27.6010606,11.2958107 27.6010606,11.286332 C27.6010606,11.2755608 27.576847,10.8122269 27.5565971,10.7014128 C27.5525471,10.6567769 27.5416036,10.6432483 27.5891692,10.6487631 C27.6386306,10.6920203 27.6451794,10.6947777 27.675942,10.7082202 C27.7273852,10.7176988 27.7716764,10.6311845 27.7414309,10.5527702 C27.5864118,10.2648776 27.4290661,9.97870833 27.274047,9.69210824 C27.2367355,9.65427978 27.1882221,9.61515878 27.128765,9.70296561 C27.0717208,9.75294397 27.0107127,9.84212951 27.0120052,9.9583723 C27.0271711,10.1623357 27.0621559,10.3703492 27.0762877,10.5743126 C27.1388469,10.9214899 27.2010613,11.2715108 27.2641375,11.620153 C27.3220434,12.3672435 27.3371231,13.0494482 27.3961493,13.796711 C27.3874462,14.1114885 27.2896437,14.5314791 27.1964943,14.5708586 C27.1964943,14.5708586 27.0568996,14.6530644 26.9620269,14.5625864 C26.893005,14.5356153 26.618641,14.1072662 26.618641,14.1072662 C26.4786154,13.9774948 26.3856384,14.0154094 26.2862849,14.1072662 C26.0107145,14.3722377 25.8868026,14.8680576 25.6999007,15.2110126 C25.6513872,15.2867557 25.5143776,15.3515552 25.3642701,15.2042914 C24.9806431,14.6827068 25.2049425,13.9369951 25.1566876,14.1287224" id="Path" fill="#FFFFFF"></path>
                        <path d="M23.5104174,9.77577892 C23.685514,9.84885074 23.8092535,10.2028355 23.7687538,10.3769842 C23.7334243,10.5905987 23.6401026,10.8229119 23.5729765,10.7930972 C23.500594,10.7648336 23.6221793,10.5795689 23.5532436,10.3836193 C23.514295,10.2568638 23.2743127,10.0245506 23.3000774,9.95690742 C23.2499267,9.81214249 23.4016713,9.75010038 23.5104174,9.77577892" id="Path" fill="#FFFFFF"></path>
                        <path d="M25.7227357,14.3395794 C25.7594439,13.914074 25.6973156,13.6532386 25.6863721,13.401968 C25.6748254,13.1533687 25.4026156,11.1214896 25.3466054,10.9308824 C25.2800824,10.5727615 25.6126971,10.8834891 25.5761612,10.6755619 C25.4608663,10.4122276 25.1751279,10.0284282 25.0851668,9.80145746 C25.0309661,9.70417198 25.0537149,9.61636516 24.9321296,9.77577892 C24.821057,10.1405348 24.781936,10.4391125 24.8250208,10.6675481 C25.1130857,12.1670715 25.4088198,13.5343245 25.361685,14.9610346 C25.4974883,14.9610346 25.6558681,14.6489283 25.7227357,14.3395794" id="Path" fill="#FFFFFF"></path>
                        <path d="M28.7240228,10.283921 C28.8837813,10.3636279 28.9779646,10.8066258 28.9610754,10.9348462 C28.9286756,11.167418 28.8433677,11.4172236 28.7822735,11.38491 C28.7157506,11.3550092 28.7958021,11.0403178 28.7638332,10.9431185 C28.7282451,10.8052471 28.5100637,10.5539766 28.5331572,10.4782335 C28.4877458,10.3242484 28.6257033,10.2554851 28.7240228,10.283921" id="Path" fill="#FFFFFF"></path>
                        <path d="M16.8225362,13.5343245 C16.9754872,13.5924028 17.0664823,13.9180378 17.0488176,14.0125658 C17.0177103,14.1828369 16.9363662,14.3665505 16.8788049,14.3435432 C16.8144362,14.3207083 16.8916442,14.0896014 16.8607093,14.0180807 C16.8483871,13.8438457 16.634945,13.7532815 16.6398566,13.6773661 C16.6000463,13.5384607 16.7276635,13.514247 16.8225362,13.5343245" id="Path" fill="#FFFFFF"></path>
                        <path d="M12.7285323,9.66910095 C12.9542105,9.73665792 12.9675668,10.0676354 12.9514531,10.1663857 C12.920949,10.3419994 12.8410698,10.5337267 12.7834224,10.5081343 C12.7211217,10.4865919 12.7806649,10.2459203 12.7511088,10.1716421 C12.7177611,10.0662566 12.5268955,9.87461545 12.548524,9.81894989 C12.5051807,9.70012201 12.6359,9.64876493 12.7285323,9.66910095" id="Path" fill="#FFFFFF"></path>
                        <path d="M17.1915144,11.2323898 C17.0177103,11.3255392 16.9511012,11.6037808 17.0595026,11.7671584 C17.159804,11.9090797 17.3195624,11.8565162 17.3398985,11.8565162 C17.5105143,11.8780586 17.6106434,11.5388951 17.6106434,11.5388951 C17.6106434,11.5388951 17.616072,11.4430745 17.414349,11.6240307 C17.3299028,11.6403167 17.3194763,11.6078308 17.2979339,11.5606098 C17.2801829,11.4726307 17.2835436,11.3837037 17.3236124,11.2957245 C17.3548058,11.2106751 17.2885414,11.1739668 17.1915144,11.2323898" id="Path" fill="#FFFFFF"></path>
                        <path d="M18.4924169,9.54062208 C18.4050409,9.59887273 18.2310645,9.77862252 18.2271007,9.98517105 C18.2208965,10.1014138 18.1985785,10.1014138 18.2757865,10.1757782 C18.3313659,10.2554851 18.3867729,10.2487639 18.4978456,10.1893068 C18.5629036,10.1434646 18.5831535,10.1108063 18.6055576,10.0324782 C18.6328733,9.90012165 18.4654458,10.0946926 18.4443342,9.94742876 C18.4071951,9.81093612 18.5141316,9.75561523 18.6157256,9.62179384 C18.6183107,9.53260831 18.6162426,9.46780877 18.4924169,9.54062208" id="Path" fill="#FFFFFF"></path>
                        <path d="M19.540153,9.72709309 C19.5027554,9.8095574 19.4578611,10.2419565 19.4647546,10.2419565 C19.4351123,10.3701768 19.6001271,10.42567 19.6754393,10.2609138 C19.7870289,9.95690742 19.7870289,9.82860088 19.7952151,9.69882947 C19.7607472,9.5028798 19.6272705,9.50977336 19.540153,9.72709309" id="Path" fill="#FFFFFF"></path>
                        <path d="M26.1461731,13.0803831 C26.1690942,13.0573758 27.0774079,12.4142921 27.0774079,12.4142921 C27.1694371,12.3818923 27.1490149,12.7466482 27.1072226,12.7426844 C27.1245427,12.8154116 26.2113173,13.4356603 26.1462593,13.410068 C26.1018819,13.4423816 26.0561258,13.16009 26.1461731,13.0803831" id="Path" fill="#FFFFFF"></path>
                        <path d="M26.9749523,13.0749544 C27.1354001,13.1547474 27.1985624,13.6221314 27.1812423,13.7492315 C27.1869295,13.9964521 27.0272572,14.1936081 26.9648705,14.1612945 C26.899123,14.1328586 26.9715917,13.8560818 26.9390196,13.7573315 C26.9040347,13.6193739 26.7684899,13.3600896 26.7914972,13.2858114 C26.7453965,13.1302753 26.876719,13.0479833 26.9749523,13.0749544" id="Path" fill="#FFFFFF"></path>
                        <path d="M21.5720322,15.0880486 C21.6342467,14.9948131 21.8299378,14.8625427 21.8337293,14.8625427 C21.9242935,14.8178207 22.012445,14.8990787 22.0070163,14.8922713 C22.0218375,14.9826632 21.9497997,15.0663338 21.9729794,15.1867128 C21.9920228,15.2339337 22.0070163,15.2880482 22.0962019,15.2677122 C22.2396743,15.1543992 22.3725478,15.1475918 22.5171404,15.1394057 C22.6285577,15.1461269 22.632263,15.3325979 22.5620347,15.335183 C22.2966324,15.3920549 22.1760811,15.4636619 21.9865942,15.5352688 C21.8957714,15.5880046 21.8199421,15.5217402 21.8199421,15.5148466 C21.8199421,15.5068328 21.7671202,15.4635757 21.8027944,15.3446617 C21.8098603,15.2487549 21.7714287,15.1973978 21.6918941,15.2068765 C21.6316616,15.2405688 21.5788396,15.2608186 21.5491973,15.1921415 C21.536875,15.1420769 21.5330835,15.1163984 21.5720322,15.0880486" id="Path" fill="#FFFFFF"></path>
                        <path d="M27.9302285,15.3393191 C27.9696942,15.3877465 27.9949418,15.433761 27.9279019,15.5162253 C27.8642226,15.5743036 27.819242,15.6052385 27.7545287,15.663403 C27.7244555,15.716225 27.7058428,15.7932606 27.7976996,15.8175604 C27.9678846,15.8648675 28.3596116,15.6108396 28.3596116,15.6053247 C28.4249282,15.5582761 28.4029549,15.4677118 28.3975262,15.4677118 C28.3596116,15.4258334 28.2771473,15.4501332 28.220103,15.443412 C28.1930458,15.443412 28.1055836,15.4298834 28.1484099,15.3528478 C28.1822746,15.3054545 28.1947692,15.275726 28.2186381,15.2163551 C28.2445752,15.1582768 28.2228604,15.119242 28.1265228,15.086756 C28.0289788,15.0690913 27.9906334,15.0785699 27.882232,15.086756 C27.8245846,15.0989921 27.804507,15.1259632 27.7936497,15.1961914 C27.7976996,15.3028694 27.8624992,15.2961482 27.9302285,15.3393191" id="Path" fill="#FFFFFF"></path>
                    </g>
                </g>
            </g>
        </g>
    </g>
</svg>