<?xml version="1.0" encoding="UTF-8"?>
<svg width="44px" height="51px" viewBox="0 0 44 51" version="1.1" xmlns="http://www.w3.org/2000/svg" xmlns:xlink="http://www.w3.org/1999/xlink">
    <!-- Generator: Sketch 56.2 (81672) - https://sketch.com -->
    <title>icon</title>
    <desc>Created with Sketch.</desc>
    <defs>
        <path d="M40,2 L4,2 C2.895,2 2,2.895 2,4 L2,33.534 C2,37.469 4.308,41.038 7.896,42.653 L22,49 L36.104,42.653 C39.692,41.039 42,37.469 42,33.534 L42,4 C42,2.895 41.105,2 40,2 Z" id="path-1"></path>
    </defs>
    <g id="Desktop-Ar" stroke="none" stroke-width="1" fill="none" fill-rule="evenodd">
        <g id="Welcome" transform="translate(-463.000000, -870.000000)">
            <g id="icon" transform="translate(463.000000, 870.017000)">
                <path d="M40,0.5 L4,0.5 C2.06657288,0.5 0.5,2.06657288 0.5,4 L0.5,33.534 C0.5,38.0590133 3.15393418,42.1634888 7.28032618,44.0208252 L21.3844369,50.367875 L22,50.6448871 L36.7195631,44.020875 C40.8456734,42.1648154 43.5,38.0594095 43.5,33.534 L43.5,4 C43.5,2.06657288 41.9334271,0.5 40,0.5 Z M22,47.3551129 L8.51156315,41.285125 C5.46164027,39.9123197 3.5,36.8785201 3.5,33.534 L3.5,4 C3.5,3.72342712 3.72342712,3.5 4,3.5 L40,3.5 C40.2765729,3.5 40.5,3.72342712 40.5,4 L40.5,33.534 C40.5,36.8788426 38.5380968,39.913288 35.4886432,41.2850321 L22,47.3551129 Z" id="Path" fill="#9EC6CD" fill-rule="nonzero"></path>
                <mask id="mask-2" fill="white">
                    <use xlink:href="#path-1"></use>
                </mask>
                <g id="Path-Copy-4" fill-rule="nonzero"></g>
                <path d="M3.29260882,3.96431235 C4.96356229,2.78896889 7.1963251,2.80375546 8.85156516,4.0011268 L10.183068,4.96431235 C12.6428074,6.7436443 15.9533287,6.79256597 18.4645712,5.08669339 L19.5343716,4.3599841 C22.5081187,2.33993479 26.424285,2.38154006 29.3544439,4.46431235 C32.2800413,6.54384237 36.1944205,6.56952515 39.147053,4.52856301 L41.5097688,2.89537185" id="Path-11" stroke="#9EC6CD" stroke-linecap="round" stroke-linejoin="round" fill-rule="nonzero" mask="url(#mask-2)"></path>
                <path d="M3.29260882,8.58931235 C4.96356229,7.41396889 7.1963251,7.42875546 8.85156516,8.6261268 L10.183068,9.58931235 C12.6428074,11.3686443 15.9533287,11.417566 18.4645712,9.71169339 L19.5343716,8.9849841 C22.5081187,6.96493479 26.424285,7.00654006 29.3544439,9.08931235 C32.2800413,11.1688424 36.1944205,11.1945252 39.147053,9.15356301 L41.5097688,7.52037185" id="Path-11-Copy" stroke="#9EC6CD" stroke-linecap="round" stroke-linejoin="round" fill-rule="nonzero" mask="url(#mask-2)"></path>
                <path d="M3.29260882,13.2143124 C4.96356229,12.0389689 7.1963251,12.0537555 8.85156516,13.2511268 L10.183068,14.2143124 C12.6428074,15.9936443 15.9533287,16.042566 18.4645712,14.3366934 L19.5343716,13.6099841 C22.5081187,11.5899348 26.424285,11.6315401 29.3544439,13.7143124 C32.2800413,15.7938424 36.1944205,15.8195252 39.147053,13.778563 L41.5097688,12.1453719" id="Path-11-Copy-2" stroke="#9EC6CD" stroke-linecap="round" stroke-linejoin="round" fill-rule="nonzero" mask="url(#mask-2)"></path>
                <path d="M3.29260882,17.8393124 C4.96356229,16.6639689 7.1963251,16.6787555 8.85156516,17.8761268 L10.183068,18.8393124 C12.6428074,20.6186443 15.9533287,20.667566 18.4645712,18.9616934 L19.5343716,18.2349841 C22.5081187,16.2149348 26.424285,16.2565401 29.3544439,18.3393124 C32.2800413,20.4188424 36.1944205,20.4445252 39.147053,18.403563 L41.5097688,16.7703719" id="Path-11-Copy-3" stroke="#9EC6CD" stroke-linecap="round" stroke-linejoin="round" fill-rule="nonzero" mask="url(#mask-2)"></path>
                <path d="M3.29260882,22.4643124 C4.96356229,21.2889689 7.1963251,21.3037555 8.85156516,22.5011268 L10.183068,23.4643124 C12.6428074,25.2436443 15.9533287,25.292566 18.4645712,23.5866934 L19.5343716,22.8599841 C22.5081187,20.8399348 26.424285,20.8815401 29.3544439,22.9643124 C32.2800413,25.0438424 36.1944205,25.0695252 39.147053,23.028563 L41.5097688,21.3953719" id="Path-11-Copy-4" stroke="#9EC6CD" stroke-linecap="round" stroke-linejoin="round" fill-rule="nonzero" mask="url(#mask-2)"></path>
                <path d="M3.29260882,27.0893124 C4.96356229,25.9139689 7.1963251,25.9287555 8.85156516,27.1261268 L10.183068,28.0893124 C12.6428074,29.8686443 15.9533287,29.917566 18.4645712,28.2116934 L19.5343716,27.4849841 C22.5081187,25.4649348 26.424285,25.5065401 29.3544439,27.5893124 C32.2800413,29.6688424 36.1944205,29.6945252 39.147053,27.653563 L41.5097688,26.0203719" id="Path-11-Copy-5" stroke="#9EC6CD" stroke-linecap="round" stroke-linejoin="round" fill-rule="nonzero" mask="url(#mask-2)"></path>
                <path d="M3.29260882,31.7143124 C4.96356229,30.5389689 7.1963251,30.5537555 8.85156516,31.7511268 L10.183068,32.7143124 C12.6428074,34.4936443 15.9533287,34.542566 18.4645712,32.8366934 L19.5343716,32.1099841 C22.5081187,30.0899348 26.424285,30.1315401 29.3544439,32.2143124 C32.2800413,34.2938424 36.1944205,34.3195252 39.147053,32.278563 L41.5097688,30.6453719" id="Path-11-Copy-6" stroke="#9EC6CD" stroke-linecap="round" stroke-linejoin="round" fill-rule="nonzero" mask="url(#mask-2)"></path>
                <path d="M3.29260882,36.3393124 C4.96356229,35.1639689 7.1963251,35.1787555 8.85156516,36.3761268 L10.183068,37.3393124 C12.6428074,39.1186443 15.9533287,39.167566 18.4645712,37.4616934 L19.5343716,36.7349841 C22.5081187,34.7149348 26.424285,34.7565401 29.3544439,36.8393124 C32.2800413,38.9188424 36.1944205,38.9445252 39.147053,36.903563 L41.5097688,35.2703719" id="Path-11-Copy-7" stroke="#9EC6CD" stroke-linecap="round" stroke-linejoin="round" fill-rule="nonzero" mask="url(#mask-2)"></path>
                <path d="M3.29260882,40.9643124 C4.96356229,39.7889689 7.1963251,39.8037555 8.85156516,41.0011268 L10.183068,41.9643124 C12.6428074,43.7436443 15.9533287,43.792566 18.4645712,42.0866934 L19.5343716,41.3599841 C22.5081187,39.3399348 26.424285,39.3815401 29.3544439,41.4643124 C32.2800413,43.5438424 36.1944205,43.5695252 39.147053,41.528563 L41.5097688,39.8953719" id="Path-11-Copy-8" stroke="#9EC6CD" stroke-linecap="round" stroke-linejoin="round" fill-rule="nonzero" mask="url(#mask-2)"></path>
            </g>
        </g>
    </g>
</svg>