<?xml version="1.0" encoding="UTF-8"?>
<svg width="881px" height="561px" viewBox="0 0 881 561" version="1.1" xmlns="http://www.w3.org/2000/svg" xmlns:xlink="http://www.w3.org/1999/xlink">
    <!-- Generator: Sketch 56.2 (81672) - https://sketch.com -->
    <title>illustration</title>
    <desc>Created with Sketch.</desc>
    <defs>
        <path d="M23.0142973,0 L39.3743255,0 C52.0112404,0 62.255484,10.2442436 62.255484,22.8811584 L62.255484,54.876645 C62.255484,72.0312569 48.3489233,85.9378175 31.1943114,85.9378175 L31.1943114,85.9378175 C22.9563763,85.9378175 15.0558455,82.6653105 9.23074566,76.8402107 C3.40564584,71.0151109 0.133138843,63.1145801 0.133138843,54.876645 L0.133138843,22.8811584 C0.133138843,10.2442436 10.3773824,0 23.0142973,0 L23.0142973,0 Z" id="path-1"></path>
    </defs>
    <g id="Desktop-Ar" stroke="none" stroke-width="1" fill="none" fill-rule="evenodd">
        <g id="Welcome" transform="translate(-50.000000, -182.000000)">
            <g id="illustration" transform="translate(50.475000, 181.808981)">
                <g id="yallaman" transform="translate(207.408877, 0.000000)">
                    <path d="M139.911951,422.564264 L167.254935,417.168124 L305.800349,389.882343 L320.806576,386.92686 C334.153918,345.245016 340.522507,292.38954 335.717464,225.424017 L339.740734,225.176137 L339.740734,225.176137 L389.964877,222.106249 C389.964877,222.106249 374.501027,106.632669 269.171428,96.8700416 C245.851714,94.4865876 112.073208,81.3108539 88.4674794,232.459973 L142.714892,232.459973 L139.911951,422.564264 Z" id="Path" fill="#F48D65" fill-rule="nonzero"></path>
                    <path d="M262.80348,174.093621 C262.57989,174.155369 262.348578,174.02417 262.28683,173.80058 C262.225082,173.57699 262.356281,173.345678 262.579871,173.28393 L271.371524,170.855975 C271.595114,170.794227 271.826426,170.925426 271.888174,171.149016 C271.949922,171.372606 271.818723,171.603918 271.595133,171.665666 L262.80348,174.093621 Z M248.683441,171.666478 C248.459402,171.726577 248.229063,171.593678 248.168964,171.369639 C248.108865,171.145601 248.241764,170.915261 248.465803,170.855162 L251.397994,170.068593 C251.622033,170.008494 251.852372,170.141393 251.912471,170.365432 C251.97257,170.58947 251.839671,170.81981 251.615632,170.879909 L248.683441,171.666478 Z M269.797468,177.680631 C269.576475,177.751112 269.340189,177.629099 269.269708,177.408107 C269.199226,177.187115 269.321239,176.950828 269.542232,176.880347 L277.813282,174.242445 C278.034275,174.171963 278.270561,174.293977 278.341042,174.514969 C278.411524,174.735961 278.289511,174.972247 278.068518,175.042729 L269.797468,177.680631 Z M275.50211,181.99588 C275.280227,182.063506 275.045534,181.938456 274.977908,181.716573 C274.910282,181.49469 275.035332,181.259997 275.257215,181.192371 L289.410441,176.878734 C289.632324,176.811109 289.867017,176.936159 289.934643,177.158042 C290.002269,177.379925 289.877218,177.614618 289.655336,177.682243 L275.50211,181.99588 Z M280.11086,186.692422 C279.890194,186.763919 279.653349,186.642995 279.581852,186.422329 C279.510354,186.201663 279.631279,185.964818 279.851945,185.893321 L298.981195,179.695287 C299.20186,179.623789 299.438705,179.744714 299.510203,179.965379 C299.5817,180.186045 299.460776,180.42289 299.24011,180.494388 L280.11086,186.692422 Z M282.929386,191.604494 C282.707943,191.673546 282.47245,191.550009 282.403397,191.328566 C282.334345,191.107123 282.457881,190.87163 282.679324,190.802578 L294.946557,186.977286 C295.168,186.908234 295.403493,187.031771 295.472546,187.253214 C295.541598,187.474657 295.418062,187.71015 295.196619,187.779202 L282.929386,191.604494 Z M285.486579,196.785625 C285.263145,196.847933 285.031505,196.717314 284.969197,196.493879 C284.906889,196.270445 285.037507,196.038805 285.260942,195.976497 L290.580393,194.493089 C290.803827,194.430781 291.035467,194.5614 291.097775,194.784834 C291.160083,195.008269 291.029464,195.239909 290.80603,195.302217 L285.486579,196.785625 Z" id="Combined-Shape" fill="#331D34" fill-rule="nonzero"></path>
                    <path d="M193.202419,227.105087 C192.978829,227.166835 192.747517,227.035636 192.685769,226.812046 C192.624021,226.588456 192.75522,226.357144 192.97881,226.295396 L201.770463,223.867441 C201.994053,223.805693 202.225365,223.936892 202.287113,224.160482 C202.348861,224.384072 202.217662,224.615384 201.994072,224.677132 L193.202419,227.105087 Z M192.393177,233.751595 C192.172185,233.822077 191.935899,233.700063 191.865417,233.479071 C191.794936,233.258079 191.916949,233.021793 192.137941,232.951311 L200.408992,230.313409 C200.629984,230.242928 200.86627,230.364941 200.936752,230.585933 C201.007233,230.806925 200.88522,231.043212 200.664228,231.113693 L192.393177,233.751595 Z M186.136449,241.003978 C185.914566,241.071604 185.679873,240.946553 185.612247,240.724671 C185.544621,240.502788 185.669671,240.268095 185.891554,240.200469 L200.04478,235.886832 C200.266663,235.819206 200.501356,235.944257 200.568982,236.166139 C200.636607,236.388022 200.511557,236.622715 200.289674,236.690341 L186.136449,241.003978 Z M182.287808,248.338422 C182.067142,248.409919 181.830297,248.288994 181.758799,248.068329 C181.687302,247.847663 181.808226,247.610818 182.028892,247.53932 L201.158142,241.341286 C201.378808,241.269789 201.615653,241.390713 201.68715,241.611379 C201.758648,241.832045 201.637723,242.06889 201.417057,242.140388 L182.287808,248.338422 Z M190.875275,251.326139 C190.653832,251.395192 190.418338,251.271655 190.349286,251.050212 C190.280233,250.828769 190.40377,250.593276 190.625213,250.524223 L202.892446,246.698932 C203.113889,246.629879 203.349382,246.753416 203.418435,246.974859 C203.487487,247.196302 203.36395,247.431795 203.142507,247.500848 L190.875275,251.326139 Z M200.280046,254.229774 C200.056611,254.292082 199.824971,254.161463 199.762663,253.938028 C199.700355,253.714594 199.830974,253.482954 200.054409,253.420646 L205.373859,251.937238 C205.597294,251.87493 205.828934,252.005549 205.891242,252.228983 C205.95355,252.452418 205.822931,252.684058 205.599497,252.746366 L200.280046,254.229774 Z" id="Combined-Shape" fill="#331D34" fill-rule="nonzero"></path>
                    <path d="M261.747835,174.297741 L219.30864,185.669289 C219.575208,185.347308 219.84663,185.030322 220.122807,184.718389 L260.567249,173.881333 C260.88608,173.988018 261.204445,174.099184 261.522267,174.214862 C261.597589,174.242277 261.672771,174.269905 261.747814,174.297747 Z M268.406402,177.531383 C268.680957,177.699614 268.952835,177.871038 269.222005,178.045587 L214.732887,192.645902 C214.878471,192.359251 215.027331,192.075112 215.179432,191.793506 L268.406402,177.531383 Z M274.054788,181.768443 C274.261153,181.955918 274.465238,182.145501 274.66702,182.337144 L212.085398,199.105839 L212.380916,198.29391 L274.054788,181.768446 Z M278.341682,186.370319 C278.499843,186.571261 278.655899,186.773708 278.809835,186.977623 L209.766189,205.477813 L210.061707,204.665884 L278.341682,186.37032 Z M281.603994,191.24673 C281.723156,191.458498 281.840278,191.671376 281.955347,191.885331 L207.44698,211.849787 L207.742498,211.037858 L281.603994,191.24673 Z M284.000032,196.355258 C284.084513,196.576616 284.166943,196.798788 284.247308,197.021745 L205.127771,218.221761 L205.423289,217.409832 L284.000032,196.355258 Z M285.597659,201.677719 C285.648853,201.908262 285.697918,202.139374 285.744839,202.371027 L203.058732,224.526703 C203.124061,224.263975 203.192323,224.001422 203.263536,223.73908 L285.597659,201.677719 Z M286.403846,207.212245 C286.420822,207.452225 286.435515,207.692547 286.447912,207.933183 L202.068598,230.542552 C202.089236,230.292191 202.112406,230.041722 202.138123,229.791178 L286.403846,207.212245 Z M286.369974,212.971865 C286.349286,213.22224 286.326066,213.472723 286.300298,213.72328 L202.035814,236.301881 C202.018794,236.061913 202.004057,235.821602 201.991616,235.580978 L286.369974,212.971865 Z M285.378552,218.98806 C285.313161,219.250804 285.244837,219.513375 285.173561,219.775732 L202.842992,241.836142 C202.791757,241.60561 202.742651,241.374508 202.695689,241.142866 L285.378552,218.98806 Z M283.308545,225.293261 L283.013028,226.105189 L204.441586,247.158344 C204.357063,246.936997 204.274592,246.714835 204.194186,246.491889 L283.308545,225.293261 Z M280.989337,231.665235 L280.693819,232.477163 L206.838633,252.266601 C206.719426,252.054845 206.602259,251.841979 206.487146,251.628036 L280.989337,231.665235 Z M278.670128,238.037209 L278.37461,238.849138 L210.102084,257.142706 C209.943871,256.94178 209.787762,256.739347 209.633774,256.535445 L278.670128,238.037209 Z M276.350919,244.409183 L276.055401,245.221112 L214.39039,261.744201 C214.183958,261.556747 213.979807,261.367184 213.777959,261.17556 L276.350919,244.409183 Z M273.702095,250.869477 C273.556438,251.15615 273.407474,251.440317 273.255269,251.721949 L220.040797,265.980723 C219.766137,265.812522 219.494154,265.641126 219.224881,265.466602 L273.702124,250.869469 Z M269.122946,257.847 C268.85621,258.169033 268.584559,258.48608 268.308149,258.798069 L227.883658,269.629779 C227.560902,269.521896 227.238624,269.409422 226.916901,269.292325 C226.845283,269.266258 226.77379,269.239997 226.702425,269.213545 L269.122946,257.847 Z M259.342712,266.21815 C258.475767,266.734984 257.588958,267.217007 256.68462,267.663129 L242.318212,271.512596 C241.319997,271.577007 240.315962,271.601934 239.308353,271.58634 L259.342712,266.21815 Z M229.07494,177.301873 C229.938727,176.786152 230.822268,176.305006 231.72325,175.859516 L246.155582,171.992384 C247.150658,171.929084 248.151431,171.905033 249.155736,171.92124 L229.07494,177.301873 Z" id="Combined-Shape" fill="#331D34" fill-rule="nonzero"></path>
                    <path d="M274.47223,97.4611382 C274.47223,97.4611382 274.300621,125.433354 248.425844,148.047566 C248.425844,148.047566 210.919812,134.414209 211.911329,98.1857082 C211.911329,98.1857082 255.30926,93.5522736 274.47223,97.4611382 Z" id="Path" fill="#FFFFFF" fill-rule="nonzero"></path>
                    <path d="M274.47223,97.4611382 C274.47223,97.4611382 274.300621,125.433354 248.425844,148.047566 C248.425844,148.047566 210.919812,134.414209 211.911329,98.1857082" id="Shape" stroke="#FFFFFF" stroke-width="2.1" fill-rule="nonzero"></path>
                    <path d="M269.934133,96.7365682 C254.394013,94.829805 229.453551,96.6030947 218.012971,97.6136792 C220.510831,104.554297 228.404831,114.622007 244.440709,113.821166 C255.503721,113.461641 265.395918,106.832315 269.934133,96.7365682 L269.934133,96.7365682 Z" id="Path" fill="#1B0E1C" fill-rule="nonzero"></path>
                    <g id="Group-2" transform="translate(212.235813, 24.775325)">
                        <mask id="mask-2" fill="white">
                            <use xlink:href="#path-1"></use>
                        </mask>
                        <use id="Path" fill="#FFFFFF" fill-rule="nonzero" xlink:href="#path-1"></use>
                    </g>
                    <path d="M234.163256,90.2726409 C234.493558,91.6400854 235.38717,92.8038591 236.62298,93.4760031 C238.031513,93.9988952 239.580935,93.9988952 240.989468,93.4760031 C242.501798,92.915979 243.936972,92.1663569 245.260618,91.2450901 C246.617397,90.2990603 247.922241,89.2806451 249.169482,88.194269 C248.022249,89.3823825 246.812941,90.5089482 245.546632,91.5692399 C244.263149,92.6489151 242.854797,93.5707453 241.351753,94.3149789 C239.715534,95.1145446 237.842345,95.2842175 236.089086,94.7916697 C234.276627,94.0937052 232.875578,92.6155982 232.27556,90.7683993 C232.148335,90.4455185 232.20661,90.0790081 232.427704,89.8115095 C232.648798,89.5440108 232.997785,89.4177814 233.338844,89.4819483 C233.679902,89.5461152 233.959154,89.7905416 234.067918,90.1200999 L234.163256,90.2726409 Z" id="Path" fill="#010101" fill-rule="nonzero"></path>
                    <path d="M248.597453,52.5568648 C251.259597,52.2022901 253.889812,53.4025572 255.366462,55.6458212" id="Path" stroke="#010101" stroke-width="1.155" stroke-linecap="round" stroke-linejoin="round"></path>
                    <path d="M232.389966,54.9593864 C229.547622,55.0997348 226.960797,56.6432543 225.487483,59.0779949" id="Path" stroke="#010101" stroke-width="1.155" stroke-linecap="round" stroke-linejoin="round"></path>
                    <ellipse id="Oval" fill="#010101" fill-rule="nonzero" cx="252.277506" cy="63.5779561" rx="3.10802402" ry="3.64191772"></ellipse>
                    <ellipse id="Oval" fill="#010101" fill-rule="nonzero" cx="231.15057" cy="64.9508256" rx="3.10802402" ry="3.64191772"></ellipse>
                    <path d="M204.741899,60.2411205 C204.741899,60.2411205 201.938958,73.9507479 212.368952,72.08212 L212.368952,58.0292752 C209.932649,59.0924532 207.369013,59.8359078 204.741899,60.2411205" id="Path" fill="#BFC4C7" fill-rule="nonzero"></path>
                    <path d="M280.059046,57.5335167 L274.453162,59.9169707 L274.453162,73.9507479 C289.459389,72.80669 280.059046,57.5335167 280.059046,57.5335167" id="Path" fill="#BFC4C7" fill-rule="nonzero"></path>
                    <path d="M150.009644,515.191019 L167.29307,417.263462 L320.940049,387.022198 C330.066686,428.097047 336.946213,458.957163 341.578631,479.602547 L303.687284,515.191019 L262.773173,515.191019 L252.002592,444.244571 L247.076628,515.191019 L150.009644,515.191019 Z" id="Combined-Shape" fill="#665E71" fill-rule="nonzero"></path>
                    <path d="M229.529821,4.69710839 C224.038178,4.34182851 218.530414,5.07403704 213.322334,6.85175081 C203.462458,10.5878552 195.260451,17.7215054 190.193296,26.9681026 C189.341269,28.4175364 188.571004,29.9135053 187.886113,31.4489961 C184.072586,39.8959571 185.636132,50.059005 192.424209,56.2369178 C197.381793,60.7178113 205.313928,63.1203329 217.307469,55.3598067 C218.395657,54.6712013 219.644014,54.2769831 220.930319,54.2157488 C223.299853,54.2251851 225.598765,53.4094424 227.432382,51.9085653 C229.24282,50.4066942 230.624192,48.4530389 231.436584,46.2454786 C232.202445,44.2909369 234.104659,43.0202579 236.203492,43.061184 C237.515344,43.1151196 238.821543,42.8604108 240.017019,42.3175464 C243.890182,41.3414318 247.527791,39.5971953 250.71396,37.1883534 C251.200112,36.8571222 251.834604,36.8392015 252.338676,37.1424645 C252.842748,37.4457276 253.124162,38.0146808 253.059279,38.5993581 C252.563521,44.0908362 253.059279,54.1776135 261.792254,58.3724925 C268.097647,61.3345461 275.507364,60.6867418 281.203104,56.6754733 C287.228476,52.4043237 293.425456,43.1374546 290.203026,23.059238 C286.980596,2.98102151 267.321868,-1.7286836 249.798714,1.28400226 C243.182246,2.44712781 236.94713,5.21193446 230.120918,4.67804076 L229.529821,4.69710839 Z" id="Path" fill="#1B0E1C" fill-rule="nonzero"></path>
                    <g id="yalla-logo" transform="translate(239.351973, 221.013717) rotate(1.000000) translate(-239.351973, -221.013717) translate(222.026973, 200.013717)" fill="#1B0E1C" fill-rule="nonzero" stroke="#F48D65" stroke-width="2.31">
                        <path d="M17.9227574,24.0490171 L0.571612701,12.2359447 C-0.218830145,11.7012995 -0.628224651,10.7573434 -0.478395693,9.81490157 C-0.328566736,8.87245969 0.353383934,8.10200519 1.25914416,7.84222101 L8.99817748,5.53476062 C9.68795913,5.33437993 10.4308834,5.4458675 11.0373424,5.84376885 L20.2686179,11.9809116 L21.8738715,3.72284108 C22.0444086,2.82548676 22.6986476,2.09679258 23.574617,1.83025539 L31.9141025,-0.689869761 C32.735701,-0.935336669 33.6258364,-0.734731972 34.262721,-0.16057507 C34.8996057,0.413581831 35.191102,1.27822806 35.0304659,2.12789953 L27.9649598,38.2630482 C27.7883673,39.2065866 27.0784803,39.9608917 26.1491952,40.1938972 L17.9591055,42.2615562 C17.143214,42.4709725 16.2769151,42.2478533 15.663695,41.6703629 C15.0504748,41.0928724 14.7758137,40.2415104 14.9360949,39.4136926 L17.9227574,24.0490171 Z M24.4605676,14.8692769 L24.5073501,14.7989084 L24.4778733,14.7793116 L26.0654282,6.5262212 C25.9836065,6.95158066 25.572455,7.23007308 25.1470955,7.14825143 C24.7217361,7.06642977 24.4432436,6.65527824 24.5250653,6.22991878 L22.7336944,15.5425705 L23.8679011,15.7607452 L24.0543171,15.4803447 L24.3327218,15.5338983 L24.4605676,14.8692769 Z M27.5353058,26.5829365 C27.4489185,27.0025317 27.0409527,27.275922 26.619006,27.1947569 C26.1936465,27.1129352 25.9151541,26.7017837 25.9969758,26.2764242 L23.8317528,36.7930697 C23.919646,36.3930856 24.3245259,36.1245907 24.7431685,36.2051203 C25.168528,36.286942 25.4470204,36.6980935 25.3651987,37.123453 L27.5344063,26.587454 L27.5353058,26.5829365 Z M22.4497276,27.4790797 C22.367906,27.9044392 21.9567544,28.1829316 21.531395,28.1011099 C21.1060355,28.0192883 20.8275431,27.6081367 20.9093647,27.1827773 L18.7372248,38.4749014 C18.8190465,38.0495419 19.230198,37.7710495 19.6555575,37.8528712 C20.0809169,37.9346928 20.3594094,38.3458443 20.2775877,38.7712038 L22.4497276,27.4790797 Z M31.1530392,5.61986814 C31.0712176,6.0452276 30.660066,6.32372002 30.2347066,6.24189837 C29.8093471,6.16007671 29.5308547,5.74892518 29.6126763,5.32356572 L27.4405364,16.6156898 C27.5223581,16.1903304 27.9335096,15.9118379 28.3588691,15.9936596 C28.7842285,16.0754813 29.062721,16.4866328 28.9808993,16.9119922 L31.1530392,5.61986814 Z" id="Combined-Shape"></path>
                    </g>
                    <path d="M335.212553,225.353291 C339.456605,408.835113 265.089535,514.556929 112.111343,542.518737 L199.5,542.518737 C226.089752,542.518737 309.083344,496.45682 325.405716,496.45682 C339.346932,484.165963 353.311067,465.993178 367.298123,441.938465 L367.298123,237.073364 L335.212553,225.353291 Z" id="Path-6" fill="#000000" fill-rule="nonzero"></path>
                    <g id="arms" transform="translate(0.000000, 42.486663)" fill-rule="nonzero">
                        <path d="M390.003012,179.619586 C390.003012,179.619586 472.413318,526.650489 112.111343,517.974716 L112.111343,499.955804 C112.111343,499.955804 359.361328,511.758668 335.755599,182.994557" id="Path" fill="#FFFFFF"></path>
                        <path d="M112.111343,517.974716 C112.111343,517.974716 85.6645375,516.430238 82.3467695,506.171852 C79.0290015,495.913466 94.5119187,494.368988 101.872025,499.34564 C101.872025,499.34564 96.4758848,495.72279 96.6856288,493.62535 C96.8953727,491.527911 98.8593388,487.10422 112.111343,500.032075 L112.111343,517.974716 Z" id="Path" fill="#FFFFFF"></path>
                        <path d="M142.467013,208.640522 L142.753028,189.97331 L88.4293441,189.97331 C87.9554921,195.439717 86.8288392,200.829727 85.0734409,206.028257 C82.3632068,214.016544 74.3610749,218.953859 66.0058088,217.792985 C46.9381768,214.570556 50.4847564,181.27847 51.7241525,172.164142 C57.980491,101.654423 103.665859,56.9292671 140.337916,32.0119454 L134.016495,15.2182501 C-6.13153063,78.3512518 -26.5602691,258.526735 44.4021818,275.701384 C123.89514,294.940625 142.467013,208.640522 142.467013,208.640522 Z" id="Path" fill="#FFFFFF"></path>
                        <path d="M158.498728,28.8440136 C158.498728,28.8440136 132.469526,26.5593614 130.977778,18.0838693 C129.48603,9.60837723 140.899304,5.23828517 148.25941,10.2149371 C148.25941,10.2149371 141.583819,7.86054899 142.234456,6.01435007 C142.885093,4.16815114 149.380636,5.0227399 158.498728,10.9013719 C164.577457,14.8204599 164.577457,20.8013405 158.498728,28.8440136 Z" id="Path" fill="#FFFFFF" transform="translate(146.951374, 16.994332) scale(-1, 1) rotate(20.000000) translate(-146.951374, -16.994332) "></path>
                        <path d="M59.5337144,286.092118 C52.4429658,251.184692 32.9046964,226.938977 0.91890624,213.354972 L19.7858688,270.400582 L59.5337144,286.092118 Z" id="Path-2" fill="#EAEEF0"></path>
                    </g>
                </g>
                <g id="merchant" transform="translate(0.289925, 80.607779)" fill-rule="nonzero">
                    <path d="M156.011365,117.721582 C156.011365,117.721582 165.545181,116.005495 165.182896,125.177026 C164.820611,134.348557 155.077051,136.827349 155.077051,136.827349" id="Path" fill="#BFC4C7"></path>
                    <path d="M101.78302,121.153756 C101.78302,121.153756 92.2492037,119.437669 92.6114887,128.6092 C92.9737737,137.780731 102.717334,140.259523 102.717334,140.259523" id="Path" fill="#BFC4C7"></path>
                    <path d="M65.7833305,275.96386 L1.79235741,252.358132 C1.79235741,252.358132 4.404623,181.99857 104.967314,165.619474 C205.530006,149.240378 267.671418,213.288554 262.084602,259.203412 L218.591334,261.682204 L226.904821,451.802627 L65.7833305,434.58324 L65.7833305,275.96386 Z" id="Combined-Shape" fill="#9EC6CD"></path>
                    <path d="M127.962879,195.517521 C142.705946,195.517521 154.657563,183.565903 154.657563,168.822836 C154.656988,167.132726 154.490943,165.446732 154.161805,163.788981 C137.777312,162.215875 121.257237,162.799238 105.024517,165.524136 L101.516073,166.1343 C101.423105,167.027414 101.378549,167.924905 101.382346,168.822836 C101.382346,183.52134 113.264509,195.454527 127.962879,195.517521 L127.962879,195.517521 Z" id="Path" fill="#FFFFFF"></path>
                    <path d="M129.96498,182.589666 C145.085612,182.685004 151.549539,172.922377 154.314346,165.219053 C154.314346,164.780498 154.19994,164.322875 154.104602,163.884319 C137.720109,162.311213 121.200034,162.894576 104.967314,165.619474 L104.967314,165.619474 C108.399488,173.170256 115.206633,182.47526 129.96498,182.589666 Z" id="Path" fill="#1B0E1C"></path>
                    <rect id="Rectangle" fill="#FFFFFF" x="101.325397" y="94.8785589" width="56.4020555" height="85.0988417" rx="25.8804982"></rect>
                    <path d="M120.240488,101.55223 C129.300554,110.525804 141.710772,115.285129 154.447819,114.670761 C176.604408,114.041529 177.023896,96.4421047 173.076896,89.4061485 C169.129896,82.3701923 155.477472,72.2452797 126.075183,78.9952214 C96.6728944,85.7451631 98.1792373,117.359297 101.287261,135.568886 C101.325397,135.568886 102.641063,107.27252 120.240488,101.55223 Z" id="Path" fill="#1B0E1C"></path>
                    <circle id="Oval" fill="#010101" cx="141.653438" cy="128.189712" r="2.55506269"></circle>
                    <circle id="Oval" fill="#010101" cx="118.962956" cy="128.189712" r="2.55506269"></circle>
                    <path d="M134.426806,118.579625 C135.361417,118.191852 136.332293,117.898034 137.325086,117.702514 C138.295989,117.490116 139.286709,117.381457 140.280569,117.378365 C141.266839,117.405376 142.243612,117.578882 143.178849,117.893191 C144.083005,118.228409 144.907635,118.74786 145.600438,119.418601 C144.828137,118.896479 143.959538,118.533482 143.045375,118.350814 C142.148503,118.207838 141.234644,118.207838 140.337772,118.350814 C139.442403,118.502247 138.566389,118.751623 137.725506,119.094452 C136.893272,119.407326 136.094741,119.803398 135.342052,120.276645 L135.342052,120.276645 C134.894495,120.560975 134.301182,120.428654 134.016852,119.981096 C133.732521,119.533539 133.864843,118.940227 134.3124,118.655896 L134.426806,118.579625 Z" id="Path" fill="#010101"></path>
                    <path d="M122.871821,120.371983 L114.405792,120.200374 L122.700212,118.484287 C123.040823,118.412759 123.393719,118.528378 123.62597,118.787591 C123.85822,119.046804 123.93454,119.410231 123.82618,119.740973 C123.71782,120.071714 123.441243,120.319522 123.100632,120.391051 L122.871821,120.371983 Z" id="Path" fill="#010101"></path>
                    <path d="M119.649391,159.28902 C120.262244,159.870952 120.980621,160.330455 121.765898,160.642822 C122.594867,161.00904 123.465842,161.271614 124.359096,161.424595 C126.216032,161.720217 128.108044,161.720217 129.96498,161.424595 C131.867978,161.16684 133.744089,160.739291 135.570864,160.147063 C136.467042,159.803846 137.477627,159.517831 138.278467,159.155546 L140.947936,157.992421 L138.373806,159.36529 C137.515762,159.803846 136.619583,160.185199 135.723405,160.585619 C133.914305,161.350621 132.037464,161.944316 130.117521,162.358909 C128.167032,162.798581 126.160235,162.933654 124.16842,162.759329 C123.143316,162.655247 122.132913,162.437819 121.155734,162.111029 C120.090644,161.808077 119.093741,161.303152 118.219319,160.623754 C117.960455,160.398951 117.841185,160.053122 117.906438,159.716538 C117.971691,159.379954 118.211553,159.10375 118.53567,158.991968 C118.859787,158.880187 119.218918,158.949811 119.477782,159.174614 L119.477782,159.174614 L119.649391,159.28902 Z" id="Path" fill="#010101"></path>
                    <path d="M262.084602,259.203412 C262.084602,259.203412 261.45537,330.020597 197.483465,333.128621 C197.483465,333.128621 231.633594,303.917009 218.591334,261.682204 L262.084602,259.203412 Z" id="Path" fill="#FFFFFF"></path>
                    <path d="M1.79235741,252.358132 C1.79235741,252.358132 -7.7414586,304.546241 19.7159315,318.217733 C47.1733216,331.889225 139.079308,349.278905 139.079308,349.278905 L153.360964,342.052273 L152.121568,333.128621 L63.6668233,294.078111 C61.9844978,293.282387 61.1222139,291.388586 61.6265867,289.597217 L65.7833305,275.96386 L1.79235741,252.358132 Z" id="Path" fill="#FFFFFF"></path>
                    <path d="M142.168542,293.824135 L247.941022,271.553657 C248.565225,271.422231 249.177784,271.821705 249.30921,272.445908 L261.91148,332.299733 C262.042906,332.923936 261.643432,333.536494 261.019229,333.667921 L155.246749,355.938398 C154.622546,356.069825 154.009987,355.67035 153.878561,355.046148 L141.276291,295.192323 C141.144865,294.56812 141.544339,293.955561 142.168542,293.824135 Z M201.945291,293.868367 C203.493313,293.868367 204.748233,292.613447 204.748233,291.065425 C204.748233,289.517403 203.493313,288.262483 201.945291,288.262483 C200.397269,288.262483 199.142349,289.517403 199.142349,291.065425 C199.142349,292.613447 200.397269,293.868367 201.945291,293.868367 Z" id="Combined-Shape" fill="#3B5999"></path>
                    <path d="M153.742317,354.31276 L151.377931,343.062857 L139.079308,349.278905 L134.674685,348.420862 L133.130207,349.202635 L154.104602,354.922924 C153.95206,354.740168 153.829751,354.534175 153.742317,354.31276 L153.742317,354.31276 Z" id="Path" fill="#010101"></path>
                    <g id="merchant-flying" transform="translate(22.627500, 0.320731)">
                        <circle id="Oval" fill="#EAEEF0" cx="155.8074" cy="208.010238" r="26.9234964"></circle>
                        <circle id="Oval" fill="#FFFFFF" cx="126.977141" cy="256.136942" r="10.5253329"></circle>
                        <polygon id="Path" fill="#FCDF9F" points="126.977141 250.216309 125.929929 251.263521 130.063271 255.396863 121.056508 255.396863 121.056508 256.877021 130.063271 256.877021 125.929929 261.010362 126.977141 262.057574 132.897773 256.136942"></polygon>
                        <circle id="Oval" fill="#1B0E1C" cx="163.682333" cy="264.011874" r="7.87493203"></circle>
                        <circle id="Oval" fill="#F48D65" cx="44.0040871" cy="181.08149" r="6.15857434"></circle>
                        <circle id="Oval" fill="#331D34" cx="20.6298556" cy="105.523091" r="19.8697805"></circle>
                        <path d="M14.614415,113.100153 C14.4800857,112.992689 14.4532198,112.831494 14.5606833,112.697165 L16.3875628,110.440431 C16.4950263,110.306102 16.6293556,110.279236 16.7368191,110.3867 C17.5159295,111.031481 18.6711621,111.676262 19.9607241,111.810591 L19.9607241,107.216526 C16.8174168,106.732941 14.9099397,104.798598 14.9099397,101.923949 C14.9099397,98.914971 16.9517461,96.6582375 19.9607241,96.2821153 L19.9607241,94.6970287 C19.9607241,94.5358334 20.0681876,94.4283699 20.2293829,94.4283699 L21.4652131,94.4283699 C21.6264083,94.4283699 21.7338718,94.5358334 21.7338718,94.6970287 L21.7338718,96.2821153 C23.426422,96.4164447 24.9040451,97.0074939 26.0055459,97.7328725 C26.1398753,97.840336 26.1667412,97.9746654 26.0592777,98.1358606 L24.5010569,100.392594 C24.3935934,100.526924 24.2592641,100.553789 24.1249347,100.473192 C23.3726902,100.016472 22.566714,99.6672155 21.7338718,99.5328861 L21.7338718,103.858292 C25.1189721,104.395609 26.8115222,106.303087 26.8115222,109.204601 C26.8115222,112.321043 24.8771792,114.524044 21.7338718,114.980764 L21.7338718,116.619582 C21.7338718,116.780778 21.6264083,116.888241 21.4652131,116.888241 L20.2293829,116.888241 C20.0681876,116.888241 19.9607241,116.780778 19.9607241,116.619582 L19.9607241,115.061362 C17.8114541,114.953898 15.9845746,114.174788 14.614415,113.100153 Z M19.9607241,103.509036 L19.9607241,99.6672155 C19.127882,99.989606 18.6174304,100.714985 18.6174304,101.628424 C18.6174304,102.488132 18.9398209,103.132913 19.9607241,103.509036 Z M21.7338718,111.62253 C22.6204457,111.273273 23.1040315,110.494163 23.1040315,109.392662 C23.1040315,108.613552 22.7547751,107.968771 21.7338718,107.592649 L21.7338718,111.62253 Z" id="$" fill="#F5FAFD"></path>
                        <path d="M153.146575,219.83174 L153.146575,211.05374 C153.146575,210.82274 153.031075,210.70724 152.800075,210.70724 L144.137575,210.70724 C143.791075,210.70724 143.560075,210.47624 143.560075,210.12974 L143.560075,204.47024 C143.560075,204.12374 143.791075,203.89274 144.137575,203.89274 L152.800075,203.89274 C153.031075,203.89274 153.146575,203.77724 153.146575,203.54624 L153.146575,194.76824 C153.146575,194.42174 153.377575,194.19074 153.724075,194.19074 L159.614575,194.19074 C159.961075,194.19074 160.192075,194.42174 160.192075,194.76824 L160.192075,203.54624 C160.192075,203.77724 160.307575,203.89274 160.538575,203.89274 L169.201075,203.89274 C169.547575,203.89274 169.778575,204.12374 169.778575,204.47024 L169.778575,210.12974 C169.778575,210.47624 169.547575,210.70724 169.201075,210.70724 L160.538575,210.70724 C160.307575,210.70724 160.192075,210.82274 160.192075,211.05374 L160.192075,219.83174 C160.192075,220.17824 159.961075,220.40924 159.614575,220.40924 L153.724075,220.40924 C153.377575,220.40924 153.146575,220.17824 153.146575,219.83174 Z" id="+" fill="#331D34"></path>
                        <g id="mastercard" transform="translate(181.709171, 30.217042) rotate(-20.000000) translate(-181.709171, -30.217042) translate(148.209171, 10.717042)">
                            <ellipse id="Oval" fill="#1B0E1C" cx="33.3793732" cy="19.3083288" rx="5.44864919" ry="13.4153992"></ellipse>
                            <path d="M47.1963661,0.0318323902 C41.9820208,0.0306341759 36.992486,2.15500797 33.3793732,5.9146374 C40.6420072,13.3838346 40.6420072,25.2762386 33.3793732,32.7454358 C39.4799959,39.0234615 49.0463373,40.3993303 56.6689511,36.0950344 C64.2915649,31.7907385 68.0540698,22.8884096 65.828895,14.4220171 C63.6037202,5.95562464 55.9502911,0.053682072 47.1963661,0.053540663 L47.1963661,0.0318323902 Z" id="Path" fill="#FCDF9F"></path>
                            <path d="M33.3793732,5.9146374 C27.9150874,0.276452678 19.5771594,-1.48412281 12.2999247,1.46365623 C5.02268998,4.41143528 0.260537868,11.4784414 0.260537868,19.3300366 C0.260537868,27.1816317 5.02268998,34.2486379 12.2999247,37.196417 C19.5771594,40.144196 27.9150874,38.3836205 33.3793732,32.7454358 C26.0995503,25.2832259 26.0995503,13.3768473 33.3793732,5.9146374 L33.3793732,5.9146374 Z" id="Path" fill="#F48D65"></path>
                        </g>
                        <g id="payers-card" transform="translate(205.327321, 289.351134)">
                            <rect id="Rectangle" fill="#FFFFFF" transform="translate(47.798184, 39.171343) rotate(-19.000000) translate(-47.798184, -39.171343) " x="6.84818415" y="11.845438" width="81.9" height="54.6518101" rx="4.2"></rect>
                            <path d="M43.3868057,49.0584519 L43.5885291,47.9477441 L43.7810034,46.8495175 L43.7879856,46.8495175 L43.7895144,46.8411001 L45.0448763,46.8411001 L45.0433475,46.8495175 L47.6109211,46.8495175 L52.3472526,46.8495175 C56.6920814,46.8495175 60.8709472,43.3478785 61.6156534,39.0550037 C62.3603596,34.762129 59.4708995,31.2646987 55.1260707,31.2646987 L39.0233946,31.2646987 L40.6574928,30.0315493 L55.3473548,30.0315493 C60.3815688,30.0315493 63.7561518,34.1055716 62.8667598,39.0844646 C61.9773678,44.0633576 57.1601825,48.1121277 52.130224,48.1121277 L44.8140361,48.1121277 L43.8746236,53.2846209 L43.8726688,53.2846209 L43.7597261,53.9117173 L42.5086197,53.9117173 L42.6219043,53.2846209 L42.6192617,53.2846209 L43.1153549,50.5530856 L43.3852453,49.0590854 C43.3857654,49.0588742 43.3862855,49.058663 43.3868057,49.0584519 Z M41.1253452,42.270451 L48.7726628,42.270451 L52.7344998,42.270451 C54.5994999,42.2028558 56.1735866,40.8776695 56.5388847,39.0676298 C56.7276915,38.2748445 56.5320083,37.4403242 56.0096554,36.8106507 C55.4873025,36.1809773 54.6979982,35.8281389 53.8749642,35.8563912 L32.9593583,35.8563912 L34.589201,34.6232418 L54.0962484,34.6232418 C56.5644175,34.6232418 58.2240485,36.6097486 57.7857357,39.0676298 C57.2915167,41.5788645 55.1190256,43.4262577 52.534493,43.5330613 L40.9001372,43.5330613 L39.0489274,53.9117173 L37.7935655,53.9117173 L39.8744874,42.2451989 L41.1298493,42.2451989 L41.1253452,42.270451 Z M42.8593961,45.7300031 L41.3851772,53.9117173 L40.1298153,53.9117173 L41.8277454,44.4884364 L43.0831073,44.4884364 L43.082349,44.492645 L52.534493,44.492645 C55.5771498,44.492645 58.4793763,42.0473899 59.0113094,39.050795 C59.5432424,36.0542001 57.513386,33.6173624 54.4834956,33.6173624 L35.9381832,33.6173624 L37.5424931,32.3884217 L54.7047797,32.3884217 C58.4240553,32.3884217 60.9135018,35.380808 60.2581603,39.0592124 C59.6028189,42.7376169 56.0452509,45.7300031 52.3259753,45.7300031 L42.8593961,45.7300031 Z M46.6747114,50.4058696 L46.0576767,53.9117173 L44.8023148,53.9117173 L45.4211442,50.395673 L45.6406412,49.1432594 L52.1557567,49.1432594 C57.807013,49.1432594 63.198686,44.60628 64.1902091,39.0423776 C65.1817323,33.4784752 61.4028802,28.9414959 55.7643903,28.9414959 L42.0958397,28.9414959 L43.7299379,27.7041378 L55.9814189,27.7041378 C62.3220604,27.7041378 66.5519917,32.7714135 65.4370601,39.0423776 C64.3221285,45.3133417 58.2666031,50.4058696 51.9344726,50.4058696 L46.6747114,50.4058696 Z" id="Combined-Shape" fill="#331D34" transform="translate(49.287352, 40.807928) rotate(-19.000000) translate(-49.287352, -40.807928) "></path>
                        </g>
                        <g id="amazon-card" transform="translate(251.463239, 377.267001)">
                            <path d="M4.52866213,3.44282244 L46.99053,3.44282244 C48.2663078,3.44282244 49.30053,4.47704467 49.30053,5.75282244 L49.30053,32.9025825 C49.30053,34.1783602 48.2663078,35.2125825 46.99053,35.2125825 L4.52866213,35.2125825 C3.25288436,35.2125825 2.21866213,34.1783602 2.21866213,32.9025825 L2.21866213,5.75282244 C2.21866213,4.47704467 3.25288436,3.44282244 4.52866213,3.44282244 Z" id="Rectangle" fill="#FFFFFF" transform="translate(25.759596, 19.327702) rotate(8.615648) translate(-25.759596, -19.327702) "></path>
                            <path d="M39.672772,20.3186645 C35.2094306,22.7504167 30.1144498,23.7739283 25.0582605,23.2545191 C18.6686001,22.6547373 12.7331067,19.6908398 8.41455544,14.9434601 C8.09074795,14.5764783 8.41455544,14.1663221 8.84629877,14.4685425 C13.8236835,17.9976111 19.6341129,20.1700123 25.7058755,20.771995 C30.2517098,21.1949677 34.8363403,20.7181662 39.1978544,19.3688292 C39.8670565,19.1745447 40.3419742,19.9085083 39.672772,20.3186645 Z M41.4429197,18.699627 C41.0111763,18.0304249 38.2264319,18.0951864 36.9743763,18.1167735 C36.6073944,18.1167735 36.5642201,17.792966 36.9743763,17.5770944 C38.9413734,16.5772642 41.2676573,16.5772642 43.2346544,17.5770944 C43.2812067,19.7870358 42.2607543,21.8841858 40.4930843,23.2113447 C40.1476897,23.4272164 39.8670565,23.2113447 40.0397539,22.9307116 C40.6226073,21.8297661 41.9178373,19.347242 41.486094,18.6132784 L41.4429197,18.699627 Z" id="Combined-Shape" fill="#331D34"></path>
                        </g>
                    </g>
                    <polygon id="Path-8" fill="#1B0E1C" points="65.8214657 333.128621 65.8214657 345.69607 139.079308 349.278905"></polygon>
                </g>
                <g id="gamer" transform="translate(517.177500, 55.407779)">
                    <path d="M215.675311,213.981487 C237.43148,211.712439 237.8319,176.608928 237.8319,176.608928 L197.332249,177.16189 C188.923424,201.434985 215.675311,213.981487 215.675311,213.981487 Z" id="Path" fill="#FFFFFF" fill-rule="nonzero"></path>
                    <path d="M237.679359,176.608928 L197.332249,177.16189 C196.418751,179.754345 195.879434,182.463773 195.730568,185.20843 C224.026934,190.242285 234.113712,182.500827 237.679359,176.608928 Z" id="Path" fill="#1B0E1C" fill-rule="nonzero"></path>
                    <path d="M216.304543,97.1541056 L216.304543,97.1541056 C224.749818,97.1541056 232.849195,100.508978 238.820906,106.480688 C244.792617,112.452399 248.147489,120.551777 248.147489,128.997051 L248.147489,154.204461 C248.147489,170.737758 234.744603,184.140643 218.211307,184.140643 L216.304543,184.140643 C199.771246,184.140643 186.368361,170.737758 186.368361,154.204461 L186.368361,127.014017 C186.410408,110.510514 199.800986,97.1541056 216.304543,97.1541056 L216.304543,97.1541056 Z" id="Path" fill="#FFFFFF" fill-rule="nonzero"></path>
                    <path d="M248.147489,132.658036 L248.147489,127.738587 C247.57546,110.787463 235.33404,97.1541056 218.211307,97.1541056 L216.304543,97.1541056 C214.752614,97.1631864 213.203639,97.2906741 211.671109,97.5354583 C211.442297,98.3553664 200.039853,133.59235 248.147489,132.658036 Z" id="Path" fill="#1B0E1C" fill-rule="nonzero"></path>
                    <path d="M186.387429,128.920781 L186.387429,131.323302 C212.643558,125.030984 211.709244,98.221893 211.671109,97.4782554 C196.664882,99.7663712 186.387429,113.018375 186.387429,128.920781 Z" id="Path" fill="#1B0E1C" fill-rule="nonzero"></path>
                    <ellipse id="Oval" fill="#D1D3DF" fill-rule="nonzero" cx="250.435605" cy="138.473664" rx="9.40034259" ry="12.8134487"></ellipse>
                    <path d="M186.387429,132.715239 C185.434047,130.808476 184.194651,129.702553 182.821782,129.702553 C179.866299,129.702553 177.463777,135.022423 177.463777,141.581688 C177.463777,148.140954 179.866299,153.460823 182.821782,153.460823 C184.194651,153.460823 185.434047,152.316765 186.387429,150.467205 L186.387429,132.715239 Z" id="Path" fill="#D1D3DF" fill-rule="nonzero"></path>
                    <path d="M255.030904,132.028805 C255.030904,132.028805 268.027619,78.8044637 210.33377,84.1524528 C191.106465,85.8927329 177.501912,100.967632 181.963738,141.581688" id="Path" stroke="#1B0E1C" stroke-width="1.155"></path>
                    <circle id="Oval" fill="#010101" fill-rule="nonzero" cx="215.484635" cy="139.141031" r="2.9173477"></circle>
                    <circle id="Oval" fill="#010101" fill-rule="nonzero" cx="198.686051" cy="140.227886" r="2.9173477"></circle>
                    <path d="M202.061022,133.573283 C200.863102,133.040896 199.524236,132.913704 198.247496,133.210998 C196.898583,133.529134 195.680294,134.254782 194.758119,135.28937 C195.90093,133.270254 197.943678,131.922607 200.249597,131.66652 C201.064011,131.573249 201.888136,131.61188 202.690254,131.780925 C203.030865,131.852454 203.307442,132.100262 203.415802,132.431003 C203.524162,132.761745 203.447842,133.125172 203.215592,133.384385 C202.983341,133.643598 202.630444,133.759217 202.289834,133.687689 C202.220182,133.696266 202.149741,133.696266 202.08009,133.687689 L202.061022,133.573283 Z" id="Path" fill="#010101" fill-rule="nonzero"></path>
                    <path d="M211.346959,131.475843 C211.973734,131.332444 212.611665,131.243133 213.253722,131.208896 C213.888256,131.157137 214.525951,131.157137 215.160485,131.208896 C216.35827,131.29836 217.513381,131.692147 218.516389,132.352954 C217.438599,132.005724 216.289881,131.940083 215.179553,132.162278 C214.642674,132.264131 214.113782,132.40432 213.59694,132.581766 C213.100883,132.767523 212.616896,132.984043 212.1478,133.230065 C211.689711,133.493334 211.104936,133.335402 210.841667,132.877314 C210.578398,132.419226 210.73633,131.83445 211.194418,131.571181 C211.241107,131.533189 211.292349,131.501163 211.346959,131.475843 L211.346959,131.475843 Z" id="Path" fill="#010101" fill-rule="nonzero"></path>
                    <path d="M203.166945,165.053943 C204.08142,166.213773 205.334298,167.060132 206.75166,167.475533 C208.285638,167.924563 209.897691,168.041567 211.480432,167.81875 C212.295216,167.726943 213.103833,167.586867 213.902022,167.399262 C214.702862,167.17045 215.503703,166.960706 216.285476,166.674692 C217.067249,166.388677 217.849022,166.083595 218.592659,165.740378 L220.861707,164.653523 L218.707065,165.950122 C217.982495,166.36961 217.21979,166.731895 216.457084,167.113248 C215.694379,167.4946 214.893539,167.780615 214.111766,168.085697 C213.299855,168.363492 212.472126,168.592709 211.632974,168.772131 C209.910344,169.134799 208.131071,169.134799 206.408442,168.772131 C204.542596,168.423167 202.845629,167.464012 201.584331,166.04546 C201.248639,165.637959 201.29942,165.037046 201.698737,164.691658 C201.887,164.524227 202.134903,164.439924 202.386208,164.457874 C202.637513,164.475824 202.870917,164.594506 203.033471,164.786996 L203.033471,164.786996 L203.166945,165.053943 Z" id="Path" fill="#010101" fill-rule="nonzero"></path>
                    <path d="M315.553715,460.147577 L315.646906,339.141424 C333.837427,338.6838 351.112702,331.647844 359.17831,309.853541 C366.077127,291.233566 362.667959,268.735921 351.055499,246.16765 C330.999284,207.189338 283.451885,174.124793 237.8319,176.608928 C237.8319,176.608928 237.43148,211.712439 215.675311,213.981487 C215.675311,213.981487 188.980627,201.434985 197.332249,177.16189 C197.332249,177.16189 159.349526,176.418252 116.48549,217.909419 C64.0876369,268.667456 53.562304,322.686057 80.8862207,334.698665 C94.4814423,340.685902 114.025765,336.185941 131.682392,330.274975 L131.682392,477.10754 L315.553715,460.147577 Z M131.682392,297.173566 C123.254499,295.495614 116.428287,293.360039 115.150755,291.01472 C113.911359,289.107957 131.682392,291.224464 131.682392,291.224464 L131.682392,297.173566 Z M310.307969,289.050754 C310.307969,289.050754 320.871437,284.703334 322.110833,287.811358 C322.511254,288.802875 318.35451,293.093092 311.223216,297.688392 L310.307969,289.050754 Z" id="Combined-Shape" fill="#FCDF9F" fill-rule="nonzero"></path>
                    <path d="M182.821782,153.460823 C182.821782,155.517167 176.638459,159.362974 174.017428,162.894193 C168.485498,170.347158 169.129304,174.246374 177.463777,180.574996 C192.279327,191.824899 196.378868,198.040947 195.768704,208.814159 C195.158539,219.587371 207.87665,239.093558 238.594605,236.576631 C269.31256,234.059704 269.31256,163.662006 325.218857,191.824899" id="Path" stroke="#1B0E1C" stroke-width="1.155"></path>
                    <path d="M217.049562,319.086118 C228.792966,321.41815 238.072683,323.321818 244.888713,324.79712 C255.112757,327.010073 285.125035,348.406493 310.307969,347.238524 L316.222663,347.238524 L316.222663,339.155868 L275.483766,321.521792 L226.482007,312.981897 L217.049562,319.086118 Z" id="Path-7" fill="#1B0E1C" fill-rule="nonzero"></path>
                    <path d="M131.654709,316.986118 C143.398113,319.31815 152.67783,321.221818 159.493859,322.69712 C165.261957,323.945601 177.328403,331.299941 191.272663,337.263552 L191.272663,319.337254 L141.087153,310.881897 L131.654709,316.986118 Z" id="Path-7-Copy" fill="#1B0E1C" fill-rule="nonzero" transform="translate(161.463686, 324.072724) scale(-1, 1) translate(-161.463686, -324.072724) "></path>
                    <g id="playstation-arm" transform="translate(182.097309, 294.974317)">
                        <path d="M24.2729982,28.3409721 C24.2729982,28.3409721 11.4214142,43.5950777 26.9615343,48.6289326 C42.5016544,53.6627874 50.9676831,64.1690527 51.749456,84.4570131 C52.5312289,104.744974 54.85748,140.992542 109.314637,142.231938 C125.951159,141.906596 135.729032,139.145117 138.648256,133.947502 C141.567481,128.749886 139.833788,123.752879 133.447177,118.95648" id="Path" stroke="#1B0E1C" stroke-width="1.155"></path>
                        <path d="M31.1564134,0.483161716 C28.0031429,0.337231168 24.9534308,1.62722432 22.8619935,3.99160601 C21.311196,5.66455063 18.7048558,5.78340654 17.0082304,4.25855286 C14.578486,1.77377892 11.2353785,0.395177899 7.76042889,0.445026452 C0.343120037,0.978920149 -1.98313107,14.1165186 2.15454508,21.5147598 C6.29222123,28.9130011 14.8917233,32.2879719 19.4488873,32.0210251 C24.0060514,32.2879719 32.6055534,28.9320687 36.7432296,21.5147598 C40.8809057,14.097451 38.5546546,1.01705541 31.1564134,0.483161716 Z" id="Path" fill="#1B0E1C" fill-rule="nonzero"></path>
                    </g>
                    <path d="M87.2505272,251.125384 C58.1507355,288.340952 58.1507355,324.650932 77.8179712,335.343173 C83.0555946,324.14143 86.1997799,313.849804 87.2505272,304.468294 C88.2959035,295.13474 88.2959035,277.353769 87.2505272,251.125384 Z" id="Path" fill="#EAEEF0" fill-rule="nonzero"></path>
                    <path d="M87.140404,252.593442 C61.2465597,291.110059 59.7783521,325.431796 80.8862207,334.698665 C108.210137,346.711274 159.55927,316.489077 171.152391,317.308985 C182.745511,318.128893 195.940312,319.215748 194.967863,310.063285 C193.995414,300.910821 173.650251,303.427749 173.650251,303.427749 C173.650251,303.427749 187.493351,302.989193 186.997593,300.529469 C186.177685,296.391793 174.984985,303.027329 165.775318,301.978609 C156.565652,300.929889 118.106238,297.021024 115.150755,291.01472 C114.578727,290.118542 117.93463,290.080406 121.748156,290.309218" id="Path-Copy-2" fill="#FFFFFF" fill-rule="nonzero"></path>
                    <path d="M310.307969,289.050754 C310.307969,289.050754 320.871437,284.703334 322.110833,287.811358 C323.35023,290.919382 281.420507,325.069511 242.026779,304.266725 C237.069195,299.919305 230.948485,295.876967 223.493041,301.063362 C221.948562,302.302759 229.61375,302.398097 231.120093,301.978609 C232.626436,301.559121 233.80863,304.362063 222.005765,303.751899 C210.202901,303.141734 201.832211,317.099241 221.910427,319.597101 C241.988644,322.094961 245.00133,320.321671 256.689788,325.069511 C268.378246,329.817352 339.939069,361.831906 359.197378,309.815406 C366.157063,291.01472 362.248199,267.866615 351.055499,246.16765" id="Path" fill="#FFFFFF" fill-rule="nonzero"></path>
                    <path d="M250.750446,151.287113 C250.778493,159.959014 257.688869,172.86796 272.85914,176.494522 C295.511487,181.90973 312.443544,174.854706 325.27606,191.748628 C338.108577,208.64255 338.108577,217.720273 337.764808,225.712977" id="Path" stroke="#1B0E1C" stroke-width="1.155"></path>
                    <circle id="Oval" fill="#331D34" fill-rule="nonzero" cx="143.1675" cy="138.228316" r="14.304602"></circle>
                    <circle id="Oval" fill="#EAEEF0" fill-rule="nonzero" cx="161.624968" cy="214.192189" r="13.8005335"></circle>
                    <circle id="Oval" fill="#F48D65" fill-rule="nonzero" cx="181.355535" cy="265.592667" r="5.93003356"></circle>
                    <g id="xbox-card" transform="translate(0.472500, 0.298094)" fill-rule="nonzero">
                        <path d="M4.86965267,3.66856708 L47.2704332,3.66856708 C48.546211,3.66856708 49.5804332,4.70278931 49.5804332,5.97856708 L49.5804332,33.0871068 C49.5804332,34.3628845 48.546211,35.3971068 47.2704332,35.3971068 L4.86965267,35.3971068 C3.5938749,35.3971068 2.55965267,34.3628845 2.55965267,33.0871068 L2.55965267,5.97856708 C2.55965267,4.70278931 3.5938749,3.66856708 4.86965267,3.66856708 Z" id="Rectangle" fill="#FFFFFF" transform="translate(26.070043, 19.532837) rotate(8.560000) translate(-26.070043, -19.532837) "></path>
                        <g id="Page-1" transform="translate(16.602342, 10.210215)" fill="#808384">
                            <g id="dsdsd">
                                <g id="g4146">
                                    <path d="M7.26104959,18.7332988 C5.84784743,18.3797625 4.53923825,17.6945459 3.44365593,16.7344273 C2.51185118,15.9228555 2.31647276,15.6222733 2.3916183,15.0812254 C2.5569385,13.9841004 4.02979117,12.2256947 6.38936127,10.3320269 C7.40970899,9.4499716 8.53545512,8.69779145 9.74085256,8.09268972 C11.0690716,9.47483849 12.2571583,10.9851183 13.2877223,12.6014224 C14.625313,14.8257305 15.1513318,16.554078 14.6553712,17.2303879 C13.578499,18.0311662 12.3173919,18.5480133 10.9882686,18.7332988 C9.75668738,18.9652402 8.49263081,18.9652402 7.26104959,18.7332988 L7.26104959,18.7332988 Z M1.24940603,13.7436347 C0.576834041,12.2926353 0.282144623,10.6951084 0.39274682,9.09964002 C0.431194957,8.34820876 0.588444772,7.60761285 0.858649196,6.90539012 C1.39917121,5.27977336 2.3766939,3.83428769 3.68412167,2.72729784 C4.21014048,2.3215119 4.25522781,2.3215119 4.78124662,2.57700676 C5.63348543,3.1289507 6.37302193,3.83788569 6.96046741,4.66605289 L7.53157355,5.3573919 L7.1107585,5.73311962 C5.16810821,7.53287669 3.48841469,9.59707835 2.12109434,11.8649961 C1.68263766,12.5464942 1.44799454,13.3390666 1.44478444,14.1494206 C1.5349591,14.4349737 1.45981355,14.3297699 1.18928959,13.7436347 L1.24940603,13.7436347 Z M15.9779328,16.0581174 C16.1160224,15.414176 16.1160224,14.7482747 15.9779328,14.1043333 C15.326154,11.5303191 14.314227,9.06121716 12.972111,6.77012814 L12.5512959,6.04873091 L13.1825185,5.61288675 C13.8101177,5.15961267 14.4794247,4.76708674 15.18139,4.44061626 C15.6157938,4.24179926 16.0864205,4.1343736 16.564068,4.12500497 C17.0231485,4.5374261 17.3784433,5.05234615 17.6010765,5.62791586 C18.1869299,6.78972043 18.5344096,8.05699935 18.6230559,9.35513487 C18.6400603,10.5131872 18.4881725,11.6675344 18.1721827,12.7817717 C17.9179616,13.5023633 17.5853248,14.1928366 17.1802615,14.8407596 C16.8464938,15.3757493 16.46414,15.8788464 16.0380492,16.3436705 C15.9027872,16.4789325 15.9027872,16.4789325 16.0380492,16.1783503 L15.9779328,16.0581174 Z M9.62061969,2.83250161 C8.85761209,2.31099459 8.03524667,1.88215372 7.17087494,1.55502735 C6.89059134,1.47545526 6.60398145,1.42014458 6.31421573,1.38970715 C5.77316781,1.38970715 5.80322603,1.38970715 6.72000167,1.02900854 C7.43616947,0.800323026 8.17859175,0.66395975 8.92928068,0.623222598 C10.1205501,0.599087422 11.3079579,0.766542369 12.4460922,1.11918319 C13.375052,1.44816272 14.247156,1.91970735 15.0310989,2.51689032 L15.2114482,2.66718141 L14.775604,2.57700676 C13.5473755,2.45831735 12.3082858,2.62284379 11.1535888,3.05793824 C10.8812419,3.16441235 10.5994471,3.24492513 10.3119587,3.29840398 C10.0831455,3.15536126 9.86238428,2.99982492 9.6506779,2.83250161 L9.62061969,2.83250161 Z" id="path4148"></path>
                                </g>
                            </g>
                        </g>
                    </g>
                    <g id="ps-card" transform="translate(45.517500, 19.933094)" fill-rule="nonzero">
                        <path d="M12.2066051,18.2192679 L85.7801475,18.2192679 C87.6938142,18.2192679 89.2451475,19.7706012 89.2451475,21.6842679 L89.2451475,69.0779515 C89.2451475,70.9916182 87.6938142,72.5429515 85.7801475,72.5429515 L12.2066051,72.5429515 C10.2929385,72.5429515 8.74160514,70.9916182 8.74160514,69.0779515 L8.74160514,21.6842679 C8.74160514,19.7706012 10.2929385,18.2192679 12.2066051,18.2192679 Z" id="Rectangle" fill="#FFFFFF" transform="translate(48.993376, 45.381110) rotate(32.120000) translate(-48.993376, -45.381110) "></path>
                        <path d="M64.6232799,66.1289805 C63.3424176,66.4040962 62.0177359,66.4040962 60.7368736,66.1289805 L42.7298578,62.1870541 L45.1727417,58.2821411 L58.4050298,61.2247058 C59.9225789,61.5578264 60.4962865,61.0581456 59.7004986,60.0957974 C58.5547966,58.9522406 57.1127128,58.151083 55.5364918,57.7824603 L46.7458109,55.783737 L49.2812284,51.7492772 L49.7809092,51.8788241 C51.7435362,52.364244 53.6483218,53.0591495 55.4624651,53.9515741 C58.8172661,55.6116369 61.7625616,57.994419 64.0865857,60.9285987 C66.6405098,63.8711635 66.0853089,65.5737796 64.6232799,66.1289805 Z M52.7049673,49.4729535 L58.9602307,39.5163507 C59.7004986,38.3504288 60.1446593,37.1474935 59.2563379,36.1481319 C58.3680164,35.1487703 57.5722285,35.7965047 56.8319606,36.9624266 L41.1567886,61.9094536 L35.7713398,55.54315 L54.4631034,25.8213952 C57.1795006,28.4499328 59.7379004,31.2369818 62.1248758,34.1679154 C66.6034964,39.7199244 66.9921371,43.4212637 63.5498915,48.8437258 C60.1076459,54.2661879 55.6290253,54.0070942 52.7049673,49.3434066 L52.7049673,49.4729535 Z M25.0744692,45.1793999 C22.4095049,42.2183284 23.0572393,39.9605114 25.2410295,39.7939512 C26.8677039,39.7597435 28.4917868,39.9401971 30.0712773,40.3306454 L41.860043,42.9585963 L39.3986524,46.882016 L30.9040786,45.0313463 C29.4050362,44.6982258 28.8313286,45.2164133 29.6086099,46.1602548 C30.750848,47.3121534 32.1936286,48.1201106 33.7726166,48.4920986 L37.8625966,49.3619133 L35.6602997,52.859679 L34.9200318,52.5635718 C31.0907947,50.9233809 27.7134985,48.3840604 25.0744692,45.1608932 L25.0744692,45.1793999 Z" id="path-1" fill="#331D34"></path>
                    </g>
                </g>
            </g>
        </g>
    </g>
</svg>