<?xml version="1.0" encoding="UTF-8"?>
<svg width="37px" height="57px" viewBox="0 0 37 57" version="1.1" xmlns="http://www.w3.org/2000/svg" xmlns:xlink="http://www.w3.org/1999/xlink">
    <!-- Generator: Sketch 56.2 (81672) - https://sketch.com -->
    <title>Combined Shape</title>
    <desc>Created with Sketch.</desc>
    <g id="Desktop-Ar" stroke="none" stroke-width="1" fill="none" fill-rule="evenodd">
        <g id="confirm-email" transform="translate(-892.000000, -578.000000)" fill="#817682" fill-rule="nonzero">
            <g id="Group-4" transform="translate(455.500000, 549.000000)">
                <path d="M470.162727,29.5 C471.569091,29.5 472.708182,30.6390909 472.708182,32.0454545 L472.708182,37.1363636 L472.708182,77.8636364 L472.708182,82.9545455 C472.708182,84.3609091 471.569091,85.5 470.162727,85.5 L439.617273,85.5 C438.210909,85.5 437.071818,84.3609091 437.071818,82.9545455 L437.071818,77.8636364 L437.071818,37.1363636 L437.071818,32.0454545 C437.071818,30.6390909 438.210909,29.5 439.617273,29.5 L470.162727,29.5 Z M454.89,82.1867513 C455.76278,82.1867513 456.470308,81.4792232 456.470308,80.6064431 C456.470308,79.7336629 455.76278,79.0261348 454.89,79.0261348 C454.01722,79.0261348 453.309692,79.7336629 453.309692,80.6064431 C453.309692,81.4792232 454.01722,82.1867513 454.89,82.1867513 Z M441.79,32.8132487 C441.292944,32.8132487 440.89,33.2161924 440.89,33.7132487 L440.89,76.1584847 C440.89,76.655541 441.292944,77.0584847 441.79,77.0584847 L467.99,77.0584847 C468.487056,77.0584847 468.89,76.655541 468.89,76.1584847 L468.89,33.7132487 C468.89,33.2161924 468.487056,32.8132487 467.99,32.8132487 L441.79,32.8132487 Z" id="Combined-Shape"></path>
            </g>
        </g>
    </g>
</svg>