<svg xmlns="http://www.w3.org/2000/svg" width="65" height="39" viewBox="0 0 65 39"><g><g><g><g><path fill="#3d9635" d="M0 .23h60.472a4 4 0 0 1 4 4v30a4 4 0 0 1-4 4H0z"/></g><g><path fill="#fff" d="M18.31 10.253c-.065.876-.144 2.42.604 2.578.902.087.404-1.525.731-1.817.062-.145.175-.145.184.036v1.37c-.007.443.285.573.514.665.236-.02.394-.009.487.22l.11 2.364s.55.158.576-1.329c.027-.874-.174-1.605-.056-1.774.004-.168.217-.179.365-.096.237.167.342.371.709.29.559-.155.893-.424.903-.853-.034-.405-.08-.812-.255-1.22.024-.072-.108-.264-.083-.338.1.157.252.142.287 0-.094-.314-.242-.612-.481-.742-.199-.173-.488-.137-.595.226-.046.415.152.912.457 1.315.065.158.156.42.115.657-.162.092-.324.053-.458-.09 0 0-.446-.332-.446-.405.119-.754.027-.84-.04-1.049-.045-.288-.184-.381-.292-.577-.112-.118-.263-.118-.334 0-.196.34-.104 1.068.037 1.394.102.3.258.49.185.49-.062.171-.188.13-.278-.066-.132-.405-.157-1.008-.157-1.279-.04-.339-.084-1.058-.306-1.24-.135-.184-.337-.097-.408.074-.013.332-.015.67.023.976.153.542.2 1.017.274 1.572.021.742-.43.322-.409-.047.103-.476.075-1.228-.017-1.42-.072-.19-.158-.237-.338-.205-.14-.01-.505.386-.606 1.045 0 0-.088.337-.124.637-.05.341-.274.58-.432-.046-.137-.457-.22-1.579-.447-1.316"/></g><g><path fill="#fff" d="M20.762 13.85c-.796.387-1.568.75-2.352 1.127.03-.533 1.118-1.492 1.862-1.507.483.015.36.188.49.38"/></g><g><path fill="#fff" d="M22.647 13.813c.08-.01.173.02.22.136a.24.24 0 0 1-.043.24v.001c0 .002-.002.005-.003.005-.031.042-.14.025-.218.025-.094-.004-.14-.021-.195-.098-.029-.085.053-.168.09-.232h.002l.016-.022a.25.25 0 0 1 .13-.055m1.117-4.921c-.045.004-.094.032-.152.044-.192.06-.372.224-.316.549.227 1.375.376 2.424.602 3.8.036.161-.1.375-.275.353-.297-.2-.37-.607-.877-.588-.366.004-.785.4-.839.784-.06.305-.082.636 0 .9.258.31.57.28.84.21.222-.092.406-.314.484-.261h.001v.002c.049.086-.006.802-1.049 1.354-.642.288-1.152.356-1.427-.166-.17-.329.014-1.57-.405-1.284-1.24 3.188 2.902 3.631 3.364.13.03-.098.123-.196.187-.172.03.012.054.05.063.121-.097 3.17-3.203 3.386-3.732 2.39-.132-.234-.17-.757-.183-1.07-.025-.19-.073-.3-.127-.343-.126-.094-.295.15-.332.58-.053.343-.038.439-.038.77.165 2.504 4.167 1.426 4.817-.64.321-1.07-.006-1.879.102-1.979h.005c0-.002.002-.002.005-.004h.004l.01-.004c.403.428.957.055 1.08-.092.054-.075.184-.122.276-.026.309.222.852.118.966-.275a8.79 8.79 0 0 0 .132-1.186c-.202.062-.363.107-.43.178a.105.105 0 0 0-.03.057l-.05.339a.09.09 0 0 1-.01.026.108.108 0 0 1-.04.036c-.07.039-.193.015-.2-.088-.097-.434-.492-.494-.732.182-.162.132-.456.155-.487-.038.04-.455-.143-.514-.509-.301-.117-.898-.235-1.755-.353-2.65.152-.005.291.108.431-.066-.15-.47-.469-1.425-.65-1.515h-.004a.172.172 0 0 0-.025-.027c-.003-.005-.01-.007-.012-.009l-.013-.009-.022-.008c-.016-.004-.033-.008-.05-.004"/></g><g><path fill="#fff" d="M26.498 9.235c.073-.006.159.061.203.157.045.101.023.199-.051.219-.076.017-.171-.05-.218-.153-.046-.103-.022-.2.052-.218.005-.003.01-.005.014-.005m.047-.414a.656.656 0 0 0-.28.077c-.204.196-.254.51-.092.706.157.072.314.232.21.317-.445.474-1.603 1.267-1.662 1.412l-.001.004v.007l.001.004.003.002h.003l.002.004s.002-.002.003 0c.06.04.784.04.864.005l.002-.005h.003c.25-.094 1.43-1.439 1.43-1.439-.061-.053-.118-.09-.18-.143-.064-.055-.058-.11 0-.168.293-.17.2-.544.047-.715a.754.754 0 0 0-.353-.068"/></g><g><path fill="#fff" d="M18.487 16.109c-.443.703-.482 1.753-.238 2.066.13.147.343.213.5.167.28-.122.4-.683.334-.888-.092-.145-.165-.168-.258-.044-.195.394-.277.123-.293-.099-.03-.42.008-.803.054-1.11.048-.314 0-.218-.1-.092"/></g><g><path fill="#fff" d="M37.374 14.982c-.428-.917-1.019-1.825-1.207-2.173-.19-.35-1.61-2.405-1.82-2.64-.461-.545.751.228-.153-.857-.345-.294-.364-.313-.65-.552-.143-.103-.496-.288-.558.019-.032.273-.014.422.032.648.034.152.255.405.365.553 1.441 1.931 2.72 3.882 3.952 6.34.196-.093.153-1.185.04-1.338"/></g><g><path fill="#fff" d="M35.505 18.058c-.085.094.207.497.585.495.635-.072 1.193-.427 1.708-1.363.14-.217.383-.684.388-1.044.048-2.122-.106-3.77-.424-5.301-.022-.152-.007-.327.017-.371.04-.05.18 0 .254-.122.108-.109-.287-1.024-.512-1.375-.082-.158-.109-.263-.242.019-.14.228-.233.627-.222.998.303 2.087.395 3.913.594 6 .015.203-.014.495-.148.614-.5.519-1.217 1.156-1.998 1.45"/></g><g><path fill="#fff" d="M44.064 18.043c-.456.262-.456.565-.087.575.632-.074 1.381-.125 1.898-.904.137-.217.302-.808.308-1.168.05-2.12-.026-4.194-.346-5.725-.02-.15-.086-.493-.06-.54.04-.102.246.013.32-.109.11-.108-.534-.934-.76-1.285-.08-.158-.107-.263-.24.019-.14.226-.187.635-.132.998.334 2.266.586 4.458.637 6.469-.028.192-.036.294-.125.533-.199.254-.418.571-.625.725-.206.151-.646.299-.788.412"/></g><g><path fill="#fff" d="M44.406 16.013c-.006-.529.007-.987-.01-1.383-.02-.393-.2-1.88-.26-2.199-.061-.32-.122-.8-.213-1.181-.026-.147-.103-.623-.08-.67.04-.106.18.005.25-.12.106-.112-.36-1.32-.599-1.663-.084-.155-.24-.102-.43.15-.178.164-.111.54-.043.9.453 2.367.793 4.846.718 7.1-.022.192.67-.571.667-.934"/></g><g><path fill="#fff" d="M41.042 13.08c-.286-.006-.884-.557-1.06-.879a.6.6 0 0 1 .036-.47c.106-.067.269-.146.39-.071 0 0 .126.175.103.198.154.075.222.032.238-.032.01-.11-.048-.177-.048-.298.066-.331.446-.382.59-.173.104.13.143.403.159.588-.004.094-.156-.017-.243.004-.087.026-.109.124-.115.216-.016.24-.045.625-.05.917"/></g><g><path fill="#fff" d="M35.766 16.598c.079-.721-.028-2.19-.036-2.617-.028-1.002-.193-2.942-.27-3.266-.09-.61.25.066.203-.29-.11-.608-.448-1.022-.847-1.58-.13-.182-.124-.22-.323.045-.219.497-.03.837.026 1.226.288 1.26.456 2.42.535 3.567.077 1.147.101 2.573.03 3.783.215.008.562-.348.682-.868"/></g><g><path fill="#fff" d="M45.369 15.443c-.504-.845-1.265-1.834-1.468-2.173-.204-.34-1.923-2.855-2.143-3.08-.627-.656.29-.106-.119-.615-.346-.378-.447-.497-.744-.726-.147-.093-.237-.276-.286.034-.02.274-.04.591-.022.822 0 .127.133.366.249.51 1.523 1.87 3.188 4.155 4.527 6.554.19-.1.126-1.177.006-1.326"/></g><g><path fill="#fff" d="M39.584 27.099s.003.003.005 0c.686.036 1.331.01 2.019.043.11.098.054.319-.016.36a.027.027 0 0 1-.013.003h-.018c-.224-.006-.353-.01-.576-.018 0-.01-.003-.022-.005-.032-.053-.166-.436-.155-.528-.026 0 .003-.002.005-.004.007l-.004.01-.005.013c-.002.004-.002.013-.002.018-.002.006-.002.013-.002.018-.301.037-.572-.01-.877-.023-.087-.114-.076-.321.026-.373m-.318-1.689l-.002.002c-.447.115-.433.578-.145.78-4.711 0-11.938-.08-13.486-.08-.867 0-3.61-.103-3.663-.103.588.857 1.44 1.032 2.554 1.05 2.093 0 11.784-.026 14.541-.026-.194.347.02.905.173 1.008.004.002.008.007.01.009l.02.006h.004c.186.043.265-.09.327-.185.296.025 1.962.05 2.116-.003l.003-.002c.103.152.207.295.401.269.344-.073.616-.109.625-.806 0 0-.035-1.186-.817-1.11-.184.025-.702.078-.702.078-.6-.07-1.04-.079-1.714-.104.062-.08.171-.397.037-.514a.22.22 0 0 0-.16-.038h-.008v-.003s-.007 0-.01-.002a.09.09 0 0 0-.01-.013l-.006-.004c-.032-.05-.052-.17-.073-.203h-.003l-.001-.004-.007-.002h-.004"/></g><g><path fill="#fff" d="M27.346 9.538c-.458 1.309.264 2.742.765 2.603.36.147.59-.537.739-1.29.101-.209.177-.232.229-.124-.012 1 .072 1.22.33 1.523.574.441 1.05.057 1.085.021l.448-.448c.099-.104.232-.11.374-.019.135.124.116.34.407.486.247.1.772.024.896-.188.162-.28.203-.375.278-.484.117-.155.316-.085.316-.036-.017.088-.134.173-.055.33.138.105.173.037.254.014.29-.14.51-.77.51-.77.011-.237-.119-.218-.206-.169-.11.068-.118.09-.23.16-.142.02-.418.113-.555-.098-.14-.254-.141-.608-.247-.861 0-.02-.187-.403-.014-.429.086.015.272.066.302-.09.092-.153-.196-.584-.391-.799-.17-.188-.407-.209-.633-.02-.16.148-.137.31-.169.465a.719.719 0 0 0 .15.632c.16.313.448.716.353 1.282 0 0-.17.268-.464.234-.122-.028-.323-.08-.43-.866-.08-.595.02-1.426-.233-1.817-.092-.234-.159-.462-.38-.06-.062.158-.317.4-.131.894.152.312.214.821.145 1.388-.105.16-.13.216-.267.378-.194.206-.406.153-.566.076-.152-.102-.27-.153-.34-.475.013-.516.04-1.356-.053-1.536-.137-.277-.368-.176-.464-.094-.472.43-.703 1.152-.845 1.728-.131.42-.27.3-.367.132-.237-.221-.252-1.957-.54-1.673"/></g><g><path fill="#fff" d="M30.325 15.483c.009-.002.017 0 .025 0h.005c.3.082.74.088 1.124.127.312.021.467.266.176.369-.29.099-.565.176-.566.595.037.208.03.317-.004.367 0 .004-.007.008-.01.013v.002l-.003.002c0 .002-.003.002-.003.002l-.002.002c-.002.003-.004.003-.004.003-.005.004-.011.006-.015.008s-.01.002-.01.002c-.072.011-.172-.057-.247-.094-.177-.131-.676-.438-.747-1.106-.012-.15.1-.281.281-.292m2.501-2.264a.374.374 0 0 1 .214.055c.11.062.175.154.168.222v.008s-.002.007-.005.007v.006a.022.022 0 0 1-.004.004v.007c-.006.004-.011.01-.017.017-.053.047-.173.04-.287-.024-.108-.064-.176-.155-.17-.223l.003-.007a.071.071 0 0 1 .009-.024.025.025 0 0 0 .005-.01h.003a.02.02 0 0 1 .012-.013.129.129 0 0 1 .07-.025m-3.932-.979l-.011.006c-.002 0-.006.004-.006.004-.03.022-.068.073-.147.13-.135.154-.159.26-.15.566.007.032.254.72.464 1.202.141.503.274 1.08.177 1.623-.33.717-.998 1.36-1.641 1.712-.328.102-.61.068-.685-.004l-.001-.002a.424.424 0 0 1-.184-.388v-.005h.003c.542-.38 1.164-.684 1.649-1.701.143-.388.188-.623.045-1.226-.056-.222-.127-.407-.28-.565 0 0 .003-.002.003-.005.093-.042.331.135.369.022-.058-.286-.25-.672-.473-.87-.192-.175-.402-.194-.579-.034-.2.11-.243.507-.147.857.106.26.395.305.6.834v.002c.004.032.068.394-.034.541-.083.26-1.16 1.107-1.237 1.158 0 0-.005.002-.005.004 0 0 0 .003-.002.005h-.002l-.002.004h-.005l-.002-.004h-.002a.036.036 0 0 0-.001-.007c-.003-.02.003-.077 0-.164-.008-.158.058-.516.051-.578v-.008h-.004c-.356.23-.472.932-.538 1.14-.9.621-1.923 1.086-2.511 1.713-.308.48 2.114-.548 2.395-.672.003 0 .005.004.007.007.054.06.058.262.219.448.25.338.786.55 1.304.42.873-.316 1.378-.909 1.89-1.568.073-.106.188-.188.294-.106.351.786 1.365 1.343 2.677 1.4.305-.366.16-.548.036-.624-.038-.026-.65-.265-.747-.501-.06-.222.083-.418.378-.565.841-.103 1.67-.218 2.471-.474.007-.269.166-.67.272-.844.075-.122.123-.134.14-.152 0 0 .003 0 .003-.002l.002-.002c0-.002.002-.002.002-.002v-.004c0-.007 0-.013-.002-.022l-.137-.08-2.687-.013a.284.284 0 0 1-.074-.037c0-.002-.005-.004-.005-.004l-.002-.004h-.003l-.001-.007-.004-.002v-.002l-.003-.002v-.02l.003-.001.001-.005a.207.207 0 0 1 .088-.05c.642-.088 1.781-.274 1.857-1.368-.012-.57-.245-.942-.946-1.046-.515.04-.881.539-.823 1.085-.023.147.05.434-.1.469-.988.09-2.066.706-2.102 1.15h-.004s-.006.001-.006.003h-.005c-.002 0-.005.003-.005.003h-.017l-.01-.003c-.062-.019-.145-.123-.132-.272a5.244 5.244 0 0 0-.677-2.293c-.14-.138-.2-.194-.24-.2h-.019"/></g><g><path fill="#fff" d="M21.696 9.55c.31.147.892.085.867-.414 0-.043-.011-.194-.016-.233-.062-.147-.235-.11-.275.041-.012.051.022.13-.022.156-.026.025-.126.01-.122-.126 0-.045-.03-.092-.051-.12-.02-.012-.032-.016-.069-.016-.04.002-.04.012-.064.049-.01.036-.024.072-.024.115-.006.049-.025.066-.061.074-.038 0-.03.005-.063-.017-.02-.021-.044-.03-.044-.066a.393.393 0 0 0-.02-.124c-.016-.02-.044-.031-.076-.04-.17 0-.18.194-.171.266-.012.013-.02.36.211.455"/></g><g><path fill="#fff" d="M30.765 13.38c.311.146 1.046.062.868-.413 0-.045-.012-.194-.016-.235-.062-.144-.235-.11-.275.043-.011.049.023.128-.022.156-.026.025-.126.008-.122-.128 0-.045-.032-.09-.051-.12-.02-.012-.032-.017-.068-.017-.043.002-.043.015-.065.052-.01.036-.024.072-.024.112-.007.05-.025.069-.061.073-.038 0-.03.006-.064-.015-.02-.021-.043-.03-.043-.066a.37.37 0 0 0-.02-.122c-.016-.023-.044-.034-.076-.04-.169 0-.18.192-.171.264-.012.015-.02.358.21.457"/></g><g><path fill="#fff" d="M36.056 11.79c.309.147.89.085.867-.414 0-.045-.011-.192-.015-.232-.064-.148-.238-.111-.275.04-.012.049.021.13-.024.156-.026.026-.124.01-.12-.128 0-.043-.033-.09-.053-.117-.018-.013-.031-.017-.067-.017-.043.002-.041.012-.066.048-.009.039-.024.075-.024.116-.005.049-.023.066-.06.072-.04 0-.032.006-.063-.015-.02-.021-.043-.03-.043-.066a.431.431 0 0 0-.02-.124.15.15 0 0 0-.077-.04c-.168.002-.181.194-.17.266-.014.015-.02.359.21.455"/></g><g><path fill="#fff" d="M38.787 15.779c-.538.606-.3 1.61-.178 1.828.176.351.322.58.666.754.315.235.56.09.696-.074.317-.329.321-1.165.47-1.33.105-.304.369-.252.495-.118.124.177.27.292.45.388.297.26.65.307.998.07.238-.132.393-.304.53-.644.157-.415.072-2.66.04-3.79-.013-.09-.309-1.555-.309-1.57 0-.017-.038-.748-.07-.923-.006-.07-.023-.092.052-.083.078.068.088.072.137.093.08.015.15-.121.103-.245-.245-.454-.493-.906-.738-1.358-.059-.06-.135-.122-.229.017a.534.534 0 0 0-.184.403c.024.322.079.65.101.972l.297 1.65c.091 1.18.115 2.257.208 3.436-.014.497-.168 1.16-.315 1.222 0 0-.22.13-.37-.013-.11-.043-.542-.719-.542-.719-.221-.205-.368-.145-.525 0-.435.418-.63 1.2-.925 1.742-.077.12-.293.222-.53-.01-.605-.824-.251-2-.328-1.698"/></g><g><path fill="#fff" d="M36.197 8.909c.277.115.472.674.408.949-.056.337-.203.704-.309.656-.114-.044.078-.337-.03-.646-.062-.2-.441-.566-.4-.673-.08-.229.16-.327.331-.286"/></g><g><path fill="#fff" d="M39.684 16.112c.058-.672-.04-1.084-.058-1.48-.018-.393-.447-3.6-.536-3.9-.105-.565.42-.075.363-.403-.182-.416-.633-1.022-.775-1.38-.086-.153-.05-.292-.242-.04-.175.575-.237 1.047-.169 1.407.455 2.367.921 4.525.847 6.776.214 0 .464-.492.57-.98"/></g><g><path fill="#fff" d="M44.425 9.71c.252.126.401.825.374 1.027-.05.367-.185.762-.282.71-.105-.047.022-.543-.029-.697-.056-.217-.4-.614-.364-.733-.072-.243.146-.352.301-.307"/></g><g><path fill="#fff" d="M25.64 14.84c.242.091.385.605.357.755-.049.268-.177.558-.268.522-.102-.036.02-.4-.029-.514-.02-.275-.356-.418-.348-.538-.063-.219.138-.257.288-.225"/></g><g><path fill="#fff" d="M19.178 8.737c.356.106.377.629.351.785-.048.277-.174.58-.265.54-.098-.035-.004-.415-.05-.532-.053-.166-.355-.469-.32-.557-.069-.187.137-.268.284-.236"/></g><g><path fill="#fff" d="M26.221 11.205c-.274.147-.38.586-.208.844.158.224.41.14.443.14.269.035.427-.5.427-.5s.008-.152-.31.134c-.133.026-.15-.026-.184-.1a.664.664 0 0 1 .04-.418c.05-.134-.055-.192-.208-.1"/></g><g><path fill="#fff" d="M28.271 8.53c-.138.092-.412.375-.419.701-.01.184-.045.184.077.301.088.126.175.115.35.021.103-.072.135-.123.17-.247.044-.209-.22.098-.254-.134-.058-.216.11-.303.27-.514.005-.141.001-.243-.194-.128"/></g><g><path fill="#fff" d="M29.925 8.827c-.06.13-.13.813-.12.813-.046.202.214.29.333.03.176-.48.176-.682.19-.887-.055-.31-.266-.299-.403.044"/></g><g><path fill="#fff" d="M40.352 14.124c.036-.036 1.47-1.05 1.47-1.05.145-.052.112.524.046.517.028.115-1.414 1.094-1.516 1.054-.07.05-.142-.395 0-.52"/></g><g><path fill="#fff" d="M41.665 14.108c.253.126.352.864.325 1.064.01.39-.243.702-.341.65-.104-.044.01-.481-.041-.637-.055-.218-.27-.627-.233-.744-.073-.246.135-.376.29-.333"/></g><g><path fill="#fff" d="M33.14 17.287c.098-.147.406-.356.412-.356.143-.07.283.058.274.047.023.143-.09.275-.054.465.03.074.054.16.195.128.226-.18.436-.19.664-.203.176.01.182.305.07.31-.418.089-.608.202-.907.315-.144.083-.263-.021-.263-.032 0-.013-.084-.081-.027-.269.01-.151-.05-.232-.175-.217-.095.053-.179.085-.226-.024-.019-.079-.025-.12.036-.164"/></g><g><path fill="#fff" d="M43.166 17.684c.062.077.102.15-.004.28-.1.091-.171.14-.273.232-.048.083-.077.205.068.243.269.075.887-.326.887-.335.103-.074.068-.217.06-.217-.06-.066-.19-.028-.28-.038-.043 0-.181-.022-.113-.143a.867.867 0 0 0 .11-.216c.041-.091.007-.153-.145-.204-.154-.028-.215-.013-.386 0-.09.02-.122.062-.14.172.007.169.11.158.216.226"/></g></g></g></g></svg>