<?xml version="1.0" encoding="UTF-8"?>
<svg width="26px" height="33px" viewBox="0 0 26 33" version="1.1" xmlns="http://www.w3.org/2000/svg" xmlns:xlink="http://www.w3.org/1999/xlink">
    <!-- Generator: Sketch 56.2 (81672) - https://sketch.com -->
    <title>lock-icon</title>
    <desc>Created with Sketch.</desc>
    <g id="Desktop-Ar" stroke="none" stroke-width="1" fill="none" fill-rule="evenodd">
        <g id="User-Settings" transform="translate(-1237.000000, -665.000000)" fill-rule="nonzero">
            <g id="personal-details" transform="translate(735.000000, 432.000000)">
                <g id="password" transform="translate(397.000000, 232.817500)">
                    <g id="lock-icon" transform="translate(105.817188, 0.696460)">
                        <rect id="Rectangle" fill="#FCDF9F" x="1.96121897" y="11.4112045" width="21.42" height="19.3536" rx="1.6128"></rect>
                        <path d="M20.2166836,10.1074821 C22.705764,10.2148019 24.6714282,12.3092437 24.6772852,14.8603134 L24.6772852,27.6374053 C24.6772852,30.270844 22.5924963,32.4056678 20.0207788,32.4056678 L4.55936921,32.4056678 C3.32438692,32.4056678 2.1399863,31.9032988 1.26672195,31.0090761 C0.393457607,30.1148534 -0.0971371944,28.9020271 -0.0971371944,27.6374053 L-0.0971371944,14.8603134 C-0.0900680504,12.2861635 1.91098079,10.1824475 4.42374281,10.1074821 L4.42374281,8.08598569 C4.42374281,3.62021911 7.95911303,-2.13162821e-14 12.3202132,-2.13162821e-14 C16.6813134,-2.13162821e-14 20.2166836,3.62021911 20.2166836,8.08598569 L20.2166836,10.1074821 Z M12.3202132,2.31469047 C9.22328933,2.31414386 6.69647653,4.85355721 6.63897401,8.02426061 L6.63897401,10.0303258 L18.0014524,10.0303258 L18.0014524,8.1322795 C18.0014524,4.91931385 15.457875,2.31469047 12.3202132,2.31469047 Z M22.462054,27.6836991 L22.462054,14.8603134 C22.462054,13.4796756 21.3690579,12.3604476 20.0207788,12.3604476 L4.61964761,12.3604476 C3.97218117,12.3604476 3.35123327,12.6238256 2.89340536,13.0926413 C2.43557745,13.5614571 2.17837241,14.1973078 2.17837241,14.8603134 L2.17837241,27.5911115 C2.17837241,28.2541171 2.43557745,28.8899678 2.89340536,29.3587835 C3.35123327,29.8275993 3.97218117,30.0909779 4.61964761,30.0909779 L20.0207788,30.0909779 C21.3345226,30.0919003 22.4133971,29.0280501 22.462054,27.6836991 Z M12.3202132,16.665772 C14.8170263,16.665772 16.8410932,18.7384166 16.8410932,21.2951532 C16.8410932,23.8518897 14.8170263,25.9245343 12.3202132,25.9245343 C9.82340013,25.9245343 7.79933321,23.8518897 7.79933321,21.2951532 C7.79933321,18.7384166 9.82340013,16.665772 12.3202132,16.665772 Z M12.3202132,23.5481186 L12.3202132,23.5635499 C12.9223393,23.5635499 13.4995867,23.317578 13.9239372,22.8801461 C14.3482878,22.4427142 14.5846674,21.8499915 14.5806532,21.2334281 C14.5806532,19.9550598 13.5686197,18.9187375 12.3202132,18.9187375 C11.0718067,18.9187375 10.0597732,19.9550598 10.0597732,21.2334281 C10.0597732,22.5117964 11.0718067,23.5481186 12.3202132,23.5481186 Z" id="Combined-Shape" fill="#331D34"></path>
                    </g>
                </g>
            </g>
        </g>
    </g>
</svg>