<?xml version="1.0" encoding="UTF-8"?>
<svg width="12px" height="16px" viewBox="0 0 12 16" version="1.1" xmlns="http://www.w3.org/2000/svg" xmlns:xlink="http://www.w3.org/1999/xlink">
    <!-- Generator: Sketch 56.2 (81672) - https://sketch.com -->
    <title>Shape</title>
    <desc>Created with Sketch.</desc>
    <g id="Desktop-Ar" stroke="none" stroke-width="1" fill="none" fill-rule="evenodd">
        <g id="Buy-Card-[New-Credit]" transform="translate(-455.000000, -594.000000)" fill="#817682" fill-rule="nonzero">
            <g id="payment-method" transform="translate(133.500000, 217.000000)">
                <g id="secure-nadge" transform="translate(234.500000, 376.693321)">
                    <path d="M97.5,5.74417901 L96.75,5.74417901 L96.75,4.24417901 C96.75,2.17417901 95.07,0.494179011 93,0.494179011 C90.93,0.494179011 89.25,2.17417901 89.25,4.24417901 L89.25,5.74417901 L88.5,5.74417901 C87.675,5.74417901 87,6.41917901 87,7.24417901 L87,14.744179 C87,15.569179 87.675,16.244179 88.5,16.244179 L97.5,16.244179 C98.325,16.244179 99,15.569179 99,14.744179 L99,7.24417901 C99,6.41917901 98.325,5.74417901 97.5,5.74417901 Z M93,12.494179 C92.175,12.494179 91.5,11.819179 91.5,10.994179 C91.5,10.169179 92.175,9.49417901 93,9.49417901 C93.825,9.49417901 94.5,10.169179 94.5,10.994179 C94.5,11.819179 93.825,12.494179 93,12.494179 Z M95.325,5.74417901 L90.675,5.74417901 L90.675,4.24417901 C90.675,2.96167901 91.7175,1.91917901 93,1.91917901 C94.2825,1.91917901 95.325,2.96167901 95.325,4.24417901 L95.325,5.74417901 Z" id="Shape"></path>
                </g>
            </g>
        </g>
    </g>
</svg>