<?xml version="1.0" encoding="UTF-8"?>
<svg width="160px" height="43px" viewBox="0 0 160 43" version="1.1" xmlns="http://www.w3.org/2000/svg" xmlns:xlink="http://www.w3.org/1999/xlink">
    <!-- Generator: Sketch 56.2 (81672) - https://sketch.com -->
    <title>logo(dark)</title>
    <desc>Created with Sketch.</desc>
    <g id="Desktop-Ar" stroke="none" stroke-width="1" fill="none" fill-rule="evenodd" opacity="0.900000036">
        <g id="Buy-Card-[Information]" transform="translate(-1144.000000, -38.000000)" fill="#FFFFFF" fill-rule="nonzero">
            <g id="logo(light)" transform="translate(1144.000000, 38.629704)">
                <path d="M117.636752,11.428468 L119.660413,7.95316802 C119.775308,7.6526039 120.057217,7.44854939 120.378631,7.43330026 C120.700046,7.41805113 121.000008,7.59449939 121.142842,7.88283585 C121.285676,8.17117231 121.244294,8.51671354 121.037413,8.76316802 L118.559352,13.0221283 L120.281196,15.9963682 L124.933513,7.95316802 C125.041711,7.76032572 125.224043,7.62009989 125.438198,7.56503147 C125.652353,7.50996306 125.879712,7.54483975 126.067513,7.66156802 C126.423378,7.90178453 126.529981,8.37794579 126.310513,8.74696802 L121.187963,17.5626785 L122.827513,20.394768 C122.833251,20.4032805 122.838923,20.4118245 122.84453,20.4203993 L131.364913,5.40166802 C131.364913,5.40166802 131.364913,5.32876802 131.421613,5.30446802 L118.008013,5.30446802 C117.333987,5.41427473 116.741924,5.81391661 116.388013,6.39796802 L115.564676,7.8492506 L117.636752,11.428468 Z M106.790642,23.3150876 L97.5474131,39.607968 L97.4907131,39.713268 L97.4664131,39.705168 L110.904313,39.705168 C111.577519,39.5932967 112.168794,39.194186 112.524313,38.611668 L121.108274,23.480868 L107.696713,23.480868 C107.386358,23.4581293 107.082849,23.4019479 106.790642,23.3150876 Z M114.391461,5.82268887 L114.630313,5.40166802 C115.349796,4.19888832 116.610192,3.42209762 118.008013,3.31996802 L131.583613,3.31996802 C132.261625,3.28681954 132.904004,3.62507664 133.260313,4.20286802 C133.614968,4.90934304 133.559172,5.75248879 133.114513,6.40606802 L114.273913,39.616068 C113.560976,40.8227008 112.302081,41.6034583 110.904313,41.705868 L110.904313,41.689668 L97.3287131,41.689668 C96.6499152,41.7263867 96.0058236,41.3872274 95.6520131,40.806768 C95.294651,40.1046083 95.347404,39.2636638 95.7897131,38.611668 L105.044647,22.2981563 C104.768689,22.0328013 104.526541,21.7285965 104.327113,21.391068 L95.6682131,6.40606802 C95.2235543,5.75248879 95.1677579,4.90934304 95.5224131,4.20286802 C95.8799487,3.62639057 96.5214905,3.28857389 97.1991131,3.31996802 L110.774713,3.31996802 C112.175422,3.41980023 113.437878,4.20088809 114.152413,5.40976802 L114.391461,5.82268887 Z M108.612013,37.615372 C108.47531,37.6158075 108.34101,37.5794346 108.223213,37.510068 C107.847052,37.2882164 107.714483,36.8081023 107.923513,36.424668 L113.868913,25.951368 C113.98942,25.659015 114.269039,25.4635177 114.584995,25.4507154 C114.900951,25.437913 115.19547,25.6101465 115.339235,25.8917915 C115.483,26.1734364 115.449722,26.5129928 115.254013,26.761368 L109.308613,37.210368 C109.164796,37.4594791 108.899653,37.6136318 108.612013,37.615372 Z M103.330813,37.615372 C103.19411,37.6158075 103.05981,37.5794346 102.942013,37.510068 C102.565852,37.2882164 102.433283,36.8081023 102.642313,36.424668 L108.587713,25.951368 C108.70822,25.659015 108.987839,25.4635177 109.303795,25.4507154 C109.619751,25.437913 109.91427,25.6101465 110.058035,25.8917915 C110.2018,26.1734364 110.168522,26.5129928 109.972813,26.761368 L104.027413,37.210368 C103.883596,37.4594791 103.618453,37.6136318 103.330813,37.615372 Z M97.3368131,5.31256802 C97.3368131,5.31256802 97.3368131,5.37736802 97.3935131,5.40976802 L106.052413,20.394768 C106.407932,20.977286 106.999207,21.3763967 107.672413,21.488268 L121.134613,21.488268 C121.121706,21.4543236 121.105424,21.4217604 121.086013,21.391068 L112.427113,6.40606802 C112.070014,5.8250612 111.479508,5.42646941 110.807113,5.31256802 L97.3368131,5.31256802 Z M112.419013,20.151768 L108.636313,20.151768 C107.667733,20.0811973 106.794253,19.5432066 106.295413,18.709968 L100.625413,8.88466802 C100.310924,8.41409341 100.273795,7.81075228 100.528213,7.30516802 C100.788158,6.87407592 101.264857,6.62170617 101.767513,6.64906802 L104.634913,6.64906802 L112.419013,20.151768 Z M102.091513,8.24476802 L107.680513,17.899968 C107.890504,18.2424916 108.239617,18.4762198 108.636313,18.539868 L109.665013,18.539868 L103.703413,8.24476802 L102.091513,8.24476802 Z M118.890913,20.151768 L115.100113,20.151768 C114.134038,20.0799815 113.263537,19.5419637 112.767313,18.709968 L107.097313,8.88466802 C106.779443,8.41523948 106.742199,7.81002941 107.000113,7.30516802 C107.260131,6.87001454 107.741623,6.61676221 108.247513,6.64906802 L111.114913,6.64906802 L118.890913,20.151768 Z M108.563413,8.24476802 L114.144313,17.899968 C114.357417,18.2394847 114.705011,18.4721958 115.100113,18.539868 L116.136913,18.539868 L110.175313,8.24476802 L108.563413,8.24476802 Z M146.382313,12.229968 L134.977513,12.229968 C134.530163,12.229968 134.167513,11.8673186 134.167513,11.419968 C134.167513,10.9726174 134.530163,10.609968 134.977513,10.609968 L146.382313,10.609968 C146.829664,10.609968 147.192313,10.9726174 147.192313,11.419968 C147.192313,11.8673186 146.829664,12.229968 146.382313,12.229968 Z M150.983113,12.229968 L149.322613,12.229968 C148.875263,12.229968 148.512613,11.8673186 148.512613,11.419968 C148.512613,10.9726174 148.875263,10.609968 149.322613,10.609968 L150.983113,10.609968 C151.430464,10.609968 151.793113,10.9726174 151.793113,11.419968 C151.793113,11.8673186 151.430464,12.229968 150.983113,12.229968 Z M158.467513,17.187168 L132.547513,17.187168 C132.100163,17.187168 131.737513,16.8245186 131.737513,16.377168 C131.737513,15.9298174 132.100163,15.567168 132.547513,15.567168 L158.467513,15.567168 C158.914864,15.567168 159.277513,15.9298174 159.277513,16.377168 C159.277513,16.8245186 158.914864,17.187168 158.467513,17.187168 Z M149.322613,22.152468 L129.712513,22.152468 C129.265163,22.152468 128.902513,21.7898186 128.902513,21.342468 C128.902513,20.8951174 129.265163,20.532468 129.712513,20.532468 L149.322613,20.532468 C149.769964,20.532468 150.132613,20.8951174 150.132613,21.342468 C150.132613,21.7898186 149.769964,22.152468 149.322613,22.152468 Z M138.517213,27.109668 L126.521113,27.109668 C126.073763,27.109668 125.711113,26.7470186 125.711113,26.299668 C125.711113,25.8523174 126.073763,25.489668 126.521113,25.489668 L138.517213,25.489668 C138.964564,25.489668 139.327213,25.8523174 139.327213,26.299668 C139.327213,26.7470186 138.964564,27.109668 138.517213,27.109668 Z M144.211513,27.109668 L142.397113,27.109668 C141.949763,27.109668 141.587113,26.7470186 141.587113,26.299668 C141.587113,25.8523174 141.949763,25.489668 142.397113,25.489668 L144.211513,25.489668 C144.658864,25.489668 145.021513,25.8523174 145.021513,26.299668 C145.021513,26.7470186 144.658864,27.109668 144.211513,27.109668 Z M133.697713,32.074968 L123.637513,32.074968 C123.190163,32.074968 122.827513,31.7123186 122.827513,31.264968 C122.827513,30.8176174 123.190163,30.454968 123.637513,30.454968 L133.697713,30.454968 C134.145064,30.454968 134.507713,30.8176174 134.507713,31.264968 C134.507713,31.7123186 134.145064,32.074968 133.697713,32.074968 Z M139.521613,37.040268 L121.401913,37.040268 C120.954563,37.040268 120.591913,36.6776186 120.591913,36.230268 C120.591913,35.7829174 120.954563,35.420268 121.401913,35.420268 L139.521613,35.420268 C139.968964,35.420268 140.331613,35.7829174 140.331613,36.230268 C140.331613,36.6776186 139.968964,37.040268 139.521613,37.040268 Z M146.382313,37.040268 L142.445713,37.040268 C141.998363,37.040268 141.635713,36.6776186 141.635713,36.230268 C141.635713,35.7829174 141.998363,35.420268 142.445713,35.420268 L146.382313,35.420268 C146.829664,35.420268 147.192313,35.7829174 147.192313,36.230268 C147.192313,36.6776186 146.829664,37.040268 146.382313,37.040268 Z M138.371413,5.28826802 L138.371413,3.61966802 C138.306613,3.84646802 138.225613,4.08946802 138.128413,4.35676802 L137.788213,5.29636802 L137.601913,5.29636802 L137.286013,4.37296802 C137.188813,4.09756802 137.115913,3.84646802 137.059213,3.61966802 L137.059213,4.47826802 L137.010613,5.28826802 L136.767613,5.28826802 L136.783813,3.31996802 L137.099713,3.31996802 L137.407513,4.28386802 C137.488513,4.51876802 137.545213,4.73746802 137.601913,4.93996802 C137.650513,4.73746802 137.723413,4.52686802 137.804413,4.28386802 L138.217513,3.31996802 L138.533413,3.31996802 L138.654913,5.26396802 L138.371413,5.28826802 Z M135.941413,5.28826802 L135.690313,5.28826802 L135.690313,3.55486802 L135.058513,3.55486802 L135.058513,3.31996802 L136.492213,3.31996802 L136.492213,3.55486802 L135.900913,3.55486802 L135.941413,5.28826802 Z M76.6998905,12.0305732 L76.7018173,12.0221957 L78.1930159,12.0221957 C78.8757788,12.0412958 79.5480749,11.8512991 80.1198455,11.4776569 C80.6502791,11.0924062 81.0153878,10.5208016 81.1419029,9.87755057 L81.9796549,6.11604411 C82.0229167,5.93850429 82.126575,5.78153587 82.2728681,5.67203556 L82.2980006,5.68041308 C82.4337459,5.56458024 82.605479,5.49944008 82.7838968,5.49610764 L83.9064845,5.49610764 L82.8257844,10.2042739 C82.6278274,11.2713416 82.0281425,12.2218421 81.1502804,12.8599477 C80.1583799,13.4698788 79.0037972,13.7621782 77.84116,13.6976997 L76.9925007,13.6976997 L76.986653,13.7228322 L65.3083902,13.7228322 L65.3124722,13.7052881 C65.1081388,13.7002901 64.9047472,13.6753086 64.7052087,13.6306795 C64.4670385,13.5881545 64.2339855,13.5207657 64.0098746,13.429619 C63.7823271,13.3424851 63.568035,13.2240605 63.3731831,13.0777632 C63.1806323,12.942747 63.0157003,12.7721277 62.8872869,12.575112 C62.5825314,12.9173663 62.2045549,13.1865314 61.7814543,13.3625989 C61.2328009,13.6034005 60.6379236,13.7206599 60.0389301,13.7060772 L50.739883,13.7060772 L50.966076,12.7259074 C51.0102783,12.5563167 51.087108,12.396966 51.192269,12.2567662 C51.2893933,12.1120002 51.4536142,12.0267316 51.6279001,12.0305732 L55.5234469,12.0305732 L57.1989509,4.81752852 C57.2322949,4.64221253 57.3274143,4.48467102 57.4670315,4.37351996 C57.5892707,4.25736054 57.7508057,4.19154999 57.9194176,4.18921452 L59.1090254,4.18921452 L57.2994811,12.0305732 L59.9383999,12.0305732 C60.4537174,12.0692145 60.9640192,11.9071187 61.3625783,11.5781871 C61.6900309,11.2504616 61.9142907,10.833979 62.0076473,10.3802018 L64.2528227,0.653901103 C64.2896305,0.475220983 64.3837579,0.313439416 64.5209033,0.193137506 C64.6469822,0.0714213131 64.8148115,0.00249140826 64.9900444,0.00045454684 L66.1964073,0.00045454684 L63.565866,11.3268615 C63.6896395,11.4808441 63.8473323,11.6041311 64.0266296,11.6870949 C64.2416227,11.7964847 64.4696408,11.8781208 64.7052087,11.930043 C65.0328511,11.9998829 65.3670472,12.0338995 65.7019094,12.0315367 L67.6624733,12.0305732 L76.6998905,12.0305732 Z M38.9423662,12.0305732 L38.9443349,12.0221957 L40.4271559,12.0221957 C41.1103898,12.0451257 41.7838183,11.8548089 42.3539855,11.4776569 C42.8907859,11.0984431 43.2576821,10.5240399 43.3760429,9.87755057 L44.2137949,6.11604411 C44.2570567,5.93850429 44.3607151,5.78153587 44.5070081,5.67203556 L44.5237632,5.68041308 C44.6595084,5.56458024 44.8312415,5.49944008 45.0096593,5.49610764 L46.132247,5.49610764 L45.0431694,10.2042739 C44.8501467,11.2732664 44.2493893,12.2254669 43.3676654,12.8599477 C42.3787831,13.4697125 41.2269045,13.7620674 40.0669225,13.6976997 L39.2182632,13.6976997 L39.2124155,13.7228322 L21.6363786,13.7228322 L21.6395905,13.7090281 C20.9905252,13.7206126 20.3446117,13.611781 19.7346816,13.3877314 C19.280035,13.2175458 18.8962461,12.8987058 18.645604,12.4829593 C18.4094975,12.04941 18.2937902,11.5605466 18.3105032,11.0671584 C18.3167502,10.4435188 18.392618,9.82252698 18.5366963,9.2157265 L20.6562088,0.00045454684 L21.7955515,0.00045454684 C21.9490624,-0.00629962129 22.0961503,0.0625500059 22.189295,0.184759986 C22.2928103,0.307807186 22.3274464,0.474690124 22.2814477,0.628768543 L20.1200475,9.91106065 C19.9278348,10.4420368 20.0160168,11.0341157 20.3546181,11.4860344 C20.8152136,11.890418 21.4197124,12.0890128 22.0283149,12.0383404 L22.0301221,12.0305732 L38.9423662,12.0305732 L38.9423662,12.0305732 Z M16.4004287,4.77564092 C16.4004287,4.8929262 16.2998984,5.07723164 16.2245008,5.32017972 C16.1491031,5.5631278 16.0820829,5.73905572 16.0401953,5.856341 C15.9970464,5.98233174 15.9348935,6.10098714 15.8558899,6.20819683 C15.7673552,6.28863387 15.6476058,6.32547981 15.5291666,6.30872707 C15.3829517,6.3022776 15.2373771,6.28548053 15.0935356,6.25846195 L14.3730688,6.15793171 L13.4850517,6.05740147 C13.166706,6.05740147 12.8651153,6.01551387 12.5802796,6.01551387 C11.7680432,5.9686687 10.9549453,6.09134662 10.1926864,6.37574723 C9.6338178,6.67073224 9.25052517,7.21606727 9.16225143,7.84181323 C9.07696457,8.12018944 9.10402769,8.42089075 9.23764911,8.67956522 C9.37811089,8.89498279 9.57133054,9.07089919 9.79894295,9.19059394 C10.0650786,9.32437959 10.3463531,9.42563839 10.6366949,9.49218466 C10.9550407,9.56758234 11.5330896,9.68486762 12.3792191,9.85241801 C12.9984446,9.95150985 13.6051482,10.1172298 14.1887634,10.3466917 C14.5230616,10.4828569 14.8130555,10.7090521 15.0265154,11.0001382 C15.2114448,11.302957 15.3099499,11.6506222 15.3113511,12.0054406 C15.2946555,12.4925535 15.2215627,12.9760904 15.0935356,13.4463741 C14.8777203,14.6238628 14.2905536,15.7013136 13.4180316,16.5209239 C12.4112434,17.2940838 11.1578588,17.6751603 9.89109567,17.5932465 L4.75567593,17.5932465 C4.06563018,17.6006316 3.37783721,17.513248 2.71156106,17.3335433 C2.11837196,17.1775047 1.57938845,16.8616488 1.15334235,16.4203937 C0.715721414,15.956204 0.424369511,15.3735002 0.315590358,14.7448897 C0.18107216,13.869948 0.232453775,12.9764788 0.466385717,12.1227259 C0.569992997,11.7541092 0.698750191,11.3930292 0.851751635,11.0420258 C0.985791954,10.66783 1.13658731,10.2992191 1.30413771,9.93619321 C1.47168811,9.57595986 1.63923851,9.23248154 1.79841139,8.9225133 C1.95758427,8.61254506 2.11675715,8.31933186 2.26755251,8.0847613 L3.30636498,8.3779745 C3.44878282,8.4198621 3.5241805,8.48688226 3.54093554,8.57903498 C3.54605695,8.72891767 3.50827316,8.87714636 3.43202778,9.0062885 C3.43202778,9.08168618 3.34825258,9.19059394 3.2728549,9.33301178 C3.19745722,9.47542962 3.1053045,9.70162266 2.9796417,9.99483585 C2.8539789,10.2880491 2.71156106,10.6399049 2.56076571,11.0085158 C2.41447208,11.3844497 2.29685065,11.7709201 2.20890987,12.1646135 C2.01597137,12.8076614 2.00149247,13.4910657 2.16702227,14.1417082 C2.29908416,14.59264 2.56492306,14.992859 2.92937658,15.2894285 C3.28218727,15.5721714 3.70473712,15.7545045 4.1524945,15.8172122 C4.62897284,15.8925212 5.1111083,15.9261586 5.59342793,15.9177425 L10.6199399,15.9177425 C11.0050549,15.9222374 11.3870388,15.8481211 11.7425276,15.6999269 C12.0527614,15.5787971 12.3370799,15.3996764 12.5802796,15.1721432 C12.7992917,14.9532945 12.982993,14.7017649 13.1248184,14.4265439 C13.2591359,14.160637 13.3604185,13.8792965 13.4264091,13.5887919 C13.4996109,13.2517175 13.496749,12.9025637 13.4180316,12.5667345 C13.3741142,12.3372541 13.2564481,12.1283969 13.0829308,11.9719306 C12.8890988,11.820511 12.666919,11.7094211 12.4294842,11.6452073 C12.1697811,11.5698096 11.8430578,11.4860344 11.4493144,11.4022592 C11.0555709,11.318484 10.6115624,11.2347088 10.0000034,11.1509336 C9.4602381,11.0679513 8.93536593,10.9071033 8.44178471,10.673415 C7.98942888,10.4566177 7.61496264,10.1055556 7.36946216,9.66811258 C7.10612246,9.08512851 7.07026486,8.42475107 7.26893192,7.81668067 C7.38920305,7.28008452 7.59272689,6.76562145 7.87211336,6.29197203 C8.1316759,5.84787351 8.48999238,5.46949131 8.91930335,5.1861394 C9.41137956,4.87074644 9.95623839,4.64655973 10.5277872,4.52431532 C11.2706043,4.36248388 12.0295639,4.28658792 12.7897176,4.29812228 C13.2672362,4.29812228 13.7279998,4.29812228 14.1552533,4.36514244 C14.5825068,4.4321626 14.9930053,4.46567268 15.3364836,4.52431532 C15.686391,4.58191834 16.0331165,4.65741502 16.3752961,4.75050836 L16.4004287,4.77564092 Z M4.20275962,19.1598427 C4.43711546,18.9594778 4.73238303,18.8443234 5.04051161,18.8331194 C5.32020306,18.8146396 5.59060438,18.9372634 5.76097833,19.1598427 C5.93218761,19.3874422 5.98505153,19.6828582 5.90339617,19.9557071 C5.83631734,20.2861473 5.65548113,20.5826001 5.39236745,20.7934591 C5.15835799,20.9944016 4.86288021,21.109638 4.55461546,21.1201824 C4.27204515,21.1415531 3.99782438,21.0186266 3.82577122,20.7934591 C3.64731822,20.5529411 3.59440442,20.2416834 3.68335338,19.9557071 C3.76211651,19.6395807 3.94509412,19.3592118 4.20275962,19.1598427 Z M6.56522024,19.9557071 C6.64469071,19.6419952 6.82405929,19.3626507 7.07624896,19.1598427 C7.32166282,18.9504474 7.63328686,18.8347013 7.95588856,18.8331194 C8.23558,18.8146396 8.50598133,18.9372634 8.67635527,19.1598427 C8.84756455,19.3874422 8.90042847,19.6828582 8.81877311,19.9557071 C8.75516517,20.2874987 8.573648,20.5850678 8.3077444,20.7934591 C8.07373493,20.9944016 7.77825715,21.109638 7.4699924,21.1201824 C7.1724451,21.1429632 6.88524312,21.0057445 6.7160156,20.759949 C6.5375626,20.519431 6.4846488,20.2081733 6.57359776,19.922197 L6.56522024,19.9557071 Z M41.0638474,15.3313161 C41.2982033,15.1309512 41.5934708,15.0157968 41.9015994,15.0045928 C42.1812909,14.9861129 42.4516922,15.1087368 42.6220661,15.3313161 C42.7932754,15.5589155 42.8461393,15.8543315 42.764484,16.1271805 C42.6987653,16.4581528 42.5176645,16.7550393 42.2534553,16.9649325 C42.0194458,17.165875 41.723968,17.2811113 41.4157033,17.2916557 C41.1331329,17.3130265 40.8589122,17.1900999 40.686859,16.9649325 C40.5096772,16.7238737 40.4568707,16.4132472 40.5444412,16.1271805 C40.6232043,15.8110541 40.8061819,15.5306851 41.0638474,15.3313161 Z M76.4086041,16.1606905 C76.4851564,15.8457206 76.6650849,15.5655042 76.9196328,15.3648261 C77.1536423,15.1638836 77.4491201,15.0486473 77.7573848,15.0381029 C78.0399551,15.0167321 78.3141759,15.1396587 78.4862291,15.3648261 C78.6525793,15.5945172 78.7050195,15.8875649 78.6286469,16.1606905 C78.5615681,16.4911308 78.3807319,16.7875836 78.1176182,16.9984425 C77.8722043,17.2078378 77.5605803,17.3235839 77.2379786,17.3251658 C76.9582871,17.3436457 76.6878858,17.2210218 76.5175119,16.9984425 C76.3350812,16.7596386 76.2818244,16.4463635 76.375094,16.1606905 L76.4086041,16.1606905 Z M79.2569609,16.1606905 C79.3335132,15.8457206 79.5134417,15.5655042 79.7679896,15.3648261 C80.0019991,15.1638836 80.2974769,15.0486473 80.6057416,15.0381029 C80.8883119,15.0167321 81.1625327,15.1396587 81.3345858,15.3648261 C81.5057951,15.5924256 81.558659,15.8878416 81.4770037,16.1606905 C81.4099249,16.4911308 81.2290886,16.7875836 80.965975,16.9984425 C80.7316191,17.1988074 80.4363516,17.3139618 80.128223,17.3251658 C79.8485315,17.3436457 79.5781302,17.2210218 79.4077563,16.9984425 C79.2253255,16.7596386 79.1720688,16.4463635 79.2653384,16.1606905 L79.2569609,16.1606905 Z M13.4180316,24.8230462 C13.4180316,24.8816888 13.4180316,24.9989741 13.3342564,25.1665245 L12.6640548,26.2639796 C12.2870664,26.8839161 11.5414671,28.1154115 10.4021244,29.9584659 C9.26278167,31.8015203 8.39151959,33.167056 7.90562344,34.0383181 C7.31081952,35.0436205 6.77465824,35.9065051 6.28876209,36.6185943 C5.86867199,37.2490782 5.38284689,37.8331916 4.83945113,38.3611184 C4.39828544,38.7904065 3.88130027,39.1341165 3.3147425,39.3747983 C2.71676341,39.5936092 2.0831575,39.6987367 1.44655555,39.6847666 C1.08615643,39.6889065 0.726440694,39.6523729 0.374232997,39.5758588 C0.173172518,39.5004611 0.064264759,39.4250635 0.0139996393,39.3747983 C-0.0156688063,39.2444558 0.00215535527,39.1078039 0.064264759,38.9894324 L0.600426036,37.8417122 L1.17009739,37.9506199 C1.42125994,37.9989359 1.67671167,38.0213932 1.93245171,38.0176401 C2.2185292,38.0185128 2.50238656,37.9674185 2.7702037,37.8668447 C3.02351226,37.7597509 3.26267392,37.6218812 3.4822929,37.4563463 C3.70796061,37.2789069 3.91560793,37.0796778 4.10222938,36.8615424 C4.30314677,36.6506711 4.49327968,36.4297814 4.67190073,36.1997183 C5.07462484,35.6626906 5.4466234,35.1032943 5.78611089,34.5242143 L5.24157209,34.5242143 C5.06207114,34.5234432 4.90481981,34.4037955 4.85620617,34.2310011 C4.85620617,33.971298 4.73892089,33.5775545 4.63001313,33.0330157 C4.52110538,32.4884769 4.4038201,31.893673 4.26977978,31.2318489 C4.13573946,30.5700249 3.99332162,29.8830682 3.85090378,29.170979 C3.70848594,28.4588898 3.58282314,27.8138208 3.45716034,27.2273944 C3.33149754,26.640968 3.23934482,26.1550718 3.15556962,25.7613284 C3.07179442,25.367585 3.02990682,25.158147 3.0215293,25.1330144 C2.98694186,25.0383366 2.98694186,24.934479 3.0215293,24.8398012 C3.0634169,24.7476485 3.18070218,24.7057609 3.37338514,24.7057609 L4.89809377,24.7057609 L6.49820008,33.2927188 L11.4744469,24.739271 L13.1499509,24.739271 C13.3007463,24.739271 13.392899,24.739271 13.4264091,24.8230462 L13.4180316,24.8230462 Z M18.7712668,24.5549655 C19.3005266,24.5496697 19.8287428,24.6030532 20.3462406,24.7141384 C20.7830882,24.7966117 21.1955495,24.9770635 21.5526034,25.2419222 C21.8806778,25.4956508 22.1185586,25.8480669 22.2311826,26.2472246 C22.3649152,26.7636993 22.3649152,27.3057236 22.2311826,27.8221983 L20.8405142,33.8372576 C20.4638679,34.0363924 20.0716186,34.2044993 19.6676615,34.3399088 C19.1928434,34.4955062 18.7088048,34.6214122 18.2183505,34.7168972 C17.6153912,34.8222437 17.0041235,34.8727153 16.3920512,34.8676926 C15.8536912,34.8810156 15.3158671,34.8246989 14.7919448,34.7001422 C14.3834156,34.5973961 13.9991169,34.41521 13.6609796,34.1639809 C13.3283793,33.905895 13.0827967,33.5521392 12.957268,33.150301 C12.8178614,32.6516244 12.8178614,32.124269 12.957268,31.6255924 C13.1171407,30.8496157 13.5859409,30.1721237 14.2557836,29.7490279 C15.0839865,29.2714426 16.0085473,28.9852009 16.9617225,28.9112759 C18.0340451,28.7856131 18.8047769,28.6934604 19.2655405,28.6515728 C19.7263041,28.6096852 20.1032925,28.5677976 20.3294855,28.5342875 L20.530546,27.6378929 C20.5682515,27.480953 20.5682515,27.3173142 20.530546,27.1603742 C20.4717517,26.9835948 20.3607573,26.8287869 20.2122003,26.7163657 C20.0058165,26.5600377 19.7689393,26.4487339 19.5168661,26.3896424 C19.1385436,26.2980066 18.7499439,26.2557675 18.3607683,26.2639796 C17.7991871,26.2626133 17.2385583,26.3102667 16.6852644,26.4063974 C16.1574806,26.5069277 15.7218496,26.5990804 15.3699937,26.6912331 C15.0181379,26.7833858 14.8673425,26.6912331 14.9427402,26.3980199 L15.261086,25.1330144 C15.5878092,25.0324842 15.92291,24.9403315 16.2663884,24.8649338 C16.6098667,24.7895361 16.9701,24.7308935 17.372221,24.6722508 C17.8365937,24.6185879 18.3038165,24.5934083 18.7712668,24.5968531 L18.7712668,24.5549655 Z M27.1404093,34.5325918 C26.9110236,34.6011534 26.6752255,34.6460673 26.4366976,34.6666321 C26.1586903,34.6999797 25.8789458,34.7167644 25.5989456,34.7168972 C25.2134455,34.7369469 24.8286947,34.665165 24.4763579,34.5074592 C24.2251601,34.3907895 24.0233563,34.1889857 23.9066866,33.9377879 C23.7927967,33.6505787 23.7469197,33.3409088 23.7726462,33.0330157 C23.7889329,32.6434751 23.8422305,32.2563663 23.9318191,31.876918 L26.7717984,19.5954737 L27.9446512,19.5954737 C28.1094699,19.5733652 28.2704082,19.6571872 28.3467721,19.8049117 C28.3999947,19.9710974 28.3999947,20.1497548 28.3467721,20.3159404 L25.6157006,32.1701312 C25.5286141,32.4185552 25.5498927,32.6921368 25.6743433,32.924108 C25.8000061,33.0832809 26.0680867,33.1586785 26.5120953,33.1586785 C26.7267742,33.1758811 26.9424853,33.1758811 27.1571643,33.1586785 L27.5341527,33.0665258 L27.5341527,34.0802057 C27.5520054,34.3139113 27.394632,34.5249346 27.1655418,34.5744794 L27.1404093,34.5325918 Z M33.3146415,34.5325918 C33.0852558,34.6011534 32.8494577,34.6460673 32.6109298,34.6666321 C32.3329016,34.6997466 32.0531709,34.7165305 31.7731778,34.7168972 C31.3876137,34.7379208 31.0026354,34.6660965 30.6505901,34.5074592 C30.3976596,34.3932823 30.1950957,34.1907184 30.0809188,33.9377879 C29.9641764,33.6512522 29.9154284,33.3415593 29.9385009,33.0330157 C29.9578871,32.6432399 30.0139856,32.2561606 30.1060513,31.876918 L32.9376531,19.5954737 L34.1105059,19.5954737 C34.2753246,19.5733652 34.4362628,19.6571872 34.5126268,19.8049117 C34.5658494,19.9710974 34.5658494,20.1497548 34.5126268,20.3159404 L31.7899328,32.1701312 C31.6984709,32.417966 31.7198932,32.6933955 31.8485755,32.924108 C31.9742383,33.0832809 32.2423189,33.1586785 32.6863275,33.1586785 C32.9038107,33.1756941 33.1222908,33.1756941 33.339774,33.1586785 L33.7083849,33.0665258 L33.7083849,34.0802057 C33.7269658,34.3113503 33.5738835,34.5213934 33.3481515,34.5744794 L33.3146415,34.5325918 Z M41.6083862,24.5549655 C42.1376648,24.5492535 42.665927,24.6026417 43.18336,24.7141384 C43.6202076,24.7966117 44.0326689,24.9770635 44.3897228,25.2419222 C44.7177972,25.4956508 44.955678,25.8480669 45.068302,26.2472246 C45.2102544,26.7626202 45.2102544,27.3068027 45.068302,27.8221983 L43.6776336,33.8372576 C43.3017115,34.0379046 42.9093336,34.2060665 42.5047809,34.3399088 C42.0299628,34.4955062 41.5459242,34.6214122 41.0554699,34.7168972 C40.4525638,34.8226577 39.8412583,34.8731325 39.2291706,34.8676926 C38.6935758,34.8810449 38.1585172,34.824723 37.6374418,34.7001422 C37.2257506,34.5990634 36.8383935,34.4167777 36.498099,34.1639809 C36.1654987,33.905895 35.9199161,33.5521392 35.7943874,33.150301 C35.4530574,31.8396766 36.0070604,30.4597671 37.1599231,29.7490279 C37.9851578,29.2715862 38.9069679,28.9853098 39.8574845,28.9112759 C40.9381846,28.7856131 41.7005389,28.6934604 42.1613025,28.6515728 C42.6220661,28.6096852 42.9990545,28.5677976 43.2252476,28.5342875 L43.4346856,27.6378929 C43.4720759,27.4809158 43.4720759,27.3173513 43.4346856,27.1603742 C43.3791137,26.9841979 43.2709453,26.8292538 43.1247173,26.7163657 C42.9141414,26.5618571 42.6749264,26.450793 42.4210057,26.3896424 C42.0428492,26.2970597 41.6541247,26.254807 41.2649079,26.2639796 C40.7033267,26.2626133 40.1426979,26.3102667 39.5894039,26.4063974 C39.0616202,26.5069277 38.6259891,26.5990804 38.2741333,26.6912331 C37.9222774,26.7833858 37.7798596,26.6912331 37.8468798,26.3980199 L38.1065829,25.1330144 C38.4333062,25.0324842 38.7600294,24.9403315 39.1035078,24.8649338 C39.4469861,24.7895361 39.8155969,24.7308935 40.2177179,24.6722508 C40.6792831,24.6185519 41.1437209,24.5933715 41.6083862,24.5968531 L41.6083862,24.5549655 Z M52.2478366,25.6356656 C52.6991151,25.4619154 53.1607713,25.3164237 53.6301274,25.2000346 C54.1809115,25.0547285 54.7406065,24.945588 55.3056313,24.8733113 C55.9743653,24.778578 56.6492254,24.733774 57.3246137,24.739271 C58.0446335,24.7101494 58.762313,24.838817 59.4273712,25.1162594 C59.9148942,25.34253 60.3150208,25.7220619 60.5667139,26.1969594 C60.8145851,26.6930001 60.9354835,27.2428001 60.9185697,27.7970658 C60.911129,28.4492533 60.8296238,29.0984848 60.6756216,29.7322729 C60.5269772,30.390092 60.3166072,31.0324216 60.0473076,31.6507249 C59.7813558,32.2461237 59.4095065,32.7882858 58.9498525,33.2508312 C58.4740943,33.7255412 57.9030145,34.0938876 57.2743485,34.3315313 C56.5452478,34.6001502 55.7725478,34.7308274 54.9956631,34.7168972 C54.4867054,34.7124773 53.9791918,34.6620063 53.479332,34.5661019 C52.9729245,34.4856793 52.4849515,34.3154562 52.0383986,34.0634507 L50.982831,38.6543316 C50.9444744,38.8517665 50.8262367,39.0245754 50.6561078,39.1318503 C50.4822668,39.2203554 50.2898874,39.2662967 50.0948139,39.2658932 L49.0978891,39.2658932 L52.2478366,25.6356656 Z M68.0562167,24.5549655 C68.5854953,24.5492535 69.1137575,24.6026417 69.6311905,24.7141384 C70.0680381,24.7966117 70.4804994,24.9770635 70.8375533,25.2419222 C71.1656277,25.4956508 71.4035085,25.8480669 71.5161325,26.2472246 C71.6580849,26.7626202 71.6580849,27.3068027 71.5161325,27.8221983 L70.1338417,33.8372576 C69.7549994,34.0378648 69.3598429,34.2060165 68.9526114,34.3399088 C68.4806524,34.4955672 67.9993969,34.6214771 67.5116779,34.7168972 C66.9059465,34.8226116 66.2918644,34.8730841 65.677001,34.8676926 C65.1414252,34.8805737 64.6064273,34.8242582 64.0852723,34.7001422 C63.6741739,34.5973947 63.287132,34.4152573 62.9459295,34.1639809 C62.6183569,33.9028898 62.3762309,33.5499109 62.2505954,33.150301 C62.1067677,32.6522404 62.1067677,32.123653 62.2505954,31.6255924 C62.4264527,30.8380449 62.9208624,30.1586108 63.6161311,29.7490279 C64.4443341,29.2714426 65.3688949,28.9852009 66.3220701,28.9112759 C67.3943926,28.7856131 68.156747,28.6934604 68.6175106,28.6515728 C69.0782742,28.6096852 69.4552625,28.5677976 69.6814556,28.5342875 L69.8908936,27.6378929 C69.9282839,27.4809158 69.9282839,27.3173513 69.8908936,27.1603742 C69.8353218,26.9841979 69.7271533,26.8292538 69.5809253,26.7163657 C69.3703494,26.5618571 69.1311344,26.450793 68.8772137,26.3896424 C68.4990572,26.2970597 68.1103327,26.254807 67.7211159,26.2639796 C67.1595505,26.262994 66.5989546,26.3106447 66.0456119,26.4063974 C65.5262057,26.5069277 65.0821971,26.5990804 64.7303413,26.6912331 C64.3784855,26.7833858 64.2360676,26.6912331 64.3030878,26.3980199 L64.5209033,25.1330144 C64.8476266,25.0324842 65.1827274,24.9403315 65.5178282,24.8649338 C65.852929,24.7895361 66.2299174,24.7308935 66.6320383,24.6722508 C67.093625,24.618804 67.5580472,24.5936245 68.0227066,24.5968531 L68.0562167,24.5549655 Z M84.0153922,24.8230462 C84.0153922,24.8816888 84.0153922,24.9989741 83.931617,25.1665245 L83.2614154,26.2639796 L80.999485,29.9584659 C79.8824824,31.8126903 79.0447304,33.1726411 78.4862291,34.0383181 C77.8914251,35.0436205 77.3552639,35.9065051 76.8693677,36.6185943 C76.4467028,37.2471538 75.9610912,37.8310105 75.4200568,38.3611184 C74.9913615,38.7861578 74.4889043,39.1296455 73.9372357,39.3747983 C73.3391064,39.5930386 72.7056086,39.6981481 72.0690488,39.6847666 C71.7086496,39.6889065 71.3489339,39.6523729 70.9967262,39.5758588 C70.7956657,39.5172162 70.6783805,39.4418185 70.6532479,39.3496658 C70.6235795,39.2193233 70.6414036,39.0826714 70.703513,38.9642999 L71.2229193,37.7998246 L71.7925906,37.9087323 C72.0437532,37.9570483 72.2992049,37.9795056 72.5549449,37.9757525 C72.8410224,37.9766252 73.1248798,37.9255309 73.3926969,37.8249571 C73.6460055,37.7178633 73.8851671,37.5799936 74.1047861,37.4144587 C74.3125015,37.2588208 74.505948,37.0849993 74.682835,36.8950524 C74.8503854,36.7191245 75.0430684,36.4929315 75.2525064,36.2332284 C75.6522149,35.6940761 76.0241035,35.1348451 76.3667165,34.5577244 L75.8221777,34.5577244 C75.6417019,34.5598628 75.4828813,34.4390211 75.4368118,34.2645112 C75.4368118,34.004808 75.3195265,33.6110646 75.2106188,33.0665258 C75.101711,32.521987 74.9760482,31.9271831 74.8503854,31.265359 C74.7247226,30.6035349 74.5739272,29.9165783 74.4315094,29.2044891 C74.2890916,28.4923999 74.1550512,27.8473309 74.037766,27.2609045 C73.9204807,26.6744781 73.8115729,26.1885819 73.7361752,25.7948385 C73.6607776,25.4010951 73.6021349,25.1916571 73.6021349,25.1665245 C73.5634996,25.0726049 73.5634996,24.9672309 73.6021349,24.8733113 C73.6021349,24.7811586 73.7613078,24.739271 73.9539908,24.739271 L75.4451893,24.739271 L77.0871832,33.2927188 L82.1136952,24.739271 L83.7891992,24.739271 C83.9399946,24.739271 84.0321473,24.739271 84.0656574,24.8230462 L84.0153922,24.8230462 Z M19.9441196,30.2516791 L19.2152754,30.3103217 L18.3775234,30.3857194 L17.0622527,30.5113822 C16.5209415,30.5562339 15.9882617,30.6746071 15.4789015,30.8632381 C15.0378876,30.9869882 14.6982214,31.339472 14.5908844,31.7847653 C14.474497,32.1909221 14.6465489,32.6244929 15.0097604,32.8403328 C15.5276651,33.1473813 16.1263762,33.2904879 16.727152,33.2508312 C17.2542144,33.256827 17.7809049,33.2204069 18.3021257,33.1419235 C18.657742,33.0893756 19.0062439,32.9966291 19.3409382,32.8654653 L19.9441196,30.2516791 Z M42.781239,30.2516791 L42.0607723,30.3103217 L41.2230203,30.3857194 L39.9161272,30.5113822 C39.3721045,30.5563046 38.8366666,30.6746646 38.3243984,30.8632381 C37.8833845,30.9869882 37.5437183,31.339472 37.4363813,31.7847653 C37.3260247,32.1906038 37.4966539,32.6205895 37.8552573,32.8403328 C38.373162,33.1473813 38.9718731,33.2904879 39.5726489,33.2508312 C40.102478,33.2563117 40.6319112,33.2198956 41.1560001,33.1419235 C41.5086838,33.0883448 41.8542961,32.9956196 42.1864351,32.8654653 L42.781239,30.2516791 Z M52.4070094,32.5303645 C52.7756203,32.6979149 53.1944963,32.8654653 53.6552599,33.0497708 C54.2123184,33.2414704 54.801115,33.3239588 55.3894065,33.2927188 C55.9447574,33.3299217 56.498672,33.2016467 56.9811353,32.924108 C57.3849288,32.6918885 57.7358735,32.3780355 58.0115703,32.0025808 C58.2537872,31.6743542 58.4536327,31.3168841 58.6063742,30.9386357 C58.7623227,30.5473753 58.885614,30.1438764 58.9749851,29.7322729 C59.0822197,29.2917922 59.1550443,28.8436406 59.1928006,28.3918697 C59.2382875,28.0108501 59.1982197,27.624482 59.0755153,27.2609045 C58.9649938,26.9172369 58.7403517,26.6216553 58.4388238,26.4231525 C57.9888182,26.1954719 57.4827013,26.1023929 56.9811353,26.1550718 C55.8764524,26.122841 54.7766162,26.3137452 53.7474126,26.7163657 L52.4070094,32.5303645 Z M69.1955594,30.2516791 L68.4750927,30.3103217 L67.6373407,30.3857194 L66.3220701,30.5113822 C65.7780474,30.5563046 65.2426095,30.6746646 64.7303413,30.8632381 C64.2902665,30.988556 63.9512627,31.3403524 63.8423242,31.7847653 C63.7319676,32.1906038 63.9025968,32.6205895 64.2612002,32.8403328 C64.7822974,33.1470763 65.3835688,33.2900972 65.9869693,33.2508312 C66.5140224,33.2565035 67.040687,33.2200852 67.561943,33.1419235 C67.9148611,33.0894686 68.2605986,32.9967098 68.592378,32.8654653 L69.1955594,30.2516791 Z" id="logo"></path>
            </g>
        </g>
    </g>
</svg>