<?xml version="1.0" encoding="UTF-8"?>
<svg width="30px" height="23px" viewBox="0 0 30 23" version="1.1" xmlns="http://www.w3.org/2000/svg" xmlns:xlink="http://www.w3.org/1999/xlink">
    <!-- Generator: Sketch 56.2 (81672) - https://sketch.com -->
    <title>mail-icon</title>
    <desc>Created with Sketch.</desc>
    <g id="Desktop-Ar" stroke="none" stroke-width="1" fill="none" fill-rule="evenodd">
        <g id="User-Settings" transform="translate(-1235.000000, -612.000000)" fill-rule="nonzero">
            <g id="personal-details" transform="translate(735.000000, 432.000000)">
                <g id="email" transform="translate(249.000000, 180.000000)">
                    <g id="mail-icon" transform="translate(251.726902, 0.320000)">
                        <rect id="Rectangle" fill="#F48D65" x="1.37685262" y="1.85472" width="26.4626526" height="19.16544" rx="1.6128"></rect>
                        <path d="M25.7261166,21.7658069 L3.36101493,21.7658069 C1.58542865,21.7658069 0.14603157,20.3197919 0.14603157,18.536042 L0.14603157,3.22976489 C0.14603157,1.446015 1.58542865,3.19744231e-14 3.36101493,3.19744231e-14 L25.7261166,3.19744231e-14 C27.5017029,3.19744231e-14 28.9410999,1.446015 28.9410999,3.22976489 L28.9410999,18.536042 C28.9410999,20.3197919 27.5017029,21.7658069 25.7261166,21.7658069 Z M3.36101493,2.10636841 C2.7434197,2.10636841 2.24275985,2.60933015 2.24275985,3.22976489 L2.24275985,18.536042 C2.24275985,19.1564768 2.7434197,19.6594385 3.36101493,19.6594385 L25.7261166,19.6594385 C26.3437118,19.6594385 26.8443717,19.1564768 26.8443717,18.536042 L26.8443717,3.22976489 C26.8443717,2.60933015 26.3437118,2.10636841 25.7261166,2.10636841 L3.36101493,2.10636841 Z M14.3059366,15.0956403 C14.059675,15.0931708 13.8221393,15.0036854 13.6349835,14.8428761 L3.85025153,6.59995435 C3.40635496,6.21218263 3.3594181,5.5363278 3.74541512,5.09039032 C4.13141213,4.64445285 4.80417381,4.59730019 5.24807038,4.9850719 L14.3199147,12.6522529 L23.8809957,4.47954348 C24.3210323,4.0917718 24.9906648,4.13578096 25.3766618,4.5778407 C25.7626588,5.01990045 25.7188511,5.69261175 25.2788145,6.08038348 L14.9908678,14.8147911 C14.8041148,14.9889109 14.5606333,15.0887481 14.3059366,15.0956403 Z" id="Combined-Shape" fill="#331D34"></path>
                    </g>
                </g>
            </g>
        </g>
    </g>
</svg>