<svg xmlns="http://www.w3.org/2000/svg" width="21" height="29" viewBox="0 0 21 29"><g><g><path fill="#f48d65" d="M13.003 10.498a2.201 2.201 0 0 1-2.198 2.204 2.201 2.201 0 0 1-2.199-2.204c0-1.217.984-2.203 2.199-2.203 1.214 0 2.198.986 2.198 2.203zm-2.193 4.283a4.283 4.283 0 0 0 4.269-4.269 4.27 4.27 0 1 0-4.27 4.27zm8.032-4.272c0 5.203-5.89 12.705-8.037 15.266-2.148-2.56-8.038-10.063-8.038-15.266a8.038 8.038 0 1 1 16.075 0zM10.81 28.388c.318.02.628-.106.84-.345.385-.426 9.337-10.425 9.337-17.545C20.987 4.916 16.46.39 10.878.39 5.296.39.77 4.916.77 10.498c0 7.12 8.896 17.132 9.268 17.545.197.22.477.345.772.345z"/></g></g></svg>