<?xml version="1.0" encoding="UTF-8"?>
<svg width="54px" height="34px" viewBox="0 0 54 34" version="1.1" xmlns="http://www.w3.org/2000/svg" xmlns:xlink="http://www.w3.org/1999/xlink">
    <!-- Generator: Sketch 56.2 (81672) - https://sketch.com -->
    <title>mastercard</title>
    <desc>Created with Sketch.</desc>
    <g id="mastercard" stroke="none" stroke-width="1" fill="none" fill-rule="evenodd">
        <g id="visa" transform="translate(-0.000000, 0.000000)" fill="#FFFFFF">
            <path d="M0,2.55 C0,1.14167389 1.13327923,0 2.53125,0 L51.46875,0 C52.8667208,0 54,1.14167389 54,2.55 L54,31.45 C54,32.8583261 52.8667208,34 51.46875,34 L2.53125,34 C1.13327923,34 0,32.8583261 0,31.45 L0,2.55 Z" id="SVGID"></path>
        </g>
        <g id="Asset-1" transform="translate(11.000000, 4.500000)" fill-rule="nonzero">
            <path d="M16.2953125,22.0296647 C15.9552717,22.0276115 15.6298141,22.1676388 15.3975084,22.4159655 C15.1652028,22.6642923 15.0471594,22.9983522 15.071875,23.3375 C15.0421089,23.6851846 15.1643297,24.0287286 15.4070015,24.2794894 C15.6496733,24.5302503 15.9890265,24.6636661 16.3375,24.6453125 C16.7053318,24.6633996 17.0665868,24.5429813 17.35,24.3078125 L17.096875,23.928125 C16.8935375,24.0915738 16.6405735,24.1808552 16.3796875,24.18125 C16.0005026,24.1999201 15.6703261,23.924773 15.6203125,23.5484375 L17.51875,23.5484375 L17.51875,23.3375 C17.4765625,22.5359375 17.0125,22.0296647 16.2953125,22.0296647 Z M15.6203125,23.1265625 C15.6203125,22.7537703 15.9225203,22.4515625 16.2953125,22.4515625 C16.6681047,22.4515625 16.9703125,22.7537703 16.9703125,23.1265625 L15.6203125,23.1265625 Z" id="Shape" fill="#000000"></path>
            <path d="M8.996875,22.3671875 C8.79920465,22.1280315 8.50558181,21.988947 8.1953125,21.9874772 C7.85527165,21.985424 7.52981409,22.1254513 7.29750843,22.373778 C7.06520277,22.6221048 6.94715935,22.9561647 6.971875,23.2953125 C6.96049776,23.631028 7.08304595,23.9574958 7.31252408,24.2028001 C7.54200222,24.4481043 7.85958452,24.5921208 8.1953125,24.603125 C8.50959862,24.6206772 8.81136083,24.4777372 8.996875,24.2234375 L8.996875,24.51875 L9.503125,24.51875 L9.503125,22.071875 L8.996875,22.071875 L8.996875,22.3671875 Z M8.2375,24.18125 C8.01816511,24.1791561 7.80905666,24.0881989 7.65798299,23.929174 C7.50690932,23.7701491 7.42678813,23.556654 7.4359375,23.3375 C7.41918135,23.1163911 7.49675815,22.8985149 7.64948345,22.7377515 C7.80220874,22.576988 8.01582294,22.4883473 8.2375,22.49375 C8.45267505,22.4976103 8.65659066,22.5906271 8.80055834,22.7505912 C8.94452603,22.9105553 9.01562351,23.1231085 8.996875,23.3375 C9.02239326,23.5533649 8.95365532,23.7697573 8.80824379,23.9313257 C8.66283226,24.092894 8.45485101,24.1839674 8.2375,24.18125 Z" id="Shape" fill="#000000"></path>
            <path d="M5.453125,21.9875 C5.09387008,21.9624583 4.75115955,22.1419733 4.5671875,22.4515625 C4.39515558,22.1509495 4.06943866,21.9718052 3.7234375,21.9875 C3.42271303,21.9789649 3.13766912,22.1214869 2.9640625,22.3671875 L2.9640625,22.071875 L2.4578125,22.071875 L2.4578125,24.603125 L2.9640625,24.603125 L2.9640625,23.16875 C2.94554877,22.9921208 3.00471097,22.8161647 3.12617675,22.6866013 C3.24764253,22.5570378 3.41941981,22.4866583 3.596875,22.49375 C3.9765625,22.49375 4.1453125,22.746875 4.1453125,23.16875 L4.1453125,24.603125 L4.6515625,24.603125 L4.6515625,23.16875 C4.63304877,22.9921208 4.69221097,22.8161647 4.81367675,22.6866013 C4.93514253,22.5570378 5.10691981,22.4866583 5.284375,22.49375 C5.6640625,22.49375 5.875,22.746875 5.875,23.16875 L5.875,24.603125 L6.4234375,24.603125 L6.4234375,23 C6.44400277,22.7330949 6.3498899,22.4700681 6.16466947,22.2767946 C5.97944905,22.0835211 5.72066325,21.9783059 5.453125,21.9875 Z" id="Path" fill="#000000"></path>
            <path d="M14.059375,24.096875 C13.80625,24.096875 13.6796875,23.928125 13.6796875,23.675 L13.6796875,22.49375 L14.6078125,22.49375 L14.6078125,22.071875 L13.6796875,22.071875 L13.6796875,21.3125 L13.1734375,21.3125 L13.1734375,22.071875 L12.625,22.071875 L12.625,22.5359375 L13.1734375,22.5359375 L13.1734375,23.7171875 C13.1734375,24.3078125 13.384375,24.6453244 14.0171875,24.6453244 C14.2585732,24.6464026 14.4943736,24.5727149 14.6921875,24.434375 L14.5234375,23.9703125 C14.3799678,24.0461849 14.2214995,24.0894035 14.059375,24.096875 L14.059375,24.096875 Z" id="Path" fill="#000000"></path>
            <path d="M11.44375,23.1265625 L11.190625,23.084375 C10.9375,23.0421875 10.7265625,23 10.7265625,22.83125 C10.7265625,22.6625 10.9375,22.5359375 11.2328125,22.5359375 C11.5126115,22.5440535 11.7868245,22.6162148 12.034375,22.746875 L12.203125,22.2828125 C11.8959008,22.1055028 11.5451451,22.0178138 11.190625,22.0296875 C10.5578125,22.0296875 10.178125,22.325 10.178125,22.83125 C10.178125,23.253125 10.4734375,23.50625 11.021875,23.5484375 L11.275,23.590625 C11.5703125,23.6328125 11.7390625,23.7171875 11.7390625,23.8859375 C11.7390625,24.0546875 11.528125,24.2234375 11.1484375,24.2234375 C10.8485391,24.2230268 10.5552875,24.1350513 10.3046875,23.9703125 L10.0515625,24.35 C10.3774038,24.5650482 10.758066,24.682175 11.1484375,24.6875 C11.865625,24.6875 12.2875,24.35 12.2875,23.8859375 C12.2875,23.421875 11.9921875,23.2109375 11.44375,23.1265625 Z" id="Path" fill="#000000"></path>
            <path d="M29.5,22.3671875 C29.3023296,22.1280315 29.0087068,21.988947 28.6984375,21.9875 C28.3583967,21.985424 28.0329391,22.1254513 27.8006334,22.373778 C27.5683278,22.6221048 27.4502844,22.9561647 27.475,23.2953125 C27.4636228,23.631028 27.586171,23.9574958 27.8156491,24.2028001 C28.0451272,24.4481043 28.3627095,24.5921208 28.6984375,24.603125 C29.0127236,24.6206772 29.3144858,24.4777372 29.5,24.2234375 L29.5,24.51875 L30.00625,24.51875 L30.00625,21.059375 L29.5,21.059375 L29.5,22.3671875 Z M28.7828125,24.18125 C28.3168222,24.18125 27.9390625,23.8034903 27.9390625,23.3375 C27.9390625,22.8715097 28.3168222,22.49375 28.7828125,22.49375 C28.9979876,22.4976103 29.2019032,22.5906271 29.3458708,22.7505912 C29.4898385,22.9105553 29.560936,23.1231085 29.5421875,23.3375 C29.5677058,23.5533649 29.4989678,23.7697573 29.3535563,23.9313257 C29.2081448,24.092894 29.0001635,24.1839674 28.7828125,24.18125 Z" id="Shape" fill="#000000"></path>
            <path d="M30.934375,24.6453125 L30.85,24.6453125 C30.8078125,24.6453125 30.8078125,24.603125 30.765625,24.603125 C30.765625,24.6264245 30.784513,24.6453125 30.8078125,24.6453125 L30.85,24.6875 L31.01875,24.6875 C31.0420495,24.6875 31.0609375,24.668612 31.0609375,24.6453125 L31.103125,24.603125 C31.0609375,24.6453125 31.0609375,24.6453125 31.01875,24.6453125 L30.934375,24.6453125 Z" id="Path" fill="#000000"></path>
            <path d="M31.103125,24.265625 C31.0609375,24.265625 31.0609375,24.2234375 31.01875,24.2234375 L30.85,24.2234375 C30.8078125,24.2234375 30.8078125,24.2234375 30.765625,24.265625 C30.7234375,24.3078125 30.7234375,24.3078125 30.7234375,24.35 L30.7234375,24.51875 C30.7234375,24.5609375 30.7234375,24.5609375 30.765625,24.603125 L30.765625,24.434375 L30.8078125,24.3921875 C30.8078125,24.368888 30.8267005,24.35 30.85,24.35 L30.8921875,24.35 L30.8921875,24.3921875 L30.9765625,24.35 L30.9765625,24.434375 L30.8921875,24.3921875 L30.8921875,24.5609375 L30.934375,24.5609375 L30.934375,24.4765625 L30.9765625,24.4765625 L31.0609375,24.5609375 L31.103125,24.5609375 L31.01875,24.4765625 C31.01875,24.453263 31.037638,24.434375 31.0609375,24.434375 L31.0609375,24.3921875 C31.084237,24.3921875 31.103125,24.4110755 31.103125,24.434375 L31.103125,24.603125 C31.103125,24.5609375 31.1453125,24.5609375 31.1453125,24.51875 L31.1453125,24.35 C31.1453125,24.3078125 31.1453125,24.3078125 31.103125,24.265625 Z" id="Path" fill="#000000"></path>
            <path d="M21.1046875,22.49375 C21.3451599,22.4984956 21.5793016,22.5716649 21.7796875,22.7046875 L22.0328125,22.325 C21.7859416,22.1172278 21.469035,22.0115922 21.146875,22.0296875 C20.4245901,22.0296875 19.8390625,22.6152151 19.8390625,23.3375 C19.8390625,24.0597849 20.4245901,24.6453125 21.146875,24.6453125 C21.469035,24.6634078 21.7859416,24.5577722 22.0328125,24.35 L21.7796875,23.9703125 C21.5793016,24.1033351 21.3451599,24.1765044 21.1046875,24.18125 C20.6386972,24.18125 20.2609375,23.8034903 20.2609375,23.3375 C20.2609375,22.8715097 20.6386972,22.49375 21.1046875,22.49375 L21.1046875,22.49375 Z" id="Path" fill="#000000"></path>
            <path d="M18.615625,22.409375 L18.615625,22.1140625 L18.109375,22.1140625 L18.109375,24.6453125 L18.615625,24.6453125 L18.615625,23.2109375 C18.615625,22.7890625 18.8265625,22.5359375 19.1640625,22.5359375 C19.2829974,22.5233118 19.4025615,22.5532028 19.5015625,22.6203125 L19.6703125,22.15625 C19.5662541,22.0641381 19.4291389,22.018433 19.290625,22.0296875 C19.0107552,22.0134474 18.7470792,22.1617651 18.615625,22.409375 L18.615625,22.409375 Z" id="Path" fill="#000000"></path>
            <path d="M26.209375,22.409375 L26.209375,22.1140625 L25.703125,22.1140625 L25.703125,24.6453125 L26.209375,24.6453125 L26.209375,23.2109375 C26.209375,22.7890625 26.4203125,22.5359375 26.7578125,22.5359375 C26.8767474,22.5233118 26.9963115,22.5532028 27.0953125,22.6203125 L27.2640625,22.15625 C27.1600041,22.0641381 27.0228889,22.018433 26.884375,22.0296875 C26.6045052,22.0134474 26.3408292,22.1617651 26.209375,22.409375 L26.209375,22.409375 Z" id="Path" fill="#000000"></path>
            <path d="M24.4375,22.3671875 C24.2398296,22.1280315 23.9462068,21.988947 23.6359375,21.9874772 C23.2958967,21.985424 22.9704391,22.1254513 22.7381334,22.373778 C22.5058278,22.6221048 22.3877844,22.9561647 22.4125,23.2953125 C22.4011228,23.631028 22.523671,23.9574958 22.7531491,24.2028001 C22.9826272,24.4481043 23.3002095,24.5921208 23.6359375,24.603125 C23.9502236,24.6206772 24.2519858,24.4777372 24.4375,24.2234375 L24.4375,24.51875 L24.94375,24.51875 L24.94375,22.071875 L24.4375,22.071875 L24.4375,22.3671875 Z M23.7203125,24.18125 C23.2543222,24.18125 22.8765625,23.8034903 22.8765625,23.3375 C22.8765625,22.8715097 23.2543222,22.49375 23.7203125,22.49375 C23.9354876,22.4976103 24.1394032,22.5906271 24.2833708,22.7505912 C24.4273385,22.9105553 24.498436,23.1231085 24.4796875,23.3375 C24.5052058,23.5533649 24.4364678,23.7697573 24.2910563,23.9313257 C24.1456448,24.092894 23.9376635,24.1839674 23.7203125,24.18125 L23.7203125,24.18125 Z" id="Shape" fill="#000000"></path>
            <rect id="Rectangle" fill="#FF5F00" x="11.6125" y="2.9609375" width="9.1125" height="14.8921875"></rect>
            <path d="M12.5828125,10.3859375 C12.5841266,7.48425679 13.9225842,4.74508768 16.2109375,2.9609375 C12.9602363,0.394891615 8.4178389,0.243246766 5.00323484,2.58677596 C1.58863079,4.93030516 0.0967771197,9.22340924 1.32230362,13.1793838 C2.54783012,17.1353584 6.20542085,19.8332094 10.346875,19.8359375 C12.4719994,19.8296758 14.534785,19.117347 16.2109375,17.8109375 C13.9149448,16.0329951 12.5745347,13.2898303 12.5828125,10.3859375" id="Path" fill="#EB001B"></path>
            <path d="M30.6503472,16.7703125 L30.6503472,16.0703125 L30.8170139,16.0703125 L30.8170139,15.9703125 L30.428125,15.9703125 L30.428125,16.0703125 L30.5947917,16.0703125 L30.6503472,16.7703125 L30.6503472,16.7703125 Z M31.428125,16.7703125 L31.428125,15.8703125 L31.3170139,15.8703125 L31.1503472,16.4703125 L30.9836806,15.8703125 L30.8725694,15.8703125 L30.8725694,16.7703125 L30.9836806,16.7703125 L30.9836806,16.0703125 L31.0947917,16.6703125 L31.2059028,16.6703125 L31.3170139,16.0703125 L31.3170139,16.7703125 L31.428125,16.7703125 Z" id="Shape" fill="#F79E1B"></path>
            <path d="M31.4828276,10.3859375 C31.4873025,12.8936071 30.4931223,15.2998613 28.7199293,17.0730543 C26.9467363,18.8462473 24.5404821,19.8404275 22.0328125,19.8359526 C19.9076881,19.8296758 17.8449025,19.117347 16.16875,17.8109375 C18.458046,16.027571 19.7966904,13.2878803 19.7966904,10.3859375 C19.7966904,7.48399468 18.458046,4.74430397 16.16875,2.9609375 C19.014932,0.72144408 22.8896908,0.302878911 26.1484696,1.88289285 C29.4072483,3.46290678 31.4783779,6.76432691 31.4828276,10.3859375" id="Path" fill="#F79E1B"></path>
        </g>
    </g>
</svg>