<?xml version="1.0" encoding="UTF-8"?>
<svg width="15px" height="15px" viewBox="0 0 15 15" version="1.1" xmlns="http://www.w3.org/2000/svg" xmlns:xlink="http://www.w3.org/1999/xlink">
    <!-- Generator: Sketch 56.2 (81672) - https://sketch.com -->
    <title>Combined Shape</title>
    <desc>Created with Sketch.</desc>
    <g id="Desktop-Ar" stroke="none" stroke-width="1" fill="none" fill-rule="evenodd">
        <g id="Buy-Card-[New-Credit]" transform="translate(-1091.000000, -580.000000)" fill="#FFFFFF" fill-rule="nonzero">
            <g id="Card" transform="translate(735.000000, 217.000000)">
                <g id="what-is-this-card" transform="translate(201.500000, 363.000000)">
                    <path d="M162.653484,4.4356377 C162.849044,4.60425193 162.946823,4.82314487 162.946546,5.09231652 C162.946546,5.34732125 162.853488,5.56260301 162.667096,5.7384396 C162.480426,5.91455397 162.258199,6.00233338 161.999861,6.00233338 C161.734023,6.00233338 161.509852,5.91149836 161.327349,5.7303839 C161.144567,5.54926943 161.053177,5.33482102 161.053177,5.08703865 C161.053177,4.83592289 161.147345,4.62230782 161.335404,4.44647123 C161.524019,4.27063464 161.745412,4.18257746 161.999861,4.18257746 C162.240143,4.18257746 162.457647,4.26702346 162.653484,4.4356377 Z M161.255403,6.89512769 L162.744597,6.89512769 L162.744597,11.2349303 L161.255403,11.2349303 L161.255403,6.89512769 Z M166.416887,3.82618197 C165.346312,3.82618197 164.47824,2.96949944 164.477963,1.91309098 C164.477963,1.75586585 164.499352,1.60391859 164.535464,1.45780477 C164.590465,1.23641179 164.682411,1.02918573 164.807969,0.845293431 C165.156308,0.335283987 165.746597,0 166.41661,0 C167.487463,0 168.355257,0.856404748 168.355257,1.91309098 C168.355257,2.37198837 168.191365,2.7928295 167.918304,3.12255783 C167.774968,3.29561659 167.60052,3.44200819 167.404683,3.55701032 C167.115234,3.72673568 166.778283,3.82618197 166.416887,3.82618197 Z M162.000139,0.417507732 C162.122086,0.417507732 162.242921,0.424730088 162.364035,0.430563529 C162.312645,0.583899702 162.269866,0.740847053 162.237366,0.901683365 C162.158753,0.898627752 162.080418,0.894738791 161.999861,0.894738791 C160.065659,0.894738791 158.316737,1.65641956 157.048103,2.88949795 C155.780024,4.12285413 154.995843,5.82538566 154.995843,7.70847608 C154.995843,9.59156651 155.780024,11.294098 157.048103,12.5274542 C158.31646,13.7608104 160.065659,14.5222134 161.999861,14.5224912 C163.934064,14.5224912 165.683263,13.7608104 166.951619,12.527732 C168.219976,11.294098 169.004157,9.59184429 169.004157,7.70875387 C169.004157,6.81762625 168.824987,5.96872164 168.505259,5.18954055 C168.650818,5.10426119 168.790265,5.01037056 168.923878,4.90925758 C169.293607,5.77149577 169.500278,6.7159577 169.500278,7.70875387 C169.500278,11.7338284 166.144382,14.9997222 162.000139,15 C157.855895,14.9997222 154.5,11.7338284 154.5,7.70875387 C154.499722,3.68367933 157.855895,0.417785515 162.000139,0.417507732 Z" id="Combined-Shape"></path>
                </g>
            </g>
        </g>
    </g>
</svg>