<?xml version="1.0" encoding="UTF-8"?>
<svg width="37px" height="57px" viewBox="0 0 37 57" version="1.1" xmlns="http://www.w3.org/2000/svg" xmlns:xlink="http://www.w3.org/1999/xlink">
    <!-- Generator: Sketch 56.2 (81672) - https://sketch.com -->
    <title>Combined Shape</title>
    <desc>Created with Sketch.</desc>
    <g id="Desktop-Ar" stroke="none" stroke-width="1" fill="none" fill-rule="evenodd">
        <g id="please-confirm-mobile" transform="translate(-902.000000, -395.000000)" fill="#F27036" fill-rule="nonzero">
            <g id="Group-2-Copy" transform="translate(455.030000, 360.500000)">
                <path d="M480.632727,34.94 C482.039091,34.94 483.178182,36.0790909 483.178182,37.4854545 L483.178182,42.5763636 L483.178182,83.3036364 L483.178182,88.3945455 C483.178182,89.8009091 482.039091,90.94 480.632727,90.94 L450.087273,90.94 C448.680909,90.94 447.541818,89.8009091 447.541818,88.3945455 L447.541818,83.3036364 L447.541818,42.5763636 L447.541818,37.4854545 C447.541818,36.0790909 448.680909,34.94 450.087273,34.94 L480.632727,34.94 Z M465.36,87.6267513 C466.23278,87.6267513 466.940308,86.9192232 466.940308,86.0464431 C466.940308,85.1736629 466.23278,84.4661348 465.36,84.4661348 C464.48722,84.4661348 463.779692,85.1736629 463.779692,86.0464431 C463.779692,86.9192232 464.48722,87.6267513 465.36,87.6267513 Z M452.26,38.2532487 C451.762944,38.2532487 451.36,38.6561924 451.36,39.1532487 L451.36,81.5984847 C451.36,82.095541 451.762944,82.4984847 452.26,82.4984847 L478.46,82.4984847 C478.957056,82.4984847 479.36,82.095541 479.36,81.5984847 L479.36,39.1532487 C479.36,38.6561924 478.957056,38.2532487 478.46,38.2532487 L452.26,38.2532487 Z" id="Combined-Shape"></path>
            </g>
        </g>
    </g>
</svg>