<svg xmlns="http://www.w3.org/2000/svg" width="287" height="25" viewBox="0 0 287 25"><g><g><g><path fill="#293688" d="M13.965 6.742L9.13 18.314H5.945L3.568 9.04a1.363 1.363 0 0 0-.686-1.008A12.288 12.288 0 0 0-.1 7.065l.08-.323H5.1a1.39 1.39 0 0 1 1.37 1.21l1.21 6.653 3.103-7.903h3.183zm7.23 11.733a7.87 7.87 0 0 1-3.348-.604l.565-2.54c.957.5 2.025.75 3.105.725.847 0 1.815-.363 1.815-1.129 0-.484-.443-.887-1.573-1.451-1.129-.565-2.662-1.452-2.621-3.145.04-2.258 2.097-3.83 5.082-3.83a7.511 7.511 0 0 1 2.823.523l-.525 2.46a5.894 5.894 0 0 0-2.984-.524c-.887.12-1.29.524-1.29.967-.041 1.371 4.194 1.533 4.194 4.597-.04 2.42-2.097 3.992-5.243 3.951zm12.65-1.895H29.98l-.604 1.734h-3.14L30.745 7.59a1.365 1.365 0 0 1 1.288-.847h2.576l2.416 11.572h-2.778zm-.44-2.379l-.924-4.354-1.567 4.354zM18.251 6.742l-2.46 11.572h-2.985l2.46-11.572z"/></g><g><g><path fill="#139ad6" d="M116.047 11.613c-.162.972-.891.972-1.62.972h-.486l.324-1.863c0-.081.081-.162.243-.162h.162c.486 0 .972 0 1.215.324.162.081.162.324.162.729m-.324-2.673h-2.754c-.162 0-.324.162-.405.324l-1.134 7.128c0 .162.081.243.243.243h1.458c.162 0 .243-.081.243-.243l.324-2.025c0-.162.162-.324.405-.324h.891c1.863 0 2.916-.891 3.159-2.673.162-.729 0-1.377-.324-1.782-.486-.405-1.215-.648-2.106-.648"/></g><g><path fill="#263b80" d="M96.197 11.613c-.162.972-.891.972-1.62.972h-.405l.324-1.863c0-.081.081-.162.243-.162h.162c.486 0 .972 0 1.215.324.081.081.162.324.081.729m-.324-2.673h-2.754c-.162 0-.324.162-.405.324l-1.134 7.128c0 .162.081.243.243.243h1.296c.162 0 .324-.162.405-.324l.324-1.944c0-.162.162-.324.405-.324h.891c1.863 0 2.916-.891 3.159-2.673.162-.729 0-1.377-.324-1.782-.486-.405-1.134-.648-2.106-.648"/></g><g><path fill="#263b80" d="M102.355 14.124c-.162.729-.73 1.296-1.54 1.296-.404 0-.728-.162-.89-.324-.162-.243-.243-.567-.243-.972a1.483 1.483 0 0 1 1.458-1.296c.405 0 .648.162.89.324.244.243.325.648.325.972m1.863-2.592h-1.296c-.081 0-.243.081-.243.162l-.081.405-.081-.162c-.324-.405-.891-.567-1.54-.567-1.457 0-2.753 1.134-2.996 2.673-.162.81.08 1.539.486 2.025.405.486.972.648 1.7.648 1.216 0 1.864-.729 1.864-.729l-.081.405c0 .162.08.243.243.243h1.215c.162 0 .324-.162.405-.324l.729-4.536c-.081-.081-.243-.243-.324-.243"/></g><g><path fill="#139ad6" d="M122.125 14.124c-.162.729-.73 1.296-1.54 1.296-.404 0-.728-.162-.89-.324-.162-.243-.243-.567-.243-.972a1.483 1.483 0 0 1 1.458-1.296c.405 0 .648.162.89.324.325.243.406.648.325.972m1.863-2.592h-1.296c-.081 0-.243.081-.243.162l-.081.405-.081-.162c-.324-.405-.891-.567-1.54-.567-1.457 0-2.753 1.134-2.996 2.673-.162.81.08 1.539.486 2.025.405.486.972.648 1.7.648 1.216 0 1.864-.729 1.864-.729l-.081.405c0 .162.08.243.243.243h1.215c.162 0 .324-.162.405-.324l.729-4.536c-.081-.081-.162-.243-.324-.243"/></g><g><g><path fill="#263b80" d="M111.267 11.54h-1.377c-.162 0-.243.081-.324.162l-1.782 2.754-.81-2.592c-.081-.162-.162-.243-.405-.243h-1.296c-.162 0-.243.162-.243.324l1.458 4.293-1.377 1.944c-.081.162 0 .405.162.405h1.296c.162 0 .243-.081.324-.162l4.455-6.399c.243-.243.081-.486-.081-.486"/></g><g><path fill="#139ad6" d="M125.524 9.184l-1.134 7.29c0 .162.081.243.243.243h1.134c.162 0 .324-.162.405-.324l1.134-7.128c0-.162-.081-.243-.243-.243h-1.296c-.081-.081-.162 0-.243.162"/></g><g><path fill="#263b80" d="M85.585 6.512c-.567-.648-1.62-.972-3.078-.972h-4.05c-.243 0-.486.243-.567.486l-1.62 10.611c0 .243.162.405.324.405h2.511l.648-3.969v.162c.081-.243.324-.486.567-.486h1.215c2.349 0 4.131-.972 4.698-3.645v-.243c-.081 0-.081 0 0 0 .081-1.053-.081-1.701-.648-2.349"/></g></g><g><path fill="#139ad6" d="M86.16 8.86v.243c-.567 2.754-2.349 3.645-4.698 3.645h-1.215c-.243 0-.486.243-.567.486l-.81 4.941c0 .162.081.324.324.324H81.3c.243 0 .486-.162.486-.405v-.081l.405-2.511v-.162c0-.243.243-.405.486-.405h.324c2.025 0 3.645-.81 4.05-3.24.162-.972.081-1.863-.405-2.43a.83.83 0 0 0-.486-.405"/></g><g><path fill="#232c65" d="M85.592 8.623c-.081 0-.162-.081-.243-.081-.081 0-.162 0-.243-.081-.324-.081-.648-.081-1.053-.081h-3.159c-.081 0-.162 0-.243.081a.445.445 0 0 0-.243.405l-.648 4.212v.162c.081-.243.324-.486.567-.486h1.215c2.349 0 4.131-.972 4.698-3.645 0-.081 0-.162.081-.243-.162-.081-.243-.162-.405-.162-.243-.081-.243-.081-.324-.081"/></g></g><g><g><path fill="#ff5f00" d="M175.52 2.09h9.331v15.25h-9.331z"/></g><g><path fill="#211e1f" d="M192.497 23.567a.81.81 0 0 0 .606.25.78.78 0 0 0 .588-.256.77.77 0 0 0 .194-.608.792.792 0 0 0-.202-.601.81.81 0 0 0-1.186-.013.8.8 0 0 0-.22.614.8.8 0 0 0 .22.614zm1.863.595h-.52v-.302c-.19.26-.501.407-.824.389a1.303 1.303 0 0 1-.907-.41 1.293 1.293 0 0 1-.35-.93c-.025-.347.096-.689.335-.943.238-.254.573-.398.922-.396.319.002.62.144.824.39v-1.34h.52zm-7.045-.595a.81.81 0 0 0 .605.25.78.78 0 0 0 .588-.256.77.77 0 0 0 .195-.608.792.792 0 0 0-.203-.601.81.81 0 0 0-1.186-.013.8.8 0 0 0-.22.614.8.8 0 0 0 .22.614zm1.863.595h-.52v-.302c-.191.26-.501.407-.824.389a1.303 1.303 0 0 1-.907-.41 1.293 1.293 0 0 1-.35-.93c-.026-.347.096-.689.334-.943.239-.254.573-.398.923-.396.319.002.62.144.824.39v-.303h.52zm6.257-.13v.044a.043.043 0 0 0-.043.043l.087.087h-.044l-.087-.087h-.044v.087h-.043v-.216h-.043a.043.043 0 0 0-.044.043l-.043.043v.173c-.044 0-.044-.043-.044-.087v-.172c0-.044.044-.044.044-.087s.043-.043.087-.043h.174c.044 0 .044.043.088.043.043 0 .043.043.043.087v.172c0 .044-.043.044-.043.087v-.173a.043.043 0 0 0-.044-.043l-.044-.043zm-.304.217c.043 0 .043.043.087.043h.174c.016 0 .032 0 .046-.002l-.002.002c0 .024-.02.043-.044.043h-.174l-.044-.043a.043.043 0 0 1-.043-.043zm.349 0c0 .027-.018.037-.042.04l.042-.04zm-.22-.26h.044v-.043h-.043zm-3.707-2.246l-.174.475a.524.524 0 0 0-.347-.086c-.348 0-.565.26-.565.691v1.469h-.522V21.7h.522v.302a.74.74 0 0 1 .695-.388.528.528 0 0 1 .391.13zm-20.307 1.21a.83.83 0 0 0 .82.864.773.773 0 0 0 .778-.864.795.795 0 0 0-.778-.864.803.803 0 0 0-.82.864zm2.116 1.21h-.518v-.303a.95.95 0 0 1-.82.389 1.295 1.295 0 0 1-1.253-1.34 1.249 1.249 0 0 1 1.252-1.339c.318.002.618.144.82.39v-.303h.519zm6.958-2.074a.677.677 0 0 0-.696.648h1.392a.677.677 0 0 0-.696-.648zm1.257.864v.216h-1.95a.75.75 0 0 0 .78.648c.268 0 .528-.092.737-.26l.26.39c-.292.24-.663.364-1.04.345a1.242 1.242 0 0 1-.957-.375 1.233 1.233 0 0 1-.345-.964c-.025-.347.096-.69.335-.944.239-.254.573-.398.923-.395.737 0 1.214.518 1.257 1.339zm2.365 0a1.27 1.27 0 0 1 1.34-1.34c.329-.018.653.09.906.303l-.26.389a1.295 1.295 0 0 0-.69-.216.864.864 0 0 0 0 1.728c.246-.005.486-.08.69-.216l.26.389c-.253.212-.577.32-.907.302a1.27 1.27 0 0 1-1.339-1.34zm-7.98-.602a1.883 1.883 0 0 0-.824-.217c-.304 0-.52.13-.52.303 0 .174.216.217.476.26l.26.044c.565.087.868.303.868.78 0 .477-.434.824-1.17.824a2.1 2.1 0 0 1-1.129-.347l.26-.39c.258.17.56.26.868.26.39 0 .607-.173.607-.347 0-.173-.173-.26-.477-.303l-.26-.043c-.564-.044-.868-.304-.868-.738 0-.52.39-.823 1.041-.823.365-.013.726.078 1.041.26zm7.426-.737a.528.528 0 0 1 .392.13l-.174.474a.524.524 0 0 0-.348-.086c-.348 0-.565.26-.565.691v1.469h-.521V21.7h.521v.302a.74.74 0 0 1 .695-.388zm-4.791.475h-.955v1.21c0 .259.13.431.39.431.168-.007.33-.052.478-.13l.174.476a1.205 1.205 0 0 1-.694.216c-.651 0-.868-.346-.868-.95v-1.21h-.564v-.475h.564v-.778h.52v.778h.955zm-8.94 2.16V22.78c0-.432-.217-.691-.606-.691a.628.628 0 0 0-.65.691v1.469h-.52V22.78c0-.432-.172-.691-.562-.691a.628.628 0 0 0-.65.691v1.469h-.519v-2.592h.52v.302a.923.923 0 0 1 .779-.389.949.949 0 0 1 .866.476c.188-.317.54-.501.909-.476a.966.966 0 0 1 .995 1.037v1.642z"/></g><g><path fill="#eb001b" d="M176.515 9.695a9.647 9.647 0 0 1 3.715-7.603 9.681 9.681 0 1 0-6.005 17.28 9.815 9.815 0 0 0 6.005-2.073 9.582 9.582 0 0 1-3.715-7.604"/></g><g><path fill="#f79e1b" d="M195.481 15.699v-.303l-.086.26h-.087l-.086-.26v.303h-.086v-.389h.086l.13.26.13-.26h.086v.389zm-.518 0l-.043-.303h-.13v-.043h.302v.043h-.13z"/></g><g><path fill="#f79e1b" d="M195.872 9.688a9.66 9.66 0 0 1-9.677 9.677 9.815 9.815 0 0 1-6.005-2.074 9.638 9.638 0 0 0 0-15.206 9.69 9.69 0 0 1 15.682 7.603"/></g></g><g><g><path fill="#002663" d="M260.714 5.974c0-.262-.116-.442-.297-.524-.165-.098-.43-.114-.677-.114h-1.766v1.326h1.733c.28 0 .512 0 .71-.13.181-.1.297-.312.297-.558zm10.114 1.533h1.98l-.99-2.402zm-33.924 0h1.947l-.974-2.402zm8.01 2.564l-2.08-4.686v4.686h-2.907l-.545-1.337h-2.972l-.561 1.337h-1.568l2.559-5.99h2.13l2.427 5.66v-5.66h2.328l1.865 4.06 1.717-4.06h2.378v5.99h-1.47V5.385l-2.08 4.686zm5.85-5.973h4.785v1.254h-3.35v1.073h3.267v1.22H252.2v1.189h3.35v1.237h-4.785zm5.775 0h3.284c.726 0 1.27.017 1.732.28.446.264.726.66.726 1.32 0 .957-.643 1.452-1.006 1.601.313.116.577.33.709.511.198.298.231.562.231 1.106v1.171h-1.435V9.33c0-.364.033-.875-.231-1.172-.215-.214-.528-.264-1.04-.264h-1.534v2.178h-1.436zm6.567 0h1.452v5.99h-1.452zm2.937.693c.462-.478 1.188-.693 2.178-.693h1.386v1.287h-1.37c-.528 0-.808.083-1.105.347-.247.247-.412.726-.412 1.353 0 .643.131 1.105.395 1.402.215.231.627.314.99.314h.644l2.013-4.703h2.145l2.425 5.66v-5.66h2.178l2.508 4.175V4.098h1.469v5.99h-2.03L276.751 5.6v4.488h-2.904l-.56-1.337h-2.97l-.545 1.337h-1.667c-.693 0-1.567-.149-2.079-.66-.495-.512-.759-1.188-.759-2.277 0-.908.165-1.716.776-2.36zM247.2 10.219v1.024h11.946V9.063h.231c.165 0 .214.017.214.281v1.897h6.171v-.495c.495.265 1.271.512 2.294.512h2.607l.561-1.337h1.238l.544 1.337h5.016v-1.27l.759 1.27h4.01V2.91h-3.993v.99l-.561-.99h-4.076v.99l-.511-.99h-5.511c-.924 0-1.733.132-2.393.495V2.91h-3.795v.495c-.412-.363-.99-.495-1.617-.495h-13.876l-.924 2.162-.957-2.162h-4.373v.99l-.478-.99h-3.73l-3.646 8.349h4.356l.545-1.337h1.237l.545 1.337h4.801v-1.023l.429 1.023h2.492z"/></g><g><path fill="#002663" d="M247.093 16.718h3.13v1.221h-3.13v1.188h3.509l1.63-1.749-1.564-1.749h-3.575zm18.759-1.105h-1.76v1.336h1.727c.28 0 .51-.017.707-.116.18-.115.296-.313.296-.577a.59.59 0 0 0-.296-.528c-.165-.099-.428-.116-.674-.116zm-9.576-.578l-2.185 2.36 2.185 2.442zm1.43.594v1.518h1.84c.543 0 .889-.28.889-.792s-.362-.726-.872-.726zm27.429.03h-2.608c-.247 0-.429.017-.561.116a.482.482 0 0 0-.215.428c0 .231.132.38.314.445.149.05.314.066.545.066l.775.017c.776.016 1.304.148 1.618.477.066.05.099.1.132.149v-.017c.016.017.726.972.016 2.257-.346.51-1.023.758-1.947.758h-2.756V19.07h2.756c.28 0 .462-.033.577-.149a.545.545 0 0 0 .165-.395c0-.181-.066-.313-.181-.395-.1-.083-.248-.132-.512-.132-1.337-.05-3.02.05-3.02-1.845 0-.873.545-1.779 2.047-1.779h2.855zm-7.51 4.722h-2.789v-1.287h2.773c.264 0 .462-.033.578-.148a.546.546 0 0 0 .165-.396.503.503 0 0 0-.182-.396c-.115-.083-.264-.132-.512-.132-1.336-.05-3.02.049-3.02-1.848 0-.875.545-1.782 2.047-1.782h2.871v1.27h-2.624c-.264 0-.429.017-.577.116-.165.099-.215.247-.215.429 0 .23.132.379.314.445.148.05.313.066.56.066l.776.017c.776.016 1.304.148 1.634.478.28.28.43.643.43 1.27.016 1.287-.793 1.898-2.229 1.898zm-7-4.754v1.087h3.26v1.22h-3.26v1.185h3.343v1.235h-4.76v-5.979h4.76v1.252zm-2.541 2.454c.197.297.23.56.23 1.087v1.187h-1.43v-.742c0-.362.032-.89-.231-1.17-.214-.213-.526-.263-1.053-.263h-1.53v2.175h-1.43v-5.98h3.29c.723 0 1.25.033 1.71.28.444.28.74.642.74 1.334 0 .956-.642 1.433-1.004 1.582.313.131.576.346.708.51zm-8.605.287h-1.781v2.013h-2.788l-1.765-1.98-1.83 1.98h-5.658v-5.99h5.757l1.764 1.964 1.815-1.964h4.569c1.138 0 2.408.314 2.408 1.964 0 1.667-1.237 2.013-2.49 2.013zm26.801-1.221s-.181-.412-.478-.643h.478V13.22h-3.795c-.792 0-1.386.198-1.799.495v-.495h-3.91c-.627 0-1.353.148-1.716.495v-.495h-6.996v.495c-.561-.396-1.502-.495-1.93-.495h-4.604v.495c-.446-.429-1.419-.495-2.013-.495h-5.148l-1.188 1.27-1.105-1.27h-7.706v8.349h7.557l1.221-1.304 1.139 1.304h4.652v-1.964h.462c.627.017 1.353-.016 1.997-.297v2.244h3.845v-2.178h.181c.231 0 .264.017.264.248v1.93h11.682c.743 0 1.518-.181 1.947-.528v.528h3.713c.775 0 1.518-.115 2.095-.379 0 0 .083-.05.165-.116.017 0 .017-.016.033-.016.017 0 .017-.017.033-.017.314-.28.825-.874.924-1.452 0-.016.347-1.023 0-2.425z"/></g></g></g></g></svg>