<svg xmlns="http://www.w3.org/2000/svg" width="132" height="43" viewBox="0 0 132 43"><g><g><g><path fill="#072262" d="M52.861 3.057l-.06-1.154c0-.365-.046-.808-.046-1.134-.092.307-.198.652-.337.997l-.47 1.304h-.264l-.436-1.258a9.853 9.853 0 0 1-.33-1.023c0 .326 0 .762-.054 1.16l-.053 1.108h-.33L50.666.45h.443l.47 1.303c.112.32.198.606.27.88.073-.26.172-.547.291-.88L52.603.45h.437l.165 2.607zm-3.409 0h-.344V.737h-.828V.45h1.987v.287h-.815zm71.19 15.06c.16-.873.397-1.075 1.168-.873a13.25 13.25 0 0 0 3.588.47c1.714 0 2.387-.274 2.532-1.07.112-.651-.165-.918-1.319-1.492l-2.559-1.192c-1.582-.724-2.209-1.564-1.886-3.383.41-2.313 2.064-3.382 5.408-3.382.965-.01 1.926.116 2.855.372.831.273.983.423.838 1.244l-.053.3c-.158.867-.422 1.069-1.187.847a10.109 10.109 0 0 0-2.921-.404c-1.636 0-2.269.3-2.4 1.023-.106.6.15.874.955 1.271l2.698 1.238c1.701.776 2.407 1.643 2.07 3.513-.428 2.385-2.156 3.48-5.704 3.48a12.925 12.925 0 0 1-3.377-.423c-.79-.222-.93-.398-.784-1.22zm-5.3.58c-.158.9-.429 1.121-1.32 1.121h-.33c-.903 0-1.088-.221-.93-1.12l1.267-7.084c.52-2.937 2.366-4.406 5.541-4.406a2.79 2.79 0 0 1 .502 0c.811.098 1.003.3.844 1.167l-.06.352c-.144.814-.355.99-1.213.866a2.717 2.717 0 0 0-.501 0c-1.682 0-2.283.652-2.553 2.19zm-4.164-5.259c-.264.92-.56 1.14-1.49 1.14h-6.997l-.099.555c-.323 1.812.607 2.535 3.146 2.535a15.038 15.038 0 0 0 3.343-.398c.844-.202 1.035 0 .877.867l-.053.326c-.151.821-.33.997-1.253 1.219a13.23 13.23 0 0 1-3.343.397c-4.227 0-5.935-1.564-5.275-5.324l.389-2.164c.637-3.602 2.82-5.4 6.548-5.396 3.501 0 5.025 1.766 4.418 5.149a16.3 16.3 0 0 1-.244 1.094zm-8.147-.945h5.894l.112-.651c.29-1.636-.548-2.457-2.534-2.457-1.987 0-3.07.82-3.366 2.457zM91.491 16.6c.053.99.336 1.219 1.14 1.219.607 0 1.003-.248 1.405-1.219l3.297-8.01c.363-.899.66-1.12 1.61-1.12h.322c.937 0 1.069.221.66 1.12L95.25 19.806c-1.438 3.409-3.416 5.175-6.364 5.475-.659.071-.93-.15-.969-.92v-.325c-.046-.697.185-.893.884-.997 1.754-.222 2.888-1.245 3.818-3.206a2.96 2.96 0 0 1-1.187.175c-1.886 0-2.288-.997-2.473-3.186l-.66-8.231c-.065-.9.152-1.121 1.082-1.121h.33c.93 0 1.167.221 1.233 1.12zm-6.345-.508c-.488 2.763-2.348 3.982-6.067 3.982-3.403 0-4.886-1.271-4.431-3.832.455-2.562 2.486-3.754 5.81-3.754h2.75l.217-1.219c.257-1.466-.66-1.89-2.638-1.89-.9-.01-1.798.065-2.684.222-.752.124-.923 0-.785-.795l.06-.352c.132-.717.369-.945 1.101-1.069a16.55 16.55 0 0 1 2.552-.195c3.647 0 5.486 1.12 4.959 4.08zm-2.266-1.662h-2.772c-1.736 0-2.64.495-2.858 1.766-.218 1.27.66 1.714 2.165 1.714 1.888 0 2.91-.371 3.188-1.955zM70.642 3.637c3.903 0 5.176 1.89 4.569 5.272-.66 3.506-2.776 5.272-6.448 5.272h-4.128l-.797 4.517c-.165.918-.436 1.14-1.365 1.14h-.323c-.937 0-1.121-.222-.956-1.14l2.169-12.226c.356-1.955 1.365-2.835 3.376-2.835zM67.054 6.1c-.28-.025-.557.06-.773.238-.215.177-.35.431-.375.707l-.838 4.68h4.13c2.144 0 3.021-.822 3.377-2.816.357-1.994-.23-2.809-2.375-2.809zm4.734 24.17l.232-1.302c.165-.919.428-1.147 1.364-1.147h.33c.955 0 1.12.228.955 1.147l-.461 2.555c-.409 2.32.718 3.22 3.163 3.22h28.89c2.439-.007 3.882-.9 4.297-3.22l.455-2.555c.165-.919.435-1.147 1.364-1.147h.356c.93 0 1.114.242.949 1.147l-.455 2.555c-.692 3.917-3.4 5.69-7.407 5.69H76.93c-1.56 0-2.785-.255-3.68-.762l-.222 1.25c-.527 2.94-2.372 4.412-5.555 4.412-.164.015-.33.015-.494 0-.817-.098-1.009-.3-.85-1.173l.059-.345c.145-.828.356-.997 1.212-.874.167.015.335.015.501 0 1.694 0 2.287-.651 2.564-2.196l1.252-6.934c.022-.118.045-.225.071-.321zm-7.827-1.289c.165-.899.429-1.12 1.32-1.12h.33c.91 0 1.094.221.936 1.12l-1.537 8.72c-.528 2.941-2.381 4.412-5.56 4.412a2.756 2.756 0 0 1-.502 0c-.811-.098-1.003-.3-.85-1.173l.065-.345c.145-.828.35-.997 1.214-.874.167.016.334.016.501 0 1.689 0 2.289-.651 2.56-2.196zm56.497 10.982c.906 0 1.098.221.932 1.12l-.052.326c-.166.9-.43 1.121-1.323 1.121h-.344c-.906 0-1.097-.221-.932-1.12l.053-.327c.165-.899.43-1.12 1.322-1.12zm-27.672 0c.906 0 1.098.221.932 1.12l-.053.326c-.165.9-.43 1.121-1.322 1.121h-.337c-.913 0-1.105-.221-.94-1.12l.06-.327c.159-.899.423-1.12 1.323-1.12zm-3.887 0c.912 0 1.097.221.939 1.12l-.06.326c-.159.9-.43 1.121-1.322 1.121h-.344c-.913 0-1.098-.221-.94-1.12l.06-.327c.159-.899.43-1.12 1.323-1.12zM66.464 23.162c.913 0 1.098.228.94 1.12l-.06.326c-.159.9-.43 1.121-1.323 1.121h-.344c-.912 0-1.097-.221-.938-1.12l.059-.326c.159-.893.43-1.121 1.323-1.121zm50.649-1.278c.164-.919.428-1.147 1.364-1.147h.33c.93 0 1.114.228.956 1.147l-1.727 9.652c-.41 2.32.718 3.22 3.165 3.22 2.446 0 3.89-.9 4.305-3.22l.455-2.555c.165-.919.435-1.147 1.365-1.147h.356c.93 0 1.12.228.956 1.147l-.455 2.555c-.699 3.91-3.415 5.69-7.424 5.69-4.266 0-6.046-1.897-5.367-5.69z"/></g><g><path fill="#1780f2" d="M35.821.45h-18.97L14.32 2.366h21.165c8.731 0 14.583 7.025 13.047 15.64-1.535 8.616-9.884 15.642-18.635 15.642H19.81l-.343 1.955h10.089c9.805 0 19.181-7.886 20.908-17.596C52.189 8.297 45.639.45 35.82.45z"/></g><g><path fill="#1780f2" d="M21.745 33.69l-1.291 7.338H18.51l1.292-7.338z"/></g><g><path fill="#08c4ff" d="M34.837 4.05H12.09L9.56 5.96h24.934c6.728 0 11.202 5.415 10.05 12.062-1.154 6.648-7.625 12.07-14.353 12.07H16.927l-.343 1.955h13.271c7.789 0 15.248-6.27 16.625-13.979 1.378-7.71-3.848-14.018-11.643-14.018z"/></g><g><path fill="#08c4ff" d="M18.886 30.08l-1.812 9.978H15.13l1.812-9.978z"/></g><g><path fill="#f5b00d" d="M33.85 7.7H7.273L4.79 9.603h28.717c4.691 0 7.834 3.773 7.01 8.413-.823 4.64-5.317 8.427-10.028 8.427h-16.58l-.342 1.916h16.599c5.759 0 11.268-4.634 12.282-10.33C43.463 12.334 39.608 7.7 33.85 7.7z"/></g><g><path fill="#f5b00d" d="M13.224 41.032l2.629-14.592H13.91L11.28 41.032z"/></g><g><path fill="#f58a0d" d="M9.604 41.025l3.222-18.065h-1.944L7.66 41.025z"/></g><g><path fill="#f58a0d" d="M32.9 11.16H2.694L.17 13.07h32.387a4.111 4.111 0 0 1 3.305 1.477 4.014 4.014 0 0 1 .82 3.495c-.566 2.803-3.003 4.855-5.891 4.96H10.878l-.343 1.954h19.946c4.002-.165 7.366-3.026 8.132-6.914.678-3.806-1.892-6.882-5.713-6.882z"/></g><g><path fill="#08c4ff" d="M16.897 41.032L18.4 32.69l-.139.065c-.659.267-1.318.509-1.944.763l-1.357 7.514z"/></g></g></g></svg>