<svg xmlns="http://www.w3.org/2000/svg" width="51" height="17" viewBox="0 0 51 17"><g><g><path fill="#001247" d="M8.232 14.336l-.37 2.104h-.754l.372-2.11.131-.752h3.91c3.393 0 6.629-2.723 7.224-6.063.595-3.34-1.673-6.062-5.057-6.062H5.484l.98-.743h7.354c3.806 0 6.344 3.041 5.675 6.805-.67 3.764-4.304 6.82-8.104 6.82zm-2.29-2.807l-.885 4.91h-.753l1.019-5.655h.753v.002h5.673c1.826 0 3.568-1.467 3.887-3.266.32-1.798-.899-3.26-2.717-3.26H1.788l.963-.738h10.3c2.233 0 3.727 1.796 3.334 4.003-.394 2.208-2.529 4.004-4.761 4.004zm-1.04-2.076h6.967a2.411 2.411 0 0 0 2.283-1.923 1.556 1.556 0 0 0-.317-1.354 1.594 1.594 0 0 0-1.281-.573H0l.978-.74h11.708c1.482 0 2.478 1.192 2.215 2.667a3.342 3.342 0 0 1-3.152 2.68H4.766l-1.111 6.23h-.754l1.25-7.002h.753zm1.357 4.074l.12-.667.116-.659H6.5l.001-.005h.754l-.001.005h4.384c2.607 0 5.116-2.102 5.563-4.678.446-2.577-1.288-4.676-3.896-4.676H3.64l.98-.74h8.817c3.022 0 5.047 2.445 4.513 5.433-.533 2.989-3.425 5.419-6.444 5.419h-4.39l-.565 3.104-.069.377h-.75l.067-.377h-.001l.298-1.64.162-.896zM19.097 2.082h-.133V.86h-.319V.71h.766v.15h-.314zm1.32 0l-.022-.607c0-.192-.018-.425-.018-.597a7.854 7.854 0 0 1-.13.525l-.182.686h-.102l-.168-.662a6.608 6.608 0 0 1-.128-.539c0 .172 0 .402-.02.61l-.021.584h-.128L19.57.71h.17l.182.686c.044.168.077.319.105.463a8.89 8.89 0 0 1 .112-.463l.18-.686h.168l.064 1.372zm26.28 5.485c.061-.34.153-.418.452-.34.453.125.92.186 1.39.183.664 0 .924-.107.98-.415.044-.254-.063-.357-.51-.58l-.991-.463c-.613-.281-.856-.608-.73-1.314.158-.898.799-1.314 2.094-1.314.373-.003.746.045 1.106.145.321.106.38.164.324.483l-.02.117c-.062.336-.164.415-.46.329A3.905 3.905 0 0 0 49.2 4.24c-.633 0-.878.116-.93.397-.04.233.06.34.37.494l1.046.48c.658.302.932.638.802 1.365-.167.926-.836 1.352-2.21 1.352a4.992 4.992 0 0 1-1.308-.165c-.306-.086-.36-.154-.303-.473zm-2.056.216c-.061.349-.166.434-.51.434h-.128c-.35 0-.422-.085-.36-.434l.49-2.746c.2-1.138.916-1.707 2.145-1.707a1.08 1.08 0 0 1 .194 0c.315.037.389.116.327.452l-.023.136c-.056.316-.138.384-.47.336a1.05 1.05 0 0 0-.194 0c-.651 0-.883.253-.988.849zM39.87 5.388h2.28l.044-.254c.113-.64-.212-.96-.98-.96-.77 0-1.188.32-1.303.96zm3.164.361c-.102.357-.218.443-.578.443H39.74l-.039.215c-.125.704.236.985 1.221.985a5.835 5.835 0 0 0 1.298-.154c.328-.079.402 0 .34.336l-.02.127c-.059.319-.128.387-.486.473-.424.107-.86.159-1.298.155-1.641 0-2.304-.608-2.048-2.068l.151-.84c.247-1.4 1.095-2.098 2.542-2.097 1.36 0 1.95.686 1.715 2a6.33 6.33 0 0 1-.095.425zm-7.639 1.22c.02.385.13.473.442.473.235 0 .388-.096.544-.472l1.277-3.105c.14-.349.256-.434.623-.434h.125c.363 0 .414.085.256.434L36.85 8.212c-.557 1.322-1.323 2.006-2.465 2.122-.255.028-.36-.058-.375-.356v-.126c-.018-.27.071-.346.342-.387.68-.086 1.119-.482 1.479-1.242a1.146 1.146 0 0 1-.46.068c-.73 0-.886-.387-.958-1.236l-.255-3.19c-.026-.349.059-.434.419-.434h.128c.36 0 .452.085.477.434zm-3.34-.84h-1.073c-.672 0-1.022.191-1.106.684-.085.493.255.664.837.664.73 0 1.127-.144 1.234-.757zm.869.65c-.189 1.074-.907 1.547-2.345 1.547-1.315 0-1.888-.494-1.712-1.488.176-.995.96-1.458 2.245-1.458h1.063l.084-.474c.099-.57-.255-.734-1.02-.734a5.55 5.55 0 0 0-1.037.086c-.29.049-.357 0-.303-.308l.023-.137c.05-.278.142-.367.425-.415.327-.051.656-.076.987-.076 1.409 0 2.12.435 1.916 1.584zm-7-3.879a.414.414 0 0 0-.3.092.402.402 0 0 0-.145.274l-.326 1.814h1.604c.833 0 1.174-.318 1.313-1.091.138-.773-.09-1.089-.923-1.089zm1.387-.955c1.512 0 2.005.733 1.77 2.044-.255 1.359-1.075 2.043-2.498 2.043h-1.598l-.31 1.751c-.063.356-.168.442-.528.442h-.125c-.363 0-.435-.086-.37-.442l.84-4.739c.137-.758.528-1.099 1.307-1.099zm18.016 7.073c.064-.356.165-.444.527-.444h.128c.36 0 .43.088.37.444l-.668 3.741c-.158.9.278 1.248 1.223 1.248.946 0 1.504-.348 1.665-1.248l.176-.99c.064-.356.168-.444.528-.444h.137c.36 0 .434.088.37.444l-.176.99c-.27 1.516-1.32 2.206-2.87 2.206-1.65 0-2.338-.736-2.076-2.206zm-19.635.495c.352 0 .424.089.363.435l-.023.126c-.062.349-.166.435-.511.435h-.133c-.352 0-.424-.086-.363-.435l.023-.126c.062-.346.166-.435.511-.435zm8.697 6.513c.352 0 .424.085.363.434l-.023.126c-.062.349-.166.435-.511.435h-.133c-.353 0-.424-.086-.363-.435l.023-.126c.061-.349.166-.434.511-.434zm1.507 0c.35 0 .424.085.36.434l-.02.126c-.064.349-.167.435-.511.435h-.13c-.353 0-.427-.086-.363-.435l.023-.126c.061-.349.163-.434.51-.434zm10.727 0c.35 0 .424.085.36.434l-.02.126c-.064.349-.166.435-.511.435h-.133c-.35 0-.424-.086-.36-.435l.02-.126c.064-.349.166-.434.511-.434zm-21.902-4.257c.064-.348.166-.434.511-.434h.128c.352 0 .424.086.363.434l-.595 3.38c-.205 1.14-.922 1.71-2.154 1.71-.064.006-.13.006-.194 0-.314-.038-.388-.116-.33-.455l.026-.133c.057-.321.136-.387.47-.339.065.006.13.006.194 0 .654 0 .887-.253.991-.851zm3.038.5l.09-.505c.064-.356.166-.445.529-.445h.128c.37 0 .434.089.37.445l-.179.99c-.158.9.279 1.248 1.227 1.248h11.203c.946-.002 1.506-.348 1.667-1.248l.176-.99c.064-.356.169-.445.529-.445h.138c.36 0 .432.094.368.445l-.176.99c-.269 1.518-1.32 2.206-2.873 2.206H29.753c-.605 0-1.08-.099-1.427-.296l-.086.485c-.205 1.14-.92 1.71-2.154 1.71a1.035 1.035 0 0 1-.192 0c-.317-.038-.391-.116-.33-.455l.023-.133c.057-.321.138-.387.47-.339.065.006.13.006.195 0 .657 0 .887-.253.994-.851l.485-2.688c.009-.046.018-.087.028-.125z"/></g></g></svg>