<?xml version="1.0" encoding="UTF-8"?>
<svg width="68px" height="42px" viewBox="0 0 68 42" version="1.1" xmlns="http://www.w3.org/2000/svg" xmlns:xlink="http://www.w3.org/1999/xlink">
    <!-- Generator: Sketch 56.2 (81672) - https://sketch.com -->
    <title>payers-small-card</title>
    <desc>Created with Sketch.</desc>
    <g id="payers-small-card" stroke="none" stroke-width="1" fill="none" fill-rule="evenodd">
        <g id="ps-small-card" fill-rule="nonzero">
            <path d="M3.136,4.61852778e-14 L64.6931069,4.61852778e-14 C66.4250719,4.61852778e-14 67.8291069,1.40403502 67.8291069,3.136 L67.8291069,38.1146955 C67.8291069,39.8466605 66.4250719,41.2506955 64.6931069,41.2506955 L3.136,41.2506955 C1.40403502,41.2506955 0,39.8466605 0,38.1146955 L0,3.136 C0,1.40403502 1.40403502,4.61852778e-14 3.136,4.61852778e-14 Z M27.2764942,2.447442 C26.7937495,2.447442 26.4024077,2.83878383 26.4024077,3.32152843 C26.4024077,3.80427304 26.7937495,4.19561486 27.2764942,4.19561486 L40.5526128,4.19561486 C41.0353574,4.19561486 41.4266992,3.80427304 41.4266992,3.32152843 C41.4266992,2.83878383 41.0353574,2.447442 40.5526128,2.447442 L27.2764942,2.447442 Z" id="Shape" fill="#001247"></path>
            <path d="M36.5160396,23.8363906 L36.5908556,23.4160201 C36.6440666,23.1192077 36.7292043,23.0455308 37.0314431,23.0455308 L37.1378652,23.0455308 C37.4464894,23.0455308 37.4997004,23.1192077 37.4464894,23.4160201 L37.2974984,24.2412008 C37.165535,24.9905996 37.5294986,25.2810969 38.3191507,25.2810969 L47.6502417,25.2810969 C48.4377653,25.2789918 48.9038942,24.9905996 49.037986,24.2412008 L49.1848486,23.4160201 C49.2380596,23.1192077 49.3253257,23.0455308 49.6254361,23.0455308 L49.740372,23.0455308 C50.0404824,23.0455308 50.1000787,23.1234178 50.0468677,23.4160201 L49.9000052,24.2412008 C49.6765187,25.5063375 48.8017289,26.0789119 47.507636,26.0789119 L38.1765451,26.0789119 C37.6726526,26.0789119 37.2770502,25.9968957 36.9883824,25.8328634 L36.9165072,26.2367909 C36.7462319,27.1861697 36.150268,27.6619116 35.1222304,27.6619116 C35.0691368,27.6668562 35.0156908,27.6668562 34.9625972,27.6619116 C34.6986704,27.6303358 34.6369456,27.5650792 34.6880282,27.2830021 L34.7071841,27.1714343 C34.7540099,26.9040926 34.82212,26.8493612 35.0988175,26.8893572 C35.1526262,26.8942153 35.2067705,26.8942153 35.2605791,26.8893572 C35.8075888,26.8893572 35.9991486,26.6788519 36.0885432,26.1799544 L36.4929472,23.9401783 C36.4999602,23.9018921 36.5075277,23.8674086 36.5160396,23.8363906 Z M33.9856422,23.4202302 C34.0388533,23.1297329 34.123991,23.0581611 34.4113307,23.0581611 L34.5177528,23.0581611 C34.8114778,23.0581611 34.8710742,23.1297329 34.8199916,23.4202302 L34.3240645,26.2367909 C34.1537892,27.1868713 33.5556969,27.6619116 32.5297877,27.6619116 C32.4759818,27.6668287 32.421832,27.6668287 32.3680261,27.6619116 C32.1062277,27.6303358 32.0445029,27.5650792 32.093457,27.2830021 L32.1147414,27.1714343 C32.1615672,26.9040926 32.2275489,26.8493612 32.5063748,26.8893572 C32.5601807,26.8942743 32.6143305,26.8942743 32.6681364,26.8893572 C33.2130177,26.8893572 33.4067059,26.6788519 33.493972,26.1799544 L33.9856422,23.4202302 Z M52.2370348,26.9672442 C52.5286314,26.9672442 52.5903562,27.038816 52.5371452,27.3293133 L52.5201176,27.4345659 C52.4669066,27.7250632 52.3817689,27.796635 52.0944292,27.796635 L51.9837502,27.796635 C51.6921536,27.796635 51.6304287,27.7250632 51.6836398,27.4345659 L51.7006673,27.3293133 C51.7538784,27.038816 51.8390161,26.9672442 52.1263558,26.9672442 L52.2370348,26.9672442 Z M43.2975772,26.9672442 C43.5891738,26.9672442 43.6508986,27.038816 43.5976876,27.3293133 L43.58066,27.4345659 C43.527449,27.7250632 43.4423113,27.796635 43.1549716,27.796635 L43.046421,27.796635 C42.752696,27.796635 42.6909712,27.7250632 42.7441822,27.4345659 L42.7633382,27.3293133 C42.8144208,27.038816 42.8995585,26.9672442 43.1890266,26.9672442 L43.2975772,26.9672442 Z M42.0417963,26.9672442 C42.3355213,26.9672442 42.3951177,27.038816 42.3440351,27.3293133 L42.3248791,27.4345659 C42.2737965,27.7250632 42.1865303,27.796635 41.8991906,27.796635 L41.7885116,27.796635 C41.4947866,27.796635 41.4351902,27.7250632 41.4862728,27.4345659 L41.5054288,27.3293133 C41.5565114,27.038816 41.6437775,26.9672442 41.9311173,26.9672442 L42.0417963,26.9672442 Z M34.7944503,21.540418 C35.0881753,21.540418 35.1477717,21.6140949 35.0966891,21.9024871 L35.0775331,22.0077398 C35.0264505,22.2982371 34.9391844,22.3698088 34.6518447,22.3698088 L34.5411657,22.3698088 C34.2474406,22.3698088 34.1878442,22.2982371 34.2389268,22.0077398 L34.2580828,21.9024871 C34.3091654,21.6140949 34.3964316,21.540418 34.6837713,21.540418 L34.7944503,21.540418 Z M51.1579146,21.1278277 C51.2111256,20.8310153 51.2962633,20.7573384 51.5985021,20.7573384 L51.7049242,20.7573384 C52.0050346,20.7573384 52.064631,20.8310153 52.0135484,21.1278277 L51.4558965,24.2454109 C51.3239331,24.9948097 51.6878967,25.285307 52.4775488,25.285307 C53.2672009,25.285307 53.7333297,24.9948097 53.8674216,24.2454109 L54.0142841,23.4202302 C54.0674952,23.1234178 54.1547613,23.0497409 54.4548716,23.0497409 L54.5698075,23.0497409 C54.8699179,23.0497409 54.9316427,23.1234178 54.8784317,23.4202302 L54.7315691,24.2454109 C54.5059543,25.5084426 53.629036,26.083122 52.3349431,26.083122 C50.957841,26.083122 50.3831616,25.4705516 50.6023911,24.2454109 L51.1579146,21.1278277 Z M36.1438827,15.2336798 C37.4039205,15.2336798 37.8147099,15.8441452 37.6188932,16.9366676 C37.406049,18.069186 36.722819,18.6396553 35.5372766,18.6396553 L34.2048718,18.6396553 L33.9473303,20.0984569 C33.8941192,20.3952693 33.8068531,20.4668411 33.5067427,20.4668411 L33.402449,20.4668411 C33.1002102,20.4668411 33.0406138,20.3952693 33.0938249,20.0984569 L33.7940824,16.1493778 C33.9090183,15.517862 34.23467,15.2336798 34.8838449,15.2336798 L36.1438827,15.2336798 Z M34.9860101,16.0293898 C34.8959535,16.0212042 34.8063032,16.0487818 34.7368283,16.1060414 C34.6673534,16.1633009 34.62376,16.2455396 34.6156611,16.3346225 L34.345349,17.8460504 L35.6777538,17.8460504 C36.3694976,17.8460504 36.6525804,17.5808137 36.7675163,16.9366676 C36.8824522,16.2925214 36.6930208,16.0293898 36.0012771,16.0293898 L34.9860101,16.0293898 Z M40.8285842,19.2564358 C40.6710794,20.1489781 40.0708587,20.542623 38.8704173,20.542623 C37.772141,20.542623 37.2932415,20.1321377 37.440104,19.304852 C37.5869666,18.4775662 38.2425268,18.0923416 39.3152617,18.0923416 L40.2028221,18.0923416 L40.2730607,17.6986967 C40.35607,17.2250598 40.0602165,17.0882314 39.4216838,17.0882314 C39.1312894,17.0850253 38.8412393,17.1089893 38.5554078,17.1598032 C38.3127654,17.1997992 38.2574259,17.1598032 38.3021232,16.9029867 L38.3212791,16.7893139 C38.363848,16.5577581 38.4404719,16.4840812 38.676729,16.4440852 C38.9492092,16.4017918 39.2246209,16.3806766 39.5004362,16.3809313 C40.6774648,16.3809313 41.2713002,16.7430027 41.1010248,17.6986967 L40.8285842,19.2564358 Z M40.0964,18.7196473 L39.2024543,18.7196473 C38.6426739,18.7196473 38.3510773,18.8796313 38.2808387,19.2901166 C38.2106001,19.7006019 38.493683,19.8437455 38.9789678,19.8437455 C39.5877023,19.8437455 39.9176109,19.7237575 40.0070054,19.2122296 L40.0964,18.7196473 Z M42.8804025,19.4206299 C42.8974301,19.7405979 42.9889531,19.8142747 43.248623,19.8142747 C43.4444397,19.8142747 43.5721463,19.7342827 43.7019812,19.4206299 L44.7662024,16.83352 C44.8832667,16.5430227 44.9790466,16.4714509 45.2855423,16.4714509 L45.389836,16.4714509 C45.6920748,16.4714509 45.7346436,16.5430227 45.6026802,16.83352 L44.0936146,20.4563159 C43.6296142,21.5572585 42.9910815,22.1277278 42.0396678,22.2245602 C41.8268236,22.2477158 41.7395575,22.176144 41.7267868,21.9277477 L41.7267868,21.8224951 C41.7118877,21.5972545 41.7863832,21.5341029 42.0119981,21.5004221 C42.5781637,21.4288502 42.9442558,21.098357 43.2443661,20.4647361 C43.1219984,20.5096445 42.9915513,20.5289965 42.8612465,20.5215725 C42.252512,20.5215725 42.1226771,20.1994994 42.0630807,19.4922017 L41.8502365,16.83352 C41.828952,16.5430227 41.8991906,16.4714509 42.199301,16.4714509 L42.3057231,16.4714509 C42.6058335,16.4714509 42.6824574,16.5430227 42.7037418,16.83352 L42.8804025,19.4206299 Z M49.2380596,18.3996793 C49.1529219,18.6964917 49.057142,18.7680635 48.7570317,18.7680635 L46.4987544,18.7680635 L46.4668278,18.946993 C46.3625341,19.5321977 46.6626445,19.7658585 47.4820947,19.7658585 C47.8455572,19.763605 48.2075847,19.7205261 48.561215,19.6374503 C48.8336556,19.5721937 48.8953804,19.6374503 48.8442978,19.9174224 L48.8272703,20.022675 C48.7783161,20.2879116 48.7208481,20.344748 48.4228662,20.4163198 C48.0702542,20.5049183 47.7075438,20.5480784 47.343746,20.5447281 C45.9794145,20.5447281 45.4281479,20.0395154 45.6409922,18.8248999 L45.7665703,18.1260224 C45.9723197,16.9626299 46.6768341,16.3816353 47.8801134,16.3830361 C49.0103163,16.3830361 49.5019865,16.953508 49.3061698,18.0460304 C49.2848853,18.1660184 49.2572156,18.2796912 49.2274174,18.3996793 L49.2380596,18.3996793 Z M46.6094334,18.0944466 L48.5101324,18.0944466 L48.5463159,17.8839413 C48.6399673,17.3555731 48.3696552,17.0903364 47.728994,17.0903364 C47.0883329,17.0903364 46.7392684,17.3555731 46.6434885,17.8839413 L46.6094334,18.0944466 Z M50.5853636,20.0984569 C50.534281,20.3889542 50.4470148,20.460526 50.1596751,20.460526 L50.053253,20.460526 C49.7616564,20.460526 49.70206,20.3889542 49.7531426,20.0984569 L50.1618036,17.8102645 C50.329241,16.8615873 50.9252049,16.3872488 51.9496951,16.3872488 C52.0035038,16.3823907 52.057648,16.3823907 52.1114567,16.3872488 C52.3732551,16.4188246 52.4349799,16.4840812 52.3838973,16.7640532 L52.3647413,16.8777261 C52.3179156,17.1408577 52.2498054,17.1976941 51.9731079,17.1576981 C51.9193054,17.1527082 51.8651489,17.1527082 51.8113463,17.1576981 C51.2685936,17.1576981 51.0749053,17.3682034 50.9876392,17.8649958 L50.5853636,20.0984569 Z M52.2987596,19.9111072 C52.3498422,19.6290301 52.4264662,19.5637735 52.6754939,19.6290301 C53.0525063,19.7322706 53.4421789,19.7832782 53.8333665,19.7805939 C54.3867615,19.7805939 54.6038626,19.6921817 54.6506883,19.4353652 C54.6868719,19.22486 54.5974773,19.1385528 54.2249999,18.9533081 L53.3991643,18.5680835 C52.8883381,18.3344226 52.6861361,18.0628708 52.7904298,17.4755611 C52.9223932,16.7282673 53.4566322,16.3830387 54.5357525,16.3830387 C54.847137,16.3799284 55.1574055,16.4203232 55.457368,16.5030267 C55.7255517,16.5914389 55.7745059,16.6398551 55.7276801,16.9050918 L55.7106526,17.0019242 C55.65957,17.2818962 55.5744323,17.3471529 55.327533,17.2755811 C55.0214875,17.1862039 54.7037292,17.1422208 54.3846331,17.1450678 C53.8567794,17.1450678 53.6524489,17.2419002 53.6098801,17.4755611 C53.575825,17.6692259 53.6588342,17.7576382 53.9185042,17.8860464 L54.7890371,18.2860064 C55.3381752,18.5365077 55.5659185,18.8164797 55.457368,19.4206299 C55.3190192,20.1910792 54.7613673,20.5447281 53.6162654,20.5447281 C53.2484678,20.5473742 52.8819644,20.5013567 52.5265029,20.4078996 C52.2710899,20.3363278 52.2263926,20.2794914 52.2732183,20.0142548 L52.2987596,19.9111072 Z M30.399217,15.3474443 L30.380061,14.8416069 C30.380061,14.681568 30.3651619,14.487235 30.3651619,14.3443431 C30.3353637,14.4786615 30.3013086,14.6301269 30.2566113,14.7815923 L30.1054919,15.35316 L30.0203542,15.35316 L29.8798771,14.8015972 C29.8384187,14.6547158 29.8028931,14.5049379 29.7734549,14.3529166 C29.7734549,14.4958085 29.7734549,14.6872837 29.7564274,14.8616118 L29.7393999,15.3474443 L29.6329777,15.3474443 L29.6925741,14.204309 L29.8351798,14.204309 L29.9862992,14.7758766 C30.0224827,14.9159107 30.0501524,15.0416556 30.0735653,15.1616848 C30.0969782,15.0473713 30.1289048,14.9216264 30.1672168,14.7758766 L30.3162077,14.204309 L30.4566849,14.204309 L30.509896,15.3474443 L30.399217,15.3474443 Z M29.2988123,15.3474443 L29.1881333,15.3474443 L29.1881333,14.3300539 L28.922078,14.3300539 L28.922078,14.204309 L29.5606107,14.204309 L29.5606107,14.3300539 L29.2988123,14.3300539 L29.2988123,15.3474443 Z M18.4641427,25.6325965 L18.7008088,24.3294908 L18.7970781,23.7801943 L18.8005703,23.7801943 L18.801335,23.7759841 L19.4292254,23.7759841 L19.4284608,23.7801943 L20.7126761,23.7801943 L23.0816324,23.7801943 C25.254772,23.7801943 27.3449023,22.0287903 27.7173797,19.8816364 C28.0898571,17.7344826 26.6446448,15.9851837 24.4715052,15.9851837 L16.4174796,15.9851837 L17.2348015,15.3684032 L24.5821842,15.3684032 C27.1001314,15.3684032 28.7879862,17.4060943 28.3431417,19.8963718 C27.8982973,22.3866493 25.4889006,24.4117101 22.9730818,24.4117101 L19.3137668,24.4117101 L18.8439038,26.99882 L19.2717207,24.6180052 L19.2270234,24.6390558 C19.0141792,24.725363 18.801335,24.8032499 18.599133,24.885347 L18.4641427,25.6325965 Z M18.8429261,26.99882 L18.2173351,26.99882 L18.8429261,26.99882 Z M17.4688057,21.4898968 L21.2937409,21.4898968 L23.2753206,21.4898968 C24.208132,21.4560879 24.995438,20.7932736 25.178148,19.8879516 C25.2725829,19.4914266 25.1747087,19.0740272 24.9134451,18.7590853 C24.6521814,18.4441436 24.2573976,18.2676654 23.8457432,18.2817963 L13.3844494,18.2817963 L14.1996428,17.6650158 L23.9564222,17.6650158 C25.1909187,17.6650158 26.0210112,18.6586008 25.8017816,19.8879516 C25.5545896,21.1439881 24.4679815,22.067993 23.1752839,22.1214126 L17.3561641,22.1214126 L16.4302503,27.3124728 L15.8023598,27.3124728 L16.8431681,21.4772665 L17.4710585,21.4772665 L17.4688057,21.4898968 Z M18.3361206,23.2202502 L17.5987651,27.3124728 L16.9708746,27.3124728 L17.8201231,22.5992596 L18.4480136,22.5992596 L18.4476343,22.6013647 L23.1752839,22.6013647 C24.6971201,22.6013647 26.1487177,21.378329 26.414773,19.8795314 C26.6808283,18.3807338 25.6655613,17.1619082 24.1501104,17.1619082 L14.874359,17.1619082 L15.6767817,16.5472328 L24.2607894,16.5472328 C26.121048,16.5472328 27.3661867,18.0439253 27.0384066,19.8837415 C26.7106265,21.7235577 24.9312487,23.2202502 23.0709902,23.2202502 L18.3361206,23.2202502 Z M20.2444151,25.5589639 L19.9357947,27.3124728 L19.3079042,27.3124728 L19.6174222,25.5538638 L19.7272074,24.927448 L22.9858525,24.927448 C25.8124239,24.927448 28.5091602,22.6582011 29.0050873,19.8753213 C29.5010143,17.0924415 27.6109576,14.8231945 24.7907716,14.8231945 L17.9542149,14.8231945 L18.7715368,14.204309 L24.8993221,14.204309 C28.0707011,14.204309 30.1863727,16.7387926 29.6287209,19.8753213 C29.071069,23.01185 26.0422956,25.5589639 22.8751735,25.5589639 L20.2444151,25.5589639 Z" id="ps-logo" fill="#FFFFFF"></path>
        </g>
    </g>
</svg>