<?xml version="1.0" encoding="UTF-8"?>
<svg width="152px" height="104px" viewBox="0 0 152 104" version="1.1" xmlns="http://www.w3.org/2000/svg" xmlns:xlink="http://www.w3.org/1999/xlink">
    <!-- Generator: Sketch 56.2 (81672) - https://sketch.com -->
    <title>payers-card</title>
    <desc>Created with Sketch.</desc>
    <defs>
        <path d="M6.60787569,0.107942498 L137.807876,0.107942498 C141.342498,0.107942498 144.207876,2.9733201 144.207876,6.5079425 L144.207876,89.7079425 C144.207876,93.2425649 141.342498,96.1079425 137.807876,96.1079425 L6.60787569,96.1079425 C3.07325329,96.1079425 0.207875691,93.2425649 0.207875691,89.7079425 L0.207875691,6.5079425 C0.207875691,2.9733201 3.07325329,0.107942498 6.60787569,0.107942498 Z M69.9951713,6.89179328 L58.2597225,6.89179328 C57.155153,6.89179328 56.2597225,7.78722378 56.2597225,8.89179328 L56.2597225,8.9601997 C56.2597225,10.0647692 57.155153,10.9601997 58.2597225,10.9601997 L86.1560289,10.9601997 C87.2605984,10.9601997 88.1560289,10.0647692 88.1560289,8.9601997 L88.1560289,8.89179328 C88.1560289,7.78722378 87.2605984,6.89179328 86.1560289,6.89179328 L74.4205801,6.89179328 L74.4205801,5.53904303 C74.4205801,4.43447353 73.5251496,3.53904303 72.4205801,3.53904303 L71.9951713,3.53904303 C70.8906018,3.53904303 69.9951713,4.43447353 69.9951713,5.53904303 L69.9951713,6.89179328 Z" id="path-1"></path>
        <filter x="-4.9%" y="-5.2%" width="109.7%" height="114.6%" filterUnits="objectBoundingBox" id="filter-2">
            <feOffset dx="0" dy="2" in="SourceAlpha" result="shadowOffsetOuter1"></feOffset>
            <feGaussianBlur stdDeviation="2" in="shadowOffsetOuter1" result="shadowBlurOuter1"></feGaussianBlur>
            <feColorMatrix values="0 0 0 0 0.818090074   0 0 0 0 0.847293774   0 0 0 0 0.866762908  0 0 0 0.880162806 0" type="matrix" in="shadowBlurOuter1"></feColorMatrix>
        </filter>
    </defs>
    <g id="Desktop-Ar" stroke="none" stroke-width="1" fill="none" fill-rule="evenodd">
        <g id="Welcome" transform="translate(-1155.000000, -300.000000)" fill-rule="nonzero">
            <g id="payers-card" transform="translate(1158.000000, 301.000000)">
                <g id="ps-logo" transform="translate(0.792124, 0.892058)">
                    <g id="Combined-Shape">
                        <use fill="black" fill-opacity="1" filter="url(#filter-2)" xlink:href="#path-1"></use>
                        <use fill="#FFFFFF" xlink:href="#path-1"></use>
                    </g>
                    <path d="M41.8104071,58.4453845 L42.0025246,57.3875675 L42.1858336,56.3416374 L42.1924833,56.3416374 L42.1939392,56.3336208 L43.389522,56.3336208 L43.388066,56.3416374 L45.8333742,56.3416374 L50.3441661,56.3416374 C54.4820983,56.3416374 58.4619705,53.0067431 59.1712145,48.918291 C59.8804585,44.8298388 57.1285917,41.4989528 52.9906595,41.4989528 L37.6547775,41.4989528 L39.2110616,40.3245249 L53.2014063,40.3245249 C57.9958958,40.3245249 61.2097844,44.2045461 60.3627444,48.946349 C59.5157044,53.6881518 54.9279089,57.5441233 50.1374722,57.5441233 L43.1696742,57.5441233 L42.2749957,62.4703073 L42.2731339,62.4703073 L42.1655695,63.067542 L40.9740395,63.067542 L41.0819297,62.4703073 L41.0794129,62.4703073 L41.5518825,59.8688452 L41.808921,58.4459878 C41.8094164,58.4457866 41.8099117,58.4455856 41.8104071,58.4453845 Z M39.6566352,51.9806217 L46.9397949,51.9806217 L50.712973,51.9806217 C52.4891636,51.9162453 53.9882938,50.6541632 54.3361967,48.9303158 C54.5160126,48.1752822 54.3296478,47.3805009 53.8321688,46.7808119 C53.3346898,46.181123 52.5829715,45.8450863 51.7991296,45.8719933 L31.8795049,45.8719933 L33.4317361,44.6975654 L52.0098764,44.6975654 C54.3605137,44.6975654 55.9411146,46.5894766 55.5236738,48.9303158 C55.0529891,51.3219679 52.9839499,53.08139 50.5224903,53.1831077 L39.4421514,53.1831077 L37.6790945,63.067542 L36.4835117,63.067542 L38.4653421,51.9565721 L39.6609249,51.9565721 L39.6566352,51.9806217 Z M41.3081123,55.2754332 L39.9040943,63.067542 L38.7085115,63.067542 L40.3255879,54.0929887 L41.5211706,54.0929887 L41.5204484,54.096997 L50.5224903,54.096997 C53.4202587,54.096997 56.184284,51.7681826 56.6908868,48.9142826 C57.1974897,46.0603827 55.2642932,43.7395849 52.3786832,43.7395849 L34.7164809,43.7395849 L36.2443952,42.5691653 L52.58943,42.5691653 C56.1315973,42.5691653 58.5024987,45.4190569 57.878364,48.9222992 C57.2542292,52.4255416 53.8660693,55.2754332 50.323902,55.2754332 L41.3081123,55.2754332 Z M44.941746,59.7286394 L44.3540938,63.067542 L43.1585111,63.067542 L43.7478724,59.7189283 L43.9569172,58.5261535 L50.1617891,58.5261535 C55.5439379,58.5261535 60.6788646,54.2052208 61.6231723,48.9062661 C62.5674801,43.6073115 58.9685733,39.2863787 53.5985829,39.2863787 L40.5809157,39.2863787 L42.1371997,38.1079425 L53.8052769,38.1079425 C59.8439831,38.1079425 63.8724891,42.9339193 62.8106495,48.9062661 C61.7488098,54.8786128 55.9816428,59.7286394 49.9510423,59.7286394 L44.941746,59.7286394 Z M75.9249742,56.4486424 L76.0674332,55.6482039 C76.1687538,55.0830355 76.3308667,54.9427454 76.9063676,54.9427454 L77.1090087,54.9427454 C77.6966681,54.9427454 77.7979886,55.0830355 77.6966681,55.6482039 L77.4129705,57.2194521 C77.1616954,58.6464021 77.8547282,59.1995456 79.3583255,59.1995456 L97.1259012,59.1995456 C98.6254457,59.1955373 99.5130139,58.6464021 99.7683417,57.2194521 L100.047987,55.6482039 C100.149307,55.0830355 100.315473,54.9427454 100.886921,54.9427454 L101.105773,54.9427454 C101.677221,54.9427454 101.7907,55.0910521 101.68938,55.6482039 L101.409735,57.2194521 C100.984189,59.6284322 99.3184784,60.7186862 96.854362,60.7186862 L79.0867863,60.7186862 C78.1273113,60.7186862 77.3740344,60.562517 76.8243746,60.2501787 L76.6875152,61.0193076 C76.3632893,62.8270448 75.2284989,63.7329176 73.2709854,63.7329176 C73.1698885,63.7423327 73.0681207,63.7423327 72.9670237,63.7329176 C72.4644737,63.6727933 72.3469418,63.5485363 72.4442096,63.011426 L72.480685,62.7989868 C72.5698471,62.2899344 72.6995374,62.1857189 73.2264044,62.2618764 C73.3288629,62.2711268 73.4319604,62.2711268 73.5344189,62.2618764 C74.5759944,62.2618764 74.9407485,61.8610478 75.110967,60.9110839 L75.8810034,56.6462672 C75.894357,56.5733655 75.9087665,56.5077046 75.9249742,56.4486424 Z M71.106778,55.6562204 C71.2080986,55.1030769 71.3702115,54.9667951 71.9173426,54.9667951 L72.1199837,54.9667951 C72.6792733,54.9667951 72.7927523,55.1030769 72.6954846,55.6562204 L71.7511768,61.0193076 C71.426951,62.8283809 70.2881078,63.7329176 68.3346471,63.7329176 C68.2321938,63.7422804 68.1290858,63.7422804 68.0266326,63.7329176 C67.5281353,63.6727933 67.4106035,63.5485363 67.5038184,63.011426 L67.5443466,62.7989868 C67.6335087,62.2899344 67.7591462,62.1857189 68.2900661,62.2618764 C68.3925193,62.2712392 68.4956273,62.2712392 68.5980806,62.2618764 C69.6356033,62.2618764 70.0044101,61.8610478 70.1705759,60.9110839 L71.106778,55.6562204 Z M105.859735,62.410183 C106.414971,62.410183 106.532503,62.5464647 106.431183,63.0996083 L106.39876,63.3000226 C106.297439,63.8531661 106.135327,63.9894478 105.588195,63.9894478 L105.377449,63.9894478 C104.822212,63.9894478 104.70468,63.8531661 104.806001,63.3000226 L104.838423,63.0996083 C104.939744,62.5464647 105.101857,62.410183 105.648988,62.410183 L105.859735,62.410183 Z M88.8378783,62.410183 C89.393115,62.410183 89.5106469,62.5464647 89.4093263,63.0996083 L89.3769037,63.3000226 C89.2755832,63.8531661 89.1134703,63.9894478 88.5663392,63.9894478 L88.3596452,63.9894478 C87.8003556,63.9894478 87.6828238,63.8531661 87.7841443,63.3000226 L87.8206197,63.0996083 C87.9178875,62.5464647 88.0800004,62.410183 88.6311843,62.410183 L88.8378783,62.410183 Z M86.4467128,62.410183 C87.0060023,62.410183 87.1194814,62.5464647 87.0222136,63.0996083 L86.9857382,63.3000226 C86.8884705,63.8531661 86.7223047,63.9894478 86.1751736,63.9894478 L85.9644268,63.9894478 C85.4051373,63.9894478 85.2916582,63.8531661 85.388926,63.3000226 L85.4254014,63.0996083 C85.5226691,62.5464647 85.6888349,62.410183 86.235966,62.410183 L86.4467128,62.410183 Z M72.6468507,52.0768206 C73.2061403,52.0768206 73.3196193,52.2171107 73.2223516,52.7662459 L73.1858761,52.9666602 C73.0886084,53.5198038 72.9224427,53.6560855 72.3753116,53.6560855 L72.1645648,53.6560855 C71.6052752,53.6560855 71.4917962,53.5198038 71.5890639,52.9666602 L71.6255393,52.7662459 C71.7228071,52.2171107 71.8889728,52.0768206 72.4361039,52.0768206 L72.6468507,52.0768206 Z M103.804953,51.2911965 C103.906274,50.7260281 104.068387,50.5857381 104.643888,50.5857381 L104.846529,50.5857381 C105.417977,50.5857381 105.531456,50.7260281 105.434188,51.2911965 L104.372349,57.2274687 C104.121074,58.6544187 104.814106,59.2075622 106.317704,59.2075622 C107.821301,59.2075622 108.708869,58.6544187 108.964197,57.2274687 L109.243842,55.6562204 C109.345162,55.0910521 109.511328,54.950762 110.082776,54.950762 L110.301629,54.950762 C110.873077,54.950762 110.990608,55.0910521 110.889288,55.6562204 L110.609643,57.2274687 C110.180044,59.6324405 108.510281,60.7267027 106.046164,60.7267027 C103.423988,60.7267027 102.329726,59.5602914 102.747167,57.2274687 L103.804953,51.2911965 Z M75.2163404,40.0679946 C77.6156116,40.0679946 78.3978064,41.2303976 78.0249467,43.3106983 C77.6196644,45.4671564 76.3187083,46.5534019 74.0612859,46.5534019 L71.5242187,46.5534019 L71.0338272,49.3311444 C70.9325066,49.8963128 70.7663409,50.0325946 70.1948928,50.0325946 L69.9963045,50.0325946 C69.4208036,50.0325946 69.3073246,49.8963128 69.4086452,49.3311444 L70.7420239,41.8115991 C70.9608764,40.6091132 71.5809583,40.0679946 72.8170693,40.0679946 L75.2163404,40.0679946 Z M73.0116048,41.5831268 C72.8401257,41.5675404 72.6694201,41.6200517 72.5371312,41.7290811 C72.4048421,41.8381105 72.3218348,41.9947033 72.3064136,42.1643283 L71.7917051,45.042278 L74.3287722,45.042278 C75.6459397,45.042278 76.1849651,44.5372339 76.4038176,43.3106983 C76.62267,42.0841626 76.2619687,41.5831268 74.9448013,41.5831268 L73.0116048,41.5831268 Z M84.1366037,47.7278299 C83.8366948,49.4273433 82.6937987,50.1768929 80.4080066,50.1768929 C78.31675,50.1768929 77.4048648,49.3952771 77.6845096,47.8200204 C77.9641544,46.2447639 79.2124238,45.5112475 81.2550466,45.5112475 L82.9450738,45.5112475 L83.0788169,44.7616979 C83.236877,43.8598335 82.6735346,43.5992949 81.4576877,43.5992949 C80.9047402,43.5931902 80.3524481,43.6388206 79.8081888,43.7355766 C79.346167,43.8117341 79.2407936,43.7355766 79.3259029,43.2465657 L79.3623783,43.0301182 C79.4434347,42.5892067 79.5893364,42.4489167 80.0391997,42.3727592 C80.5580364,42.2922272 81.082455,42.2520213 81.6076422,42.2525062 C83.8488533,42.2525062 84.9795909,42.9419359 84.655365,44.7616979 L84.1366037,47.7278299 Z M82.7424326,46.7057169 L81.040247,46.7057169 C79.9743545,46.7057169 79.4191178,47.0103466 79.2853747,47.7919625 C79.1516315,48.5735783 79.6906569,48.8461418 80.6147006,48.8461418 C81.7738079,48.8461418 82.4019955,48.6176695 82.572214,47.6436559 L82.7424326,46.7057169 Z M88.043525,48.0404763 C88.0759476,48.6497358 88.250219,48.7900258 88.7446634,48.7900258 C89.1175231,48.7900258 89.3606924,48.6377109 89.6079146,48.0404763 L91.6343261,43.1142922 C91.8572314,42.5611487 92.0396084,42.424867 92.6232149,42.424867 L92.8218032,42.424867 C93.3973041,42.424867 93.4783605,42.5611487 93.2270855,43.1142922 L90.3536341,50.0125532 C89.4701187,52.1088869 88.2542718,53.1951325 86.4426599,53.3795137 C86.0373776,53.4236049 85.8712119,53.2873232 85.846895,52.8143453 L85.846895,52.613931 C85.8185252,52.1850444 85.960374,52.0647958 86.3899732,52.0006632 C87.4680241,51.8643815 88.1651097,51.2350805 88.7365577,50.0285863 C88.5035541,50.1140975 88.2551664,50.1509462 88.0070496,50.13681 C86.8479422,50.13681 86.60072,49.5235422 86.487241,48.1767579 L86.0819587,43.1142922 C86.0414305,42.5611487 86.1751736,42.424867 86.7466217,42.424867 L86.9492628,42.424867 C87.5207108,42.424867 87.6666125,42.5611487 87.7071407,43.1142922 L88.043525,48.0404763 Z M100.149307,46.0964573 C99.9871942,46.6616257 99.8048171,46.7979075 99.2333691,46.7979075 L94.933324,46.7979075 L94.8725316,47.1386118 C94.6739433,48.2529154 95.2453913,48.6978352 96.8057282,48.6978352 C97.4978067,48.6935441 98.1871527,48.6115165 98.8605094,48.4533297 C99.3792707,48.3290729 99.4968026,48.4533297 99.3995348,48.9864319 L99.3671123,49.1868462 C99.2738973,49.6918902 99.1644711,49.8001139 98.5970759,49.9363957 C97.9256581,50.1050984 97.2350117,50.1872807 96.5422947,50.1809012 C93.9444352,50.1809012 92.894754,49.2189124 93.3000363,46.9061312 L93.5391529,45.5753801 C93.9309258,43.3601338 95.2724102,42.2538467 97.5636061,42.2565141 C99.715655,42.2565141 100.651857,43.3427646 100.278997,45.4230652 C100.238469,45.6515375 100.185782,45.867985 100.129043,46.0964573 L100.149307,46.0964573 Z M95.1440708,45.5152558 L98.7632416,45.5152558 L98.8321396,45.1144271 C99.0104638,44.1083473 98.4957553,43.6033032 97.2758556,43.6033032 C96.0559559,43.6033032 95.391293,44.1083473 95.2089159,45.1144271 L95.1440708,45.5152558 Z M102.714744,49.3311444 C102.617476,49.884288 102.451311,50.0205697 101.904179,50.0205697 L101.701538,50.0205697 C101.146302,50.0205697 101.032822,49.884288 101.13009,49.3311444 L101.908232,44.9741371 C102.227054,43.167736 103.361845,42.2645355 105.312603,42.2645355 C105.415062,42.2552851 105.518159,42.2552851 105.620618,42.2645355 C106.119115,42.3246598 106.236647,42.4489167 106.139379,42.9820188 L106.102904,43.1984662 C106.013742,43.699502 105.884052,43.8077258 105.357185,43.7315683 C105.254738,43.7220669 105.151617,43.7220669 105.04917,43.7315683 C104.0157,43.7315683 103.646893,44.132397 103.480728,45.0783526 L102.714744,49.3311444 Z M105.977266,48.9744069 C106.074534,48.4372965 106.220436,48.3130397 106.694616,48.4372965 C107.412495,48.6338796 108.154481,48.7310044 108.899352,48.7258932 C109.953086,48.7258932 110.366474,48.5575452 110.455636,48.0685342 C110.524534,47.6677056 110.354315,47.5033659 109.645071,47.1506366 L108.072576,46.4171202 C107.099898,45.9722004 106.71488,45.4551315 106.913469,44.3368196 C107.164744,42.9138779 108.182002,42.2565189 110.236783,42.2565189 C110.829699,42.2505965 111.420489,42.3275134 111.991656,42.4849913 C112.502311,42.6533393 112.595526,42.7455299 112.506364,43.250574 L112.473942,43.4349551 C112.376674,43.9680572 112.214561,44.0923141 111.744433,43.9560324 C111.161684,43.7858469 110.556632,43.7020975 109.949033,43.7075186 C108.943933,43.7075186 108.554862,43.8918998 108.473805,44.3368196 C108.40896,44.7055819 108.56702,44.87393 109.061465,45.1184354 L110.719069,45.8800098 C111.764698,46.3569959 112.19835,46.890098 111.991656,48.0404763 C111.728222,49.5075091 110.666383,50.1809012 108.485964,50.1809012 C107.785631,50.1859397 107.087762,50.0983166 106.410919,49.9203625 C105.92458,49.7840808 105.83947,49.6758571 105.928633,49.170813 L105.977266,48.9744069 Z M64.2777714,39.7112571 L64.2412959,39.0017904 C64.2412959,38.7773263 64.2129262,38.5047629 64.2129262,38.3043485 C64.1561867,38.492738 64.0913415,38.7051772 64.0062322,38.9176164 L63.7184818,39.7192736 L63.5563689,39.7192736 L63.2888826,38.9456744 C63.2099407,38.7396646 63.1422953,38.5295922 63.0862414,38.3163734 C63.0862414,38.5167877 63.0862414,38.7853429 63.0538188,39.0298484 L63.0213962,39.7112571 L62.8187551,39.7112571 L62.9322341,38.1079425 L63.2037733,38.1079425 L63.4915237,38.9095998 C63.5604217,39.1060058 63.6131084,39.2823704 63.6576894,39.4507184 C63.7022705,39.290387 63.7630628,39.1140224 63.8360137,38.9095998 L64.1197113,38.1079425 L64.3871976,38.1079425 L64.4885181,39.7112571 L64.2777714,39.7112571 Z M62.1824619,39.7112571 L61.9717151,39.7112571 L61.9717151,38.2843071 L61.4651122,38.2843071 L61.4651122,38.1079425 L62.6809591,38.1079425 L62.6809591,38.2843071 L62.1824619,38.2843071 L62.1824619,39.7112571 Z" id="payers-logo" fill="#001247"></path>
                </g>
            </g>
        </g>
    </g>
</svg>