<?xml version="1.0" encoding="UTF-8"?>
<svg width="197px" height="223px" viewBox="0 0 197 223" version="1.1" xmlns="http://www.w3.org/2000/svg" xmlns:xlink="http://www.w3.org/1999/xlink">
    <!-- Generator: Sketch 56.2 (81672) - https://sketch.com -->
    <title>high-five_1</title>
    <desc>Created with Sketch.</desc>
    <g id="Desktop-Ar" stroke="none" stroke-width="1" fill="none" fill-rule="evenodd">
        <g id="success-buying[visitor]" transform="translate(-625.000000, -62.000000)">
            <g id="high-five_1" transform="translate(720.000000, 175.481323) rotate(-2.000000) translate(-720.000000, -175.481323) translate(622.000000, 62.981323)">
                <path d="M166.311501,214.502408 C166.311501,214.502408 112.458732,209.286959 99.9878815,196.584981 C96.3903276,192.896986 91.4763503,175.70309 92.290322,169.814357 C93.6440142,165.680938 94.7744873,161.477725 95.6768462,157.222918 C96.4707199,152.429529 100.178813,120.041495 100.490333,112.002268 C100.801853,103.963041 102.50014,85.482869 102.781513,76.9713378 C103.062886,68.4598065 103.786416,46.8242378 103.786416,46.8242378 C103.786416,46.8242378 107.544755,47.6482585 107.715588,57.3053796 C107.886422,66.9625006 109.021962,80.8804117 108.197942,83.6539449 C108.197942,83.6539449 113.765106,69.2536802 119.171486,71.0524571 C121.301881,71.8764779 119.493055,73.9968239 118.347465,74.9816292 C117.201876,75.9664344 115.895501,80.8804117 116.227119,83.8247785 C116.558737,86.7691452 111.112161,97.541709 106.23838,98.0642587 C108.784292,97.7078324 111.093053,96.378764 112.679811,94.3561654 C112.679811,94.3561654 112.679811,110.699006 112.679811,121.502584 C112.679811,132.306161 116.227119,152.952079 116.769767,157.323408 C117.312415,161.694738 117.855063,171.392055 124.808994,175.542306 C131.762925,179.692556 158.091392,186.133987 173.044354,182.888149 C173.034305,182.928345 163.035517,210.723971 166.311501,214.502408 Z" id="Path" fill="#FCDF9F" fill-rule="nonzero"></path>
                <path d="M178.549732,112.585432 C178.549732,159.246363 171.104595,167.755308 154.081533,172.990854 C137.05847,178.226401 115.201823,181.301405 112.568976,182.175671 C109.936129,183.049937 108.197647,191.12936 107.544459,195.932797 C106.891272,200.736235 102.741021,221.246312 95.1037561,224.522297 C95.1037561,224.522297 132.285179,216.010766 146.996964,212.081594 C161.708749,208.152422 169.969054,203.570063 173.486216,201.168344 C177.003378,198.766625 183.364416,188.998965 187.454372,176.397477 C191.544329,163.795989 195.493599,143.09498 195.825864,115.168717 C195.935756,106.275322 181.855864,102.767527 178.549732,112.585432 Z" id="Path-Copy" fill="#FCDF9F" fill-rule="nonzero" transform="translate(145.464810, 165.600408) scale(-1, 1) translate(-145.464810, -165.600408) "></path>
                <path d="M103.786416,46.8644339 C100.721702,50.8309991 99.1366869,55.7424142 99.3045473,60.752198 C99.2309532,55.7431454 100.697195,50.8322876 103.505043,46.6831943 C103.505043,46.6831943 97.8976826,46.4021784 96.4104257,61.6365129 C95.2748849,73.2330974 93.2851763,86.1863013 92.280273,90.3365521 C91.2753696,94.4868028 83.236143,124.061108 79.930011,133.879013 C76.6238791,143.696919 76.000839,161.162139 58.9777766,166.397685 C41.9547141,171.633232 20.0980666,174.708236 17.4652199,175.582502 C14.8323732,176.456768 13.0938904,184.53619 12.4407033,189.339628 C11.7875161,194.143066 7.63726532,214.653143 0,217.929128 C0,217.929128 37.1814233,209.417597 51.8932081,205.488425 C66.6049928,201.559253 74.8652982,196.976894 78.3824599,194.575175 C81.8996216,192.173456 88.2606597,182.405795 92.3506162,169.804308 C96.4405728,157.20282 100.389843,136.501811 100.721461,108.575548 C100.832,99.6821531 102.158473,90.4068953 102.590581,81.6139912 C103.505043,62.7620046 103.786416,46.8644339 103.786416,46.8644339 Z" id="Path" fill="#3B5999" fill-rule="nonzero"></path>
                <path d="M132.64724,37.538931 L136.204598,42.7744774 C136.204598,42.7744774 128.999441,44.784284 128.014635,51.2860086 L121.472715,46.8644339 C121.472715,46.8644339 124.487425,36.8857438 132.64724,37.538931 Z" id="Path" fill="#F48D65" fill-rule="nonzero"></path>
                <path d="M78.5733915,65.6963224 L74.3628466,70.2786816 C74.3628466,70.2786816 72.071667,64.0583299 64.544941,65.6963224 L65.8513153,59.4759708 C65.8513153,59.4759708 76.2822119,59.4759708 78.5733915,65.6963224 Z" id="Path" fill="#817682" fill-rule="nonzero"></path>
                <path d="M92.2300278,28.3742126 L87.4265899,28.3742126 C87.4265899,28.3742126 87.8285512,22.8974895 84.8439883,20.7570454 C83.1256036,19.5310633 81.2062383,14.3759092 82.623152,12.0043373 L86.3010982,10.6778649 C86.3010982,10.6778649 86.1101665,17.3604721 88.9339449,19.0788568 C92.4511065,21.2092519 92.2300278,28.3742126 92.2300278,28.3742126 Z" id="Path" fill="#9EC6CD" fill-rule="nonzero"></path>
                <path d="M136.194549,16.4761572 C136.194549,16.4761572 121.472715,16.4761572 117.201876,29.5399005" id="Path" stroke="#FFFFFF" stroke-width="2" stroke-linecap="round" stroke-linejoin="round"></path>
                <path d="M148.856331,64.8723016 C148.856331,64.8723016 137.068814,66.4600489 136.194549,80.4282052" id="Path" stroke="#9EC6CD" stroke-linecap="round" stroke-linejoin="round"></path>
                <path d="M92.347306,0.0960439344 C94.3288048,1.80751856 95.9890368,4.3088762 96.6211782,7.96462595" id="Path" stroke="#3B5999" stroke-linecap="round" stroke-linejoin="round"></path>
                <circle id="Oval" stroke="#FCDF9F" stroke-width="3" cx="46.7882991" cy="14.2955169" r="6.33089099"></circle>
                <circle id="Oval" stroke="#FFE6CF" stroke-width="2" cx="117.201876" cy="9.14036285" r="5.15515409"></circle>
            </g>
        </g>
    </g>
</svg>