<svg xmlns="http://www.w3.org/2000/svg" width="157" height="25" viewBox="0 0 157 25"><g><g><path fill="#293688" d="M14.572 6.752L9.733 18.324H6.548L4.169 9.05a1.363 1.363 0 0 0-.685-1.008A12.297 12.297 0 0 0 .5 7.075l.08-.323h5.121c.695.004 1.28.52 1.371 1.21l1.21 6.653 3.104-7.903h3.186zm7.22 11.733a7.883 7.883 0 0 1-3.35-.604l.565-2.54c.958.5 2.028.75 3.109.725.847 0 1.816-.363 1.816-1.129 0-.484-.444-.887-1.574-1.451-1.13-.565-2.664-1.452-2.624-3.145.04-2.258 2.099-3.83 5.086-3.83a7.523 7.523 0 0 1 2.825.523l-.524 2.46a5.903 5.903 0 0 0-2.987-.524c-.888.12-1.292.524-1.292.967-.04 1.371 4.198 1.533 4.198 4.597-.04 2.42-2.099 3.992-5.247 3.951zm12.65-1.895h-3.867l-.604 1.734h-3.142L31.341 7.6a1.366 1.366 0 0 1 1.289-.847h2.578l2.417 11.572h-2.78zm-.436-2.379l-.927-4.354-1.573 4.354zm-15.15-7.459l-2.464 11.572h-2.99l2.464-11.572z"/></g><g><g><path fill="#ff5f00" d="M64.62 2.51h9.331v15.25H64.62z"/></g><g><path fill="#211e1f" d="M81.595 23.988a.802.802 0 0 0 .602.25.772.772 0 0 0 .777-.866.799.799 0 0 0-1.38-.617.807.807 0 0 0-.218.617.807.807 0 0 0 .219.616zm1.855.595h-.519v-.303a.95.95 0 0 1-.82.389 1.296 1.296 0 0 1-1.253-1.34 1.249 1.249 0 0 1 1.252-1.339c.318.002.619.144.821.39v-1.34h.519zm-7.04-.595a.802.802 0 0 0 .603.25.772.772 0 0 0 .777-.866.799.799 0 0 0-1.38-.617.807.807 0 0 0-.218.617.807.807 0 0 0 .219.616zm1.856.595h-.519v-.303a.95.95 0 0 1-.82.389 1.295 1.295 0 0 1-1.253-1.34 1.25 1.25 0 0 1 1.252-1.341c.318.001.619.144.821.389v-.303h.519zm6.134-.178h.086l.044.043v.044a.043.043 0 0 0-.044.043l.087.087h-.043l-.087-.087H84.4v.087h-.043v-.218h-.043a.043.043 0 0 0-.044.043l-.043.044v.174c-.043 0-.043-.043-.043-.086v-.174c0-.044.043-.044.043-.087 0-.044.043-.044.087-.044h.172c.044 0 .044.044.087.044s.043.043.043.087v.174c0 .043-.043.043-.043.087 0 .028-.018.038-.042.041l.042-.042v-.174a.043.043 0 0 0-.043-.044l-.044-.043H84.4zm.13.303c0 .024-.02.044-.044.044h-.172l-.044-.044a.043.043 0 0 1-.043-.042c.043 0 .043.043.087.043h.172c.016 0 .031 0 .045-.002zm-.173-.304h.043v-.043h-.043zm-3.715-2.243l-.173.475a.518.518 0 0 0-.346-.086c-.345 0-.561.26-.561.692v1.47h-.519v-2.595h.519v.303a.734.734 0 0 1 .69-.39.522.522 0 0 1 .39.13zm-20.304 1.21a.836.836 0 0 0 .226.608.82.82 0 0 0 .59.26.765.765 0 0 0 .58-.258.78.78 0 0 0 .192-.61.802.802 0 0 0-.2-.602.795.795 0 0 0-1.171-.013.81.81 0 0 0-.217.615zm2.106 1.212h-.516v-.303a.945.945 0 0 1-.818.389 1.288 1.288 0 0 1-.9-.41 1.301 1.301 0 0 1-.348-.93c-.025-.348.096-.69.333-.945a1.24 1.24 0 0 1 .915-.396c.317.001.616.144.818.389v-.303h.516zm6.966-2.076a.676.676 0 0 0-.692.652h1.383a.676.676 0 0 0-.691-.652zm1.252.865v.216h-1.944c.052.386.39.668.778.648.267 0 .526-.092.734-.26l.26.39c-.29.241-.66.365-1.037.346a1.235 1.235 0 0 1-1.296-1.34 1.25 1.25 0 0 1 1.253-1.341c.734 0 1.21.519 1.252 1.34zm2.376 0c-.02-.362.114-.715.369-.97a1.26 1.26 0 0 1 .965-.371c.328-.019.651.09.903.303l-.258.389a1.285 1.285 0 0 0-.688-.216.863.863 0 0 0-.86.865c0 .477.385.864.86.864.245-.004.484-.08.688-.216l.258.39a1.286 1.286 0 0 1-.903.302 1.26 1.26 0 0 1-.965-.37 1.275 1.275 0 0 1-.369-.97zm-7.992-.603a1.868 1.868 0 0 0-.82-.217c-.303 0-.519.13-.519.304 0 .173.216.217.475.26l.26.043c.561.087.864.304.864.782 0 .477-.432.824-1.167.824-.4-.005-.79-.126-1.123-.347l.26-.39c.256.169.556.26.863.26.389 0 .605-.174.605-.347 0-.174-.173-.26-.475-.304l-.26-.044c-.561-.043-.863-.303-.863-.737 0-.521.388-.825 1.036-.825.363-.012.723.078 1.037.26zm7.43-.738a.522.522 0 0 1 .39.13l-.173.475a.518.518 0 0 0-.346-.086c-.345 0-.561.26-.561.692v1.47h-.519v-2.595h.519v.303a.734.734 0 0 1 .69-.39zm-4.794.477h-.95v1.21c0 .26.129.432.388.432.166-.007.328-.052.475-.13l.173.476a1.196 1.196 0 0 1-.691.216c-.648 0-.864-.346-.864-.95v-1.21h-.562v-.476h.562V21.3h.518v.777h.95zm-8.943 2.161v-1.47c0-.433-.216-.692-.605-.692a.626.626 0 0 0-.648.692v1.47h-.518v-1.47c0-.433-.173-.692-.562-.692a.626.626 0 0 0-.648.692v1.47h-.518v-2.595h.518v.303a.92.92 0 0 1 .778-.39.946.946 0 0 1 .864.477.976.976 0 0 1 .907-.476.963.963 0 0 1 .994 1.038v1.643z"/></g><g><path fill="#eb001b" d="M65.615 10.105a9.647 9.647 0 0 1 3.715-7.603 9.681 9.681 0 1 0-6.005 17.28 9.815 9.815 0 0 0 6.005-2.073 9.582 9.582 0 0 1-3.715-7.604"/></g><g><path fill="#f79e1b" d="M84.581 16.109v-.303l-.086.26h-.087l-.086-.26v.303h-.086v-.389h.086l.13.26.13-.26h.086v.389zm-.518 0l-.043-.303h-.13v-.043h.302v.043h-.13z"/></g><g><path fill="#f79e1b" d="M84.962 10.108a9.66 9.66 0 0 1-9.677 9.677 9.815 9.815 0 0 1-6.005-2.074 9.638 9.638 0 0 0 0-15.206 9.69 9.69 0 0 1 15.682 7.603"/></g></g><g><g><path fill="#002663" d="M131.755 5.696c0-.251-.11-.424-.283-.502-.157-.094-.409-.11-.645-.11h-1.684v1.27h1.652c.268 0 .488 0 .677-.125.173-.095.283-.298.283-.533zm9.6 1.452h1.89l-.945-2.283zm-32.229 0h1.85l-.925-2.283zm7.61 2.435l-1.977-4.452v4.452H112l-.518-1.27h-2.824l-.533 1.27h-1.49l2.431-5.69h2.024l2.306 5.376V3.893h2.211l1.773 3.856 1.631-3.856h2.259v5.69h-1.396V5.131l-1.977 4.452zm5.557-5.674h4.546v1.19h-3.182v1.02h3.104v1.16h-3.104v1.128h3.182v1.176h-4.546zm5.487 0h3.119c.69 0 1.207.015 1.646.266.423.25.69.627.69 1.254 0 .91-.612 1.38-.957 1.52.298.11.549.314.674.486.188.283.22.533.22 1.05V9.6h-1.364v-.721c0-.345.031-.831-.22-1.113-.203-.204-.501-.251-.987-.251h-1.458v2.069h-1.363zm6.238 0h1.38v5.69h-1.38zm2.79.658c.44-.455 1.129-.658 2.07-.658h1.316V5.13h-1.3c-.502 0-.769.079-1.051.33-.235.235-.392.69-.392 1.285 0 .611.125 1.05.376 1.332.204.22.596.298.94.298h.612l1.912-4.467h2.038l2.304 5.376V3.91h2.07l2.382 3.965V3.91h1.395v5.69h-1.928l-2.57-4.264v4.264h-2.76l-.532-1.27h-2.822l-.517 1.27h-1.583c-.659 0-1.49-.141-1.975-.627-.47-.486-.721-1.129-.721-2.164 0-.862.156-1.63.736-2.241zm-17.9 5.157v.972h11.348v-2.07h.22c.156 0 .203.016.203.267v1.803h5.863v-.47c.47.25 1.207.486 2.179.486h2.476l.533-1.27h1.176l.517 1.27h4.765V9.505l.721 1.207h3.81V2.78h-3.794v.94l-.533-.94h-3.872v.94l-.485-.94h-5.236c-.878 0-1.646.125-2.273.47v-.47h-3.605v.47c-.392-.345-.94-.47-1.536-.47h-13.183l-.878 2.053-.909-2.053h-4.154v.94l-.454-.94h-3.543l-3.464 7.932h4.138l.517-1.27h1.176l.517 1.27h4.562V9.74l.407.972h2.367z"/></g><g><path fill="#002663" d="M118.816 15.903h2.979v1.16h-2.979v1.129h3.34l1.551-1.662-1.49-1.661h-3.4zm17.823-1.05h-1.677v1.27h1.646c.266 0 .485-.016.674-.11a.622.622 0 0 0 .282-.549.56.56 0 0 0-.282-.501c-.157-.094-.408-.11-.643-.11zm-9.082-.549l-2.094 2.247 2.094 2.325zm1.338.565v1.442h1.756c.517 0 .846-.267.846-.753s-.344-.69-.83-.69zm26.052.03h-2.476c-.236 0-.408.017-.533.11a.46.46 0 0 0-.204.408c0 .22.125.36.298.423.14.047.298.063.517.063l.737.016c.736.015 1.238.14 1.536.454a.508.508 0 0 1 .125.141V16.5c.016.015.69.925.016 2.147-.33.486-.972.721-1.85.721h-2.617v-1.222h2.617c.267 0 .44-.032.549-.141a.52.52 0 0 0 .157-.377c0-.172-.063-.297-.173-.376-.094-.078-.235-.125-.486-.125-1.27-.047-2.868.047-2.868-1.756 0-.83.517-1.693 1.943-1.693h2.712zm-7.132 4.484h-2.649V18.16h2.633c.251 0 .44-.031.55-.14a.52.52 0 0 0 .156-.377.478.478 0 0 0-.173-.376c-.11-.079-.25-.126-.486-.126-1.27-.047-2.868.047-2.868-1.755 0-.83.517-1.693 1.944-1.693h2.727V14.9h-2.492c-.251 0-.408.016-.549.11-.157.094-.204.235-.204.407 0 .22.126.36.298.423.141.047.298.063.533.063l.737.016c.737.015 1.238.14 1.552.454.266.267.407.612.407 1.207.016 1.223-.752 1.803-2.116 1.803zm-6.646-4.514v1.034h3.104v1.16h-3.104v1.129h3.182v1.175h-4.53v-5.69h4.53v1.192zm-2.398 2.335c.188.282.22.533.22 1.035v1.128h-1.365v-.705c0-.345.032-.847-.22-1.113-.203-.204-.5-.25-1.002-.25h-1.458v2.068h-1.364v-5.69h3.135c.69 0 1.192.032 1.63.267.424.266.706.611.706 1.27 0 .909-.612 1.363-.956 1.504.297.126.548.33.674.486zm-8.174.267h-1.694v1.912h-2.651l-1.678-1.881-1.741 1.881h-5.38v-5.69h5.474l1.678 1.865 1.725-1.865h4.345c1.082 0 2.29.298 2.29 1.865 0 1.583-1.176 1.913-2.368 1.913zm25.447-1.16s-.172-.392-.454-.612h.455V12.58h-3.606c-.752 0-1.316.188-1.708.47v-.47h-3.715c-.596 0-1.286.141-1.63.47v-.47h-6.647v.47c-.533-.376-1.426-.47-1.834-.47h-4.373v.47c-.423-.407-1.348-.47-1.912-.47h-4.891l-1.129 1.207-1.05-1.207h-7.32v7.932h7.18l1.16-1.239 1.08 1.239h4.421v-1.866h.439c.596.016 1.285-.015 1.897-.282v2.132h3.652v-2.07h.172c.22 0 .251.016.251.236v1.834h11.098c.705 0 1.442-.173 1.85-.502v.502h3.527c.736 0 1.442-.11 1.99-.36 0 0 .079-.048.157-.11.016 0 .016-.016.031-.016.016 0 .016-.016.032-.016.298-.266.783-.83.877-1.38 0-.015.33-.971 0-2.303z"/></g></g></g></svg>