<?xml version="1.0" encoding="UTF-8"?>
<svg width="29px" height="35px" viewBox="0 0 29 35" version="1.1" xmlns="http://www.w3.org/2000/svg" xmlns:xlink="http://www.w3.org/1999/xlink">
    <!-- Generator: Sketch 56.2 (81672) - https://sketch.com -->
    <title>paypal</title>
    <desc>Created with Sketch.</desc>
    <g id="Desktop-Ar" stroke="none" stroke-width="1" fill="none" fill-rule="evenodd">
        <g id="Buy-Card-[Payment-Method]" transform="translate(-547.000000, -324.000000)" fill-rule="nonzero">
            <g id="payment-method" transform="translate(133.500000, 217.000000)">
                <g id="paypal" transform="translate(383.000000, 107.500000)">
                    <g transform="translate(31.000000, 0.000000)" id="Path">
                        <path d="M15.6309842,-3.55271368e-15 L5.62282902,-3.55271368e-15 C4.94164568,-3.55271368e-15 4.31286107,0.523987181 4.20806363,1.20517052 L0.0161661782,27.6141245 C-0.0886312581,28.1381116 0.330558487,28.6097001 0.854545669,28.6097001 L7.03759441,28.6097001 L8.60955595,18.7587411 L8.55715724,19.0731334 C8.66195467,18.3919501 9.23834057,17.8679629 9.97192263,17.8679629 L12.9062508,17.8679629 C18.6701098,17.8679629 23.1763996,15.5100206 24.4863676,8.75058593 C24.5387663,8.54099106 24.5387663,8.33139619 24.591165,8.17420003 C24.957956,5.65906156 24.591165,3.98230258 23.2287983,2.41034103 C21.7616342,0.733582054 19.0369009,-3.55271368e-15 15.6309842,-3.55271368e-15 Z" fill="#002F87"></path>
                        <path d="M25.6233073,9.53763038 L25.6233073,9.53763038 C25.5709086,9.74722525 25.5709086,9.90442141 25.5185098,10.1140163 C24.2085419,16.8734509 19.7022521,19.2313932 13.9383931,19.2313932 L11.0040649,19.2313932 C10.3228816,19.2313932 9.69409697,19.7553804 9.58929953,20.4365638 L7.65054696,32.6454651 C7.59814824,33.1170535 7.91254055,33.5362433 8.38412901,33.5362433 L13.5716021,33.5362433 C14.2003867,33.5362433 14.7243739,33.0646548 14.8291713,32.4882689 L14.8815701,32.2262753 L15.8771457,26.0432266 L15.9295444,25.6764356 C16.0343419,25.047651 16.558329,24.6284612 17.1871137,24.6284612 L17.9730944,24.6284612 C23.0033714,24.6284612 26.9332752,22.5849112 28.086047,16.663856 C28.5576355,14.2011163 28.2956419,12.1051676 27.0380727,10.6904022 C26.6188829,10.2188137 26.1472945,9.85202269 25.6233073,9.53763038" fill="#1FA2E0"></path>
                    </g>
                </g>
            </g>
        </g>
    </g>
</svg>