<svg xmlns="http://www.w3.org/2000/svg" width="25" height="24" viewBox="0 0 25 24"><g><g><path fill="#f48d65" d="M5.402 1.804c.953 0 1.737.724 2.521 3.077.205.942.7 2.68 0 3.488-.152.169-.355.283-.579.325-.508.087-.95.397-1.206.845-.929 1.81 1.93 4.622 3.136 5.744 1.206 1.122 4.342 3.608 6.03 2.485.397-.283.656-.721.712-1.206.017-.223.106-.435.253-.604.724-.772 2.509-.482 3.474-.325 1.206.241 2.69.434 3.196 1.448.18.4.231.848.145 1.279-.374 1.798-3.45 2.871-4.656 3.137-3.1.7-7.297-.905-10.963-4.2-3.667-3.293-5.729-7.3-5.367-10.449.157-1.52.94-4.5 2.569-4.96.239-.069.486-.105.735-.108zM16.964 23.5a8.447 8.447 0 0 0 1.93-.29c.543-.12 5.346-1.29 6.034-4.537a3.91 3.91 0 0 0-.302-2.413c-.905-1.822-3.234-2.196-4.525-2.413-1.291-.217-3.704-.616-5.092.88-.382.417-.63.938-.712 1.497v.06a8.76 8.76 0 0 1-3.765-2.317 8.772 8.772 0 0 1-2.715-3.487 2.812 2.812 0 0 0 1.412-.869c1.327-1.532.712-3.825.326-5.152-.386-1.327-1.508-5.31-5.37-4.296C1.108 1.033.41 5.726.3 6.667c-.422 3.729 1.858 8.386 5.96 12.006 3.464 3.09 7.361 4.827 10.704 4.827z"/></g></g></svg>