<?xml version="1.0" encoding="UTF-8"?>
<svg width="153px" height="104px" viewBox="0 0 153 104" version="1.1" xmlns="http://www.w3.org/2000/svg" xmlns:xlink="http://www.w3.org/1999/xlink">
    <!-- Generator: Sketch 56.2 (81672) - https://sketch.com -->
    <title>ps-card</title>
    <desc>Created with Sketch.</desc>
    <defs>
        <path d="M6.4,0.5 L137.6,0.5 C141.134622,0.5 144,3.3653776 144,6.9 L144,90.1 C144,93.6346224 141.134622,96.5 137.6,96.5 L6.4,96.5 C2.8653776,96.5 1.19448775e-13,93.6346224 1.13686838e-13,90.1 L1.13686838e-13,6.9 C1.13253971e-13,3.3653776 2.8653776,0.5 6.4,0.5 Z M69.7872956,7.28385078 L58.0518468,7.28385078 C56.9472773,7.28385078 56.0518468,8.17928128 56.0518468,9.28385078 L56.0518468,9.3522572 C56.0518468,10.4568267 56.9472773,11.3522572 58.0518468,11.3522572 L85.9481532,11.3522572 C87.0527227,11.3522572 87.9481532,10.4568267 87.9481532,9.3522572 L87.9481532,9.28385078 C87.9481532,8.17928128 87.0527227,7.28385078 85.9481532,7.28385078 L74.2127044,7.28385078 L74.2127044,5.93110054 C74.2127044,4.82653104 73.3172739,3.93110054 72.2127044,3.93110054 L71.7872956,3.93110054 C70.6827261,3.93110054 69.7872956,4.82653104 69.7872956,5.93110054 L69.7872956,7.28385078 Z" id="path-1"></path>
        <filter x="-4.9%" y="-5.2%" width="109.7%" height="114.6%" filterUnits="objectBoundingBox" id="filter-2">
            <feOffset dx="0" dy="2" in="SourceAlpha" result="shadowOffsetOuter1"></feOffset>
            <feGaussianBlur stdDeviation="2" in="shadowOffsetOuter1" result="shadowBlurOuter1"></feGaussianBlur>
            <feColorMatrix values="0 0 0 0 0.818090074   0 0 0 0 0.847293774   0 0 0 0 0.866762908  0 0 0 0.880162806 0" type="matrix" in="shadowBlurOuter1"></feColorMatrix>
        </filter>
    </defs>
    <g id="Desktop-Ar" stroke="none" stroke-width="1" fill="none" fill-rule="evenodd">
        <g id="Welcome" transform="translate(-987.000000, -300.000000)" fill-rule="nonzero">
            <g id="ps-card" transform="translate(991.521544, 301.500000)">
                <g id="Combined-Shape">
                    <use fill="black" fill-opacity="1" filter="url(#filter-2)" xlink:href="#path-1"></use>
                    <use fill="#FFFFFF" xlink:href="#path-1"></use>
                </g>
                <path d="M93.089291,60.866785 C92.2504616,61.925076 90.1953306,62.6800224 90.1953306,62.6800224 C90.1953306,62.6800224 74.9071752,68.1714282 74.9071752,68.1714282 C74.9071752,68.1714282 74.9071752,64.1216391 74.9071752,64.1216391 C74.9071752,64.1216391 86.1582182,60.1128145 86.1582182,60.1128145 C87.4349948,59.6553611 87.6310463,59.0086815 86.5932397,58.669248 C85.5573828,58.3288386 83.6817228,58.4263785 82.4039703,58.8857839 C82.4039703,58.8857839 74.9071752,61.5261456 74.9071752,61.5261456 C74.9071752,61.5261456 74.9071752,57.3232193 74.9071752,57.3232193 C74.9071752,57.3232193 75.3392709,57.1769116 75.3392709,57.1769116 C75.3392709,57.1769116 77.5055965,56.4102609 80.5517182,56.0727785 C83.5978399,55.7372466 87.3277018,56.1186215 90.2558035,57.2286073 C93.5555237,58.2712915 93.9271444,59.8084962 93.089291,60.866785 Z M76.3624488,53.970828 C76.3624488,53.970828 76.3624488,43.6142115 76.3624488,43.6142115 C76.3624488,42.3979093 76.1381096,41.2781695 74.9969117,40.9611698 C74.1229693,40.6812345 73.5806548,41.492753 73.5806548,42.7080799 C73.5806548,42.7080799 73.5806548,68.6435145 73.5806548,68.6435145 C73.5806548,68.6435145 66.5861848,66.4235434 66.5861848,66.4235434 C66.5861848,66.4235434 66.5861848,35.5 66.5861848,35.5 C69.5601271,36.0520676 73.8927765,37.3571297 76.2219926,38.1423137 C82.1454941,40.1759858 84.153807,42.7071059 84.153807,48.4101701 C84.153807,53.9688774 80.7224098,56.0757045 76.3624488,53.970828 L76.3624488,53.970828 Z M53.7520945,63.6983227 C50.3645894,62.7443991 49.800818,60.7565684 51.3448493,59.6114688 C52.7718349,58.5541538 55.1985876,57.7582407 55.1985876,57.7582407 C55.1985876,57.7582407 65.2274751,54.19224 65.2274751,54.19224 C65.2274751,54.19224 65.2274751,58.2576367 65.2274751,58.2576367 C65.2274751,58.2576367 58.0106167,60.8404513 58.0106167,60.8404513 C56.7357912,61.2979047 56.5397391,61.9455603 57.5755959,62.2849938 C58.6124281,62.6244251 60.4890651,62.5278633 61.7658415,62.0694339 C61.7658415,62.0694339 65.2274751,60.8131396 65.2274751,60.8131396 C65.2274751,60.8131396 65.2274751,64.4503435 65.2274751,64.4503435 C65.0080151,64.4893582 64.7631934,64.5283728 64.5369045,64.5664137 C61.0742949,65.1321361 57.3863717,64.896094 53.7520945,63.6983227 L53.7520945,63.6983227 Z M90.8615165,65.3086791 C91.2994637,65.3086791 91.710099,65.4783969 92.019295,65.7914946 C92.3284931,66.0997145 92.4991847,66.5113281 92.4991847,66.9482992 C92.4991847,67.3872202 92.3284931,67.7968818 92.019295,68.1051039 C91.710099,68.4162496 91.2994637,68.5859674 90.8615165,68.5859674 C90.4235694,68.5859674 90.0139078,68.4162496 89.7037359,68.1051039 C89.3945399,67.7968818 89.2248243,67.3872202 89.2248243,66.9482992 C89.2248243,66.0450931 89.9583104,65.3086791 90.8615165,65.3086791 Z M89.499881,66.9482992 C89.499881,67.3121166 89.6413111,67.6544757 89.8988135,67.9100263 C90.1553378,68.1694784 90.498673,68.3099325 90.8615165,68.3099325 C91.6135351,68.3099325 92.2231498,67.699344 92.2231498,66.9482992 C92.2231498,66.5835059 92.0826957,66.2411468 91.8242195,65.9846203 C91.567693,65.7251681 91.2243579,65.5856878 90.8615165,65.5856878 C90.498673,65.5856878 90.1553378,65.7251681 89.8988135,65.9846203 C89.6413111,66.2411468 89.499881,66.5835059 89.499881,66.9482992 L89.499881,66.9482992 Z M91.3560348,66.0655775 C91.5355057,66.1445828 91.6262161,66.296742 91.6262161,66.5132778 C91.6262161,66.6244725 91.602806,66.7181086 91.5550142,66.7912625 C91.520875,66.8439319 91.472105,66.8868504 91.4174836,66.9239132 C91.4604,66.9492752 91.4984408,66.9795105 91.5267286,67.0146257 C91.5657411,67.0653454 91.5881752,67.1463005 91.5911031,67.2565192 C91.5911031,67.2565192 91.5998868,67.4896356 91.5998868,67.4896356 C91.6028147,67.5520604 91.6067185,67.5998544 91.6164782,67.6291159 C91.6262378,67.6720322 91.6447637,67.699344 91.6681717,67.7081234 C91.6681717,67.7081234 91.6925577,67.7198349 91.6925577,67.7198349 C91.6925577,67.7198349 91.6925577,67.7461707 91.6925577,67.7461707 C91.6925577,67.7461707 91.6925577,67.7861614 91.6925577,67.7861614 C91.6925577,67.7861614 91.6925577,67.8261628 91.6925577,67.8261628 C91.6925577,67.8261628 91.6525671,67.8261628 91.6525671,67.8261628 C91.6525671,67.8261628 91.3628774,67.8261628 91.3628774,67.8261628 C91.3628774,67.8261628 91.3394695,67.8261628 91.3394695,67.8261628 C91.3394695,67.8261628 91.3277579,67.8056785 91.3277579,67.8056785 C91.3179983,67.7861809 91.3111882,67.7637381 91.30435,67.7344765 C91.2994702,67.7081407 91.2945904,67.6622986 91.2916625,67.5920705 C91.2916625,67.5920705 91.277023,67.3023808 91.277023,67.3023808 C91.2731192,67.2019173 91.2389821,67.1394926 91.1746076,67.1063294 C91.134617,67.0878077 91.0682905,67.0790197 90.9785562,67.0790197 C90.9785562,67.0790197 90.4820859,67.0790197 90.4820859,67.0790197 C90.4820859,67.0790197 90.4820859,67.7861722 90.4820859,67.7861722 C90.4820859,67.7861722 90.4820859,67.8261628 90.4820859,67.8261628 C90.4820859,67.8261628 90.4411193,67.8261628 90.4411193,67.8261628 C90.4411193,67.8261628 90.2050751,67.8261628 90.2050751,67.8261628 C90.2050751,67.8261628 90.1650866,67.8261628 90.1650866,67.8261628 C90.1650866,67.8261628 90.1650866,67.7861722 90.1650866,67.7861722 C90.1650866,67.7861722 90.1650866,66.0431629 90.1650866,66.0431629 C90.1650866,66.0431629 90.1650866,66.0031723 90.1650866,66.0031723 C90.1650866,66.0031723 90.2050751,66.0031723 90.2050751,66.0031723 C90.2050751,66.0031723 91.0117172,66.0031723 91.0117172,66.0031723 C91.1502237,66.0031723 91.2662939,66.0236458 91.3560283,66.0655949 L91.3560348,66.0655775 Z M90.4820924,66.8000396 C90.4820924,66.8000396 90.9873398,66.8000396 90.9873398,66.8000396 C91.0887793,66.8000396 91.1697365,66.7814963 91.2272836,66.7434685 C91.2799552,66.7054276 91.3053151,66.6361754 91.3053151,66.5357119 C91.3053151,66.4264691 91.2692262,66.3552651 91.1931466,66.3172264 C91.1512062,66.2967528 91.0926809,66.2850391 91.0185511,66.2850391 C91.0185511,66.2850391 90.4820924,66.2850391 90.4820924,66.2850391 C90.4820924,66.2850391 90.4820924,66.8000396 90.4820924,66.8000396 Z" id="path-1" fill="#1370B5"></path>
            </g>
        </g>
    </g>
</svg>