<svg xmlns="http://www.w3.org/2000/svg" width="26" height="20" viewBox="0 0 26 20"><g><g><path fill="#1370b5" d="M24.283 19.005h.303c.06 0 .11-.011.144-.034.032-.023.047-.065.047-.126 0-.067-.022-.11-.068-.133a.24.24 0 0 0-.104-.02h-.322zm.506-.441c.104.047.157.137.157.265a.302.302 0 0 1-.042.165.284.284 0 0 1-.08.079.235.235 0 0 1 .064.054c.023.03.036.078.037.143l.005.138a.362.362 0 0 0 .01.083c.006.026.017.042.03.047l.014.007v.063h-.205l-.007-.012a.193.193 0 0 1-.013-.042.669.669 0 0 1-.008-.085l-.008-.172c-.003-.06-.022-.096-.06-.116a.29.29 0 0 0-.114-.016h-.289v.443h-.184v-1.081h.492c.081 0 .148.012.2.037zm-.848 1.092a.806.806 0 1 0 1.139-1.139.806.806 0 0 0-1.139 1.139zm.565-1.537c.257 0 .499.1.68.283a.954.954 0 0 1 .283.68c0 .258-.1.499-.283.68a.952.952 0 0 1-.68.283.953.953 0 0 1-.681-.283.964.964 0 0 1 .68-1.643zM1.27 14.775c.839-.622 2.266-1.09 2.266-1.09l5.897-2.1v2.393l-4.244 1.52c-.75.27-.865.651-.255.851.61.2 1.713.143 2.463-.127l2.036-.74v2.142c-.13.023-.273.046-.406.068a13.329 13.329 0 0 1-6.342-.511C.693 16.619.362 15.449 1.27 14.775zm14.71-9.404c0-.715-.132-1.373-.803-1.56-.514-.164-.833.313-.833 1.027v15.25l-4.112-1.305V.6c1.748.325 4.296 1.092 5.666 1.554C19.38 3.349 20.56 4.838 20.56 8.19c0 3.269-2.017 4.508-4.58 3.27zm9.836 10.141c-.494.623-1.702 1.067-1.702 1.067l-8.99 3.232v-2.383l6.616-2.36c.75-.269.866-.65.256-.85-.61-.2-1.712-.142-2.463.128L15.124 15.9v-2.473l.255-.087s1.273-.45 3.064-.65c1.792-.197 3.985.028 5.706.68 1.94.615 2.16 1.52 1.667 2.142z"/></g></g></svg>