<?xml version="1.0" encoding="UTF-8"?>
<svg width="68px" height="42px" viewBox="0 0 68 42" version="1.1" xmlns="http://www.w3.org/2000/svg" xmlns:xlink="http://www.w3.org/1999/xlink">
    <!-- Generator: Sketch 56.2 (81672) - https://sketch.com -->
    <title>ps-small-card</title>
    <desc>Created with Sketch.</desc>
    <g id="ps-small-card" stroke="none" stroke-width="1" fill="none" fill-rule="evenodd">
        <g>
            <path d="M3.136,4.61852778e-14 L64.6931069,4.61852778e-14 C66.4250719,4.61852778e-14 67.8291069,1.40403502 67.8291069,3.136 L67.8291069,38.1146955 C67.8291069,39.8466605 66.4250719,41.2506955 64.6931069,41.2506955 L3.136,41.2506955 C1.40403502,41.2506955 -1.3500312e-13,39.8466605 -1.3500312e-13,38.1146955 L-1.3500312e-13,3.136 C-1.3500312e-13,1.40403502 1.40403502,4.61852778e-14 3.136,4.61852778e-14 Z M27.2764942,2.447442 C26.7937495,2.447442 26.4024077,2.83878383 26.4024077,3.32152843 C26.4024077,3.80427304 26.7937495,4.19561486 27.2764942,4.19561486 L40.5526128,4.19561486 C41.0353574,4.19561486 41.4266992,3.80427304 41.4266992,3.32152843 C41.4266992,2.83878383 41.0353574,2.447442 40.5526128,2.447442 L27.2764942,2.447442 Z" id="Shape" fill="#1370B5" fill-rule="nonzero"></path>
            <path d="M44.248306,24.9032904 C43.8372796,25.421853 42.8302655,25.7917767 42.8302655,25.7917767 C42.8302655,25.7917767 35.3390693,28.4825656 35.3390693,28.4825656 C35.3390693,28.4825656 35.3390693,26.4981689 35.3390693,26.4981689 C35.3390693,26.4981689 40.8520804,24.5338448 40.8520804,24.5338448 C41.4777009,24.3096927 41.5737661,23.9928197 41.0652409,23.8264973 C40.5576711,23.6596967 39.6385976,23.7074912 39.0124989,23.9325998 C39.0124989,23.9325998 35.3390693,25.2263771 35.3390693,25.2263771 C35.3390693,25.2263771 35.3390693,23.1669432 35.3390693,23.1669432 C35.3390693,23.1669432 35.5507962,23.0952524 35.5507962,23.0952524 C35.5507962,23.0952524 36.6122958,22.7195936 38.1048954,22.5542272 C39.597495,22.3898166 41.4251273,22.5766903 42.8598972,23.1205833 C44.4767601,23.6314986 44.6588542,24.3847289 44.248306,24.9032904 Z M36.0521534,21.5242715 C36.0521534,21.5242715 36.0521534,16.4495294 36.0521534,16.4495294 C36.0521534,15.8535413 35.9422272,15.3048688 35.3830402,15.1495389 C34.9548084,15.0123707 34.6890743,15.4100147 34.6890743,16.0055249 C34.6890743,16.0055249 34.6890743,28.7138879 34.6890743,28.7138879 C34.6890743,28.7138879 31.261784,27.626102 31.261784,27.626102 C31.261784,27.626102 31.261784,12.4735657 31.261784,12.4735657 C32.7190157,12.7440789 34.8420139,13.3835593 35.9833298,13.7682995 C38.8858456,14.7647988 39.8699189,16.0050476 39.8699189,18.7995491 C39.8699189,21.5233157 38.1885343,22.5556609 36.0521534,21.5242715 L36.0521534,21.5242715 Z M24.9730798,26.2907439 C23.3132023,25.8233213 23.0369543,24.8492843 23.7935296,24.2881854 C24.4927525,23.7701011 25.6818614,23.3801037 25.6818614,23.3801037 C25.6818614,23.3801037 30.5960163,21.6327633 30.5960163,21.6327633 C30.5960163,21.6327633 30.5960163,23.6248077 30.5960163,23.6248077 C30.5960163,23.6248077 27.0597557,24.8903869 27.0597557,24.8903869 C26.4350912,25.1145391 26.3390256,25.4318903 26.8465955,25.5982127 C27.3546432,25.764534 28.2741954,25.7172187 28.8998158,25.4925884 C28.8998158,25.4925884 30.5960163,24.8770041 30.5960163,24.8770041 C30.5960163,24.8770041 30.5960163,26.6592341 30.5960163,26.6592341 C30.4884808,26.6783512 30.3685182,26.6974684 30.2576366,26.7161084 C28.560958,26.9933124 26.7538756,26.8776518 24.9730798,26.2907439 L24.9730798,26.2907439 Z M43.1566966,27.0798185 C43.3712907,27.0798185 43.572502,27.1629802 43.724008,27.3163981 C43.8755151,27.4674259 43.959154,27.6691165 43.959154,27.8832324 C43.959154,28.0983036 43.8755151,28.2990378 43.724008,28.4500667 C43.572502,28.6025281 43.3712907,28.6856898 43.1566966,28.6856898 C42.9421024,28.6856898 42.7413683,28.6025281 42.589384,28.4500667 C42.437878,28.2990378 42.3547174,28.0983036 42.3547174,27.8832324 C42.3547174,27.4406614 42.7141256,27.0798185 43.1566966,27.0798185 Z M42.4894952,27.8832324 C42.4894952,28.0615029 42.5587959,28.2292589 42.6849721,28.3544786 C42.810669,28.4816102 42.9789032,28.5504327 43.1566966,28.5504327 C43.5251857,28.5504327 43.8238969,28.2512443 43.8238969,27.8832324 C43.8238969,27.7044837 43.7550744,27.5367277 43.628421,27.4110297 C43.502723,27.2838981 43.3344888,27.2155528 43.1566966,27.2155528 C42.9789032,27.2155528 42.810669,27.2838981 42.6849721,27.4110297 C42.5587959,27.5367277 42.4894952,27.7044837 42.4894952,27.8832324 L42.4894952,27.8832324 Z M43.3990105,27.4506987 C43.4869513,27.4894113 43.5313993,27.5639693 43.5313993,27.6700719 C43.5313993,27.7245573 43.5199284,27.770439 43.4965104,27.8062843 C43.4797822,27.8320924 43.4558849,27.8531225 43.4291204,27.8712832 C43.4501494,27.8837106 43.4687895,27.8985259 43.4826505,27.9157323 C43.5017666,27.940585 43.5127593,27.980253 43.514194,28.0342602 C43.514194,28.0342602 43.518498,28.1484872 43.518498,28.1484872 C43.5199326,28.1790753 43.5218455,28.2024944 43.5266278,28.2168325 C43.53141,28.2378615 43.5404877,28.2512443 43.5519576,28.2555462 C43.5519576,28.2555462 43.5639067,28.2612848 43.5639067,28.2612848 C43.5639067,28.2612848 43.5639067,28.2741894 43.5639067,28.2741894 C43.5639067,28.2741894 43.5639067,28.2937848 43.5639067,28.2937848 C43.5639067,28.2937848 43.5639067,28.3133855 43.5639067,28.3133855 C43.5639067,28.3133855 43.5443113,28.3133855 43.5443113,28.3133855 C43.5443113,28.3133855 43.4023634,28.3133855 43.4023634,28.3133855 C43.4023634,28.3133855 43.3908935,28.3133855 43.3908935,28.3133855 C43.3908935,28.3133855 43.3851548,28.3033482 43.3851548,28.3033482 C43.3803726,28.2937944 43.3770357,28.2827974 43.373685,28.2684592 C43.3712938,28.2555547 43.3689027,28.2330921 43.3674681,28.1986803 C43.3674681,28.1986803 43.3602947,28.0567323 43.3602947,28.0567323 C43.3583819,28.0075052 43.3416547,27.9769171 43.3101112,27.9606671 C43.2905158,27.9515915 43.2580158,27.9472854 43.214046,27.9472854 C43.214046,27.9472854 42.9707756,27.9472854 42.9707756,27.9472854 C42.9707756,27.9472854 42.9707756,28.2937901 42.9707756,28.2937901 C42.9707756,28.2937901 42.9707756,28.3133855 42.9707756,28.3133855 C42.9707756,28.3133855 42.9507019,28.3133855 42.9507019,28.3133855 C42.9507019,28.3133855 42.8350403,28.3133855 42.8350403,28.3133855 C42.8350403,28.3133855 42.8154459,28.3133855 42.8154459,28.3133855 C42.8154459,28.3133855 42.8154459,28.2937901 42.8154459,28.2937901 C42.8154459,28.2937901 42.8154459,27.4397156 42.8154459,27.4397156 C42.8154459,27.4397156 42.8154459,27.4201202 42.8154459,27.4201202 C42.8154459,27.4201202 42.8350403,27.4201202 42.8350403,27.4201202 C42.8350403,27.4201202 43.2302949,27.4201202 43.2302949,27.4201202 C43.2981631,27.4201202 43.3550375,27.4301522 43.3990073,27.4507072 L43.3990105,27.4506987 Z M42.9707788,27.8105852 C42.9707788,27.8105852 43.21835,27.8105852 43.21835,27.8105852 C43.2680553,27.8105852 43.3077243,27.8014989 43.3359224,27.7828653 C43.3617315,27.7642253 43.3741579,27.7302917 43.3741579,27.6810646 C43.3741579,27.6275356 43.3564743,27.5926456 43.3191953,27.5740067 C43.2986445,27.5639746 43.2699671,27.5582349 43.2336435,27.5582349 C43.2336435,27.5582349 42.9707788,27.5582349 42.9707788,27.5582349 C42.9707788,27.5582349 42.9707788,27.8105852 42.9707788,27.8105852 Z" id="ps-logo" fill="#FFFFFF"></path>
        </g>
    </g>
</svg>