<svg xmlns="http://www.w3.org/2000/svg" width="160" height="161" viewBox="0 0 160 161"><g><g><path fill="#1d1d1b" d="M20 70.45v10h10v10H0v-20zm60 80h10v10H80zm-10-10h10v10H70zm0-50h10v10H70zm90-20v20h-10v-10h-10v-10zm-129.99 0h10.01v10H50v-10h20v10H60v10H40v-10h-9.99zm49.99-40v20H70v-30h10v-10H70v-10h20v30zm30 100h10v-10h-10zm19.99.01h10.02v-20.02h-10.02zM90 50.45v20h20v10h10v-10h9.99v10H140v10h-10.01v9.99H120v-9.99h-10v19.99h19.99v-10H140v-9.99h10v19.99h10v10.01h-10v20h10v20h-28.75v-10H140v-10h-10.01v10H120v10h-20v-10h10v-10h-10v-50H80v-20H70v-10h10v-10zm-9.99 60v-10h10v40h-10v-20H70v-10zm-70 40.01h40.01v-40.01H10.01zm-10-50.01H60v60H.01zm19.99 20h20v20H20zm80-120h60v60h-60zm50 10h-40v40h40zm-30 10h20v20h-20zM10 50.46h40.01V10.45H10zM0 .45h60v60H0zm20 20h20v20H20z"/></g></g></svg>