<svg xmlns="http://www.w3.org/2000/svg" width="103" height="103" viewBox="0 0 103 103"><g><g><path fill="#331d34" d="M12.72 45.28v6.4h6.4v6.4H-.08v-12.8zm38.4 51.2h6.4v6.4h-6.4zm-6.4-6.4h6.4v6.4h-6.4zm0-32h6.4v6.4h-6.4zm57.6-12.8v12.8h-6.4v-6.4h-6.4v-6.4zm-83.194 0h6.407v6.4h6.387v-6.4h12.8v6.4h-6.4v6.4h-12.8v-6.4h-6.394zm31.994-25.6v12.8h-6.4v-19.2h6.4v-6.4h-6.4V.48h12.8v19.2zm19.2 64h6.4v-6.4h-6.4zm12.794.006h6.412V70.874h-6.412zM57.52 32.48v12.8h12.8v6.4h6.4v-6.4h6.394v6.4h6.406v6.4h-6.406v6.394H76.72V58.08h-6.4v12.794h12.794v-6.4h6.406V58.08h6.4v12.794h6.4v6.406h-6.4v12.8h6.4v12.8h-18.4v-6.4h5.6v-6.4h-6.406v6.4H76.72v6.4h-12.8v-6.4h6.4v-6.4h-6.4v-32h-12.8v-12.8h-6.4v-6.4h6.4v-6.4zm-6.394 38.4v-6.4h6.4v25.6h-6.4v-12.8H44.72v-6.4zm-44.8 25.606h25.607V70.88H6.326zm-6.4-32.006H38.32v38.4H-.074zm12.794 12.8h12.8v12.8h-12.8zM63.92.48h38.4v38.4h-38.4zm32 6.4h-25.6v25.6h25.6zm-19.2 6.4h12.8v12.8h-12.8zM6.32 32.486h25.606V6.88H6.32zM-.08.48h38.4v38.4H-.08zm12.8 12.8h12.8v12.8h-12.8z"/></g></g></svg>