<?xml version="1.0" encoding="UTF-8"?>
<svg width="529px" height="166px" viewBox="0 0 529 166" version="1.1" xmlns="http://www.w3.org/2000/svg" xmlns:xlink="http://www.w3.org/1999/xlink">
    <!-- Generator: Sketch 56.2 (81672) - https://sketch.com -->
    <title>register-illustration</title>
    <desc>Created with Sketch.</desc>
    <g id="Desktop-Ar" stroke="none" stroke-width="1" fill="none" fill-rule="evenodd">
        <g id="register-new-account" transform="translate(-455.000000, -819.000000)">
            <g id="Group-4" transform="translate(455.000000, 141.000000)">
                <g id="register-illustration" transform="translate(-34.000000, 678.000000)">
                    <g id="aboutme" transform="translate(141.784466, 7.000000)" fill-rule="nonzero">
                        <path d="M136.418921,118.610318 C153.235355,118.610318 167.024831,107.242408 168.992353,92.578478 C168.992353,92.578478 140.488498,85.1792471 103.879121,92.6793766 C105.897094,107.292858 119.686569,118.610318 136.418921,118.610318 Z" id="Path" fill="#FFFFFF"></path>
                        <ellipse id="Oval" fill="#1B0E1C" cx="136.422717" cy="89.933002" rx="24.8145631" ry="19.5262136"></ellipse>
                        <path d="M136.637535,105.644848 L136.637535,105.644848 C151.906857,105.644848 165.763598,92.1917 165.780414,76.8382959 C165.780414,65.6385509 162.719824,47.1404737 162.719824,47.1404737 C162.719824,31.8711518 151.906857,19.3765414 136.637535,19.3765414 L136.637535,19.3765414 C121.385029,19.3765414 109.277197,35.9239123 107.561921,52.5217325 C107.561921,52.5217325 106.653833,69.825843 107.292858,78.5535721 C108.512086,93.8550865 121.287524,105.649487 136.637535,105.644848 L136.637535,105.644848 Z" id="Path" fill="#FFFFFF"></path>
                        <path d="M163.44293,51.8995245 C167.480117,44.953715 169.028329,36.8389483 167.832019,28.894643 C166.873483,23.6983649 156.74999,22.6052967 155.371042,15.2060658 C153.992094,7.80683492 147.5514,-1.50946943 135.359486,0.273072559 C123.167571,2.05561455 120.846903,11.3719189 121.115966,17.0895064 C121.115966,17.0895064 105.779379,25.211844 108.924052,45.4756467 C108.924052,45.4756467 120.981435,21.2263491 137.242926,30.1895084 C139.316018,31.3665305 141.840184,31.4296347 143.9695,30.3576727 C147.147806,28.6760293 151.957306,27.0784681 155.387858,29.6850154 C160.987731,33.973206 163.44293,51.8995245 163.44293,51.8995245 Z" id="Path" fill="#1B0E1C"></path>
                        <path d="M125.639587,43.6090226 C125.223469,43.1258865 124.714507,42.7312974 124.142924,42.4486886 C123.557524,42.1660699 122.907503,42.044191 122.259484,42.0955435 C121.567508,42.1269615 120.893005,42.3229709 120.291961,42.6673023 C119.671553,43.0353193 119.105546,43.4881255 118.610318,44.012617 C119.03157,43.3875157 119.534969,42.8218996 120.10698,42.3309736 C120.709469,41.8193531 121.423743,41.4564559 122.192218,41.2715383 C123.005044,41.0968328 123.848448,41.1257165 124.647417,41.3556204 C125.460303,41.5957752 126.219558,41.9896745 126.884003,42.5159544 C127.24672,42.8107838 127.306549,43.3417699 127.018534,43.7099212 C126.719239,44.0643759 126.195235,44.1234187 125.824568,43.8444527 C125.781209,43.809563 125.741742,43.7700962 125.706853,43.7267376 L125.639587,43.6090226 Z" id="Path" fill="#000000"></path>
                        <path d="M143.21276,40.9183932 C143.836598,40.4942191 144.523244,40.170758 145.247549,39.9598564 C145.951942,39.7589508 146.687505,39.6905263 147.416869,39.7580592 C148.123391,39.8103832 148.810972,40.0109275 149.434841,40.3466344 C150.049198,40.6628215 150.615424,41.064842 151.116484,41.5406012 C150.566134,41.1836889 149.965232,40.9115823 149.333942,40.7334124 C148.732832,40.5636519 148.103482,40.5178809 147.484134,40.5988809 C146.895349,40.6736992 146.32533,40.8561051 145.802491,41.1370068 C145.290746,41.4096696 144.825347,41.7615567 144.423544,42.1796257 L144.423544,42.1796257 C144.085214,42.5042204 143.55109,42.5042204 143.21276,42.1796257 C143.053582,42.0217475 142.964047,41.8068369 142.964047,41.5826423 C142.964047,41.3584477 143.053582,41.1435371 143.21276,40.9856589 L143.21276,40.9183932 Z" id="Path" fill="#000000"></path>
                        <path d="M147.500951,79.5625582 C146.693578,83.3545138 144.126188,86.5340794 140.589397,88.122123 C139.969564,88.3643166 139.334844,88.5665284 138.68914,88.7275146 C138.016482,88.8284132 137.360641,88.9461282 136.687984,89.013394 C134.092625,88.995335 131.55153,88.268477 129.339202,86.9113397 C128.3134,86.1882331 127.32123,85.4651264 126.396326,84.6915705 C125.471423,83.9180145 124.714683,83.0099271 123.991576,81.9673082 L123.991576,81.9673082 C123.991576,81.9673082 123.991576,81.8664096 123.991576,81.8495932 C123.991576,81.8327767 123.991576,81.8495932 124.092475,81.8495932 L126.900819,83.9684638 C127.876173,84.5906719 128.901975,85.1792471 129.910961,85.7341894 C131.999862,86.7785612 134.302116,87.3253465 136.637535,87.3317506 C138.95644,87.2179628 141.180572,86.3765584 142.994147,84.9270005 C144.810413,83.4500842 146.284887,81.5969515 147.31597,79.4952924 C147.333994,79.5265106 147.333994,79.5649729 147.31597,79.596191 L147.500951,79.5625582 Z" id="Path" fill="#000000"></path>
                        <circle id="Oval" fill="#000000" cx="147.097356" cy="57.2135176" r="2.15250353"></circle>
                        <circle id="Oval" fill="#000000" cx="123.672064" cy="57.2135176" r="2.55609794"></circle>
                        <path d="M222.485142,261.190181 C221.9302,247.501604 222.485142,209.143318 222.485142,209.143318 L272.934444,195.454741 C272.934444,195.454741 225.259854,102.224432 168.992066,92.1345715 C167.024543,106.832135 153.201435,118.200044 136.418634,118.200044 C119.635833,118.200044 105.896806,106.882584 103.878834,92.2691029 C85.9693321,96.1200663 26.8091178,115.004921 5.51951259,198.733946 L57.0282495,202.097232 C57.0282495,202.097232 52.6391602,238.807507 57.0282495,265.091594 C58.962476,276.67472 56.702726,303.310856 50.2489996,345 L241.618645,345 C239.007957,336.494458 237.377963,330.654646 236.728662,327.480563 C232.356389,306.106876 223.023268,274.895575 222.485142,261.190181 Z" id="Path" fill="#3B5999"></path>
                        <g id="Group-9" transform="translate(131.361385, 165.561297) rotate(12.000000) translate(-131.361385, -165.561297) translate(81.861385, 123.061297)" fill="#1B0E1C">
                            <path d="M66.9550503,3.55120018 L31.4403312,13.0673405 C31.6634047,12.7978948 31.890541,12.5326289 32.1216569,12.2715912 L65.9670907,3.20273449 C66.2339017,3.2920121 66.5003212,3.38503988 66.7662869,3.48184348 C66.829319,3.5047853 66.8922344,3.52790596 66.9550326,3.55120468 Z M72.5271903,6.2572332 C72.7569483,6.39801536 72.9844664,6.54146959 73.2097181,6.6875391 L27.6111683,18.9056337 C27.7329981,18.6657533 27.8575703,18.4279746 27.9848541,18.1923162 L72.5271903,6.2572332 Z M77.2539732,9.80296558 C77.4266673,9.95985176 77.597453,10.1185015 77.7663119,10.2788756 L25.3956494,24.3115523 L25.6429499,23.6320997 L77.2539732,9.80296764 Z M80.8414076,13.6539888 C80.9737624,13.8221442 81.1043566,13.9915596 81.2331757,14.1622037 L23.4548479,29.6438606 L23.7021484,28.964408 L80.8414074,13.6539897 Z M83.571433,17.7347536 C83.6711523,17.9119691 83.769165,18.0901131 83.8654584,18.2691584 L21.5140464,34.9761689 L21.7613469,34.2967163 L83.571433,17.7347536 Z M85.5765282,22.0097621 C85.6472253,22.1950029 85.7162057,22.3809253 85.7834578,22.5675041 L19.5732449,40.3084772 L19.8205454,39.6290246 L85.5765282,22.0097621 Z M86.9134826,26.4637983 C86.9563242,26.6567253 86.9973833,26.8501291 87.0366483,27.0439848 L17.841795,45.5846899 C17.8964646,45.3648298 17.9535888,45.1451152 18.0131825,44.9255781 L86.9134826,26.4637983 Z M87.5881308,31.095299 C87.6023367,31.2961227 87.6146326,31.4972338 87.6250068,31.6986067 L17.0132133,50.6189798 C17.0304842,50.409468 17.0498737,50.199866 17.0713945,49.9902015 L87.5881308,31.095299 Z M87.5597849,35.9151663 C87.5424724,36.1246896 87.5230411,36.3343028 87.501478,36.5439783 L16.9857782,55.4386031 C16.9715359,55.2377894 16.9592032,55.0366881 16.9487921,54.8353248 L87.5597849,35.9151663 Z M86.7301254,40.949745 C86.6754044,41.1696193 86.6182283,41.3893479 86.558582,41.6088986 L17.6612559,60.0698815 C17.6183799,59.876964 17.5772864,59.6835695 17.5379868,59.4897227 L86.7301254,40.949745 Z M84.9978662,46.2261746 L84.7505657,46.9056272 L18.9990189,64.5237011 C18.9282873,64.3384698 18.8592722,64.1525566 18.7919855,63.9659869 L84.9978662,46.2261746 Z M83.0570647,51.5584829 L82.8097642,52.2379355 L21.0049588,68.7984832 C20.9052022,68.621278 20.8071522,68.443144 20.7108215,68.2641084 L83.0570647,51.5584829 Z M81.1162632,56.8907912 L80.8689627,57.5702438 L23.7359374,72.8789918 C23.6035387,72.7108494 23.4729008,72.5414457 23.3440383,72.3708128 L81.1162632,56.8907912 Z M79.1754617,62.2230995 L78.9281612,62.9025521 L27.3245537,76.729697 C27.1518038,76.572828 26.9809625,76.4141946 26.8120481,76.2538362 L79.1754617,62.2230995 Z M76.9588264,67.6293177 C76.8369348,67.8692158 76.7122763,68.1070176 76.5849052,68.3426977 L32.0530279,80.2749783 C31.8231819,80.1342211 31.5955765,79.9907903 31.3702381,79.8447426 L76.9588503,67.6293108 Z M73.1268217,73.4683719 C72.9036072,73.7378609 72.6762791,74.0031782 72.4449688,74.2642627 L38.6162306,83.3286455 C38.3461355,83.2383654 38.0764406,83.1442429 37.8072108,83.0462512 C37.7472778,83.0244374 37.6874504,83.0024619 37.6277289,82.9803253 L73.1268217,73.4683719 Z M64.9423525,80.4736659 C64.2168605,80.9061725 63.474745,81.3095472 62.7179607,81.6828785 L50.6956088,84.904258 C49.8602652,84.9581596 49.0200506,84.9790192 48.1768456,84.9659699 L64.9423525,80.4736659 Z M39.6131396,6.06517098 C40.3359888,5.63359588 41.0753691,5.2309553 41.829345,4.85815186 L53.9068652,1.62199009 C54.739582,1.56901834 55.5770666,1.54889144 56.4175066,1.56245441 L39.6131396,6.06517098 Z" id="Combined-Shape"></path>
                            <path d="M67.8384538,3.38038441 C67.6513453,3.43205739 67.4577747,3.32226524 67.4061017,3.13515676 C67.3544287,2.94804829 67.4642209,2.75447767 67.6513294,2.70280469 L75.0085166,0.671000353 C75.1956251,0.61932737 75.3891957,0.729119529 75.4408687,0.916228003 C75.4925417,1.10333648 75.3827495,1.29690709 75.1956411,1.34858008 L67.8384538,3.38038441 Z M56.0222723,1.34926014 C55.8347883,1.39955332 55.6420317,1.28833815 55.5917385,1.10085409 C55.5414454,0.913370023 55.6526605,0.720613478 55.8401446,0.670320291 L58.293913,0.0120892166 C58.4813971,-0.0382039706 58.6741536,0.0730112073 58.7244468,0.260495269 C58.77474,0.447979331 58.6635248,0.640735876 58.4760408,0.691029064 L56.0222723,1.34926014 Z M73.6912868,6.38212986 C73.506352,6.44111145 73.3086188,6.33900625 73.2496372,6.15407153 C73.1906557,5.96913681 73.2927608,5.77140358 73.4776956,5.712422 L80.3992228,3.50492614 C80.5841575,3.44594456 80.7818908,3.54804975 80.8408723,3.73298447 C80.8998539,3.91791919 80.7977487,4.11565242 80.612814,4.174634 L73.6912868,6.38212986 Z M78.4651464,9.99329319 C78.2794664,10.0498849 78.0830664,9.94523827 78.0264746,9.7595583 C77.9698829,9.57387833 78.0745295,9.37747829 78.2602095,9.32088654 L90.1041628,5.71107261 C90.2898427,5.65448085 90.4862428,5.75912752 90.5428345,5.94480749 C90.5994263,6.13048746 90.4947796,6.3268875 90.3090996,6.38347926 L78.4651464,9.99329319 Z M82.3219225,13.9235365 C82.1372611,13.9833684 81.9390602,13.882174 81.8792284,13.6975126 C81.8193966,13.5128512 81.920591,13.3146503 82.1052524,13.2548185 L98.1133303,8.06806972 C98.2979917,8.00823791 98.4961926,8.10943229 98.5560245,8.29409369 C98.6158563,8.47875509 98.5146619,8.67695599 98.3300005,8.7367878 L82.3219225,13.9235365 Z M84.6805713,18.0341436 C84.4952594,18.0919294 84.2981898,17.9885491 84.240404,17.8032372 C84.1826182,17.6179254 84.2859985,17.4208558 84.4713104,17.36307 L94.7369935,14.1619219 C94.9223053,14.1041361 95.1193749,14.2075164 95.1771607,14.3928282 C95.2349465,14.5781401 95.1315662,14.7752097 94.9462544,14.8329955 L84.6805713,18.0341436 Z M86.8205271,22.3699094 C86.6335487,22.4220511 86.4397035,22.3127443 86.3875618,22.1257659 C86.3354201,21.9387875 86.4447269,21.7449424 86.6317053,21.6928007 L91.0832223,20.4514291 C91.2702007,20.3992874 91.4640458,20.5085942 91.5161875,20.6955726 C91.5683292,20.882551 91.4590225,21.0763961 91.2720441,21.1285378 L86.8205271,22.3699094 Z" id="Combined-Shape"></path>
                            <path d="M9.59366023,47.7423794 C9.40655175,47.7940524 9.21298114,47.6842602 9.16130815,47.4971517 C9.10963517,47.3100432 9.21942733,47.1164726 9.4065358,47.0647996 L16.7637231,45.0329953 C16.9508315,44.9813223 17.1444022,45.0911145 17.1960751,45.278223 C17.2477481,45.4653314 17.137956,45.6589021 16.9508475,45.710575 L9.59366023,47.7423794 Z M8.91645623,53.304428 C8.73152151,53.3634096 8.53378828,53.2613044 8.4748067,53.0763697 C8.41582511,52.8914349 8.51793031,52.6937017 8.70286503,52.6347201 L15.6243923,50.4272243 C15.809327,50.3682427 16.0070602,50.4703479 16.0660418,50.6552826 C16.1250234,50.8402173 16.0229182,51.0379505 15.8379835,51.0969321 L8.91645623,53.304428 Z M3.68058982,59.3734955 C3.49490986,59.4300873 3.29850982,59.3254406 3.24191806,59.1397606 C3.1853263,58.9540806 3.28997297,58.7576806 3.47565294,58.7010888 L15.3196062,55.0912749 C15.5052862,55.0346832 15.7016862,55.1393298 15.758278,55.3250098 C15.8148697,55.5106898 15.7102231,55.7070898 15.5245431,55.7636816 L3.68058982,59.3734955 Z M0.459901758,65.5112347 C0.275240358,65.5710665 0.0770394502,65.4698721 0.0172076401,65.2852107 C-0.0426241701,65.1005493 0.0585702066,64.9023484 0.243231606,64.8425166 L16.2513096,59.6557679 C16.435971,59.5959361 16.6341719,59.6971305 16.6940037,59.8817919 C16.7538355,60.0664533 16.6526411,60.2646542 16.4679797,60.324486 L0.459901758,65.5112347 Z M7.6462181,68.0114693 C7.46090626,68.0692551 7.26383668,67.9658748 7.20605089,67.780563 C7.14826509,67.5952511 7.25164538,67.3981816 7.43695722,67.3403958 L17.7026403,64.1392476 C17.8879522,64.0814619 18.0850218,64.1848421 18.1428075,64.370154 C18.2005933,64.5554658 18.0972131,64.7525354 17.9119012,64.8103212 L7.6462181,68.0114693 Z M15.5164855,70.4413404 C15.3295071,70.4934821 15.135662,70.3841754 15.0835203,70.197197 C15.0313786,70.0102186 15.1406854,69.8163735 15.3276637,69.7642318 L19.7791808,68.5228602 C19.9661592,68.4707185 20.1600043,68.5800253 20.212146,68.7670037 C20.2642877,68.9539821 20.154981,69.1478272 19.9680026,69.1999689 L15.5164855,70.4413404 Z" id="Combined-Shape"></path>
                        </g>
                    </g>
                    <g id="merchant" transform="translate(0.000000, 19.000000)" fill-rule="nonzero">
                        <path d="M156.011365,41.721582 C156.011365,41.721582 165.545181,40.0054952 165.182896,49.1770262 C164.820611,58.3485572 155.077051,60.8273493 155.077051,60.8273493" id="Path" fill="#BFC4C7"></path>
                        <path d="M101.78302,45.1537558 C101.78302,45.1537558 92.2492037,43.4376689 92.6114887,52.6091999 C92.9737737,61.7807309 102.717334,64.2595231 102.717334,64.2595231" id="Path" fill="#BFC4C7"></path>
                        <path d="M65.7833305,199.96386 L1.79235741,176.358132 C1.79235741,176.358132 4.404623,105.99857 104.967314,89.6194737 C205.530006,73.2403778 267.671418,137.288554 262.084602,183.203412 L218.591334,185.682204 L226.904821,375.802627 L65.7833305,358.58324 L65.7833305,199.96386 Z" id="Combined-Shape" fill="#9EC6CD"></path>
                        <path d="M127.962879,119.517521 C142.705946,119.517521 154.657563,107.565903 154.657563,92.8228359 C154.656988,91.132726 154.490943,89.4467323 154.161805,87.788981 C137.777312,86.2158746 121.257237,86.7992378 105.024517,89.5241355 L101.516073,90.1342997 C101.423105,91.0274137 101.378549,91.9249053 101.382346,92.8228359 C101.382346,107.52134 113.264509,119.454527 127.962879,119.517521 L127.962879,119.517521 Z" id="Path" fill="#FFFFFF"></path>
                        <path d="M129.96498,106.589666 C145.085612,106.685004 151.549539,96.9223767 154.314346,89.2190534 C154.314346,88.7804979 154.19994,88.3228747 154.104602,87.8843192 C137.720109,86.3112128 121.200034,86.8945759 104.967314,89.6194737 L104.967314,89.6194737 C108.399488,97.170256 115.206633,106.47526 129.96498,106.589666 Z" id="Path" fill="#1B0E1C"></path>
                        <rect id="Rectangle" fill="#FFFFFF" x="101.325397" y="18.8785589" width="56.4020555" height="85.0988417" rx="25.8804982"></rect>
                        <path d="M120.240488,25.5522301 C129.300554,34.525804 141.710772,39.2851292 154.447819,38.6707609 C176.604408,38.0415291 177.023896,20.4421047 173.076896,13.4061485 C169.129896,6.37019227 155.477472,-3.75472034 126.075183,2.9952214 C96.6728944,9.74516314 98.1792373,41.359297 101.287261,59.5688856 C101.325397,59.5688856 102.641063,31.2725197 120.240488,25.5522301 Z" id="Path" fill="#1B0E1C"></path>
                        <circle id="Oval" fill="#010101" cx="141.653438" cy="52.189712" r="2.55506269"></circle>
                        <circle id="Oval" fill="#010101" cx="118.962956" cy="52.189712" r="2.55506269"></circle>
                        <path d="M134.426806,42.5796255 C135.361417,42.1918518 136.332293,41.8980342 137.325086,41.7025144 C138.295989,41.4901165 139.286709,41.3814569 140.280569,41.3783647 C141.266839,41.4053761 142.243612,41.5788818 143.178849,41.8931907 C144.083005,42.2284088 144.907635,42.7478605 145.600438,43.4186013 C144.828137,42.8964786 143.959538,42.5334818 143.045375,42.3508139 C142.148503,42.2078383 141.234644,42.2078383 140.337772,42.3508139 C139.442403,42.5022465 138.566389,42.7516228 137.725506,43.0944515 C136.893272,43.4073264 136.094741,43.8033978 135.342052,44.2766447 L135.342052,44.2766447 C134.894495,44.5609753 134.301182,44.4286538 134.016852,43.9810964 C133.732521,43.533539 133.864843,42.9402266 134.3124,42.655896 L134.426806,42.5796255 Z" id="Path" fill="#010101"></path>
                        <path d="M122.871821,44.3719829 L114.405792,44.2003742 L122.700212,42.4842873 C123.040823,42.4127591 123.393719,42.5283778 123.62597,42.787591 C123.85822,43.0468042 123.93454,43.4102313 123.82618,43.7409727 C123.71782,44.0717141 123.441243,44.3195224 123.100632,44.3910505 L122.871821,44.3719829 Z" id="Path" fill="#010101"></path>
                        <path d="M119.649391,83.2890199 C120.262244,83.8709522 120.980621,84.3304547 121.765898,84.6428217 C122.594867,85.0090403 123.465842,85.2716136 124.359096,85.4245946 C126.216032,85.7202171 128.108044,85.7202171 129.96498,85.4245946 C131.867978,85.16684 133.744089,84.7392908 135.570864,84.1470633 C136.467042,83.8038459 137.477627,83.5178314 138.278467,83.1555464 L140.947936,81.9924209 L138.373806,83.3652904 C137.515762,83.8038459 136.619583,84.1851986 135.723405,84.5856188 C133.914305,85.3506207 132.037464,85.9443155 130.117521,86.3589086 C128.167032,86.7985813 126.160235,86.9336542 124.16842,86.7593289 C123.143316,86.655247 122.132913,86.4378187 121.155734,86.1110294 C120.090644,85.8080771 119.093741,85.3031524 118.219319,84.6237541 C117.960455,84.3989512 117.841185,84.0531225 117.906438,83.7165383 C117.971691,83.3799541 118.211553,83.1037496 118.53567,82.9919683 C118.859787,82.880187 119.218918,82.9498112 119.477782,83.1746141 L119.477782,83.1746141 L119.649391,83.2890199 Z" id="Path" fill="#010101"></path>
                        <g id="merchant-flying" transform="translate(59.627500, 98.320731)" fill="#F48D65">
                            <circle id="Oval" cx="7.00408712" cy="7.08149007" r="6.15857434"></circle>
                        </g>
                    </g>
                    <g id="gamer" transform="translate(293.000000, 0.000000)">
                        <path d="M151.675311,130.981487 C173.43148,128.712439 173.8319,93.6089283 173.8319,93.6089283 L133.332249,94.1618896 C124.923424,118.434985 151.675311,130.981487 151.675311,130.981487 Z" id="Path" fill="#FFFFFF" fill-rule="nonzero"></path>
                        <path d="M173.679359,93.6089283 L133.332249,94.1618896 C132.418751,96.7543452 131.879434,99.463773 131.730568,102.20843 C160.026934,107.242285 170.113712,99.5008266 173.679359,93.6089283 Z" id="Path" fill="#1B0E1C" fill-rule="nonzero"></path>
                        <path d="M152.304543,14.1541056 L152.304543,14.1541056 C160.749818,14.1541056 168.849195,17.5089777 174.820906,23.4806884 C180.792617,29.4523991 184.147489,37.5517769 184.147489,45.9970511 L184.147489,71.2044606 C184.147489,87.7377576 170.744603,101.140643 154.211307,101.140643 L152.304543,101.140643 C135.771246,101.140643 122.368361,87.7377576 122.368361,71.2044606 L122.368361,44.0140174 C122.410408,27.5105137 135.800986,14.1541056 152.304543,14.1541056 L152.304543,14.1541056 Z" id="Path" fill="#FFFFFF" fill-rule="nonzero"></path>
                        <path d="M184.147489,49.6580364 L184.147489,44.7385874 C183.57546,27.7874625 171.33404,14.1541056 154.211307,14.1541056 L152.304543,14.1541056 C150.752614,14.1631864 149.203639,14.2906741 147.671109,14.5354583 C147.442297,15.3553664 136.039853,50.5923504 184.147489,49.6580364 Z" id="Path" fill="#1B0E1C" fill-rule="nonzero"></path>
                        <path d="M122.387429,45.9207806 L122.387429,48.3233022 C148.643558,42.0309836 147.709244,15.221893 147.671109,14.4782554 C132.664882,16.7663712 122.387429,30.0183755 122.387429,45.9207806 Z" id="Path" fill="#1B0E1C" fill-rule="nonzero"></path>
                        <ellipse id="Oval" fill="#D1D3DF" fill-rule="nonzero" cx="186.435605" cy="55.4736642" rx="9.40034259" ry="12.8134487"></ellipse>
                        <path d="M122.387429,49.7152393 C121.434047,47.8084761 120.194651,46.7025535 118.821782,46.7025535 C115.866299,46.7025535 113.463777,52.0224228 113.463777,58.5816882 C113.463777,65.1409537 115.866299,70.460823 118.821782,70.460823 C120.194651,70.460823 121.434047,69.3167651 122.387429,67.4672048 L122.387429,49.7152393 Z" id="Path" fill="#D1D3DF" fill-rule="nonzero"></path>
                        <path d="M191.030904,49.0288046 C191.030904,49.0288046 204.027619,-4.19553629 146.33377,1.15245277 C127.106465,2.89273286 113.501912,17.967632 117.963738,58.5816882" id="Path" stroke="#1B0E1C" stroke-width="1.155"></path>
                        <circle id="Oval" fill="#010101" fill-rule="nonzero" cx="151.484635" cy="56.1410313" r="2.9173477"></circle>
                        <circle id="Oval" fill="#010101" fill-rule="nonzero" cx="134.686051" cy="57.2278864" r="2.9173477"></circle>
                        <path d="M138.061022,50.5732828 C136.863102,50.0408958 135.524236,49.9137035 134.247496,50.2109978 C132.898583,50.5291345 131.680294,51.2547824 130.758119,52.2893697 C131.90093,50.2702542 133.943678,48.9226074 136.249597,48.6665196 C137.064011,48.573249 137.888136,48.6118799 138.690254,48.7809254 C139.030865,48.8524535 139.307442,49.1002618 139.415802,49.4310032 C139.524162,49.7617446 139.447842,50.1251717 139.215592,50.3843849 C138.983341,50.6435981 138.630444,50.7592168 138.289834,50.6876886 C138.220182,50.6962659 138.149741,50.6962659 138.08009,50.6876886 L138.061022,50.5732828 Z" id="Path" fill="#010101" fill-rule="nonzero"></path>
                        <path d="M147.346959,48.4758433 C147.973734,48.3324436 148.611665,48.2431332 149.253722,48.2088964 C149.888256,48.1571369 150.525951,48.1571369 151.160485,48.2088964 C152.35827,48.2983595 153.513381,48.6921474 154.516389,49.3529543 C153.438599,49.0057242 152.289881,48.9400831 151.179553,49.162278 C150.642674,49.2641314 150.113782,49.4043196 149.59694,49.5817659 C149.100883,49.7675231 148.616896,49.9840434 148.1478,50.2300654 C147.689711,50.4933345 147.104936,50.3354024 146.841667,49.8773142 C146.578398,49.4192261 146.73633,48.8344505 147.194418,48.5711814 C147.241107,48.5331892 147.292349,48.5011631 147.346959,48.4758433 L147.346959,48.4758433 Z" id="Path" fill="#010101" fill-rule="nonzero"></path>
                        <path d="M139.166945,82.0539433 C140.08142,83.2137734 141.334298,84.0601323 142.75166,84.4755325 C144.285638,84.9245634 145.897691,85.0415672 147.480432,84.8187499 C148.295216,84.7269426 149.103833,84.5868671 149.902022,84.399262 C150.702862,84.1704504 151.503703,83.9607065 152.285476,83.674692 C153.067249,83.3886775 153.849022,83.0835954 154.592659,82.740378 L156.861707,81.653523 L154.707065,82.950122 C153.982495,83.3696099 153.21979,83.7318949 152.457084,84.1132475 C151.694379,84.4946002 150.893539,84.7806146 150.111766,85.0856967 C149.299855,85.3634924 148.472126,85.5927094 147.632974,85.7721315 C145.910344,86.1347986 144.131071,86.1347986 142.408442,85.7721315 C140.542596,85.4231666 138.845629,84.4640117 137.584331,83.0454601 C137.248639,82.6379587 137.29942,82.0370461 137.698737,81.6916582 C137.887,81.5242267 138.134903,81.4399238 138.386208,81.4578741 C138.637513,81.4758245 138.870917,81.5945065 139.033471,81.7869964 L139.033471,81.7869964 L139.166945,82.0539433 Z" id="Path" fill="#010101" fill-rule="nonzero"></path>
                        <path d="M251.553715,377.147577 L251.646906,256.141424 C269.837427,255.6838 287.112702,248.647844 295.17831,226.853541 C302.077127,208.233566 298.667959,185.735921 287.055499,163.16765 C266.999284,124.189338 219.451885,91.1247928 173.8319,93.6089283 C173.8319,93.6089283 173.43148,128.712439 151.675311,130.981487 C151.675311,130.981487 124.980627,118.434985 133.332249,94.1618896 C133.332249,94.1618896 95.3495265,93.4182519 52.4854897,134.909419 C0.0876369015,185.667456 -10.437696,239.686057 16.8862207,251.698665 C30.4814423,257.685902 50.0257652,253.185941 67.6823924,247.274975 L67.6823924,394.10754 L251.553715,377.147577 Z M67.6823924,214.173566 C59.2544991,212.495614 52.4282868,210.360039 51.1507555,208.01472 C49.9113594,206.107957 67.6823924,208.224464 67.6823924,208.224464 L67.6823924,214.173566 Z M246.307969,206.050754 C246.307969,206.050754 256.871437,201.703334 258.110833,204.811358 C258.511254,205.802875 254.35451,210.093092 247.223216,214.688392 L246.307969,206.050754 Z" id="Combined-Shape" fill="#FCDF9F" fill-rule="nonzero"></path>
                        <path d="M118.821782,70.460823 C118.821782,72.5171666 112.638459,76.3629741 110.017428,79.8941932 C104.485498,87.3471578 105.129304,91.2463743 113.463777,97.5749957 C128.279327,108.824899 132.378868,115.040947 131.768704,125.814159 C131.158539,136.587371 143.87665,156.093558 174.594605,153.576631 C205.31256,151.059704 205.31256,80.6620061 261.218857,108.824899" id="Path" stroke="#1B0E1C" stroke-width="1.155"></path>
                        <path d="M246.307969,206.050754 C246.307969,206.050754 256.871437,201.703334 258.110833,204.811358 C259.35023,207.919382 217.420507,242.069511 178.026779,221.266725 C173.069195,216.919305 166.948485,212.876967 159.493041,218.063362 C157.948562,219.302759 165.61375,219.398097 167.120093,218.978609 C168.626436,218.559121 169.80863,221.362063 158.005765,220.751899 C146.202901,220.141734 137.832211,234.099241 157.910427,236.597101 C177.988644,239.094961 181.00133,237.321671 192.689788,242.069511 C204.378246,246.817352 275.939069,278.831906 295.197378,226.815406 C302.157063,208.01472 298.248199,184.866615 287.055499,163.16765" id="Path" fill="#FFFFFF" fill-rule="nonzero"></path>
                        <path d="M186.750446,68.2871129 C186.778493,76.9590139 193.688869,89.8679595 208.85914,93.4945225 C231.511487,98.90973 248.443544,91.8547061 261.27606,108.748628 C274.108577,125.64255 274.108577,134.720273 273.764808,142.712977" id="Path" stroke="#1B0E1C" stroke-width="1.155"></path>
                        <circle id="Oval" fill="#FFFFFF" fill-rule="nonzero" cx="97.6249678" cy="131.192189" r="13.8005335"></circle>
                    </g>
                </g>
            </g>
        </g>
    </g>
</svg>