<svg xmlns="http://www.w3.org/2000/svg" width="63" height="21" viewBox="0 0 63 21"><g><g><path fill="#b73091" d="M42.5 2.45c0-1.4 1.1-2.5 2.5-2.5s2.5 1.1 2.5 2.5-1.1 2.5-2.5 2.5-2.5-1.1-2.5-2.5zm-10.9 4c-.1 0-1.2 3.7-3.7 6.8 0 0 2.8 5.2 3.4 7.2h-6.4s-.4-3.1-2.4-5.4v5.4h-5V2.15l5-1.1v10.3c2-2.4 2.9-4.9 3-4.9zm8.9-.2v4.2c-3 .1-3 1.2-3 3.7v6.3h-5v-7.8c0-4.2 2.1-6.4 6.9-6.5 0 0 1.1-.1 1.1.1zm-24.6 8.4c0 3.2-2.6 6.4-8.3 6.4-2.7 0-5.1-.3-7.1-.8v-4.6c2 .5 3.7 1.1 6 1.1 2.1 0 3.5-.6 3.5-1.8 0-1.4-1.5-1.5-2.1-1.5-6.7-.5-7.4-4.4-7.4-6.1 0-2.9 2.1-6.3 7.9-6.5 3.3 0 5.2.6 6.8 1.1l.2.1v4.5h-.2l-1.5-.5c-1.3-.4-3.2-.8-4.6-.8-.8 0-3 0-3 1.6 0 1.4 1.5 1.5 2.2 1.5 4.8.4 7.6 2.7 7.6 6.3zm26.6-8.2h5v14h-5zm20-5.4v19.4h-5V1.95zm-13 .9l5-.9v19.4h-5z"/></g></g></svg>