<?xml version="1.0" encoding="UTF-8"?>
<svg width="27px" height="21px" viewBox="0 0 27 21" version="1.1" xmlns="http://www.w3.org/2000/svg" xmlns:xlink="http://www.w3.org/1999/xlink">
    <!-- Generator: Sketch 61.2 (89653) - https://sketch.com -->
    <title>Shape</title>
    <desc>Created with Sketch.</desc>
    <g id="Mobile" stroke="none" stroke-width="1" fill="none" fill-rule="evenodd">
        <g id="Dashboard" transform="translate(-333.000000, -2845.000000)" fill-rule="nonzero">
            <g id="stats" transform="translate(18.000000, 2320.000000)">
                <g id="Group-11" transform="translate(7.500000, 509.522929)">
                    <path d="M12.819426,-1.14204758e-13 L351.180574,-1.13168918e-13 C355.638168,-1.13987764e-13 357.254599,0.464128056 358.884229,1.33566352 C360.513858,2.20719898 361.792801,3.48614185 362.664336,5.11577148 C363.535872,6.74540111 364,8.3618323 364,12.819426 L364,39.180574 C364,43.6381677 363.535872,45.2545989 362.664336,46.8842285 C361.792801,48.5138581 360.513858,49.792801 358.884229,50.6643365 C357.254599,51.5358719 355.638168,52 351.180574,52 L12.819426,52 C8.3618323,52 6.74540111,51.5358719 5.11577148,50.6643365 C3.48614185,49.792801 2.20719898,48.5138581 1.33566352,46.8842285 C0.464128056,45.2545989 2.00617683e-16,43.6381677 -3.45280103e-16,39.180574 L3.45280103e-16,12.819426 C-2.00617683e-16,8.3618323 0.464128056,6.74540111 1.33566352,5.11577148 C2.20719898,3.48614185 3.48614185,2.20719898 5.11577148,1.33566352 C6.74540111,0.464128056 8.3618323,-1.13385911e-13 12.819426,-1.14204758e-13 Z" id="Rectangle-Copy-7" fill="#FFFFFF"></path>
                    <path d="M334.101762,17.2684259 L334.071879,16.4793197 C334.071879,16.2296589 334.048636,15.9264995 334.048636,15.7035881 C334.002151,15.9131248 333.949025,16.1494108 333.879297,16.3856969 L333.643551,17.2773424 L333.510736,17.2773424 L333.291592,16.4169045 C333.226917,16.1877695 333.171497,15.954116 333.125573,15.7169628 C333.125573,15.9398741 333.125573,16.2385754 333.09901,16.5105273 L333.072447,17.2684259 L332.906429,17.2684259 L332.999399,15.4851349 L333.221864,15.4851349 L333.45761,16.3767804 C333.514056,16.5952336 333.557221,16.7913956 333.593745,16.9786411 C333.630269,16.8003121 333.680075,16.60415 333.739842,16.3767804 L333.972268,15.4851349 L334.191412,15.4851349 L334.274421,17.2684259 L334.101762,17.2684259 Z M332.385131,17.2684259 L332.212471,17.2684259 L332.212471,15.6812969 L331.797425,15.6812969 L331.797425,15.4851349 L332.793536,15.4851349 L332.793536,15.6812969 L332.385131,15.6812969 L332.385131,17.2684259 Z M315.852245,31.2804186 L316.002425,30.4235159 L316.988575,30.4169481 L322.68633,30.4235159 C326.076428,30.4235159 329.337031,27.6913258 329.918096,24.3417657 C330.499161,20.9922057 328.244629,18.2632994 324.854532,18.2632994 L312.290252,18.2632994 L313.565274,17.3011219 L325.027191,17.3011219 C328.955189,17.3011219 331.588242,20.47992 330.894285,24.3647529 C330.200327,28.2495857 326.441668,31.4086806 322.516991,31.4086806 L316.80846,31.4086806 L316.075473,35.444572 L315.985823,35.9338705 L315.009635,35.9338705 L315.098026,35.444572 L315.483046,33.3132633 L315.693631,32.1475541 L315.852245,31.2804186 Z M313.93032,26.8506518 L322.988484,26.8506518 C324.443669,26.7979099 325.671867,25.7639196 325.956894,24.3516173 C326.104213,23.7330384 325.951529,23.0818953 325.543958,22.590586 C325.136387,22.0992768 324.520524,21.8239709 323.878343,21.8460151 L307.558724,21.8460151 L308.830426,20.8838376 L324.051002,20.8838376 C325.976817,20.8838376 327.271761,22.4338301 326.929763,24.3516173 C326.544143,26.3110342 324.849035,27.7524819 322.832426,27.8358166 L313.7546,27.8358166 L312.310174,35.9338705 L311.330665,35.9338705 L312.954326,26.8309486 L313.933835,26.8309486 L313.93032,26.8506518 Z M315.283332,29.5500032 L314.133057,35.9338705 L313.153548,35.9338705 L314.478375,28.5812579 L315.457885,28.5812579 L322.832426,28.5845417 C325.206491,28.5845417 327.470983,26.6766061 327.886029,24.3384818 C328.301076,22.0003576 326.717259,20.0989897 324.353156,20.0989897 L309.882983,20.0989897 L311.134763,19.140096 L324.525815,19.140096 C327.427818,19.140096 329.370235,21.4749364 328.858898,24.3450496 C328.347561,27.2151628 325.571732,29.5500032 322.669728,29.5500032 L315.283332,29.5500032 Z M318.260271,33.1983965 L317.778823,35.9338705 L316.799314,35.9338705 L317.282162,33.1904405 L317.453427,32.2132318 L322.536913,32.2132318 C326.946365,32.2132318 331.153273,28.6732066 331.92692,24.331914 C332.700566,19.9906216 329.752077,16.4505963 325.352587,16.4505963 L314.687559,16.4505963 L315.962581,15.4851349 L325.521926,15.4851349 C330.469277,15.4851349 333.769725,19.4389293 332.899788,24.331914 C332.029851,29.2248988 327.304965,33.1983965 322.364254,33.1983965 L318.260271,33.1983965 Z" id="Shape" fill="#001247"></path>
                </g>
            </g>
        </g>
    </g>
</svg>
