<svg xmlns="http://www.w3.org/2000/svg" width="25" height="19" viewBox="0 0 25 19"><g><g><path fill="#080607" d="M15.518 11.881c-.702-.583-.827-.854-1.214-1.41-1.16 1.184-1.982 1.538-3.487 1.538-1.78 0-3.166-1.098-3.166-3.297 0-1.716.931-2.886 2.255-3.457 1.149-.506 2.752-.595 3.978-.735v-.274c0-.503.039-1.098-.256-1.532-.258-.39-.752-.55-1.187-.55-.806 0-1.526.413-1.702 1.27-.035.19-.175.378-.366.387L8.32 3.6c-.172-.04-.363-.179-.315-.444C8.478.67 10.725-.08 12.735-.08c1.03 0 2.375.274 3.187 1.053 1.03.961.932 2.244.932 3.64v3.296c0 .99.41 1.425.797 1.96.137.191.167.42-.006.563-.431.36-1.199 1.03-1.621 1.405a.462.462 0 0 1-.506.044zm-1.644-5.207v-.458c-1.524 0-3.135.327-3.135 2.13 0 .914.472 1.533 1.282 1.533.593 0 1.124-.366 1.459-.961.415-.732.394-1.42.394-2.244zm9.533 7.375c-.342-.438-2.267-.207-3.13-.105-.264.032-.304-.196-.067-.36 1.533-1.077 4.049-.767 4.342-.406.294.363-.076 2.88-1.517 4.08-.22.185-.432.087-.333-.158.323-.806 1.049-2.612.705-3.051zm-1.12 1.273c-2.677 1.973-6.557 3.026-9.898 3.026-4.684 0-8.9-1.733-12.091-4.614-.25-.227-.026-.536.275-.36 3.443 2.004 7.7 3.21 12.097 3.21 2.966 0 6.228-.615 9.228-1.888.453-.192.832.297.389.626z"/></g></g></svg>