<?xml version="1.0" encoding="UTF-8"?>
<svg width="37px" height="57px" viewBox="0 0 37 57" version="1.1" xmlns="http://www.w3.org/2000/svg" xmlns:xlink="http://www.w3.org/1999/xlink">
    <!-- Generator: Sketch 56.2 (81672) - https://sketch.com -->
    <title>success-mobile</title>
    <desc>Created with Sketch.</desc>
    <g id="Desktop-Ar" stroke="none" stroke-width="1" fill="none" fill-rule="evenodd">
        <g id="success-confirm" transform="translate(-902.000000, -395.000000)" fill-rule="nonzero">
            <g id="Group-2-Copy" transform="translate(455.030000, 367.000000)">
                <g id="success-mobile" transform="translate(447.000000, 28.000000)">
                    <path d="M18.36,18.1458824 C12.6725,18.1458824 8.06588235,22.7525 8.06588235,28.44 C8.06588235,34.1223529 12.6725,38.7341176 18.36,38.7341176 C24.0423529,38.7341176 28.6541176,34.1223529 28.6541176,28.44 C28.6541176,22.7525 24.0423529,18.1458824 18.36,18.1458824 Z M16.3011765,33.5870588 L11.1541176,28.44 L12.6107353,26.9833824 L16.3011765,30.6738235 L24.1092647,22.8657353 L25.5658824,24.3223529 L16.3011765,33.5870588 Z" id="Shape" fill="#3D9635"></path>
                    <path d="M33.6327273,0.44 C35.0390909,0.44 36.1781818,1.57909091 36.1781818,2.98545455 L36.1781818,8.07636364 L36.1781818,48.8036364 L36.1781818,53.8945455 C36.1781818,55.3009091 35.0390909,56.44 33.6327273,56.44 L3.08727273,56.44 C1.68090909,56.44 0.541818182,55.3009091 0.541818182,53.8945455 L0.541818182,48.8036364 L0.541818182,8.07636364 L0.541818182,2.98545455 C0.541818182,1.57909091 1.68090909,0.44 3.08727273,0.44 L33.6327273,0.44 Z M18.36,53.1267513 C19.2327801,53.1267513 19.9403083,52.4192232 19.9403083,51.5464431 C19.9403083,50.6736629 19.2327801,49.9661348 18.36,49.9661348 C17.4872199,49.9661348 16.7796917,50.6736629 16.7796917,51.5464431 C16.7796917,52.4192232 17.4872199,53.1267513 18.36,53.1267513 Z M5.26,3.75324867 C4.76294373,3.75324867 4.36,4.1561924 4.36,4.65324867 L4.36,47.0984847 C4.36,47.595541 4.76294373,47.9984847 5.26,47.9984847 L31.46,47.9984847 C31.9570563,47.9984847 32.36,47.595541 32.36,47.0984847 L32.36,4.65324867 C32.36,4.1561924 31.9570563,3.75324867 31.46,3.75324867 L5.26,3.75324867 Z" id="Combined-Shape" fill="#F27036"></path>
                </g>
            </g>
        </g>
    </g>
</svg>