<svg xmlns="http://www.w3.org/2000/svg" width="53" height="53" viewBox="0 0 53 53"><g><g><g><path fill="#2775ca" d="M26.5 53A26.436 26.436 0 0 0 53 26.5 26.436 26.436 0 0 0 26.5 0 26.436 26.436 0 0 0 0 26.5 26.436 26.436 0 0 0 26.5 53z"/></g><g><path fill="#fff" d="M33.786 30.695c0-3.864-2.319-5.19-6.956-5.741-3.313-.442-3.975-1.325-3.975-2.871s1.104-2.54 3.312-2.54c1.988 0 3.092.663 3.644 2.319a.83.83 0 0 0 .773.552h1.766a.755.755 0 0 0 .773-.773v-.11a5.516 5.516 0 0 0-4.968-4.527v-2.65c0-.442-.332-.773-.884-.884h-1.656c-.442 0-.773.331-.883.884v2.539c-3.313.442-5.41 2.65-5.41 5.41 0 3.644 2.208 5.08 6.845 5.632 3.092.552 4.086 1.214 4.086 2.981s-1.546 2.981-3.644 2.981c-2.871 0-3.865-1.214-4.196-2.87-.11-.442-.442-.663-.773-.663h-1.877a.755.755 0 0 0-.773.773v.11c.442 2.76 2.208 4.748 5.852 5.3v2.65c0 .442.331.773.883.884h1.657c.441 0 .773-.332.883-.884v-2.65c3.313-.552 5.52-2.87 5.52-5.852z"/></g><g><path fill="#fff" d="M45.49 20.87c3.313 10.489-2.429 21.641-12.918 24.954-.11.11-.331.11-.442.11-.442-.11-.662-.441-.662-.883v-1.546c0-.552.22-.884.662-1.104 4.527-1.656 8.17-5.19 9.827-9.827 3.202-8.503-1.214-18.109-9.827-21.2-.331-.221-.662-.663-.662-1.104V8.724c0-.221 0-.331.11-.442.11-.442.552-.662.994-.442 6.073 1.988 10.931 6.736 12.919 13.03zM21.53 43.284v1.546c0 .22 0 .331-.11.442-.11.441-.552.662-.994.441-6.183-1.987-10.931-6.735-12.919-12.918-3.312-10.49 2.43-21.642 12.919-24.955.11-.11.331-.11.442-.11.441.11.662.442.662.883v1.546c0 .552-.22.884-.662 1.104-4.527 1.657-8.171 5.19-9.827 9.827-3.203 8.503 1.214 18.109 9.827 21.2.33.221.662.663.662.994z"/></g></g></g></svg>