<?xml version="1.0" encoding="UTF-8"?>
<svg width="54px" height="34px" viewBox="0 0 54 34" version="1.1" xmlns="http://www.w3.org/2000/svg" xmlns:xlink="http://www.w3.org/1999/xlink">
    <!-- Generator: Sketch 56.2 (81672) - https://sketch.com -->
    <title>visa</title>
    <desc>Created with Sketch.</desc>
    <g id="visa" stroke="none" stroke-width="1" fill="none" fill-rule="evenodd">
        <g transform="translate(-0.000000, 0.000000)">
            <path d="M0,2.52046884 C0,1.12845234 1.12845234,0 2.52046884,0 L51.249533,0 C52.6415495,0 53.7700019,1.12845234 53.7700019,2.52046884 L53.7700019,31.0857823 C53.7700019,32.4777988 52.6415495,33.6062512 51.249533,33.6062512 L2.52046884,33.6062512 C1.12845234,33.6062512 0,32.4777988 0,31.0857823 L0,2.52046884 Z" id="SVGID" fill="#FFFFFF"></path>
            <path d="M1.44823042e-12,25 L54,25 L54,31.3913043 C54,32.8320472 52.8667208,34 51.46875,34 L2.54390625,34 C1.14593548,34 0.01265625,32.8320472 0.01265625,31.3913043 L1.44823042e-12,25 Z" id="Path" fill="#F7B600" fill-rule="nonzero"></path>
            <path d="M2.54450262,-2.99255385e-15 L51.4681566,-2.99255385e-15 C52.8664551,-2.99255385e-15 54,1.16798124 54,2.60871884 L54,9 L1.44823042e-12,9 L1.44823042e-12,2.60871884 C1.44823042e-12,1.91458639 0.268475647,1.24907248 0.746029864,0.759472241 C1.22358408,0.269872003 1.8708253,-0.00343800739 2.54450262,-2.99255385e-15 Z" id="Path" fill="#1A1F71" fill-rule="nonzero"></path>
            <polygon id="Path" fill="#1A1F71" fill-rule="nonzero" points="21.2979617 22.9362664 24.4065399 22.9362664 26.9690166 10.8800238 23.8604383 10.8800238"></polygon>
            <path d="M30.3716495,20.5838288 C29.24692,20.6087412 28.1341775,20.3486196 27.1370478,19.8276882 L26.5489384,22.4741805 C27.6510353,22.9368527 28.8412621,23.1519539 30.035587,23.1042977 C33.3121965,23.1463055 35.454595,21.5080007 35.4966028,18.9875319 C35.4966028,15.794938 31.0857823,15.6269068 31.1277901,14.1986411 C31.1277901,13.7365552 31.5478683,13.316477 32.4720402,13.1904536 C33.5381647,13.0973981 34.6100455,13.2857015 35.5806184,13.7365552 L36.12672,11.1740785 C35.1911114,10.8034749 34.1924589,10.6180108 33.186173,10.6279769 C30.0775948,10.6279769 27.9351963,12.2662817 27.8931885,14.6187193 C27.8511807,16.3830474 29.4474776,17.3072193 30.6236964,17.8953287 C31.7999152,18.4834381 32.2620011,18.9035163 32.2620011,19.40761 C32.2620011,20.2057585 31.2538136,20.5838288 30.3716495,20.5838288 Z" id="Path" fill="#1A1F71" fill-rule="nonzero"></path>
            <path d="M15.9629693,19.0715475 L14.7027349,12.1402582 C14.608304,11.4223739 13.9985248,10.8843335 13.2744692,10.8800238 L7.93947684,10.8800238 L7.85546121,11.2160863 C8.93039492,11.4182604 9.97506102,11.757071 10.9640394,12.2242739 C11.3541004,12.4424368 11.6186777,12.8315211 11.6781723,13.2744692 L14.1566333,22.9362664 L17.4752506,22.9362664 L22.5161883,10.8800238 L22.5161883,10.838016 L19.197571,10.838016 L15.9629693,19.0715475 Z" id="Path" fill="#1A1F71" fill-rule="nonzero"></path>
            <path d="M41.3356889,10.8800238 C40.7485813,10.8688024 40.2147851,11.2191062 39.9914389,11.7621879 L35.2865637,22.9362664 L38.5631732,22.9362664 L39.1932904,21.1299304 L43.2260406,21.1299304 L43.6461187,22.9362664 L46.5446579,22.9362664 L44.024189,10.8800238 L41.3356889,10.8800238 Z M40.1594701,18.6514694 L41.7977749,14.1146255 L42.7639546,18.6514694 L40.1594701,18.6514694 Z" id="Shape" fill="#1A1F71" fill-rule="nonzero"></path>
        </g>
    </g>
</svg>