<?xml version="1.0" encoding="UTF-8"?>
<svg width="68px" height="42px" viewBox="0 0 68 42" version="1.1" xmlns="http://www.w3.org/2000/svg" xmlns:xlink="http://www.w3.org/1999/xlink">
    <!-- Generator: Sketch 56.2 (81672) - https://sketch.com -->
    <title>xbox-small-card</title>
    <desc>Created with Sketch.</desc>
    <g id="xbox-small-card" stroke="none" stroke-width="1" fill="none" fill-rule="evenodd">
        <g id="ps-small-card" fill-rule="nonzero">
            <path d="M3.136,4.61852778e-14 L64.6931069,4.61852778e-14 C66.4250719,4.61852778e-14 67.8291069,1.40403502 67.8291069,3.136 L67.8291069,38.1146955 C67.8291069,39.8466605 66.4250719,41.2506955 64.6931069,41.2506955 L3.136,41.2506955 C1.40403502,41.2506955 -1.3500312e-13,39.8466605 -1.3500312e-13,38.1146955 L-1.3500312e-13,3.136 C-1.3500312e-13,1.40403502 1.40403502,4.61852778e-14 3.136,4.61852778e-14 Z M27.2764942,2.447442 C26.7937495,2.447442 26.4024077,2.83878383 26.4024077,3.32152843 C26.4024077,3.80427304 26.7937495,4.19561486 27.2764942,4.19561486 L40.5526128,4.19561486 C41.0353574,4.19561486 41.4266992,3.80427304 41.4266992,3.32152843 C41.4266992,2.83878383 41.0353574,2.447442 40.5526128,2.447442 L27.2764942,2.447442 Z" id="Shape" fill="#107D0F"></path>
            <path d="M32.6982069,30.5187629 C31.1846102,30.3744025 29.6513279,29.8297702 28.332399,28.9679824 C27.2278234,28.2461806 26.9784736,27.9508979 26.9784736,27.3581455 C26.9784736,26.1704532 28.2842789,24.0881641 30.5153029,21.7171543 C31.7839245,20.3697907 33.5490582,18.7905756 33.7393515,18.8321339 C34.1111888,18.9152505 37.0793257,21.8155818 38.1904632,23.1782563 C39.949035,25.3392874 40.7583281,27.1066085 40.3471198,27.8940287 C40.034339,28.493343 38.0985975,29.663537 36.6768665,30.1119291 C35.5044852,30.4837664 33.9646411,30.6412505 32.6982069,30.5187629 Z M25.488937,26.1245204 C24.5724673,24.7159131 24.1087642,23.3269912 23.8834746,21.3212568 C23.8091071,20.6585115 23.8353544,20.2801123 24.051895,18.9196251 C24.3209303,17.2244842 25.2833328,15.2646827 26.4425904,14.057305 C26.9369153,13.5432945 26.9806609,13.5301708 27.5821625,13.7335877 C28.3127135,13.9807502 29.0913846,14.5188207 30.3009497,15.6146472 L31.0074406,16.2533326 L30.6224796,16.727972 C28.8310985,18.9283742 26.9434772,22.0474332 26.2326117,23.9766129 C25.8454634,25.0243194 25.6901666,26.0785875 25.8563998,26.5160432 C25.967951,26.8113259 25.8651489,26.701962 25.488937,26.1245204 Z M41.5873066,26.3629338 C41.6769851,25.9211035 41.5632466,25.1074359 41.2942114,24.2872065 C40.7145826,22.5111363 38.770092,19.2039713 36.9852728,16.9576362 L36.4231421,16.2511453 L37.0312056,15.691202 C37.8251876,14.960651 38.3763818,14.5231953 38.9713216,14.1535452 C39.4415865,13.8604499 40.1108937,13.602351 40.3996145,13.602351 C40.576784,13.602351 41.2023457,14.2519727 41.707607,14.9628383 C42.4906527,16.0608521 43.065907,17.3950919 43.356815,18.7818265 C43.544921,19.6786107 43.5602319,21.5968539 43.3874369,22.4892635 C43.2452638,23.2220019 42.9434193,24.173468 42.650324,24.8209025 C42.4294089,25.304291 41.8825893,26.2426334 41.6419886,26.5488524 C41.519501,26.701962 41.519501,26.701962 41.5873066,26.3629338 L41.5873066,26.3629338 Z M32.8600655,13.2655101 C32.0354615,12.8455527 30.7646527,12.3971606 30.0625363,12.274673 C29.8153738,12.2331147 29.3976036,12.2090546 29.1285684,12.2221783 C28.5489396,12.2506129 28.5751869,12.2221783 29.5047803,11.7825353 C30.2768896,11.4172598 30.9221367,11.2029065 31.7970481,11.0191751 C32.7813235,10.8113837 34.6295738,10.8091964 35.5985382,11.0148006 C36.6440573,11.2357157 37.8754951,11.6950442 38.5688624,12.1215635 L38.7744665,12.2484256 L38.3020144,12.2243656 C37.3614847,12.1762455 35.9922483,12.5568319 34.5202099,13.2742593 C34.0761924,13.4907998 33.6912313,13.6635948 33.6627966,13.657033 C33.6365494,13.6526584 33.2734611,13.4754889 32.8600655,13.2655101 Z" id="path4148" fill="#FFFFFF"></path>
        </g>
    </g>
</svg>