<?xml version="1.0" encoding="UTF-8"?>
<svg width="153px" height="104px" viewBox="0 0 153 104" version="1.1" xmlns="http://www.w3.org/2000/svg" xmlns:xlink="http://www.w3.org/1999/xlink">
    <!-- Generator: Sketch 56.2 (81672) - https://sketch.com -->
    <title>xbox-card</title>
    <desc>Created with Sketch.</desc>
    <defs>
        <path d="M7.37845627,0.604408063 L138.578456,0.604408063 C142.113079,0.604408063 144.978456,3.46978566 144.978456,7.00440806 L144.978456,90.2044081 C144.978456,93.7390305 142.113079,96.6044081 138.578456,96.6044081 L7.37845627,96.6044081 C3.84383387,96.6044081 0.978456273,93.7390305 0.978456273,90.2044081 L0.978456273,7.00440806 C0.978456273,3.46978566 3.84383387,0.604408063 7.37845627,0.604408063 Z M70.7657518,7.38825885 L59.0303031,7.38825885 C57.9257336,7.38825885 57.0303031,8.28368935 57.0303031,9.38825885 L57.0303031,9.45666527 C57.0303031,10.5612348 57.9257336,11.4566653 59.0303031,11.4566653 L86.9266094,11.4566653 C88.0311789,11.4566653 88.9266094,10.5612348 88.9266094,9.45666527 L88.9266094,9.38825885 C88.9266094,8.28368935 88.0311789,7.38825885 86.9266094,7.38825885 L75.1911607,7.38825885 L75.1911607,6.0355086 C75.1911607,4.9309391 74.2957302,4.0355086 73.1911607,4.0355086 L72.7657518,4.0355086 C71.6611823,4.0355086 70.7657518,4.9309391 70.7657518,6.0355086 L70.7657518,7.38825885 Z" id="path-1"></path>
        <filter x="-4.9%" y="-5.2%" width="109.7%" height="114.6%" filterUnits="objectBoundingBox" id="filter-2">
            <feOffset dx="0" dy="2" in="SourceAlpha" result="shadowOffsetOuter1"></feOffset>
            <feGaussianBlur stdDeviation="2" in="shadowOffsetOuter1" result="shadowBlurOuter1"></feGaussianBlur>
            <feColorMatrix values="0 0 0 0 0.818090074   0 0 0 0 0.847293774   0 0 0 0 0.866762908  0 0 0 0.880162806 0" type="matrix" in="shadowBlurOuter1"></feColorMatrix>
        </filter>
    </defs>
    <g id="Desktop-Ar" stroke="none" stroke-width="1" fill="none" fill-rule="evenodd">
        <g id="Welcome" transform="translate(-987.000000, -420.000000)" fill-rule="nonzero">
            <g id="xbox-card" transform="translate(990.521544, 421.395592)">
                <g id="Combined-Shape">
                    <use fill="black" fill-opacity="1" filter="url(#filter-2)" xlink:href="#path-1"></use>
                    <use fill="#FFFFFF" xlink:href="#path-1"></use>
                </g>
                <path d="M71.1190096,72.4483187 C68.2434858,72.1740635 65.3305635,71.1393736 62.8248686,69.5021534 C60.7264011,68.1308776 60.2526876,67.5699011 60.2526876,66.4437928 C60.2526876,64.1874207 62.7334502,60.2314977 66.9719391,55.7270645 C69.3820603,53.1673495 72.7354529,50.1671643 73.0969712,50.2461166 C73.803386,50.404021 79.4422382,55.9140567 81.553172,58.5028592 C84.8940985,62.6083759 86.4315896,65.965924 85.6503779,67.4618613 C85.0561584,68.6004356 81.378646,70.8235646 78.6776482,71.6754177 C76.4503637,72.3818326 73.5249753,72.6810201 71.1190096,72.4483187 Z M57.4228729,64.1001578 C55.6817682,61.4240923 54.8008274,58.7854251 54.3728231,54.9749404 C54.2315401,53.71586 54.2814047,52.996979 54.6927874,50.4123318 C55.2038993,47.1919113 57.0322671,43.4686897 59.2346192,41.1749192 C60.1737354,40.1984046 60.256843,40.1734724 61.3995728,40.5599228 C62.7874702,41.0294809 64.2667859,42.0517047 66.5647118,44.1335507 L67.9068999,45.346922 L67.1755528,46.2486398 C63.7722955,50.4289533 60.1862015,56.3545269 58.8357026,60.0195733 C58.1002001,62.010001 57.805168,64.0128946 58.120977,64.8439709 C58.3329014,65.4049475 58.1375985,65.1971784 57.4228729,64.1001578 Z M88.0064791,64.5530943 C88.1768498,63.7137073 87.96077,62.1679054 87.4496581,60.6096375 C86.348482,57.2354679 82.6543481,50.9525314 79.263557,46.6849548 L78.1956239,45.3427667 L79.3508199,44.278989 C80.8592233,42.8910917 81.9063794,42.0600154 83.0366432,41.357756 C83.9300502,40.8009349 85.2015967,40.3105999 85.7501072,40.3105999 C86.086693,40.3105999 87.275132,41.5447482 88.2350251,42.8952471 C89.7226516,44.9812485 90.8155169,47.5160311 91.3681826,50.1505428 C91.7255454,51.8542491 91.754633,55.4985184 91.4263579,57.193914 C91.1562582,58.5859668 90.5828155,60.3935577 90.0259944,61.6235506 C89.6063009,62.5418898 88.5674556,64.3245483 88.1103637,64.9063017 C87.8776622,65.1971784 87.8776622,65.1971784 88.0064791,64.5530943 L88.0064791,64.5530943 Z M71.4265078,39.6706712 C69.8599291,38.872838 67.4456526,38.0209848 66.1117752,37.7882835 C65.6422171,37.7093312 64.8485393,37.6636221 64.3374274,37.6885543 C63.2362514,37.7425743 63.2861159,37.6885543 65.052153,36.8533227 C66.5190026,36.159374 67.74484,35.7521467 69.4069925,35.4030946 C71.2769141,35.0083334 74.7882113,35.004178 76.6290452,35.3947839 C78.6153175,35.8144774 80.9547972,36.6871075 82.272053,37.4974068 L82.6626588,37.7384189 L81.7650964,37.6927097 C79.9782826,37.6012913 77.3770139,38.3243277 74.5804423,39.6872927 C73.7368999,40.0986755 73.0055527,40.4269506 72.9515327,40.4144845 C72.9016682,40.4061737 72.2118749,40.0695878 71.4265078,39.6706712 Z" id="path4148" fill="#107D0F"></path>
            </g>
        </g>
    </g>
</svg>