<svg xmlns="http://www.w3.org/2000/svg" width="25" height="24" viewBox="0 0 25 24"><g><g><path fill="#107d0f" d="M12.4 3.634c.034.008.496-.2 1.03-.46 1.766-.86 3.409-1.317 4.537-1.26l.567.03-.246-.152c-.833-.512-2.31-1.063-3.565-1.329C13.56.217 11.343.22 10.161.47a11.45 11.45 0 0 0-2.75.916c-1.116.527-1.147.561-.452.527.323-.015.824.013 1.12.063.843.147 2.368.685 3.358 1.19.496.251.932.464.963.47zm9.51 15.247c-.082.407-.082.407.065.223.289-.367.945-1.493 1.21-2.073.352-.777.714-1.919.885-2.798.207-1.071.189-3.373-.037-4.45-.349-1.663-1.04-3.264-1.979-4.582-.606-.853-1.357-1.633-1.57-1.633-.346 0-1.15.31-1.714.662-.713.443-1.375.968-2.328 1.845l-.73.672.675.848c2.142 2.695 4.475 6.664 5.17 8.795.324.985.46 1.961.353 2.491zm-18.877.184c-.2-.525-.014-1.79.451-3.047.853-2.315 3.118-6.058 5.268-8.699l.462-.57-.848-.766C6.915 4.668 5.98 4.023 5.103 3.726c-.721-.244-.774-.228-1.367.388C2.345 5.564 1.19 7.915.867 9.95c-.26 1.633-.291 2.087-.202 2.882.27 2.407.827 4.074 1.927 5.764.451.693.574.824.44.47zm12.984 4.325c1.706-.539 4.03-1.944 4.404-2.664.494-.945-.477-3.068-2.588-5.663-1.333-1.636-4.895-5.119-5.34-5.219-.23-.05-2.347 1.847-3.87 3.465-2.677 2.847-4.244 5.347-4.244 6.774 0 .712.3 1.066 1.625 1.933 1.582 1.035 3.422 1.689 5.239 1.862 1.52.147 3.367-.042 4.774-.488z"/></g></g></svg>